<svg width="954" height="394" viewBox="0 0 954 394" fill="none" xmlns="http://www.w3.org/2000/svg">
<path fill-rule="evenodd" clip-rule="evenodd" d="M465.707 29.707L466.414 28.9999L465 27.5857L464.293 28.2928L432 60.5857V53.9999C432 53.4476 431.552 52.9999 431 52.9999C430.448 52.9999 430 53.4476 430 53.9999V62.9999C430 63.5522 430.448 63.9999 431 63.9999H440C440.552 63.9999 441 63.5522 441 62.9999C441 62.4476 440.552 61.9999 440 61.9999H433.414L465.707 29.707ZM517.586 59.0001L518.293 59.7072L591.607 133.021C594.42 135.834 596 139.649 596 143.627V235.586L591.343 230.929C590.953 230.538 590.319 230.538 589.929 230.929C589.538 231.32 589.538 231.953 589.929 232.343L596.293 238.707C596.683 239.098 597.317 239.098 597.707 238.707L604.071 232.343C604.462 231.953 604.462 231.32 604.071 230.929C603.681 230.538 603.047 230.538 602.657 230.929L598 235.586V143.627C598 139.119 596.209 134.795 593.021 131.607L519.707 58.2929L519 57.5858L517.586 59.0001ZM405.983 89.4312L405.707 89.7071L373.414 122H380C380.552 122 381 122.448 381 123C381 123.552 380.552 124 380 124H371C370.448 124 370 123.552 370 123V114C370 113.448 370.448 113 371 113C371.552 113 372 113.448 372 114V120.586L404.293 88.2929L404.585 88.0009C404.294 87.665 404.016 87.3162 403.75 86.9545C402.75 85.5908 401.975 84.0908 401.424 82.4545C400.872 80.8124 400.597 79.0851 400.597 77.2726C400.597 75.4601 400.872 73.7357 401.424 72.0993C401.975 70.4573 402.75 68.9545 403.75 67.5908C404.756 66.2215 405.941 65.0368 407.304 64.0368C408.674 63.0312 410.176 62.2527 411.813 61.7016C413.455 61.1505 415.182 60.8749 416.995 60.8749C418.807 60.8749 420.532 61.1505 422.168 61.7016C423.81 62.2527 425.313 63.0312 426.676 64.0368C428.046 65.0368 429.23 66.2215 430.23 67.5908C431.236 68.9545 432.015 70.4573 432.566 72.0993C433.117 73.7357 433.392 75.4601 433.392 77.2726C433.392 79.0851 433.117 80.8124 432.566 82.4545C432.015 84.0908 431.236 85.5908 430.23 86.9545C429.969 87.3131 429.694 87.6591 429.407 87.9924L429.707 88.2928L462 120.586V114C462 113.448 462.448 113 463 113C463.552 113 464 113.448 464 114V123C464 123.552 463.552 124 463 124H454C453.448 124 453 123.552 453 123C453 122.448 453.448 122 454 122H460.586L428.293 89.707L428.01 89.4239C427.587 89.8067 427.142 90.1683 426.676 90.5084C425.313 91.5141 423.81 92.2925 422.168 92.8437C420.837 93.292 419.448 93.5579 418 93.6416V175.586L422.657 170.929C423.047 170.538 423.681 170.538 424.071 170.929C424.462 171.319 424.462 171.953 424.071 172.343L417.707 178.707C417.317 179.098 416.683 179.098 416.293 178.707L409.929 172.343C409.538 171.953 409.538 171.319 409.929 170.929C410.319 170.538 410.953 170.538 411.343 170.929L416 175.586V93.6422C414.548 93.5593 413.152 93.2931 411.813 92.8437C410.176 92.2925 408.674 91.5141 407.304 90.5084C406.843 90.1704 406.403 89.8114 405.983 89.4312ZM356 153.642C354.548 153.559 353.152 153.293 351.813 152.844C350.176 152.293 348.674 151.514 347.304 150.508C345.941 149.508 344.756 148.324 343.75 146.955C342.75 145.591 341.975 144.091 341.424 142.455C340.872 140.812 340.597 139.085 340.597 137.273C340.597 135.46 340.872 133.736 341.424 132.099C341.975 130.457 342.75 128.955 343.75 127.591C344.756 126.222 345.941 125.037 347.304 124.037C348.674 123.031 350.176 122.253 351.813 121.702C353.455 121.151 355.182 120.875 356.995 120.875C358.807 120.875 360.532 121.151 362.168 121.702C363.81 122.253 365.313 123.031 366.676 124.037C368.046 125.037 369.23 126.222 370.23 127.591C371.236 128.955 372.015 130.457 372.566 132.099C373.117 133.736 373.392 135.46 373.392 137.273C373.392 139.085 373.117 140.812 372.566 142.455C372.015 144.091 371.236 145.591 370.23 146.955C369.969 147.313 369.694 147.659 369.407 147.992L369.707 148.293L402 180.586V174C402 173.448 402.448 173 403 173C403.552 173 404 173.448 404 174V183C404 183.552 403.552 184 403 184H394C393.448 184 393 183.552 393 183C393 182.448 393.448 182 394 182H400.586L368.293 149.707L368.01 149.424C367.587 149.807 367.142 150.168 366.676 150.508C365.313 151.514 363.81 152.293 362.168 152.844C360.837 153.292 359.448 153.558 358 153.642V235.586L362.657 230.929C363.047 230.538 363.681 230.538 364.071 230.929C364.462 231.319 364.462 231.953 364.071 232.343L357.707 238.707C357.317 239.098 356.683 239.098 356.293 238.707L349.929 232.343C349.538 231.953 349.538 231.319 349.929 230.929C350.319 230.538 350.953 230.538 351.343 230.929L356 235.586V153.642ZM356.995 151.693C358.591 151.693 360.108 151.449 361.546 150.96C362.989 150.477 364.31 149.793 365.509 148.906C366.713 148.026 367.756 146.986 368.637 145.787C369.523 144.582 370.208 143.261 370.691 141.824C371.174 140.381 371.415 138.864 371.415 137.273C371.415 135.676 371.174 134.159 370.691 132.722C370.208 131.278 369.523 129.957 368.637 128.758C367.756 127.554 366.713 126.511 365.509 125.631C364.31 124.744 362.989 124.06 361.546 123.577C360.108 123.094 358.591 122.852 356.995 122.852C355.398 122.852 353.878 123.094 352.435 123.577C350.997 124.06 349.676 124.744 348.472 125.631C347.273 126.511 346.23 127.554 345.344 128.758C344.463 129.957 343.782 131.278 343.299 132.722C342.816 134.159 342.574 135.676 342.574 137.273C342.574 138.864 342.816 140.381 343.299 141.824C343.782 143.261 344.463 144.582 345.344 145.787C346.23 146.986 347.273 148.026 348.472 148.906C349.676 149.793 350.997 150.477 352.435 150.96C353.878 151.449 355.398 151.693 356.995 151.693ZM416.995 213.67C415.182 213.67 413.455 213.395 411.813 212.844C410.176 212.293 408.674 211.514 407.304 210.508C405.941 209.508 404.756 208.324 403.75 206.955C402.75 205.591 401.975 204.091 401.424 202.455C400.872 200.812 400.597 199.085 400.597 197.273C400.597 195.46 400.872 193.736 401.424 192.099C401.975 190.457 402.75 188.955 403.75 187.591C404.756 186.222 405.941 185.037 407.304 184.037C408.674 183.031 410.176 182.253 411.813 181.702C413.455 181.151 415.182 180.875 416.995 180.875C418.807 180.875 420.532 181.151 422.168 181.702C423.81 182.253 425.313 183.031 426.676 184.037C428.046 185.037 429.23 186.222 430.23 187.591C431.236 188.955 432.015 190.457 432.566 192.099C433.117 193.736 433.392 195.46 433.392 197.273C433.392 199.085 433.117 200.812 432.566 202.455C432.015 204.091 431.236 205.591 430.23 206.955C429.969 207.313 429.694 207.659 429.407 207.992L429.707 208.293L462 240.586V234C462 233.448 462.448 233 463 233C463.552 233 464 233.448 464 234V243C464 243.552 463.552 244 463 244H454C453.448 244 453 243.552 453 243C453 242.448 453.448 242 454 242H460.586L428.293 209.707L428.01 209.424C427.587 209.807 427.142 210.168 426.676 210.508C425.313 211.514 423.81 212.293 422.168 212.844C420.532 213.395 418.807 213.67 416.995 213.67ZM416.995 211.693C418.591 211.693 420.108 211.449 421.546 210.96C422.989 210.477 424.31 209.793 425.509 208.906C426.713 208.026 427.756 206.986 428.637 205.787C429.523 204.582 430.208 203.261 430.691 201.824C431.174 200.381 431.415 198.864 431.415 197.273C431.415 195.676 431.174 194.159 430.691 192.722C430.208 191.278 429.523 189.957 428.637 188.758C427.756 187.554 426.713 186.511 425.509 185.631C424.31 184.744 422.989 184.06 421.546 183.577C420.108 183.094 418.591 182.852 416.995 182.852C415.398 182.852 413.878 183.094 412.435 183.577C410.997 184.06 409.676 184.744 408.472 185.631C407.273 186.511 406.23 187.554 405.344 188.758C404.463 189.957 403.782 191.278 403.299 192.722C402.816 194.159 402.574 195.676 402.574 197.273C402.574 198.864 402.816 200.381 403.299 201.824C403.782 203.261 404.463 204.582 405.344 205.787C406.23 206.986 407.273 208.026 408.472 208.906C409.676 209.793 410.997 210.477 412.435 210.96C413.878 211.449 415.398 211.693 416.995 211.693ZM351.813 272.844C353.455 273.395 355.182 273.67 356.995 273.67C358.807 273.67 360.532 273.395 362.168 272.844C363.81 272.293 365.313 271.514 366.676 270.508C367.142 270.168 367.587 269.807 368.01 269.424L368.293 269.707L460.586 362H454C453.448 362 453 362.448 453 363C453 363.552 453.448 364 454 364H463C463.552 364 464 363.552 464 363V354C464 353.448 463.552 353 463 353C462.448 353 462 353.448 462 354V360.586L369.707 268.293L369.407 267.992C369.694 267.659 369.969 267.313 370.23 266.955C371.236 265.591 372.015 264.091 372.566 262.455C373.117 260.812 373.392 259.085 373.392 257.273C373.392 255.46 373.117 253.736 372.566 252.099C372.015 250.457 371.236 248.955 370.23 247.591C369.23 246.222 368.046 245.037 366.676 244.037C365.313 243.031 363.81 242.253 362.168 241.702C360.532 241.151 358.807 240.875 356.995 240.875C355.182 240.875 353.455 241.151 351.813 241.702C350.176 242.253 348.674 243.031 347.304 244.037C345.941 245.037 344.756 246.222 343.75 247.591C342.75 248.955 341.975 250.457 341.424 252.099C340.872 253.736 340.597 255.46 340.597 257.273C340.597 259.085 340.872 260.812 341.424 262.455C341.975 264.091 342.75 265.591 343.75 266.955C344.756 268.324 345.941 269.508 347.304 270.508C348.674 271.514 350.176 272.293 351.813 272.844ZM361.546 270.96C360.108 271.449 358.591 271.693 356.995 271.693C355.398 271.693 353.878 271.449 352.435 270.96C350.997 270.477 349.676 269.793 348.472 268.906C347.273 268.026 346.23 266.986 345.344 265.787C344.463 264.582 343.782 263.261 343.299 261.824C342.816 260.381 342.574 258.864 342.574 257.273C342.574 255.676 342.816 254.159 343.299 252.722C343.782 251.278 344.463 249.957 345.344 248.758C346.23 247.554 347.273 246.511 348.472 245.631C349.676 244.744 350.997 244.06 352.435 243.577C353.878 243.094 355.398 242.852 356.995 242.852C358.591 242.852 360.108 243.094 361.546 243.577C362.989 244.06 364.31 244.744 365.509 245.631C366.713 246.511 367.756 247.554 368.637 248.758C369.523 249.957 370.208 251.278 370.691 252.722C371.174 254.159 371.415 255.676 371.415 257.273C371.415 258.864 371.174 260.381 370.691 261.824C370.208 263.261 369.523 264.582 368.637 265.787C367.756 266.986 366.713 268.026 365.509 268.906C364.31 269.793 362.989 270.477 361.546 270.96ZM476 273.642C474.548 273.559 473.152 273.293 471.813 272.844C470.176 272.293 468.674 271.514 467.304 270.508C465.941 269.508 464.756 268.324 463.75 266.955C462.75 265.591 461.975 264.091 461.424 262.455C460.872 260.812 460.597 259.085 460.597 257.273C460.597 255.46 460.872 253.736 461.424 252.099C461.975 250.457 462.75 248.955 463.75 247.591C464.756 246.222 465.941 245.037 467.304 244.037C468.674 243.031 470.176 242.253 471.813 241.702C473.455 241.151 475.182 240.875 476.995 240.875C478.807 240.875 480.532 241.151 482.168 241.702C483.81 242.253 485.313 243.031 486.676 244.037C488.046 245.037 489.23 246.222 490.23 247.591C491.236 248.955 492.015 250.457 492.566 252.099C493.117 253.736 493.392 255.46 493.392 257.273C493.392 259.085 493.117 260.812 492.566 262.455C492.015 264.091 491.236 265.591 490.23 266.955C489.23 268.324 488.046 269.508 486.676 270.508C485.313 271.514 483.81 272.293 482.168 272.844C480.837 273.292 479.448 273.558 478 273.642V355.586L482.657 350.929C483.047 350.538 483.681 350.538 484.071 350.929C484.462 351.319 484.462 351.953 484.071 352.343L477.707 358.707C477.317 359.098 476.683 359.098 476.293 358.707L469.929 352.343C469.538 351.953 469.538 351.319 469.929 350.929C470.319 350.538 470.953 350.538 471.343 350.929L476 355.586V273.642ZM476.995 271.693C478.591 271.693 480.108 271.449 481.546 270.96C482.989 270.477 484.31 269.793 485.509 268.906C486.713 268.026 487.756 266.986 488.637 265.787C489.523 264.582 490.208 263.261 490.691 261.824C491.174 260.381 491.415 258.864 491.415 257.273C491.415 255.676 491.174 254.159 490.691 252.722C490.208 251.278 489.523 249.957 488.637 248.758C487.756 247.554 486.713 246.511 485.509 245.631C484.31 244.744 482.989 244.06 481.546 243.577C480.108 243.094 478.591 242.852 476.995 242.852C475.398 242.852 473.878 243.094 472.435 243.577C470.997 244.06 469.676 244.744 468.472 245.631C467.273 246.511 466.23 247.554 465.344 248.758C464.463 249.957 463.782 251.278 463.299 252.722C462.816 254.159 462.574 255.676 462.574 257.273C462.574 258.864 462.816 260.381 463.299 261.824C463.782 263.261 464.463 264.582 465.344 265.787C466.23 266.986 467.273 268.026 468.472 268.906C469.676 269.793 470.997 270.477 472.435 270.96C473.878 271.449 475.398 271.693 476.995 271.693ZM471.813 392.844C473.455 393.395 475.182 393.67 476.995 393.67C478.807 393.67 480.532 393.395 482.168 392.844C483.81 392.293 485.313 391.514 486.676 390.508C488.046 389.508 489.23 388.324 490.23 386.955C491.236 385.591 492.015 384.091 492.566 382.455C493.117 380.812 493.392 379.085 493.392 377.273C493.392 375.46 493.117 373.736 492.566 372.099C492.015 370.457 491.236 368.955 490.23 367.591C489.23 366.222 488.046 365.037 486.676 364.037C485.313 363.031 483.81 362.253 482.168 361.702C480.532 361.151 478.807 360.875 476.995 360.875C475.182 360.875 473.455 361.151 471.813 361.702C470.176 362.253 468.674 363.031 467.304 364.037C465.941 365.037 464.756 366.222 463.75 367.591C462.75 368.955 461.975 370.457 461.424 372.099C460.872 373.736 460.597 375.46 460.597 377.273C460.597 379.085 460.872 380.812 461.424 382.455C461.975 384.091 462.75 385.591 463.75 386.955C464.756 388.324 465.941 389.508 467.304 390.508C468.674 391.514 470.176 392.293 471.813 392.844ZM481.546 390.96C480.108 391.449 478.591 391.693 476.995 391.693C475.398 391.693 473.878 391.449 472.435 390.96C470.997 390.477 469.676 389.793 468.472 388.906C467.273 388.026 466.23 386.986 465.344 385.787C464.463 384.582 463.782 383.261 463.299 381.824C462.816 380.381 462.574 378.864 462.574 377.273C462.574 375.676 462.816 374.159 463.299 372.722C463.782 371.278 464.463 369.957 465.344 368.758C466.23 367.554 467.273 366.511 468.472 365.631C469.676 364.744 470.997 364.06 472.435 363.577C473.878 363.094 475.398 362.852 476.995 362.852C478.591 362.852 480.108 363.094 481.546 363.577C482.989 364.06 484.31 364.744 485.509 365.631C486.713 366.511 487.756 367.554 488.637 368.758C489.523 369.957 490.208 371.278 490.691 372.722C491.174 374.159 491.415 375.676 491.415 377.273C491.415 378.864 491.174 380.381 490.691 381.824C490.208 383.261 489.523 384.582 488.637 385.787C487.756 386.986 486.713 388.026 485.509 388.906C484.31 389.793 482.989 390.477 481.546 390.96ZM585.707 269.707L586.414 269L585 267.586L584.293 268.293L492 360.586V354C492 353.448 491.552 353 491 353C490.448 353 490 353.448 490 354V363C490 363.552 490.448 364 491 364H500C500.552 364 501 363.552 501 363C501 362.448 500.552 362 500 362H493.414L585.707 269.707ZM421.546 90.9601C420.108 91.4488 418.591 91.6931 416.995 91.6931C415.398 91.6931 413.878 91.4488 412.435 90.9601C410.997 90.4772 409.676 89.7925 408.472 88.9062C407.273 88.0255 406.23 86.9857 405.344 85.7868C404.463 84.5823 403.782 83.2613 403.299 81.8238C402.816 80.3806 402.574 78.8635 402.574 77.2726C402.574 75.676 402.816 74.159 403.299 72.7215C403.782 71.2783 404.463 69.9573 405.344 68.7584C406.23 67.5539 407.273 66.5113 408.472 65.6306C409.676 64.7442 410.997 64.0596 412.435 63.5766C413.878 63.0937 415.398 62.8522 416.995 62.8522C418.591 62.8522 420.108 63.0937 421.546 63.5766C422.989 64.0596 424.31 64.7442 425.509 65.6306C426.713 66.5113 427.756 67.5539 428.637 68.7584C429.523 69.9573 430.208 71.2783 430.691 72.7215C431.174 74.159 431.415 75.676 431.415 77.2726C431.415 78.8635 431.174 80.3806 430.691 81.8238C430.208 83.2613 429.523 84.5823 428.637 85.7868C427.756 86.9857 426.713 88.0255 425.509 88.9062C424.31 89.7925 422.989 90.4772 421.546 90.9601ZM476.995 153.67C475.182 153.67 473.455 153.395 471.813 152.844C470.177 152.293 468.674 151.514 467.304 150.508C465.941 149.508 464.756 148.324 463.75 146.954C462.75 145.591 461.975 144.091 461.424 142.454C460.872 140.812 460.597 139.085 460.597 137.273C460.597 135.46 460.872 133.736 461.424 132.099C461.975 130.457 462.75 128.954 463.75 127.591C464.756 126.221 465.941 125.037 467.304 124.037C468.674 123.031 470.177 122.253 471.813 121.702C473.455 121.15 475.182 120.875 476.995 120.875C478.807 120.875 480.532 121.15 482.168 121.702C483.81 122.253 485.313 123.031 486.677 124.037C488.046 125.037 489.23 126.221 490.23 127.591C491.236 128.954 492.015 130.457 492.566 132.099C493.117 133.736 493.392 135.46 493.392 137.273C493.392 139.085 493.117 140.812 492.566 142.454C492.015 144.091 491.236 145.591 490.23 146.954C489.969 147.313 489.694 147.659 489.407 147.992L489.707 148.293L522 180.586V174C522 173.448 522.448 173 523 173C523.552 173 524 173.448 524 174V183C524 183.552 523.552 184 523 184H514C513.448 184 513 183.552 513 183C513 182.448 513.448 182 514 182H520.586L488.293 149.707L488.01 149.424C487.587 149.807 487.142 150.168 486.677 150.508C485.313 151.514 483.81 152.293 482.168 152.844C480.532 153.395 478.807 153.67 476.995 153.67ZM476.995 151.693C478.591 151.693 480.108 151.449 481.546 150.96C482.989 150.477 484.31 149.793 485.509 148.906C486.713 148.025 487.756 146.986 488.637 145.787C489.523 144.582 490.208 143.261 490.691 141.824C491.174 140.381 491.415 138.864 491.415 137.273C491.415 135.676 491.174 134.159 490.691 132.721C490.208 131.278 489.523 129.957 488.637 128.758C487.756 127.554 486.713 126.511 485.509 125.631C484.31 124.744 482.989 124.06 481.546 123.577C480.108 123.094 478.591 122.852 476.995 122.852C475.398 122.852 473.878 123.094 472.435 123.577C470.997 124.06 469.677 124.744 468.472 125.631C467.273 126.511 466.23 127.554 465.344 128.758C464.463 129.957 463.782 131.278 463.299 132.721C462.816 134.159 462.574 135.676 462.574 137.273C462.574 138.864 462.816 140.381 463.299 141.824C463.782 143.261 464.463 144.582 465.344 145.787C466.23 146.986 467.273 148.025 468.472 148.906C469.677 149.793 470.997 150.477 472.435 150.96C473.878 151.449 475.398 151.693 476.995 151.693ZM147.586 29.0002L148.293 29.7073L177.586 59.0002L178.293 59.7073L191.607 73.021C194.42 75.834 196 79.6493 196 83.6276V175.586L191.343 170.929C190.953 170.539 190.319 170.539 189.929 170.929C189.538 171.32 189.538 171.953 189.929 172.343L196.293 178.707C196.683 179.098 197.317 179.098 197.707 178.707L204.071 172.343C204.462 171.953 204.462 171.32 204.071 170.929C203.681 170.539 203.047 170.539 202.657 170.929L198 175.586V83.6276C198 81.9349 197.748 80.2682 197.264 78.6779L251.607 133.021C254.42 135.834 256 139.649 256 143.628V235.586L251.343 230.929C250.953 230.539 250.319 230.539 249.929 230.929C249.538 231.32 249.538 231.953 249.929 232.343L256.293 238.707C256.683 239.098 257.317 239.098 257.707 238.707L264.071 232.343C264.462 231.953 264.462 231.32 264.071 230.929C263.681 230.539 263.047 230.539 262.657 230.929L258 235.586V143.628C258 139.119 256.209 134.795 253.021 131.607L193.021 71.6068L179.707 58.293L179 57.5859L149.707 28.293L149 27.5859L147.586 29.0002ZM66.4142 89.0001L65.7071 89.7072L33.4142 122H40C40.5523 122 41 122.448 41 123C41 123.552 40.5523 124 40 124H31C30.4477 124 30 123.552 30 123V114C30 113.448 30.4477 113 31 113C31.5523 113 32 113.448 32 114V120.586L64.2929 88.293L65 87.5858L66.4142 89.0001ZM16 153.642C14.5476 153.559 13.1519 153.293 11.8128 152.844C10.1765 152.293 8.67363 151.514 7.30431 150.509C5.94067 149.509 4.75601 148.324 3.75033 146.955C2.75033 145.591 1.97476 144.091 1.42363 142.455C0.872491 140.813 0.596924 139.085 0.596924 137.273C0.596924 135.46 0.872491 133.736 1.42363 132.099C1.97476 130.457 2.75033 128.955 3.75033 127.591C4.75601 126.222 5.94067 125.037 7.30431 124.037C8.67363 123.031 10.1765 122.253 11.8128 121.702C13.4549 121.151 15.1822 120.875 16.9947 120.875C18.8072 120.875 20.5316 121.151 22.1679 121.702C23.81 122.253 25.3128 123.031 26.6765 124.037C28.0458 125.037 29.2304 126.222 30.2304 127.591C31.2361 128.955 32.0145 130.457 32.5657 132.099C33.1168 133.736 33.3924 135.46 33.3924 137.273C33.3924 139.085 33.1168 140.813 32.5657 142.455C32.0145 144.091 31.2361 145.591 30.2304 146.955C29.9685 147.313 29.6939 147.659 29.4067 147.993L29.7071 148.293L62 180.586V174C62 173.448 62.4477 173 63 173C63.5523 173 64 173.448 64 174V183C64 183.552 63.5523 184 63 184H54C53.4477 184 53 183.552 53 183C53 182.448 53.4477 182 54 182H60.5858L28.2929 149.707L28.0097 149.424C27.5867 149.807 27.1423 150.168 26.6765 150.509C25.3128 151.514 23.81 152.293 22.1679 152.844C20.8369 153.292 19.4476 153.558 18 153.642V235.586L22.6568 230.929C23.0474 230.538 23.6805 230.538 24.071 230.929C24.4616 231.32 24.4616 231.953 24.071 232.343L17.7071 238.707C17.3166 239.098 16.6834 239.098 16.2929 238.707L9.92891 232.343C9.53839 231.953 9.53839 231.32 9.92891 230.929C10.3194 230.538 10.9526 230.538 11.3431 230.929L16 235.586V153.642ZM16.9947 151.693C18.5912 151.693 20.1083 151.449 21.5458 150.96C22.989 150.477 24.31 149.793 25.5089 148.906C26.7134 148.026 27.756 146.986 28.6367 145.787C29.5231 144.582 30.2077 143.261 30.6907 141.824C31.1736 140.381 31.4151 138.864 31.4151 137.273C31.4151 135.676 31.1736 134.159 30.6907 132.722C30.2077 131.278 29.5231 129.957 28.6367 128.759C27.756 127.554 26.7134 126.511 25.5089 125.631C24.31 124.744 22.989 124.06 21.5458 123.577C20.1083 123.094 18.5912 122.852 16.9947 122.852C15.3981 122.852 13.8782 123.094 12.435 123.577C10.9975 124.06 9.67647 124.744 8.47192 125.631C7.27306 126.511 6.23045 127.554 5.34408 128.759C4.4634 129.957 3.78158 131.278 3.29863 132.722C2.81567 134.159 2.5742 135.676 2.5742 137.273C2.5742 138.864 2.81567 140.381 3.29863 141.824C3.78158 143.261 4.4634 144.582 5.34408 145.787C6.23045 146.986 7.27306 148.026 8.47192 148.906C9.67647 149.793 10.9975 150.477 12.435 150.96C13.8782 151.449 15.3981 151.693 16.9947 151.693ZM76.9947 213.671C75.1822 213.671 73.4549 213.395 71.8128 212.844C70.1765 212.293 68.6736 211.514 67.3043 210.509C65.9407 209.509 64.756 208.324 63.7503 206.955C62.7503 205.591 61.9748 204.091 61.4236 202.455C60.8725 200.813 60.5969 199.085 60.5969 197.273C60.5969 195.46 60.8725 193.736 61.4236 192.099C61.9748 190.457 62.7503 188.955 63.7503 187.591C64.756 186.222 65.9407 185.037 67.3043 184.037C68.6736 183.031 70.1765 182.253 71.8128 181.702C73.4549 181.151 75.1822 180.875 76.9947 180.875C78.8072 180.875 80.5316 181.151 82.1679 181.702C83.81 182.253 85.3128 183.031 86.6765 184.037C88.0458 185.037 89.2304 186.222 90.2304 187.591C91.2361 188.955 92.0145 190.457 92.5657 192.099C93.1168 193.736 93.3924 195.46 93.3924 197.273C93.3924 199.085 93.1168 200.813 92.5657 202.455C92.0145 204.091 91.2361 205.591 90.2304 206.955C89.9685 207.313 89.6939 207.659 89.4067 207.993L89.7071 208.293L122 240.586V234C122 233.448 122.448 233 123 233C123.552 233 124 233.448 124 234V243C124 243.552 123.552 244 123 244H114C113.448 244 113 243.552 113 243C113 242.448 113.448 242 114 242H120.586L88.2929 209.707L88.0097 209.424C87.5867 209.807 87.1423 210.168 86.6765 210.509C85.3128 211.514 83.81 212.293 82.1679 212.844C80.5316 213.395 78.8072 213.671 76.9947 213.671ZM76.9947 211.693C78.5912 211.693 80.1083 211.449 81.5458 210.96C82.989 210.477 84.31 209.793 85.5089 208.906C86.7134 208.026 87.756 206.986 88.6367 205.787C89.5231 204.582 90.2077 203.261 90.6907 201.824C91.1736 200.381 91.4151 198.864 91.4151 197.273C91.4151 195.676 91.1736 194.159 90.6907 192.722C90.2077 191.278 89.5231 189.957 88.6367 188.759C87.756 187.554 86.7134 186.511 85.5089 185.631C84.31 184.744 82.989 184.06 81.5458 183.577C80.1083 183.094 78.5912 182.852 76.9947 182.852C75.3981 182.852 73.8782 183.094 72.435 183.577C70.9975 184.06 69.6765 184.744 68.4719 185.631C67.2731 186.511 66.2304 187.554 65.3441 188.759C64.4634 189.957 63.7816 191.278 63.2986 192.722C62.8157 194.159 62.5742 195.676 62.5742 197.273C62.5742 198.864 62.8157 200.381 63.2986 201.824C63.7816 203.261 64.4634 204.582 65.3441 205.787C66.2304 206.986 67.2731 208.026 68.4719 208.906C69.6765 209.793 70.9975 210.477 72.435 210.96C73.8782 211.449 75.3981 211.693 76.9947 211.693ZM11.8128 272.844C13.4549 273.395 15.1822 273.671 16.9947 273.671C18.8072 273.671 20.5316 273.395 22.1679 272.844C23.81 272.293 25.3128 271.514 26.6765 270.509C27.1423 270.168 27.5867 269.807 28.0097 269.424L28.2929 269.707L120.586 362H114C113.448 362 113 362.448 113 363C113 363.552 113.448 364 114 364H123C123.552 364 124 363.552 124 363V354C124 353.448 123.552 353 123 353C122.448 353 122 353.448 122 354V360.586L29.7071 268.293L29.4067 267.993C29.6939 267.659 29.9685 267.313 30.2304 266.955C31.2361 265.591 32.0145 264.091 32.5657 262.455C33.1168 260.813 33.3924 259.085 33.3924 257.273C33.3924 255.46 33.1168 253.736 32.5657 252.099C32.0145 250.457 31.2361 248.955 30.2304 247.591C29.2304 246.222 28.0458 245.037 26.6765 244.037C25.3128 243.031 23.81 242.253 22.1679 241.702C20.5316 241.151 18.8072 240.875 16.9947 240.875C15.1822 240.875 13.4549 241.151 11.8128 241.702C10.1765 242.253 8.67363 243.031 7.30431 244.037C5.94067 245.037 4.75601 246.222 3.75033 247.591C2.75033 248.955 1.97476 250.457 1.42363 252.099C0.872491 253.736 0.596924 255.46 0.596924 257.273C0.596924 259.085 0.872491 260.813 1.42363 262.455C1.97476 264.091 2.75033 265.591 3.75033 266.955C4.75601 268.324 5.94067 269.509 7.30431 270.509C8.67363 271.514 10.1765 272.293 11.8128 272.844ZM21.5458 270.96C20.1083 271.449 18.5912 271.693 16.9947 271.693C15.3981 271.693 13.8782 271.449 12.435 270.96C10.9975 270.477 9.67647 269.793 8.47192 268.906C7.27306 268.026 6.23045 266.986 5.34408 265.787C4.4634 264.582 3.78158 263.261 3.29863 261.824C2.81567 260.381 2.5742 258.864 2.5742 257.273C2.5742 255.676 2.81567 254.159 3.29863 252.722C3.78158 251.278 4.4634 249.957 5.34408 248.759C6.23045 247.554 7.27306 246.511 8.47192 245.631C9.67647 244.744 10.9975 244.06 12.435 243.577C13.8782 243.094 15.3981 242.852 16.9947 242.852C18.5912 242.852 20.1083 243.094 21.5458 243.577C22.989 244.06 24.31 244.744 25.5089 245.631C26.7134 246.511 27.756 247.554 28.6367 248.759C29.5231 249.957 30.2077 251.278 30.6907 252.722C31.1736 254.159 31.4151 255.676 31.4151 257.273C31.4151 258.864 31.1736 260.381 30.6907 261.824C30.2077 263.261 29.5231 264.582 28.6367 265.787C27.756 266.986 26.7134 268.026 25.5089 268.906C24.31 269.793 22.989 270.477 21.5458 270.96ZM136 273.642C134.548 273.559 133.152 273.293 131.813 272.844C130.176 272.293 128.674 271.514 127.304 270.509C125.941 269.509 124.756 268.324 123.75 266.955C122.75 265.591 121.975 264.091 121.424 262.455C120.872 260.813 120.597 259.085 120.597 257.273C120.597 255.46 120.872 253.736 121.424 252.099C121.975 250.457 122.75 248.955 123.75 247.591C124.756 246.222 125.941 245.037 127.304 244.037C128.674 243.031 130.176 242.253 131.813 241.702C133.455 241.151 135.182 240.875 136.995 240.875C138.807 240.875 140.532 241.151 142.168 241.702C143.81 242.253 145.313 243.031 146.676 244.037C148.046 245.037 149.23 246.222 150.23 247.591C151.236 248.955 152.015 250.457 152.566 252.099C153.117 253.736 153.392 255.46 153.392 257.273C153.392 259.085 153.117 260.813 152.566 262.455C152.015 264.091 151.236 265.591 150.23 266.955C149.23 268.324 148.046 269.509 146.676 270.509C145.313 271.514 143.81 272.293 142.168 272.844C140.837 273.292 139.448 273.558 138 273.642V355.586L142.657 350.929C143.047 350.538 143.681 350.538 144.071 350.929C144.462 351.32 144.462 351.953 144.071 352.343L137.707 358.707C137.317 359.098 136.683 359.098 136.293 358.707L129.929 352.343C129.538 351.953 129.538 351.32 129.929 350.929C130.319 350.538 130.953 350.538 131.343 350.929L136 355.586V273.642ZM136.995 271.693C138.591 271.693 140.108 271.449 141.546 270.96C142.989 270.477 144.31 269.793 145.509 268.906C146.713 268.026 147.756 266.986 148.637 265.787C149.523 264.582 150.208 263.261 150.691 261.824C151.174 260.381 151.415 258.864 151.415 257.273C151.415 255.676 151.174 254.159 150.691 252.722C150.208 251.278 149.523 249.957 148.637 248.759C147.756 247.554 146.713 246.511 145.509 245.631C144.31 244.744 142.989 244.06 141.546 243.577C140.108 243.094 138.591 242.852 136.995 242.852C135.398 242.852 133.878 243.094 132.435 243.577C130.997 244.06 129.676 244.744 128.472 245.631C127.273 246.511 126.23 247.554 125.344 248.759C124.463 249.957 123.782 251.278 123.299 252.722C122.816 254.159 122.574 255.676 122.574 257.273C122.574 258.864 122.816 260.381 123.299 261.824C123.782 263.261 124.463 264.582 125.344 265.787C126.23 266.986 127.273 268.026 128.472 268.906C129.676 269.793 130.997 270.477 132.435 270.96C133.878 271.449 135.398 271.693 136.995 271.693ZM131.813 392.844C133.455 393.395 135.182 393.671 136.995 393.671C138.807 393.671 140.532 393.395 142.168 392.844C143.81 392.293 145.313 391.514 146.676 390.509C148.046 389.509 149.23 388.324 150.23 386.955C151.236 385.591 152.015 384.091 152.566 382.455C153.117 380.813 153.392 379.085 153.392 377.273C153.392 375.46 153.117 373.736 152.566 372.099C152.015 370.457 151.236 368.955 150.23 367.591C149.23 366.222 148.046 365.037 146.676 364.037C145.313 363.031 143.81 362.253 142.168 361.702C140.532 361.151 138.807 360.875 136.995 360.875C135.182 360.875 133.455 361.151 131.813 361.702C130.176 362.253 128.674 363.031 127.304 364.037C125.941 365.037 124.756 366.222 123.75 367.591C122.75 368.955 121.975 370.457 121.424 372.099C120.872 373.736 120.597 375.46 120.597 377.273C120.597 379.085 120.872 380.813 121.424 382.455C121.975 384.091 122.75 385.591 123.75 386.955C124.756 388.324 125.941 389.509 127.304 390.509C128.674 391.514 130.176 392.293 131.813 392.844ZM141.546 390.96C140.108 391.449 138.591 391.693 136.995 391.693C135.398 391.693 133.878 391.449 132.435 390.96C130.997 390.477 129.676 389.793 128.472 388.906C127.273 388.026 126.23 386.986 125.344 385.787C124.463 384.582 123.782 383.261 123.299 381.824C122.816 380.381 122.574 378.864 122.574 377.273C122.574 375.676 122.816 374.159 123.299 372.722C123.782 371.278 124.463 369.957 125.344 368.759C126.23 367.554 127.273 366.511 128.472 365.631C129.676 364.744 130.997 364.06 132.435 363.577C133.878 363.094 135.398 362.852 136.995 362.852C138.591 362.852 140.108 363.094 141.546 363.577C142.989 364.06 144.31 364.744 145.509 365.631C146.713 366.511 147.756 367.554 148.637 368.759C149.523 369.957 150.208 371.278 150.691 372.722C151.174 374.159 151.415 375.676 151.415 377.273C151.415 378.864 151.174 380.381 150.691 381.824C150.208 383.261 149.523 384.582 148.637 385.787C147.756 386.986 146.713 388.026 145.509 388.906C144.31 389.793 142.989 390.477 141.546 390.96ZM78 92.5001V93.5001V175.586L82.6568 170.929C83.0474 170.538 83.6805 170.538 84.071 170.929C84.4616 171.32 84.4616 171.953 84.071 172.343L77.7071 178.707C77.3166 179.098 76.6834 179.098 76.2929 178.707L69.9289 172.343C69.5384 171.953 69.5384 171.32 69.9289 170.929C70.3194 170.538 70.9526 170.538 71.3431 170.929L76 175.586V93.5001V92.5001H78ZM245.707 269.707L246.414 269L245 267.586L244.293 268.293L152 360.586V354C152 353.448 151.552 353 151 353C150.448 353 150 353.448 150 354V363C150 363.552 150.448 364 151 364H160C160.552 364 161 363.552 161 363C161 362.448 160.552 362 160 362H153.414L245.707 269.707ZM805.707 29.707L806.414 28.9999L805 27.5857L804.293 28.2928L772 60.5857V53.9999C772 53.4476 771.552 52.9999 771 52.9999C770.448 52.9999 770 53.4476 770 53.9999V62.9999C770 63.5522 770.448 63.9999 771 63.9999H780C780.552 63.9999 781 63.5522 781 62.9999C781 62.4476 780.552 61.9999 780 61.9999H773.414L805.707 29.707ZM756 93.6422C754.548 93.5593 753.152 93.2931 751.813 92.8437C750.177 92.2925 748.674 91.5141 747.304 90.5084C746.843 90.1704 746.403 89.8114 745.983 89.4312L745.707 89.7071L713.414 122H720C720.552 122 721 122.448 721 123C721 123.552 720.552 124 720 124H711C710.448 124 710 123.552 710 123V114C710 113.448 710.448 113 711 113C711.552 113 712 113.448 712 114V120.586L744.293 88.2929L744.585 88.0009C744.294 87.665 744.016 87.3162 743.75 86.9545C742.75 85.5908 741.975 84.0908 741.424 82.4545C740.872 80.8124 740.597 79.0851 740.597 77.2726C740.597 75.4601 740.872 73.7357 741.424 72.0993C741.975 70.4573 742.75 68.9545 743.75 67.5908C744.756 66.2215 745.941 65.0368 747.304 64.0368C748.674 63.0312 750.177 62.2527 751.813 61.7016C753.455 61.1505 755.182 60.8749 756.995 60.8749C758.807 60.8749 760.532 61.1505 762.168 61.7016C763.81 62.2527 765.313 63.0312 766.677 64.0368C768.046 65.0368 769.23 66.2215 770.23 67.5908C771.236 68.9545 772.015 70.4573 772.566 72.0993C773.117 73.7357 773.392 75.4601 773.392 77.2726C773.392 79.0851 773.117 80.8124 772.566 82.4545C772.015 84.0908 771.236 85.5908 770.23 86.9545C769.969 87.3131 769.694 87.6591 769.407 87.9924L769.707 88.2928L802 120.586V114C802 113.448 802.448 113 803 113C803.552 113 804 113.448 804 114V123C804 123.552 803.552 124 803 124H794C793.448 124 793 123.552 793 123C793 122.448 793.448 122 794 122H800.586L768.293 89.707L768.01 89.4239C767.587 89.8068 767.142 90.1683 766.677 90.5084C765.313 91.5141 763.81 92.2925 762.168 92.8437C760.837 93.292 759.448 93.5579 758 93.6416V175.586L762.657 170.929C763.047 170.538 763.681 170.538 764.071 170.929C764.462 171.319 764.462 171.953 764.071 172.343L757.707 178.707C757.317 179.098 756.683 179.098 756.293 178.707L749.929 172.343C749.538 171.953 749.538 171.319 749.929 170.929C750.319 170.538 750.953 170.538 751.343 170.929L756 175.586V93.6422ZM761.546 90.9601C760.108 91.4488 758.591 91.6931 756.995 91.6931C755.398 91.6931 753.878 91.4488 752.435 90.9601C750.997 90.4772 749.677 89.7925 748.472 88.9062C747.273 88.0255 746.23 86.9857 745.344 85.7868C744.463 84.5823 743.782 83.2613 743.299 81.8238C742.816 80.3806 742.574 78.8635 742.574 77.2726C742.574 75.676 742.816 74.159 743.299 72.7215C743.782 71.2783 744.463 69.9573 745.344 68.7584C746.23 67.5539 747.273 66.5113 748.472 65.6306C749.677 64.7442 750.997 64.0596 752.435 63.5766C753.878 63.0937 755.398 62.8522 756.995 62.8522C758.591 62.8522 760.108 63.0937 761.546 63.5766C762.989 64.0596 764.31 64.7442 765.509 65.6306C766.713 66.5113 767.756 67.5539 768.637 68.7584C769.523 69.9573 770.208 71.2783 770.691 72.7215C771.174 74.159 771.415 75.676 771.415 77.2726C771.415 78.8635 771.174 80.3806 770.691 81.8238C770.208 83.2613 769.523 84.5823 768.637 85.7868C767.756 86.9857 766.713 88.0255 765.509 88.9062C764.31 89.7925 762.989 90.4772 761.546 90.9601ZM691.813 152.844C693.152 153.293 694.548 153.559 696 153.642V235.586L691.343 230.929C690.953 230.538 690.319 230.538 689.929 230.929C689.538 231.319 689.538 231.953 689.929 232.343L696.293 238.707C696.683 239.098 697.317 239.098 697.707 238.707L704.071 232.343C704.462 231.953 704.462 231.319 704.071 230.929C703.681 230.538 703.047 230.538 702.657 230.929L698 235.586V153.642C699.448 153.558 700.837 153.292 702.168 152.844C703.81 152.293 705.313 151.514 706.676 150.508C707.142 150.168 707.587 149.807 708.01 149.424L708.293 149.707L740.586 182H734C733.448 182 733 182.448 733 183C733 183.552 733.448 184 734 184H743C743.552 184 744 183.552 744 183V174C744 173.448 743.552 173 743 173C742.448 173 742 173.448 742 174V180.586L709.707 148.293L709.407 147.992C709.694 147.659 709.969 147.313 710.23 146.955C711.236 145.591 712.015 144.091 712.566 142.455C713.117 140.812 713.392 139.085 713.392 137.273C713.392 135.46 713.117 133.736 712.566 132.099C712.015 130.457 711.236 128.955 710.23 127.591C709.23 126.222 708.046 125.037 706.676 124.037C705.313 123.031 703.81 122.253 702.168 121.702C700.532 121.151 698.807 120.875 696.995 120.875C695.182 120.875 693.455 121.151 691.813 121.702C690.176 122.253 688.674 123.031 687.304 124.037C685.941 125.037 684.756 126.222 683.75 127.591C682.75 128.955 681.975 130.457 681.424 132.099C680.872 133.736 680.597 135.46 680.597 137.273C680.597 139.085 680.872 140.812 681.424 142.455C681.975 144.091 682.75 145.591 683.75 146.955C684.756 148.324 685.941 149.508 687.304 150.508C688.674 151.514 690.176 152.293 691.813 152.844ZM701.546 150.96C700.108 151.449 698.591 151.693 696.995 151.693C695.398 151.693 693.878 151.449 692.435 150.96C690.997 150.477 689.676 149.793 688.472 148.906C687.273 148.026 686.23 146.986 685.344 145.787C684.463 144.582 683.782 143.261 683.299 141.824C682.816 140.381 682.574 138.864 682.574 137.273C682.574 135.676 682.816 134.159 683.299 132.722C683.782 131.278 684.463 129.957 685.344 128.758C686.23 127.554 687.273 126.511 688.472 125.631C689.676 124.744 690.997 124.06 692.435 123.577C693.878 123.094 695.398 122.852 696.995 122.852C698.591 122.852 700.108 123.094 701.546 123.577C702.989 124.06 704.31 124.744 705.509 125.631C706.713 126.511 707.756 127.554 708.637 128.758C709.523 129.957 710.208 131.278 710.691 132.722C711.174 134.159 711.415 135.676 711.415 137.273C711.415 138.864 711.174 140.381 710.691 141.824C710.208 143.261 709.523 144.582 708.637 145.787C707.756 146.986 706.713 148.026 705.509 148.906C704.31 149.793 702.989 150.477 701.546 150.96ZM751.813 212.844C753.455 213.395 755.182 213.67 756.995 213.67C758.807 213.67 760.532 213.395 762.168 212.844C763.81 212.293 765.313 211.514 766.676 210.508C767.142 210.168 767.587 209.807 768.01 209.424L768.293 209.707L800.586 242H794C793.448 242 793 242.448 793 243C793 243.552 793.448 244 794 244H803C803.552 244 804 243.552 804 243V234C804 233.448 803.552 233 803 233C802.448 233 802 233.448 802 234V240.586L769.707 208.293L769.407 207.992C769.694 207.659 769.969 207.313 770.23 206.955C771.236 205.591 772.015 204.091 772.566 202.455C773.117 200.812 773.392 199.085 773.392 197.273C773.392 195.46 773.117 193.736 772.566 192.099C772.015 190.457 771.236 188.955 770.23 187.591C769.23 186.222 768.046 185.037 766.676 184.037C765.313 183.031 763.81 182.253 762.168 181.702C760.532 181.151 758.807 180.875 756.995 180.875C755.182 180.875 753.455 181.151 751.813 181.702C750.176 182.253 748.674 183.031 747.304 184.037C745.941 185.037 744.756 186.222 743.75 187.591C742.75 188.955 741.975 190.457 741.424 192.099C740.872 193.736 740.597 195.46 740.597 197.273C740.597 199.085 740.872 200.812 741.424 202.455C741.975 204.091 742.75 205.591 743.75 206.955C744.756 208.324 745.941 209.508 747.304 210.508C748.674 211.514 750.176 212.293 751.813 212.844ZM761.546 210.96C760.108 211.449 758.591 211.693 756.995 211.693C755.398 211.693 753.878 211.449 752.435 210.96C750.997 210.477 749.676 209.793 748.472 208.906C747.273 208.026 746.23 206.986 745.344 205.787C744.463 204.582 743.782 203.261 743.299 201.824C742.816 200.381 742.574 198.864 742.574 197.273C742.574 195.676 742.816 194.159 743.299 192.722C743.782 191.278 744.463 189.957 745.344 188.758C746.23 187.554 747.273 186.511 748.472 185.631C749.676 184.744 750.997 184.06 752.435 183.577C753.878 183.094 755.398 182.852 756.995 182.852C758.591 182.852 760.108 183.094 761.546 183.577C762.989 184.06 764.31 184.744 765.509 185.631C766.713 186.511 767.756 187.554 768.637 188.758C769.523 189.957 770.208 191.278 770.691 192.722C771.174 194.159 771.415 195.676 771.415 197.273C771.415 198.864 771.174 200.381 770.691 201.824C770.208 203.261 769.523 204.582 768.637 205.787C767.756 206.986 766.713 208.026 765.509 208.906C764.31 209.793 762.989 210.477 761.546 210.96ZM696.995 273.67C695.182 273.67 693.455 273.395 691.813 272.844C690.176 272.293 688.674 271.514 687.304 270.508C685.941 269.508 684.756 268.324 683.75 266.955C682.75 265.591 681.975 264.091 681.424 262.455C680.872 260.812 680.597 259.085 680.597 257.273C680.597 255.46 680.872 253.736 681.424 252.099C681.975 250.457 682.75 248.955 683.75 247.591C684.756 246.222 685.941 245.037 687.304 244.037C688.674 243.031 690.176 242.253 691.813 241.702C693.455 241.151 695.182 240.875 696.995 240.875C698.807 240.875 700.532 241.151 702.168 241.702C703.81 242.253 705.313 243.031 706.676 244.037C708.046 245.037 709.23 246.222 710.23 247.591C711.236 248.955 712.015 250.457 712.566 252.099C713.117 253.736 713.392 255.46 713.392 257.273C713.392 259.085 713.117 260.812 712.566 262.455C712.015 264.091 711.236 265.591 710.23 266.955C709.969 267.313 709.694 267.659 709.407 267.992L709.707 268.293L802 360.586V354C802 353.448 802.448 353 803 353C803.552 353 804 353.448 804 354V363C804 363.552 803.552 364 803 364H794C793.448 364 793 363.552 793 363C793 362.448 793.448 362 794 362H800.586L708.293 269.707L708.01 269.424C707.587 269.807 707.142 270.168 706.676 270.508C705.313 271.514 703.81 272.293 702.168 272.844C700.532 273.395 698.807 273.67 696.995 273.67ZM696.995 271.693C698.591 271.693 700.108 271.449 701.546 270.96C702.989 270.477 704.31 269.793 705.509 268.906C706.713 268.026 707.756 266.986 708.637 265.787C709.523 264.582 710.208 263.261 710.691 261.824C711.174 260.381 711.415 258.864 711.415 257.273C711.415 255.676 711.174 254.159 710.691 252.722C710.208 251.278 709.523 249.957 708.637 248.758C707.756 247.554 706.713 246.511 705.509 245.631C704.31 244.744 702.989 244.06 701.546 243.577C700.108 243.094 698.591 242.852 696.995 242.852C695.398 242.852 693.878 243.094 692.435 243.577C690.997 244.06 689.676 244.744 688.472 245.631C687.273 246.511 686.23 247.554 685.344 248.758C684.463 249.957 683.782 251.278 683.299 252.722C682.816 254.159 682.574 255.676 682.574 257.273C682.574 258.864 682.816 260.381 683.299 261.824C683.782 263.261 684.463 264.582 685.344 265.787C686.23 266.986 687.273 268.026 688.472 268.906C689.676 269.793 690.997 270.477 692.435 270.96C693.878 271.449 695.398 271.693 696.995 271.693ZM811.813 272.844C813.152 273.293 814.548 273.559 816 273.642V355.586L811.343 350.929C810.953 350.538 810.319 350.538 809.929 350.929C809.538 351.319 809.538 351.953 809.929 352.343L816.293 358.707C816.683 359.098 817.317 359.098 817.707 358.707L824.071 352.343C824.462 351.953 824.462 351.319 824.071 350.929C823.681 350.538 823.047 350.538 822.657 350.929L818 355.586V273.642C819.448 273.558 820.837 273.292 822.168 272.844C823.81 272.293 825.313 271.514 826.676 270.508C828.046 269.508 829.23 268.324 830.23 266.955C831.236 265.591 832.015 264.091 832.566 262.455C833.117 260.812 833.392 259.085 833.392 257.273C833.392 255.46 833.117 253.736 832.566 252.099C832.015 250.457 831.236 248.955 830.23 247.591C829.23 246.222 828.046 245.037 826.676 244.037C825.313 243.031 823.81 242.253 822.168 241.702C820.532 241.151 818.807 240.875 816.995 240.875C815.182 240.875 813.455 241.151 811.813 241.702C810.176 242.253 808.674 243.031 807.304 244.037C805.941 245.037 804.756 246.222 803.75 247.591C802.75 248.955 801.975 250.457 801.424 252.099C800.872 253.736 800.597 255.46 800.597 257.273C800.597 259.085 800.872 260.812 801.424 262.455C801.975 264.091 802.75 265.591 803.75 266.955C804.756 268.324 805.941 269.508 807.304 270.508C808.674 271.514 810.176 272.293 811.813 272.844ZM821.546 270.96C820.108 271.449 818.591 271.693 816.995 271.693C815.398 271.693 813.878 271.449 812.435 270.96C810.997 270.477 809.676 269.793 808.472 268.906C807.273 268.026 806.23 266.986 805.344 265.787C804.463 264.582 803.782 263.261 803.299 261.824C802.816 260.381 802.574 258.864 802.574 257.273C802.574 255.676 802.816 254.159 803.299 252.722C803.782 251.278 804.463 249.957 805.344 248.758C806.23 247.554 807.273 246.511 808.472 245.631C809.676 244.744 810.997 244.06 812.435 243.577C813.878 243.094 815.398 242.852 816.995 242.852C818.591 242.852 820.108 243.094 821.546 243.577C822.989 244.06 824.31 244.744 825.509 245.631C826.713 246.511 827.756 247.554 828.637 248.758C829.523 249.957 830.208 251.278 830.691 252.722C831.174 254.159 831.415 255.676 831.415 257.273C831.415 258.864 831.174 260.381 830.691 261.824C830.208 263.261 829.523 264.582 828.637 265.787C827.756 266.986 826.713 268.026 825.509 268.906C824.31 269.793 822.989 270.477 821.546 270.96ZM816.995 393.67C815.182 393.67 813.455 393.395 811.813 392.844C810.176 392.293 808.674 391.514 807.304 390.508C805.941 389.508 804.756 388.324 803.75 386.955C802.75 385.591 801.975 384.091 801.424 382.455C800.872 380.812 800.597 379.085 800.597 377.273C800.597 375.46 800.872 373.736 801.424 372.099C801.975 370.457 802.75 368.955 803.75 367.591C804.756 366.222 805.941 365.037 807.304 364.037C808.674 363.031 810.176 362.253 811.813 361.702C813.455 361.151 815.182 360.875 816.995 360.875C818.807 360.875 820.532 361.151 822.168 361.702C823.81 362.253 825.313 363.031 826.676 364.037C828.046 365.037 829.23 366.222 830.23 367.591C831.236 368.955 832.015 370.457 832.566 372.099C833.117 373.736 833.392 375.46 833.392 377.273C833.392 379.085 833.117 380.812 832.566 382.455C832.015 384.091 831.236 385.591 830.23 386.955C829.23 388.324 828.046 389.508 826.676 390.508C825.313 391.514 823.81 392.293 822.168 392.844C820.532 393.395 818.807 393.67 816.995 393.67ZM816.995 391.693C818.591 391.693 820.108 391.449 821.546 390.96C822.989 390.477 824.31 389.793 825.509 388.906C826.713 388.026 827.756 386.986 828.637 385.787C829.523 384.582 830.208 383.261 830.691 381.824C831.174 380.381 831.415 378.864 831.415 377.273C831.415 375.676 831.174 374.159 830.691 372.722C830.208 371.278 829.523 369.957 828.637 368.758C827.756 367.554 826.713 366.511 825.509 365.631C824.31 364.744 822.989 364.06 821.546 363.577C820.108 363.094 818.591 362.852 816.995 362.852C815.398 362.852 813.878 363.094 812.435 363.577C810.997 364.06 809.676 364.744 808.472 365.631C807.273 366.511 806.23 367.554 805.344 368.758C804.463 369.957 803.782 371.278 803.299 372.722C802.816 374.159 802.574 375.676 802.574 377.273C802.574 378.864 802.816 380.381 803.299 381.824C803.782 383.261 804.463 384.582 805.344 385.787C806.23 386.986 807.273 388.026 808.472 388.906C809.676 389.793 810.997 390.477 812.435 390.96C813.878 391.449 815.398 391.693 816.995 391.693ZM926.414 269L925.707 269.707L833.414 362H840C840.552 362 841 362.448 841 363C841 363.552 840.552 364 840 364H831C830.448 364 830 363.552 830 363V354C830 353.448 830.448 353 831 353C831.552 353 832 353.448 832 354V360.586L924.293 268.293L925 267.586L926.414 269ZM816.995 153.67C815.182 153.67 813.455 153.395 811.813 152.844C810.177 152.293 808.674 151.514 807.304 150.508C805.941 149.508 804.756 148.324 803.75 146.954C802.75 145.591 801.975 144.091 801.424 142.454C800.872 140.812 800.597 139.085 800.597 137.273C800.597 135.46 800.872 133.736 801.424 132.099C801.975 130.457 802.75 128.954 803.75 127.591C804.756 126.221 805.941 125.037 807.304 124.037C808.674 123.031 810.177 122.253 811.813 121.702C813.455 121.15 815.182 120.875 816.995 120.875C818.807 120.875 820.532 121.15 822.168 121.702C823.81 122.253 825.313 123.031 826.677 124.037C828.046 125.037 829.23 126.221 830.23 127.591C831.236 128.954 832.015 130.457 832.566 132.099C833.117 133.736 833.392 135.46 833.392 137.273C833.392 139.085 833.117 140.812 832.566 142.454C832.015 144.091 831.236 145.591 830.23 146.954C829.969 147.313 829.694 147.659 829.407 147.992L829.707 148.293L862 180.586V174C862 173.448 862.448 173 863 173C863.552 173 864 173.448 864 174V183C864 183.552 863.552 184 863 184H854C853.448 184 853 183.552 853 183C853 182.448 853.448 182 854 182H860.586L828.293 149.707L828.01 149.424C827.587 149.807 827.142 150.168 826.677 150.508C825.313 151.514 823.81 152.293 822.168 152.844C820.532 153.395 818.807 153.67 816.995 153.67ZM816.995 151.693C818.591 151.693 820.108 151.449 821.546 150.96C822.989 150.477 824.31 149.793 825.509 148.906C826.713 148.025 827.756 146.986 828.637 145.787C829.523 144.582 830.208 143.261 830.691 141.824C831.174 140.381 831.415 138.864 831.415 137.273C831.415 135.676 831.174 134.159 830.691 132.721C830.208 131.278 829.523 129.957 828.637 128.758C827.756 127.554 826.713 126.511 825.509 125.631C824.31 124.744 822.989 124.06 821.546 123.577C820.108 123.094 818.591 122.852 816.995 122.852C815.398 122.852 813.878 123.094 812.435 123.577C810.997 124.06 809.677 124.744 808.472 125.631C807.273 126.511 806.23 127.554 805.344 128.758C804.463 129.957 803.782 131.278 803.299 132.721C802.816 134.159 802.574 135.676 802.574 137.273C802.574 138.864 802.816 140.381 803.299 141.824C803.782 143.261 804.463 144.582 805.344 145.787C806.23 146.986 807.273 148.025 808.472 148.906C809.677 149.793 810.997 150.477 812.435 150.96C813.878 151.449 815.398 151.693 816.995 151.693ZM827.586 29.0002L828.293 29.7074L871.607 73.0211C874.42 75.8341 876 79.6494 876 83.6277V175.586L871.343 170.929C870.953 170.539 870.319 170.539 869.929 170.929C869.538 171.32 869.538 171.953 869.929 172.343L876.293 178.707C876.683 179.098 877.317 179.098 877.707 178.707L884.071 172.343C884.462 171.953 884.462 171.32 884.071 170.929C883.681 170.539 883.047 170.539 882.657 170.929L878 175.586V83.6277C878 79.119 876.209 74.795 873.021 71.6068L829.707 28.2931L829 27.586L827.586 29.0002ZM871.813 212.844C873.455 213.395 875.182 213.67 876.995 213.67C878.807 213.67 880.532 213.395 882.168 212.844C883.81 212.293 885.313 211.514 886.677 210.509C887.142 210.168 887.587 209.807 888.01 209.424L888.293 209.707L920.586 242H914C913.448 242 913 242.448 913 243C913 243.552 913.448 244 914 244H923C923.552 244 924 243.552 924 243V234C924 233.448 923.552 233 923 233C922.448 233 922 233.448 922 234V240.586L889.707 208.293L889.407 207.992C889.694 207.659 889.969 207.313 890.23 206.955C891.236 205.591 892.015 204.091 892.566 202.455C893.117 200.812 893.392 199.085 893.392 197.273C893.392 195.46 893.117 193.736 892.566 192.099C892.015 190.457 891.236 188.955 890.23 187.591C889.23 186.222 888.046 185.037 886.677 184.037C885.313 183.031 883.81 182.253 882.168 181.702C880.532 181.151 878.807 180.875 876.995 180.875C875.182 180.875 873.455 181.151 871.813 181.702C870.177 182.253 868.674 183.031 867.304 184.037C865.941 185.037 864.756 186.222 863.75 187.591C862.75 188.955 861.975 190.457 861.424 192.099C860.872 193.736 860.597 195.46 860.597 197.273C860.597 199.085 860.872 200.812 861.424 202.455C861.975 204.091 862.75 205.591 863.75 206.955C864.756 208.324 865.941 209.509 867.304 210.509C868.674 211.514 870.177 212.293 871.813 212.844ZM881.546 210.96C880.108 211.449 878.591 211.693 876.995 211.693C875.398 211.693 873.878 211.449 872.435 210.96C870.997 210.477 869.677 209.793 868.472 208.906C867.273 208.026 866.23 206.986 865.344 205.787C864.463 204.582 863.782 203.261 863.299 201.824C862.816 200.381 862.574 198.864 862.574 197.273C862.574 195.676 862.816 194.159 863.299 192.722C863.782 191.278 864.463 189.957 865.344 188.759C866.23 187.554 867.273 186.511 868.472 185.631C869.677 184.744 870.997 184.06 872.435 183.577C873.878 183.094 875.398 182.852 876.995 182.852C878.591 182.852 880.108 183.094 881.546 183.577C882.989 184.06 884.31 184.744 885.509 185.631C886.713 186.511 887.756 187.554 888.637 188.759C889.523 189.957 890.208 191.278 890.691 192.722C891.174 194.159 891.415 195.676 891.415 197.273C891.415 198.864 891.174 200.381 890.691 201.824C890.208 203.261 889.523 204.582 888.637 205.787C887.756 206.986 886.713 208.026 885.509 208.906C884.31 209.793 882.989 210.477 881.546 210.96Z" fill="white" fill-opacity="0.2"/>
<path fill-rule="evenodd" clip-rule="evenodd" d="M136.995 33.6705C135.182 33.6705 133.455 33.3949 131.813 32.8438C130.176 32.2926 128.674 31.5142 127.304 30.5085C126.843 30.1705 126.403 29.8114 125.983 29.4313L125.707 29.7071L93.4142 62H100C100.552 62 101 62.4477 101 63C101 63.5523 100.552 64 100 64H91C90.4477 64 90 63.5523 90 63V54C90 53.4477 90.4477 53 91 53C91.5523 53 92 53.4477 92 54V60.5858L124.293 28.2929L124.585 28.001C124.294 27.6651 124.016 27.3163 123.75 26.9545C122.75 25.5909 121.975 24.0909 121.424 22.4545C120.872 20.8125 120.597 19.0852 120.597 17.2727C120.597 15.4602 120.872 13.7358 121.424 12.0994C121.975 10.4574 122.75 8.95455 123.75 7.59091C124.756 6.22159 125.941 5.03693 127.304 4.03693C128.674 3.03125 130.176 2.25284 131.813 1.7017C133.455 1.15057 135.182 0.875 136.995 0.875C138.807 0.875 140.532 1.15057 142.168 1.7017C143.81 2.25284 145.313 3.03125 146.676 4.03693C148.046 5.03693 149.23 6.22159 150.23 7.59091C151.236 8.95455 152.015 10.4574 152.566 12.0994C153.117 13.7358 153.392 15.4602 153.392 17.2727C153.392 19.0852 153.117 20.8125 152.566 22.4545C152.015 24.0909 151.236 25.5909 150.23 26.9545C149.23 28.3239 148.046 29.5085 146.676 30.5085C145.313 31.5142 143.81 32.2926 142.168 32.8438C140.532 33.3949 138.807 33.6705 136.995 33.6705ZM136.995 31.6932C138.591 31.6932 140.108 31.4489 141.546 30.9602C142.989 30.4773 144.31 29.7926 145.509 28.9062C146.713 28.0256 147.756 26.9858 148.637 25.7869C149.523 24.5824 150.208 23.2614 150.691 21.8239C151.174 20.3807 151.415 18.8636 151.415 17.2727C151.415 15.6761 151.174 14.1591 150.691 12.7216C150.208 11.2784 149.523 9.95739 148.637 8.75852C147.756 7.55398 146.713 6.51136 145.509 5.63068C144.31 4.74432 142.989 4.05966 141.546 3.5767C140.108 3.09375 138.591 2.85227 136.995 2.85227C135.398 2.85227 133.878 3.09375 132.435 3.5767C130.997 4.05966 129.676 4.74432 128.472 5.63068C127.273 6.51136 126.23 7.55398 125.344 8.75852C124.463 9.95739 123.782 11.2784 123.299 12.7216C122.816 14.1591 122.574 15.6761 122.574 17.2727C122.574 18.8636 122.816 20.3807 123.299 21.8239C123.782 23.2614 124.463 24.5824 125.344 25.7869C126.23 26.9858 127.273 28.0256 128.472 28.9062C129.676 29.7926 130.997 30.4773 132.435 30.9602C133.878 31.4489 135.398 31.6932 136.995 31.6932ZM76.9947 93.6705C75.1822 93.6705 73.4549 93.3949 71.8128 92.8438C70.1765 92.2926 68.6736 91.5142 67.3043 90.5085C65.9407 89.5085 64.756 88.3239 63.7503 86.9545C62.7503 85.5909 61.9748 84.0909 61.4236 82.4545C60.8725 80.8125 60.5969 79.0852 60.5969 77.2727C60.5969 75.4602 60.8725 73.7358 61.4236 72.0994C61.9748 70.4574 62.7503 68.9545 63.7503 67.5909C64.756 66.2216 65.9407 65.0369 67.3043 64.0369C68.6736 63.0312 70.1765 62.2528 71.8128 61.7017C73.4549 61.1506 75.1822 60.875 76.9947 60.875C78.8072 60.875 80.5316 61.1506 82.1679 61.7017C83.81 62.2528 85.3128 63.0312 86.6765 64.0369C88.0458 65.0369 89.2304 66.2216 90.2304 67.5909C91.2361 68.9545 92.0145 70.4574 92.5657 72.0994C93.1168 73.7358 93.3924 75.4602 93.3924 77.2727C93.3924 79.0852 93.1168 80.8125 92.5657 82.4545C92.0145 84.0909 91.2361 85.5909 90.2304 86.9545C89.9685 87.3132 89.6939 87.6592 89.4067 87.9925L89.7071 88.2929L122 120.586V114C122 113.448 122.448 113 123 113C123.552 113 124 113.448 124 114V123C124 123.552 123.552 124 123 124H114C113.448 124 113 123.552 113 123C113 122.448 113.448 122 114 122H120.586L88.2929 89.7071L88.0097 89.424C87.5867 89.8068 87.1423 90.1684 86.6765 90.5085C85.3128 91.5142 83.81 92.2926 82.1679 92.8438C80.5316 93.3949 78.8072 93.6705 76.9947 93.6705ZM76.9947 91.6932C78.5912 91.6932 80.1083 91.4489 81.5458 90.9602C82.989 90.4773 84.31 89.7926 85.5089 88.9062C86.7134 88.0256 87.756 86.9858 88.6367 85.7869C89.5231 84.5824 90.2077 83.2614 90.6907 81.8239C91.1736 80.3807 91.4151 78.8636 91.4151 77.2727C91.4151 75.6761 91.1736 74.1591 90.6907 72.7216C90.2077 71.2784 89.5231 69.9574 88.6367 68.7585C87.756 67.554 86.7134 66.5114 85.5089 65.6307C84.31 64.7443 82.989 64.0597 81.5458 63.5767C80.1083 63.0938 78.5912 62.8523 76.9947 62.8523C75.3981 62.8523 73.8782 63.0938 72.435 63.5767C70.9975 64.0597 69.6765 64.7443 68.4719 65.6307C67.2731 66.5114 66.2304 67.554 65.3441 68.7585C64.4634 69.9574 63.7816 71.2784 63.2986 72.7216C62.8157 74.1591 62.5742 75.6761 62.5742 77.2727C62.5742 78.8636 62.8157 80.3807 63.2986 81.8239C63.7816 83.2614 64.4634 84.5824 65.3441 85.7869C66.2304 86.9858 67.2731 88.0256 68.4719 88.9062C69.6765 89.7926 70.9975 90.4773 72.435 90.9602C73.8782 91.4489 75.3981 91.6932 76.9947 91.6932ZM131.813 152.844C133.455 153.395 135.182 153.67 136.995 153.67C138.807 153.67 140.532 153.395 142.168 152.844C143.81 152.293 145.313 151.514 146.676 150.509C147.142 150.168 147.587 149.807 148.01 149.424L148.293 149.707L180.586 182H174C173.448 182 173 182.448 173 183C173 183.552 173.448 184 174 184H183C183.552 184 184 183.552 184 183V174C184 173.448 183.552 173 183 173C182.448 173 182 173.448 182 174V180.586L149.707 148.293L149.407 147.992C149.694 147.659 149.969 147.313 150.23 146.955C151.236 145.591 152.015 144.091 152.566 142.455C153.117 140.812 153.392 139.085 153.392 137.273C153.392 135.46 153.117 133.736 152.566 132.099C152.015 130.457 151.236 128.955 150.23 127.591C149.23 126.222 148.046 125.037 146.676 124.037C145.313 123.031 143.81 122.253 142.168 121.702C140.532 121.151 138.807 120.875 136.995 120.875C135.182 120.875 133.455 121.151 131.813 121.702C130.176 122.253 128.674 123.031 127.304 124.037C125.941 125.037 124.756 126.222 123.75 127.591C122.75 128.955 121.975 130.457 121.424 132.099C120.872 133.736 120.597 135.46 120.597 137.273C120.597 139.085 120.872 140.812 121.424 142.455C121.975 144.091 122.75 145.591 123.75 146.955C124.756 148.324 125.941 149.509 127.304 150.509C128.674 151.514 130.176 152.293 131.813 152.844ZM141.546 150.96C140.108 151.449 138.591 151.693 136.995 151.693C135.398 151.693 133.878 151.449 132.435 150.96C130.997 150.477 129.676 149.793 128.472 148.906C127.273 148.026 126.23 146.986 125.344 145.787C124.463 144.582 123.782 143.261 123.299 141.824C122.816 140.381 122.574 138.864 122.574 137.273C122.574 135.676 122.816 134.159 123.299 132.722C123.782 131.278 124.463 129.957 125.344 128.759C126.23 127.554 127.273 126.511 128.472 125.631C129.676 124.744 130.997 124.06 132.435 123.577C133.878 123.094 135.398 122.852 136.995 122.852C138.591 122.852 140.108 123.094 141.546 123.577C142.989 124.06 144.31 124.744 145.509 125.631C146.713 126.511 147.756 127.554 148.637 128.759C149.523 129.957 150.208 131.278 150.691 132.722C151.174 134.159 151.415 135.676 151.415 137.273C151.415 138.864 151.174 140.381 150.691 141.824C150.208 143.261 149.523 144.582 148.637 145.787C147.756 146.986 146.713 148.026 145.509 148.906C144.31 149.793 142.989 150.477 141.546 150.96ZM196.995 213.67C195.182 213.67 193.455 213.395 191.813 212.844C190.176 212.293 188.674 211.514 187.304 210.509C185.941 209.509 184.756 208.324 183.75 206.955C182.75 205.591 181.975 204.091 181.424 202.455C180.872 200.812 180.597 199.085 180.597 197.273C180.597 195.46 180.872 193.736 181.424 192.099C181.975 190.457 182.75 188.955 183.75 187.591C184.756 186.222 185.941 185.037 187.304 184.037C188.674 183.031 190.176 182.253 191.813 181.702C193.455 181.151 195.182 180.875 196.995 180.875C198.807 180.875 200.532 181.151 202.168 181.702C203.81 182.253 205.313 183.031 206.676 184.037C208.046 185.037 209.23 186.222 210.23 187.591C211.236 188.955 212.015 190.457 212.566 192.099C213.117 193.736 213.392 195.46 213.392 197.273C213.392 199.085 213.117 200.812 212.566 202.455C212.015 204.091 211.236 205.591 210.23 206.955C209.969 207.313 209.694 207.659 209.407 207.992L209.707 208.293L242 240.586V234C242 233.448 242.448 233 243 233C243.552 233 244 233.448 244 234V243C244 243.552 243.552 244 243 244H234C233.448 244 233 243.552 233 243C233 242.448 233.448 242 234 242H240.586L208.293 209.707L208.01 209.424C207.587 209.807 207.142 210.168 206.676 210.509C205.313 211.514 203.81 212.293 202.168 212.844C200.532 213.395 198.807 213.67 196.995 213.67ZM196.995 211.693C198.591 211.693 200.108 211.449 201.546 210.96C202.989 210.477 204.31 209.793 205.509 208.906C206.713 208.026 207.756 206.986 208.637 205.787C209.523 204.582 210.208 203.261 210.691 201.824C211.174 200.381 211.415 198.864 211.415 197.273C211.415 195.676 211.174 194.159 210.691 192.722C210.208 191.278 209.523 189.957 208.637 188.759C207.756 187.554 206.713 186.511 205.509 185.631C204.31 184.744 202.989 184.06 201.546 183.577C200.108 183.094 198.591 182.852 196.995 182.852C195.398 182.852 193.878 183.094 192.435 183.577C190.997 184.06 189.676 184.744 188.472 185.631C187.273 186.511 186.23 187.554 185.344 188.759C184.463 189.957 183.782 191.278 183.299 192.722C182.816 194.159 182.574 195.676 182.574 197.273C182.574 198.864 182.816 200.381 183.299 201.824C183.782 203.261 184.463 204.582 185.344 205.787C186.23 206.986 187.273 208.026 188.472 208.906C189.676 209.793 190.997 210.477 192.435 210.96C193.878 211.449 195.398 211.693 196.995 211.693ZM251.813 272.844C253.455 273.395 255.182 273.67 256.995 273.67C258.807 273.67 260.532 273.395 262.168 272.844C263.81 272.293 265.313 271.514 266.676 270.509C268.046 269.509 269.23 268.324 270.23 266.955C271.236 265.591 272.015 264.091 272.566 262.455C273.117 260.812 273.392 259.085 273.392 257.273C273.392 255.46 273.117 253.736 272.566 252.099C272.015 250.457 271.236 248.955 270.23 247.591C269.23 246.222 268.046 245.037 266.676 244.037C265.313 243.031 263.81 242.253 262.168 241.702C260.532 241.151 258.807 240.875 256.995 240.875C255.182 240.875 253.455 241.151 251.813 241.702C250.176 242.253 248.674 243.031 247.304 244.037C245.941 245.037 244.756 246.222 243.75 247.591C242.75 248.955 241.975 250.457 241.424 252.099C240.872 253.736 240.597 255.46 240.597 257.273C240.597 259.085 240.872 260.812 241.424 262.455C241.975 264.091 242.75 265.591 243.75 266.955C244.756 268.324 245.941 269.509 247.304 270.509C248.674 271.514 250.176 272.293 251.813 272.844ZM261.546 270.96C260.108 271.449 258.591 271.693 256.995 271.693C255.398 271.693 253.878 271.449 252.435 270.96C250.997 270.477 249.676 269.793 248.472 268.906C247.273 268.026 246.23 266.986 245.344 265.787C244.463 264.582 243.782 263.261 243.299 261.824C242.816 260.381 242.574 258.864 242.574 257.273C242.574 255.676 242.816 254.159 243.299 252.722C243.782 251.278 244.463 249.957 245.344 248.759C246.23 247.554 247.273 246.511 248.472 245.631C249.676 244.744 250.997 244.06 252.435 243.577C253.878 243.094 255.398 242.852 256.995 242.852C258.591 242.852 260.108 243.094 261.546 243.577C262.989 244.06 264.31 244.744 265.509 245.631C266.713 246.511 267.756 247.554 268.637 248.759C269.523 249.957 270.208 251.278 270.691 252.722C271.174 254.159 271.415 255.676 271.415 257.273C271.415 258.864 271.174 260.381 270.691 261.824C270.208 263.261 269.523 264.582 268.637 265.787C267.756 266.986 266.713 268.026 265.509 268.906C264.31 269.793 262.989 270.477 261.546 270.96ZM476.995 33.6705C475.182 33.6705 473.455 33.3949 471.813 32.8438C470.176 32.2926 468.674 31.5142 467.304 30.5085C465.941 29.5085 464.756 28.3239 463.75 26.9545C462.75 25.5909 461.975 24.0909 461.424 22.4545C460.872 20.8125 460.597 19.0852 460.597 17.2727C460.597 15.4602 460.872 13.7358 461.424 12.0994C461.975 10.4574 462.75 8.95455 463.75 7.59091C464.756 6.22159 465.941 5.03693 467.304 4.03693C468.674 3.03125 470.176 2.25284 471.813 1.7017C473.455 1.15057 475.182 0.875 476.995 0.875C478.807 0.875 480.532 1.15057 482.168 1.7017C483.81 2.25284 485.313 3.03125 486.676 4.03693C488.046 5.03693 489.23 6.22159 490.23 7.59091C491.236 8.95455 492.015 10.4574 492.566 12.0994C493.117 13.7358 493.392 15.4602 493.392 17.2727C493.392 19.0852 493.117 20.8125 492.566 22.4545C492.015 24.0909 491.236 25.5909 490.23 26.9545C489.968 27.3132 489.694 27.6593 489.407 27.9926L489.707 28.2931L533.021 71.6068C536.209 74.795 538 79.119 538 83.6277V175.586L542.657 170.929C543.047 170.539 543.681 170.539 544.071 170.929C544.462 171.32 544.462 171.953 544.071 172.343L537.707 178.707C537.317 179.098 536.683 179.098 536.293 178.707L529.929 172.343C529.538 171.953 529.538 171.32 529.929 170.929C530.319 170.539 530.953 170.539 531.343 170.929L536 175.586V83.6277C536 79.6494 534.42 75.8341 531.607 73.0211L488.293 29.7074L488.01 29.424C487.587 29.8069 487.142 30.1684 486.676 30.5085C485.313 31.5142 483.81 32.2926 482.168 32.8438C480.532 33.3949 478.807 33.6705 476.995 33.6705ZM476.995 31.6932C478.591 31.6932 480.108 31.4489 481.546 30.9602C482.989 30.4773 484.31 29.7926 485.509 28.9062C486.713 28.0256 487.756 26.9858 488.637 25.7869C489.523 24.5824 490.208 23.2614 490.691 21.8239C491.174 20.3807 491.415 18.8636 491.415 17.2727C491.415 15.6761 491.174 14.1591 490.691 12.7216C490.208 11.2784 489.523 9.95739 488.637 8.75852C487.756 7.55398 486.713 6.51136 485.509 5.63068C484.31 4.74432 482.989 4.05966 481.546 3.5767C480.108 3.09375 478.591 2.85227 476.995 2.85227C475.398 2.85227 473.878 3.09375 472.435 3.5767C470.997 4.05966 469.676 4.74432 468.472 5.63068C467.273 6.51136 466.23 7.55398 465.344 8.75852C464.463 9.95739 463.782 11.2784 463.299 12.7216C462.816 14.1591 462.574 15.6761 462.574 17.2727C462.574 18.8636 462.816 20.3807 463.299 21.8239C463.782 23.2614 464.463 24.5824 465.344 25.7869C466.23 26.9858 467.273 28.0256 468.472 28.9062C469.676 29.7926 470.997 30.4773 472.435 30.9602C473.878 31.4489 475.398 31.6932 476.995 31.6932ZM531.813 212.844C533.455 213.395 535.182 213.67 536.995 213.67C538.807 213.67 540.532 213.395 542.168 212.844C543.81 212.293 545.313 211.514 546.676 210.509C547.142 210.168 547.587 209.807 548.01 209.424L548.293 209.707L580.586 242H574C573.448 242 573 242.448 573 243C573 243.552 573.448 244 574 244H583C583.552 244 584 243.552 584 243V234C584 233.448 583.552 233 583 233C582.448 233 582 233.448 582 234V240.586L549.707 208.293L549.407 207.992C549.694 207.659 549.969 207.313 550.23 206.955C551.236 205.591 552.015 204.091 552.566 202.455C553.117 200.812 553.392 199.085 553.392 197.273C553.392 195.46 553.117 193.736 552.566 192.099C552.015 190.457 551.236 188.955 550.23 187.591C549.23 186.222 548.046 185.037 546.676 184.037C545.313 183.031 543.81 182.253 542.168 181.702C540.532 181.151 538.807 180.875 536.995 180.875C535.182 180.875 533.455 181.151 531.813 181.702C530.176 182.253 528.674 183.031 527.304 184.037C525.941 185.037 524.756 186.222 523.75 187.591C522.75 188.955 521.975 190.457 521.424 192.099C520.872 193.736 520.597 195.46 520.597 197.273C520.597 199.085 520.872 200.812 521.424 202.455C521.975 204.091 522.75 205.591 523.75 206.955C524.756 208.324 525.941 209.509 527.304 210.509C528.674 211.514 530.176 212.293 531.813 212.844ZM541.546 210.96C540.108 211.449 538.591 211.693 536.995 211.693C535.398 211.693 533.878 211.449 532.435 210.96C530.997 210.477 529.676 209.793 528.472 208.906C527.273 208.026 526.23 206.986 525.344 205.787C524.463 204.582 523.782 203.261 523.299 201.824C522.816 200.381 522.574 198.864 522.574 197.273C522.574 195.676 522.816 194.159 523.299 192.722C523.782 191.278 524.463 189.957 525.344 188.759C526.23 187.554 527.273 186.511 528.472 185.631C529.676 184.744 530.997 184.06 532.435 183.577C533.878 183.094 535.398 182.852 536.995 182.852C538.591 182.852 540.108 183.094 541.546 183.577C542.989 184.06 544.31 184.744 545.509 185.631C546.713 186.511 547.756 187.554 548.637 188.759C549.523 189.957 550.208 191.278 550.691 192.722C551.174 194.159 551.415 195.676 551.415 197.273C551.415 198.864 551.174 200.381 550.691 201.824C550.208 203.261 549.523 204.582 548.637 205.787C547.756 206.986 546.713 208.026 545.509 208.906C544.31 209.793 542.989 210.477 541.546 210.96ZM596.995 273.67C595.182 273.67 593.455 273.395 591.813 272.844C590.177 272.293 588.674 271.514 587.304 270.509C585.941 269.509 584.756 268.324 583.75 266.955C582.75 265.591 581.975 264.091 581.424 262.455C580.872 260.812 580.597 259.085 580.597 257.273C580.597 255.46 580.872 253.736 581.424 252.099C581.975 250.457 582.75 248.955 583.75 247.591C584.756 246.222 585.941 245.037 587.304 244.037C588.674 243.031 590.177 242.253 591.813 241.702C593.455 241.151 595.182 240.875 596.995 240.875C598.807 240.875 600.532 241.151 602.168 241.702C603.81 242.253 605.313 243.031 606.677 244.037C608.046 245.037 609.23 246.222 610.23 247.591C611.236 248.955 612.015 250.457 612.566 252.099C613.117 253.736 613.392 255.46 613.392 257.273C613.392 259.085 613.117 260.812 612.566 262.455C612.015 264.091 611.236 265.591 610.23 266.955C609.23 268.324 608.046 269.509 606.677 270.509C605.313 271.514 603.81 272.293 602.168 272.844C600.532 273.395 598.807 273.67 596.995 273.67ZM596.995 271.693C598.591 271.693 600.108 271.449 601.546 270.96C602.989 270.477 604.31 269.793 605.509 268.906C606.713 268.026 607.756 266.986 608.637 265.787C609.523 264.582 610.208 263.261 610.691 261.824C611.174 260.381 611.415 258.864 611.415 257.273C611.415 255.676 611.174 254.159 610.691 252.722C610.208 251.278 609.523 249.957 608.637 248.759C607.756 247.554 606.713 246.511 605.509 245.631C604.31 244.744 602.989 244.06 601.546 243.577C600.108 243.094 598.591 242.852 596.995 242.852C595.398 242.852 593.878 243.094 592.435 243.577C590.997 244.06 589.677 244.744 588.472 245.631C587.273 246.511 586.23 247.554 585.344 248.759C584.463 249.957 583.782 251.278 583.299 252.722C582.816 254.159 582.574 255.676 582.574 257.273C582.574 258.864 582.816 260.381 583.299 261.824C583.782 263.261 584.463 264.582 585.344 265.787C586.23 266.986 587.273 268.026 588.472 268.906C589.677 269.793 590.997 270.477 592.435 270.96C593.878 271.449 595.398 271.693 596.995 271.693ZM811.813 32.8438C813.455 33.3949 815.182 33.6705 816.995 33.6705C818.807 33.6705 820.532 33.3949 822.168 32.8438C823.81 32.2926 825.313 31.5142 826.676 30.5085C827.142 30.1684 827.587 29.8068 828.01 29.424L828.293 29.7071L931.607 133.021C934.42 135.834 936 139.649 936 143.627V235.586L931.343 230.929C930.953 230.538 930.319 230.538 929.929 230.929C929.538 231.319 929.538 231.953 929.929 232.343L936.293 238.707C936.683 239.098 937.317 239.098 937.707 238.707L944.071 232.343C944.462 231.953 944.462 231.319 944.071 230.929C943.681 230.538 943.047 230.538 942.657 230.929L938 235.586V143.627C938 139.119 936.209 134.795 933.021 131.607L829.707 28.2929L829.407 27.9925C829.694 27.6592 829.969 27.3132 830.23 26.9545C831.236 25.5909 832.015 24.0909 832.566 22.4545C833.117 20.8125 833.392 19.0852 833.392 17.2727C833.392 15.4602 833.117 13.7358 832.566 12.0994C832.015 10.4574 831.236 8.95455 830.23 7.59091C829.23 6.22159 828.046 5.03693 826.676 4.03693C825.313 3.03125 823.81 2.25284 822.168 1.7017C820.532 1.15057 818.807 0.875 816.995 0.875C815.182 0.875 813.455 1.15057 811.813 1.7017C810.176 2.25284 808.674 3.03125 807.304 4.03693C805.941 5.03693 804.756 6.22159 803.75 7.59091C802.75 8.95455 801.975 10.4574 801.424 12.0994C800.872 13.7358 800.597 15.4602 800.597 17.2727C800.597 19.0852 800.872 20.8125 801.424 22.4545C801.975 24.0909 802.75 25.5909 803.75 26.9545C804.756 28.3239 805.941 29.5085 807.304 30.5085C808.674 31.5142 810.176 32.2926 811.813 32.8438ZM821.546 30.9602C820.108 31.4489 818.591 31.6932 816.995 31.6932C815.398 31.6932 813.878 31.4489 812.435 30.9602C810.997 30.4773 809.676 29.7926 808.472 28.9062C807.273 28.0256 806.23 26.9858 805.344 25.7869C804.463 24.5824 803.782 23.2614 803.299 21.8239C802.816 20.3807 802.574 18.8636 802.574 17.2727C802.574 15.6761 802.816 14.1591 803.299 12.7216C803.782 11.2784 804.463 9.95739 805.344 8.75852C806.23 7.55398 807.273 6.51136 808.472 5.63068C809.676 4.74432 810.997 4.05966 812.435 3.5767C813.878 3.09375 815.398 2.85227 816.995 2.85227C818.591 2.85227 820.108 3.09375 821.546 3.5767C822.989 4.05966 824.31 4.74432 825.509 5.63068C826.713 6.51136 827.756 7.55398 828.637 8.75852C829.523 9.95739 830.208 11.2784 830.691 12.7216C831.174 14.1591 831.415 15.6761 831.415 17.2727C831.415 18.8636 831.174 20.3807 830.691 21.8239C830.208 23.2614 829.523 24.5824 828.637 25.7869C827.756 26.9858 826.713 28.0256 825.509 28.9062C824.31 29.7926 822.989 30.4773 821.546 30.9602ZM931.813 272.844C933.455 273.395 935.182 273.67 936.995 273.67C938.807 273.67 940.532 273.395 942.168 272.844C943.81 272.293 945.313 271.514 946.676 270.509C948.046 269.509 949.23 268.324 950.23 266.955C951.236 265.591 952.015 264.091 952.566 262.455C953.117 260.812 953.392 259.085 953.392 257.273C953.392 255.46 953.117 253.736 952.566 252.099C952.015 250.457 951.236 248.955 950.23 247.591C949.23 246.222 948.046 245.037 946.676 244.037C945.313 243.031 943.81 242.253 942.168 241.702C940.532 241.151 938.807 240.875 936.995 240.875C935.182 240.875 933.455 241.151 931.813 241.702C930.176 242.253 928.674 243.031 927.304 244.037C925.941 245.037 924.756 246.222 923.75 247.591C922.75 248.955 921.975 250.457 921.424 252.099C920.872 253.736 920.597 255.46 920.597 257.273C920.597 259.085 920.872 260.812 921.424 262.455C921.975 264.091 922.75 265.591 923.75 266.955C924.756 268.324 925.941 269.509 927.304 270.509C928.674 271.514 930.176 272.293 931.813 272.844ZM941.546 270.96C940.108 271.449 938.591 271.693 936.995 271.693C935.398 271.693 933.878 271.449 932.435 270.96C930.997 270.477 929.676 269.793 928.472 268.906C927.273 268.026 926.23 266.986 925.344 265.787C924.463 264.582 923.782 263.261 923.299 261.824C922.816 260.381 922.574 258.864 922.574 257.273C922.574 255.676 922.816 254.159 923.299 252.722C923.782 251.278 924.463 249.957 925.344 248.759C926.23 247.554 927.273 246.511 928.472 245.631C929.676 244.744 930.997 244.06 932.435 243.577C933.878 243.094 935.398 242.852 936.995 242.852C938.591 242.852 940.108 243.094 941.546 243.577C942.989 244.06 944.31 244.744 945.509 245.631C946.713 246.511 947.756 247.554 948.637 248.759C949.523 249.957 950.208 251.278 950.691 252.722C951.174 254.159 951.415 255.676 951.415 257.273C951.415 258.864 951.174 260.381 950.691 261.824C950.208 263.261 949.523 264.582 948.637 265.787C947.756 266.986 946.713 268.026 945.509 268.906C944.31 269.793 942.989 270.477 941.546 270.96Z" fill="white"/>
</svg>
