<svg width="274" height="394" viewBox="0 0 274 394" fill="none" xmlns="http://www.w3.org/2000/svg">
<path fill-rule="evenodd" clip-rule="evenodd" d="M133.713 25.1903C134.617 25.8892 135.711 26.2386 136.995 26.2386C138.279 26.2386 139.373 25.8892 140.276 25.1903C141.179 24.4858 141.87 23.4659 142.347 22.1307C142.824 20.7898 143.063 19.1705 143.063 17.2727C143.063 15.3864 142.821 13.7756 142.338 12.4403C141.861 11.0994 141.168 10.0767 140.259 9.37216C139.355 8.66193 138.267 8.30682 136.995 8.30682C135.722 8.30682 134.631 8.66193 133.722 9.37216C132.819 10.0767 132.125 11.0994 131.642 12.4403C131.165 13.7756 130.926 15.3864 130.926 17.2727C130.926 19.1705 131.165 20.7898 131.642 22.1307C132.12 23.4659 132.81 24.4858 133.713 25.1903ZM139.961 22.5227C139.256 23.75 138.267 24.3636 136.995 24.3636C136.148 24.3636 135.424 24.0881 134.821 23.5369C134.225 22.9858 133.767 22.1818 133.449 21.125C133.131 20.0682 132.972 18.7841 132.972 17.2727C132.972 15.0057 133.327 13.2528 134.037 12.0142C134.748 10.7699 135.733 10.1477 136.995 10.1477C137.836 10.1477 138.554 10.4261 139.151 10.983C139.753 11.5398 140.213 12.3494 140.532 13.4119C140.855 14.4744 141.017 15.7614 141.017 17.2727C141.017 19.5455 140.665 21.2955 139.961 22.5227ZM131.813 32.8438C133.455 33.3949 135.182 33.6705 136.995 33.6705C138.807 33.6705 140.532 33.3949 142.168 32.8438C143.81 32.2926 145.313 31.5142 146.676 30.5085C147.142 30.1684 147.587 29.8068 148.01 29.424L148.293 29.7071L177.586 59L178.293 59.7071L191.607 73.0208C194.42 75.8339 196 79.6492 196 83.6274V175.586L191.343 170.929C190.953 170.538 190.319 170.538 189.929 170.929C189.538 171.319 189.538 171.953 189.929 172.343L196.293 178.707C196.683 179.098 197.317 179.098 197.707 178.707L204.071 172.343C204.462 171.953 204.462 171.319 204.071 170.929C203.681 170.538 203.047 170.538 202.657 170.929L198 175.586V83.6274C198 81.9347 197.748 80.268 197.264 78.6777L251.607 133.021C254.42 135.834 256 139.649 256 143.627V235.586L251.343 230.929C250.953 230.538 250.319 230.538 249.929 230.929C249.538 231.319 249.538 231.953 249.929 232.343L256.293 238.707C256.683 239.098 257.317 239.098 257.707 238.707L264.071 232.343C264.462 231.953 264.462 231.319 264.071 230.929C263.681 230.538 263.047 230.538 262.657 230.929L258 235.586V143.627C258 139.119 256.209 134.795 253.021 131.607L193.021 71.6066L179.707 58.2929L179 57.5858L149.707 28.2929L149.407 27.9925C149.694 27.6592 149.969 27.3132 150.23 26.9545C151.236 25.5909 152.015 24.0909 152.566 22.4545C153.117 20.8125 153.392 19.0852 153.392 17.2727C153.392 15.4602 153.117 13.7358 152.566 12.0994C152.015 10.4574 151.236 8.95455 150.23 7.59091C149.23 6.22159 148.046 5.03693 146.676 4.03693C145.313 3.03125 143.81 2.25284 142.168 1.7017C140.532 1.15057 138.807 0.875 136.995 0.875C135.182 0.875 133.455 1.15057 131.813 1.7017C130.176 2.25284 128.674 3.03125 127.304 4.03693C125.941 5.03693 124.756 6.22159 123.75 7.59091C122.75 8.95455 121.975 10.4574 121.424 12.0994C120.873 13.7358 120.597 15.4602 120.597 17.2727C120.597 19.0852 120.873 20.8125 121.424 22.4545C121.975 24.0909 122.75 25.5909 123.75 26.9545C124.016 27.3163 124.294 27.6651 124.585 28.001L124.293 28.2929L92 60.5858V54C92 53.4477 91.5523 53 91 53C90.4477 53 90 53.4477 90 54V63C90 63.5523 90.4477 64 91 64H100C100.552 64 101 63.5523 101 63C101 62.4477 100.552 62 100 62H93.4142L125.707 29.7071L125.983 29.4313C126.403 29.8114 126.843 30.1705 127.304 30.5085C128.674 31.5142 130.176 32.2926 131.813 32.8438ZM141.546 30.9602C140.108 31.4489 138.591 31.6932 136.995 31.6932C135.398 31.6932 133.878 31.4489 132.435 30.9602C130.998 30.4773 129.676 29.7926 128.472 28.9062C127.273 28.0256 126.23 26.9858 125.344 25.7869C124.463 24.5824 123.782 23.2614 123.299 21.8239C122.816 20.3807 122.574 18.8636 122.574 17.2727C122.574 15.6761 122.816 14.1591 123.299 12.7216C123.782 11.2784 124.463 9.95739 125.344 8.75852C126.23 7.55398 127.273 6.51136 128.472 5.63068C129.676 4.74432 130.998 4.05966 132.435 3.5767C133.878 3.09375 135.398 2.85227 136.995 2.85227C138.591 2.85227 140.108 3.09375 141.546 3.5767C142.989 4.05966 144.31 4.74432 145.509 5.63068C146.713 6.51136 147.756 7.55398 148.637 8.75852C149.523 9.95739 150.208 11.2784 150.691 12.7216C151.174 14.1591 151.415 15.6761 151.415 17.2727C151.415 18.8636 151.174 20.3807 150.691 21.8239C150.208 23.2614 149.523 24.5824 148.637 25.7869C147.756 26.9858 146.713 28.0256 145.509 28.9062C144.31 29.7926 142.989 30.4773 141.546 30.9602ZM76.364 86H78.4776V68.5455H76.364L72.0004 71.4432V73.5909L76.2617 70.7614H76.364V86ZM76 93.6423C74.5476 93.5594 73.1519 93.2932 71.8129 92.8438C70.1765 92.2926 68.6737 91.5142 67.3043 90.5085C66.8434 90.1705 66.403 89.8114 65.983 89.4313L65.7071 89.7071L33.4142 122H40C40.5523 122 41 122.448 41 123C41 123.552 40.5523 124 40 124H31C30.4477 124 30 123.552 30 123V114C30 113.448 30.4477 113 31 113C31.5523 113 32 113.448 32 114V120.586L64.2929 88.2929L64.5848 88.001C64.2941 87.6651 64.016 87.3163 63.7504 86.9545C62.7504 85.5909 61.9748 84.0909 61.4236 82.4545C60.8725 80.8125 60.5969 79.0852 60.5969 77.2727C60.5969 75.4602 60.8725 73.7358 61.4236 72.0994C61.9748 70.4574 62.7504 68.9545 63.7504 67.5909C64.756 66.2216 65.9407 65.0369 67.3043 64.0369C68.6737 63.0312 70.1765 62.2528 71.8129 61.7017C73.4549 61.1506 75.1822 60.875 76.9947 60.875C78.8072 60.875 80.5316 61.1506 82.168 61.7017C83.81 62.2528 85.3129 63.0312 86.6765 64.0369C88.0458 65.0369 89.2305 66.2216 90.2305 67.5909C91.2362 68.9545 92.0146 70.4574 92.5657 72.0994C93.1168 73.7358 93.3924 75.4602 93.3924 77.2727C93.3924 79.0852 93.1168 80.8125 92.5657 82.4545C92.0146 84.0909 91.2362 85.5909 90.2305 86.9545C89.9686 87.3132 89.694 87.6592 89.4067 87.9925L89.7071 88.2929L122 120.586V114C122 113.448 122.448 113 123 113C123.552 113 124 113.448 124 114V123C124 123.552 123.552 124 123 124H114C113.448 124 113 123.552 113 123C113 122.448 113.448 122 114 122H120.586L88.2929 89.7071L88.0097 89.424C87.5867 89.8068 87.1423 90.1684 86.6765 90.5085C85.3129 91.5142 83.81 92.2926 82.168 92.8438C80.8369 93.2921 79.4476 93.558 78 93.6417V175.586L82.6569 170.929C83.0474 170.538 83.6805 170.538 84.0711 170.929C84.4616 171.319 84.4616 171.953 84.0711 172.343L77.7071 178.707C77.3166 179.098 76.6834 179.098 76.2929 178.707L69.9289 172.343C69.5384 171.953 69.5384 171.319 69.9289 170.929C70.3195 170.538 70.9526 170.538 71.3431 170.929L76 175.586V93.6423ZM81.5458 90.9602C80.1083 91.4489 78.5913 91.6932 76.9947 91.6932C75.3981 91.6932 73.8782 91.4489 72.435 90.9602C70.9975 90.4773 69.6765 89.7926 68.4719 88.9062C67.2731 88.0256 66.2305 86.9858 65.3441 85.7869C64.4634 84.5824 63.7816 83.2614 63.2986 81.8239C62.8157 80.3807 62.5742 78.8636 62.5742 77.2727C62.5742 75.6761 62.8157 74.1591 63.2986 72.7216C63.7816 71.2784 64.4634 69.9574 65.3441 68.7585C66.2305 67.554 67.2731 66.5114 68.4719 65.6307C69.6765 64.7443 70.9975 64.0597 72.435 63.5767C73.8782 63.0938 75.3981 62.8523 76.9947 62.8523C78.5913 62.8523 80.1083 63.0938 81.5458 63.5767C82.989 64.0597 84.31 64.7443 85.5089 65.6307C86.7134 66.5114 87.756 67.554 88.6367 68.7585C89.5231 69.9574 90.2077 71.2784 90.6907 72.7216C91.1737 74.1591 91.4151 75.6761 91.4151 77.2727C91.4151 78.8636 91.1737 80.3807 90.6907 81.8239C90.2077 83.2614 89.5231 84.5824 88.6367 85.7869C87.756 86.9858 86.7134 88.0256 85.5089 88.9062C84.31 89.7926 82.989 90.4773 81.5458 90.9602ZM18.4776 128.545V146H16.364V130.761H16.2617L12.0004 133.591V131.443L16.364 128.545H18.4776ZM11.8129 152.844C13.1519 153.293 14.5476 153.559 16 153.642V235.586L11.3431 230.929C10.9526 230.538 10.3195 230.538 9.92893 230.929C9.53841 231.319 9.53841 231.953 9.92893 232.343L16.2929 238.707C16.6834 239.098 17.3166 239.098 17.7071 238.707L24.0711 232.343C24.4616 231.953 24.4616 231.319 24.0711 230.929C23.6805 230.538 23.0474 230.538 22.6569 230.929L18 235.586V153.642C19.4476 153.558 20.8369 153.292 22.168 152.844C23.81 152.293 25.3129 151.514 26.6765 150.509C27.1423 150.168 27.5867 149.807 28.0097 149.424L28.2929 149.707L60.5858 182H54C53.4477 182 53 182.448 53 183C53 183.552 53.4477 184 54 184H63C63.5523 184 64 183.552 64 183V174C64 173.448 63.5523 173 63 173C62.4477 173 62 173.448 62 174V180.586L29.7071 148.293L29.4067 147.992C29.694 147.659 29.9685 147.313 30.2305 146.955C31.2362 145.591 32.0146 144.091 32.5657 142.455C33.1168 140.812 33.3924 139.085 33.3924 137.273C33.3924 135.46 33.1168 133.736 32.5657 132.099C32.0146 130.457 31.2362 128.955 30.2305 127.591C29.2305 126.222 28.0458 125.037 26.6765 124.037C25.3129 123.031 23.81 122.253 22.168 121.702C20.5316 121.151 18.8072 120.875 16.9947 120.875C15.1822 120.875 13.4549 121.151 11.8129 121.702C10.1765 122.253 8.67365 123.031 7.30433 124.037C5.9407 125.037 4.75604 126.222 3.75036 127.591C2.75036 128.955 1.97479 130.457 1.42365 132.099C0.872514 133.736 0.596946 135.46 0.596946 137.273C0.596946 139.085 0.872514 140.812 1.42365 142.455C1.97479 144.091 2.75036 145.591 3.75036 146.955C4.75604 148.324 5.9407 149.509 7.30433 150.509C8.67365 151.514 10.1765 152.293 11.8129 152.844ZM16.9947 151.693C18.5913 151.693 20.1083 151.449 21.5458 150.96C22.989 150.477 24.31 149.793 25.5089 148.906C26.7134 148.026 27.756 146.986 28.6367 145.787C29.5231 144.582 30.2077 143.261 30.6907 141.824C31.1737 140.381 31.4151 138.864 31.4151 137.273C31.4151 135.676 31.1737 134.159 30.6907 132.722C30.2077 131.278 29.5231 129.957 28.6367 128.759C27.756 127.554 26.7134 126.511 25.5089 125.631C24.31 124.744 22.989 124.06 21.5458 123.577C20.1083 123.094 18.5913 122.852 16.9947 122.852C15.3981 122.852 13.8782 123.094 12.435 123.577C10.9975 124.06 9.67649 124.744 8.47195 125.631C7.27308 126.511 6.23047 127.554 5.34411 128.759C4.46342 129.957 3.78161 131.278 3.29865 132.722C2.8157 134.159 2.57422 135.676 2.57422 137.273C2.57422 138.864 2.8157 140.381 3.29865 141.824C3.78161 143.261 4.46342 144.582 5.34411 145.787C6.23047 146.986 7.27308 148.026 8.47195 148.906C9.67649 149.793 10.9975 150.477 12.435 150.96C13.8782 151.449 15.3981 151.693 16.9947 151.693ZM138.478 146V128.545H136.364L132 131.443V133.591L136.262 130.761H136.364V146H138.478ZM131.813 152.844C133.455 153.395 135.182 153.67 136.995 153.67C138.807 153.67 140.532 153.395 142.168 152.844C143.81 152.293 145.313 151.514 146.676 150.509C147.142 150.168 147.587 149.807 148.01 149.424L148.293 149.707L180.586 182H174C173.448 182 173 182.448 173 183C173 183.552 173.448 184 174 184H183C183.552 184 184 183.552 184 183V174C184 173.448 183.552 173 183 173C182.448 173 182 173.448 182 174V180.586L149.707 148.293L149.407 147.992C149.694 147.659 149.969 147.313 150.23 146.955C151.236 145.591 152.015 144.091 152.566 142.455C153.117 140.812 153.392 139.085 153.392 137.273C153.392 135.46 153.117 133.736 152.566 132.099C152.015 130.457 151.236 128.955 150.23 127.591C149.23 126.222 148.046 125.037 146.676 124.037C145.313 123.031 143.81 122.253 142.168 121.702C140.532 121.151 138.807 120.875 136.995 120.875C135.182 120.875 133.455 121.151 131.813 121.702C130.176 122.253 128.674 123.031 127.304 124.037C125.941 125.037 124.756 126.222 123.75 127.591C122.75 128.955 121.975 130.457 121.424 132.099C120.873 133.736 120.597 135.46 120.597 137.273C120.597 139.085 120.873 140.812 121.424 142.455C121.975 144.091 122.75 145.591 123.75 146.955C124.756 148.324 125.941 149.509 127.304 150.509C128.674 151.514 130.176 152.293 131.813 152.844ZM141.546 150.96C140.108 151.449 138.591 151.693 136.995 151.693C135.398 151.693 133.878 151.449 132.435 150.96C130.998 150.477 129.676 149.793 128.472 148.906C127.273 148.026 126.23 146.986 125.344 145.787C124.463 144.582 123.782 143.261 123.299 141.824C122.816 140.381 122.574 138.864 122.574 137.273C122.574 135.676 122.816 134.159 123.299 132.722C123.782 131.278 124.463 129.957 125.344 128.759C126.23 127.554 127.273 126.511 128.472 125.631C129.676 124.744 130.998 124.06 132.435 123.577C133.878 123.094 135.398 122.852 136.995 122.852C138.591 122.852 140.108 123.094 141.546 123.577C142.989 124.06 144.31 124.744 145.509 125.631C146.713 126.511 147.756 127.554 148.637 128.759C149.523 129.957 150.208 131.278 150.691 132.722C151.174 134.159 151.415 135.676 151.415 137.273C151.415 138.864 151.174 140.381 150.691 141.824C150.208 143.261 149.523 144.582 148.637 145.787C147.756 146.986 146.713 148.026 145.509 148.906C144.31 149.793 142.989 150.477 141.546 150.96ZM71.489 206V204.466L77.2504 198.159C77.9265 197.42 78.4833 196.778 78.9208 196.233C79.3583 195.682 79.6822 195.165 79.8924 194.682C80.1083 194.193 80.2163 193.682 80.2163 193.148C80.2163 192.534 80.0685 192.003 79.7731 191.554C79.4833 191.105 79.0856 190.759 78.5799 190.514C78.0742 190.27 77.506 190.148 76.8754 190.148C76.2049 190.148 75.6197 190.287 75.1197 190.565C74.6254 190.838 74.2418 191.222 73.9691 191.716C73.7021 192.21 73.5685 192.79 73.5685 193.455H71.5572C71.5572 192.432 71.793 191.534 72.2646 190.761C72.7362 189.989 73.3782 189.386 74.1907 188.955C75.0089 188.523 75.9265 188.307 76.9435 188.307C77.9663 188.307 78.8725 188.523 79.6623 188.955C80.4521 189.386 81.0714 189.969 81.5202 190.702C81.9691 191.435 82.1935 192.25 82.1935 193.148C82.1935 193.79 82.0771 194.418 81.8441 195.031C81.6168 195.639 81.2191 196.318 80.6509 197.068C80.0884 197.812 79.3072 198.722 78.3072 199.795L74.3867 203.989V204.125H82.5004V206H71.489ZM76.9947 213.67C75.1822 213.67 73.4549 213.395 71.8129 212.844C70.1765 212.293 68.6737 211.514 67.3043 210.509C65.9407 209.509 64.756 208.324 63.7504 206.955C62.7504 205.591 61.9748 204.091 61.4236 202.455C60.8725 200.812 60.5969 199.085 60.5969 197.273C60.5969 195.46 60.8725 193.736 61.4236 192.099C61.9748 190.457 62.7504 188.955 63.7504 187.591C64.756 186.222 65.9407 185.037 67.3043 184.037C68.6737 183.031 70.1765 182.253 71.8129 181.702C73.4549 181.151 75.1822 180.875 76.9947 180.875C78.8072 180.875 80.5316 181.151 82.168 181.702C83.81 182.253 85.3129 183.031 86.6765 184.037C88.0458 185.037 89.2305 186.222 90.2305 187.591C91.2362 188.955 92.0146 190.457 92.5657 192.099C93.1168 193.736 93.3924 195.46 93.3924 197.273C93.3924 199.085 93.1168 200.812 92.5657 202.455C92.0146 204.091 91.2362 205.591 90.2305 206.955C89.9686 207.313 89.694 207.659 89.4067 207.992L89.7071 208.293L122 240.586V234C122 233.448 122.448 233 123 233C123.552 233 124 233.448 124 234V243C124 243.552 123.552 244 123 244H114C113.448 244 113 243.552 113 243C113 242.448 113.448 242 114 242H120.586L88.2929 209.707L88.0097 209.424C87.5867 209.807 87.1423 210.168 86.6765 210.509C85.3129 211.514 83.81 212.293 82.168 212.844C80.5316 213.395 78.8072 213.67 76.9947 213.67ZM76.9947 211.693C78.5913 211.693 80.1083 211.449 81.5458 210.96C82.989 210.477 84.31 209.793 85.5089 208.906C86.7134 208.026 87.756 206.986 88.6367 205.787C89.5231 204.582 90.2077 203.261 90.6907 201.824C91.1737 200.381 91.4151 198.864 91.4151 197.273C91.4151 195.676 91.1737 194.159 90.6907 192.722C90.2077 191.278 89.5231 189.957 88.6367 188.759C87.756 187.554 86.7134 186.511 85.5089 185.631C84.31 184.744 82.989 184.06 81.5458 183.577C80.1083 183.094 78.5913 182.852 76.9947 182.852C75.3981 182.852 73.8782 183.094 72.435 183.577C70.9975 184.06 69.6765 184.744 68.4719 185.631C67.2731 186.511 66.2305 187.554 65.3441 188.759C64.4634 189.957 63.7816 191.278 63.2986 192.722C62.8157 194.159 62.5742 195.676 62.5742 197.273C62.5742 198.864 62.8157 200.381 63.2986 201.824C63.7816 203.261 64.4634 204.582 65.3441 205.787C66.2305 206.986 67.2731 208.026 68.4719 208.906C69.6765 209.793 70.9975 210.477 72.435 210.96C73.8782 211.449 75.3981 211.693 76.9947 211.693ZM191.489 204.466V206H202.5V204.125H194.387V203.989L198.307 199.795C199.307 198.722 200.088 197.812 200.651 197.068C201.219 196.318 201.617 195.639 201.844 195.031C202.077 194.418 202.194 193.79 202.194 193.148C202.194 192.25 201.969 191.435 201.52 190.702C201.071 189.969 200.452 189.386 199.662 188.955C198.873 188.523 197.966 188.307 196.944 188.307C195.926 188.307 195.009 188.523 194.191 188.955C193.378 189.386 192.736 189.989 192.265 190.761C191.793 191.534 191.557 192.432 191.557 193.455H193.569C193.569 192.79 193.702 192.21 193.969 191.716C194.242 191.222 194.625 190.838 195.12 190.565C195.62 190.287 196.205 190.148 196.875 190.148C197.506 190.148 198.074 190.27 198.58 190.514C199.086 190.759 199.483 191.105 199.773 191.554C200.069 192.003 200.216 192.534 200.216 193.148C200.216 193.682 200.108 194.193 199.892 194.682C199.682 195.165 199.358 195.682 198.921 196.233C198.483 196.778 197.926 197.42 197.25 198.159L191.489 204.466ZM191.813 212.844C193.455 213.395 195.182 213.67 196.995 213.67C198.807 213.67 200.532 213.395 202.168 212.844C203.81 212.293 205.313 211.514 206.676 210.509C207.142 210.168 207.587 209.807 208.01 209.424L208.293 209.707L240.586 242H234C233.448 242 233 242.448 233 243C233 243.552 233.448 244 234 244H243C243.552 244 244 243.552 244 243V234C244 233.448 243.552 233 243 233C242.448 233 242 233.448 242 234V240.586L209.707 208.293L209.407 207.992C209.694 207.659 209.969 207.313 210.23 206.955C211.236 205.591 212.015 204.091 212.566 202.455C213.117 200.812 213.392 199.085 213.392 197.273C213.392 195.46 213.117 193.736 212.566 192.099C212.015 190.457 211.236 188.955 210.23 187.591C209.23 186.222 208.046 185.037 206.676 184.037C205.313 183.031 203.81 182.253 202.168 181.702C200.532 181.151 198.807 180.875 196.995 180.875C195.182 180.875 193.455 181.151 191.813 181.702C190.176 182.253 188.674 183.031 187.304 184.037C185.941 185.037 184.756 186.222 183.75 187.591C182.75 188.955 181.975 190.457 181.424 192.099C180.873 193.736 180.597 195.46 180.597 197.273C180.597 199.085 180.873 200.812 181.424 202.455C181.975 204.091 182.75 205.591 183.75 206.955C184.756 208.324 185.941 209.509 187.304 210.509C188.674 211.514 190.176 212.293 191.813 212.844ZM201.546 210.96C200.108 211.449 198.591 211.693 196.995 211.693C195.398 211.693 193.878 211.449 192.435 210.96C190.998 210.477 189.676 209.793 188.472 208.906C187.273 208.026 186.23 206.986 185.344 205.787C184.463 204.582 183.782 203.261 183.299 201.824C182.816 200.381 182.574 198.864 182.574 197.273C182.574 195.676 182.816 194.159 183.299 192.722C183.782 191.278 184.463 189.957 185.344 188.759C186.23 187.554 187.273 186.511 188.472 185.631C189.676 184.744 190.998 184.06 192.435 183.577C193.878 183.094 195.398 182.852 196.995 182.852C198.591 182.852 200.108 183.094 201.546 183.577C202.989 184.06 204.31 184.744 205.509 185.631C206.713 186.511 207.756 187.554 208.637 188.759C209.523 189.957 210.208 191.278 210.691 192.722C211.174 194.159 211.415 195.676 211.415 197.273C211.415 198.864 211.174 200.381 210.691 201.824C210.208 203.261 209.523 204.582 208.637 205.787C207.756 206.986 206.713 208.026 205.509 208.906C204.31 209.793 202.989 210.477 201.546 210.96ZM18.4776 266H16.364V250.761H16.2617L12.0004 253.591V251.443L16.364 248.545H18.4776V266ZM16.9947 273.67C15.1822 273.67 13.4549 273.395 11.8129 272.844C10.1765 272.293 8.67365 271.514 7.30433 270.509C5.9407 269.509 4.75604 268.324 3.75036 266.955C2.75036 265.591 1.97479 264.091 1.42365 262.455C0.872514 260.812 0.596946 259.085 0.596946 257.273C0.596946 255.46 0.872514 253.736 1.42365 252.099C1.97479 250.457 2.75036 248.955 3.75036 247.591C4.75604 246.222 5.9407 245.037 7.30433 244.037C8.67365 243.031 10.1765 242.253 11.8129 241.702C13.4549 241.151 15.1822 240.875 16.9947 240.875C18.8072 240.875 20.5316 241.151 22.168 241.702C23.81 242.253 25.3129 243.031 26.6765 244.037C28.0458 245.037 29.2305 246.222 30.2305 247.591C31.2362 248.955 32.0146 250.457 32.5657 252.099C33.1168 253.736 33.3924 255.46 33.3924 257.273C33.3924 259.085 33.1168 260.812 32.5657 262.455C32.0146 264.091 31.2362 265.591 30.2305 266.955C29.9685 267.313 29.694 267.659 29.4067 267.992L29.7071 268.293L122 360.586V354C122 353.448 122.448 353 123 353C123.552 353 124 353.448 124 354V363C124 363.552 123.552 364 123 364H114C113.448 364 113 363.552 113 363C113 362.448 113.448 362 114 362H120.586L28.2929 269.707L28.0097 269.424C27.5867 269.807 27.1423 270.168 26.6765 270.509C25.3129 271.514 23.81 272.293 22.168 272.844C20.5316 273.395 18.8072 273.67 16.9947 273.67ZM16.9947 271.693C18.5913 271.693 20.1083 271.449 21.5458 270.96C22.989 270.477 24.31 269.793 25.5089 268.906C26.7134 268.026 27.756 266.986 28.6367 265.787C29.5231 264.582 30.2077 263.261 30.6907 261.824C31.1737 260.381 31.4151 258.864 31.4151 257.273C31.4151 255.676 31.1737 254.159 30.6907 252.722C30.2077 251.278 29.5231 249.957 28.6367 248.759C27.756 247.554 26.7134 246.511 25.5089 245.631C24.31 244.744 22.989 244.06 21.5458 243.577C20.1083 243.094 18.5913 242.852 16.9947 242.852C15.3981 242.852 13.8782 243.094 12.435 243.577C10.9975 244.06 9.67649 244.744 8.47195 245.631C7.27308 246.511 6.23047 247.554 5.34411 248.759C4.46342 249.957 3.78161 251.278 3.29865 252.722C2.8157 254.159 2.57422 255.676 2.57422 257.273C2.57422 258.864 2.8157 260.381 3.29865 261.824C3.78161 263.261 4.46342 264.582 5.34411 265.787C6.23047 266.986 7.27308 268.026 8.47195 268.906C9.67649 269.793 10.9975 270.477 12.435 270.96C13.8782 271.449 15.3981 271.693 16.9947 271.693ZM131.489 264.466V266H142.5V264.125H134.387V263.989L138.307 259.795C139.307 258.722 140.088 257.812 140.651 257.068C141.219 256.318 141.617 255.639 141.844 255.031C142.077 254.418 142.194 253.79 142.194 253.148C142.194 252.25 141.969 251.435 141.52 250.702C141.071 249.969 140.452 249.386 139.662 248.955C138.873 248.523 137.966 248.307 136.944 248.307C135.926 248.307 135.009 248.523 134.191 248.955C133.378 249.386 132.736 249.989 132.265 250.761C131.793 251.534 131.557 252.432 131.557 253.455H133.569C133.569 252.79 133.702 252.21 133.969 251.716C134.242 251.222 134.625 250.838 135.12 250.565C135.62 250.287 136.205 250.148 136.875 250.148C137.506 250.148 138.074 250.27 138.58 250.514C139.086 250.759 139.483 251.105 139.773 251.554C140.069 252.003 140.216 252.534 140.216 253.148C140.216 253.682 140.108 254.193 139.892 254.682C139.682 255.165 139.358 255.682 138.921 256.233C138.483 256.778 137.926 257.42 137.25 258.159L131.489 264.466ZM131.813 272.844C133.152 273.293 134.548 273.559 136 273.642V355.586L131.343 350.929C130.953 350.538 130.319 350.538 129.929 350.929C129.538 351.319 129.538 351.953 129.929 352.343L136.293 358.707C136.683 359.098 137.317 359.098 137.707 358.707L144.071 352.343C144.462 351.953 144.462 351.319 144.071 350.929C143.681 350.538 143.047 350.538 142.657 350.929L138 355.586V273.642C139.448 273.558 140.837 273.292 142.168 272.844C143.81 272.293 145.313 271.514 146.676 270.509C148.046 269.509 149.23 268.324 150.23 266.955C151.236 265.591 152.015 264.091 152.566 262.455C153.117 260.812 153.392 259.085 153.392 257.273C153.392 255.46 153.117 253.736 152.566 252.099C152.015 250.457 151.236 248.955 150.23 247.591C149.23 246.222 148.046 245.037 146.676 244.037C145.313 243.031 143.81 242.253 142.168 241.702C140.532 241.151 138.807 240.875 136.995 240.875C135.182 240.875 133.455 241.151 131.813 241.702C130.176 242.253 128.674 243.031 127.304 244.037C125.941 245.037 124.756 246.222 123.75 247.591C122.75 248.955 121.975 250.457 121.424 252.099C120.873 253.736 120.597 255.46 120.597 257.273C120.597 259.085 120.873 260.812 121.424 262.455C121.975 264.091 122.75 265.591 123.75 266.955C124.756 268.324 125.941 269.509 127.304 270.509C128.674 271.514 130.176 272.293 131.813 272.844ZM141.546 270.96C140.108 271.449 138.591 271.693 136.995 271.693C135.398 271.693 133.878 271.449 132.435 270.96C130.998 270.477 129.676 269.793 128.472 268.906C127.273 268.026 126.23 266.986 125.344 265.787C124.463 264.582 123.782 263.261 123.299 261.824C122.816 260.381 122.574 258.864 122.574 257.273C122.574 255.676 122.816 254.159 123.299 252.722C123.782 251.278 124.463 249.957 125.344 248.759C126.23 247.554 127.273 246.511 128.472 245.631C129.676 244.744 130.998 244.06 132.435 243.577C133.878 243.094 135.398 242.852 136.995 242.852C138.591 242.852 140.108 243.094 141.546 243.577C142.989 244.06 144.31 244.744 145.509 245.631C146.713 246.511 147.756 247.554 148.637 248.759C149.523 249.957 150.208 251.278 150.691 252.722C151.174 254.159 151.415 255.676 151.415 257.273C151.415 258.864 151.174 260.381 150.691 261.824C150.208 263.261 149.523 264.582 148.637 265.787C147.756 266.986 146.713 268.026 145.509 268.906C144.31 269.793 142.989 270.477 141.546 270.96ZM257.012 266.239C255.887 266.239 254.884 266.045 254.003 265.659C253.128 265.273 252.432 264.736 251.915 264.048C251.404 263.355 251.125 262.551 251.08 261.636H253.228C253.273 262.199 253.466 262.685 253.807 263.094C254.148 263.497 254.594 263.81 255.145 264.031C255.696 264.253 256.307 264.364 256.978 264.364C257.728 264.364 258.392 264.233 258.972 263.972C259.551 263.71 260.006 263.347 260.336 262.881C260.665 262.415 260.83 261.875 260.83 261.261C260.83 260.619 260.671 260.054 260.353 259.565C260.034 259.071 259.569 258.685 258.955 258.406C258.341 258.128 257.591 257.989 256.705 257.989H255.307V256.114H256.705C257.398 256.114 258.006 255.989 258.529 255.739C259.057 255.489 259.469 255.136 259.765 254.682C260.066 254.227 260.216 253.693 260.216 253.08C260.216 252.489 260.086 251.974 259.824 251.537C259.563 251.099 259.194 250.759 258.716 250.514C258.245 250.27 257.688 250.148 257.046 250.148C256.444 250.148 255.875 250.259 255.341 250.48C254.813 250.696 254.381 251.011 254.046 251.426C253.711 251.835 253.529 252.33 253.5 252.909H251.455C251.489 251.994 251.765 251.193 252.282 250.506C252.799 249.812 253.475 249.273 254.31 248.886C255.151 248.5 256.074 248.307 257.08 248.307C258.159 248.307 259.086 248.526 259.858 248.963C260.631 249.395 261.225 249.966 261.64 250.676C262.054 251.386 262.262 252.153 262.262 252.977C262.262 253.96 262.003 254.798 261.486 255.491C260.975 256.185 260.279 256.665 259.398 256.932V257.068C260.5 257.25 261.361 257.719 261.98 258.474C262.6 259.224 262.909 260.153 262.909 261.261C262.909 262.21 262.651 263.062 262.134 263.818C261.623 264.568 260.924 265.159 260.037 265.591C259.151 266.023 258.142 266.239 257.012 266.239ZM256.995 273.67C255.182 273.67 253.455 273.395 251.813 272.844C250.176 272.293 248.674 271.514 247.304 270.509C246.843 270.171 246.403 269.811 245.983 269.431L245.707 269.707L153.414 362H160C160.552 362 161 362.448 161 363C161 363.552 160.552 364 160 364H151C150.448 364 150 363.552 150 363V354C150 353.448 150.448 353 151 353C151.552 353 152 353.448 152 354V360.586L244.293 268.293L244.585 268.001C244.294 267.665 244.016 267.316 243.75 266.955C242.75 265.591 241.975 264.091 241.424 262.455C240.873 260.812 240.597 259.085 240.597 257.273C240.597 255.46 240.873 253.736 241.424 252.099C241.975 250.457 242.75 248.955 243.75 247.591C244.756 246.222 245.941 245.037 247.304 244.037C248.674 243.031 250.176 242.253 251.813 241.702C253.455 241.151 255.182 240.875 256.995 240.875C258.807 240.875 260.532 241.151 262.168 241.702C263.81 242.253 265.313 243.031 266.676 244.037C268.046 245.037 269.23 246.222 270.23 247.591C271.236 248.955 272.015 250.457 272.566 252.099C273.117 253.736 273.392 255.46 273.392 257.273C273.392 259.085 273.117 260.812 272.566 262.455C272.015 264.091 271.236 265.591 270.23 266.955C269.23 268.324 268.046 269.509 266.676 270.509C265.313 271.514 263.81 272.293 262.168 272.844C260.532 273.395 258.807 273.67 256.995 273.67ZM256.995 271.693C258.591 271.693 260.108 271.449 261.546 270.96C262.989 270.477 264.31 269.793 265.509 268.906C266.713 268.026 267.756 266.986 268.637 265.787C269.523 264.582 270.208 263.261 270.691 261.824C271.174 260.381 271.415 258.864 271.415 257.273C271.415 255.676 271.174 254.159 270.691 252.722C270.208 251.278 269.523 249.957 268.637 248.759C267.756 247.554 266.713 246.511 265.509 245.631C264.31 244.744 262.989 244.06 261.546 243.577C260.108 243.094 258.591 242.852 256.995 242.852C255.398 242.852 253.878 243.094 252.435 243.577C250.998 244.06 249.676 244.744 248.472 245.631C247.273 246.511 246.23 247.554 245.344 248.759C244.463 249.957 243.782 251.278 243.299 252.722C242.816 254.159 242.574 255.676 242.574 257.273C242.574 258.864 242.816 260.381 243.299 261.824C243.782 263.261 244.463 264.582 245.344 265.787C246.23 266.986 247.273 268.026 248.472 268.906C249.676 269.793 250.998 270.477 252.435 270.96C253.878 271.449 255.398 271.693 256.995 271.693ZM134.966 385.83C135.682 386.091 136.398 386.227 137.114 386.239C138.29 386.25 139.313 385.994 140.182 385.472C141.057 384.943 141.736 384.233 142.219 383.341C142.702 382.443 142.944 381.455 142.944 380.375C142.944 379.25 142.694 378.253 142.194 377.384C141.694 376.509 141.029 375.824 140.199 375.33C139.37 374.83 138.455 374.58 137.455 374.58C136.858 374.58 136.293 374.673 135.759 374.861C135.225 375.048 134.736 375.315 134.293 375.662C133.855 376.003 133.478 376.415 133.159 376.898H133.023C133.029 374.773 133.418 373.122 134.191 371.946C134.969 370.77 136.034 370.182 137.387 370.182C138.307 370.182 139.046 370.44 139.603 370.957C140.159 371.474 140.534 372.125 140.728 372.909H142.807C142.665 372.006 142.353 371.207 141.87 370.514C141.387 369.821 140.762 369.281 139.995 368.895C139.233 368.503 138.364 368.307 137.387 368.307C136.404 368.307 135.52 368.52 134.736 368.946C133.958 369.372 133.293 369.997 132.742 370.821C132.191 371.639 131.77 372.648 131.48 373.847C131.191 375.04 131.046 376.409 131.046 377.955C131.046 379.568 131.225 380.909 131.583 381.977C131.941 383.04 132.415 383.884 133.006 384.509C133.597 385.128 134.25 385.568 134.966 385.83ZM139.04 383.827C138.472 384.185 137.83 384.364 137.114 384.364C136.387 384.364 135.736 384.179 135.162 383.81C134.594 383.44 134.145 382.955 133.816 382.352C133.492 381.75 133.33 381.102 133.33 380.409C133.33 379.886 133.429 379.389 133.628 378.918C133.827 378.44 134.1 378.017 134.446 377.648C134.799 377.278 135.208 376.989 135.674 376.778C136.14 376.562 136.642 376.455 137.182 376.455C137.898 376.455 138.534 376.631 139.091 376.983C139.654 377.335 140.094 377.81 140.412 378.406C140.736 378.997 140.898 379.653 140.898 380.375C140.898 381.114 140.73 381.784 140.395 382.386C140.066 382.989 139.614 383.469 139.04 383.827ZM131.813 392.844C133.455 393.395 135.182 393.67 136.995 393.67C138.807 393.67 140.532 393.395 142.168 392.844C143.81 392.293 145.313 391.514 146.676 390.509C148.046 389.509 149.23 388.324 150.23 386.955C151.236 385.591 152.015 384.091 152.566 382.455C153.117 380.812 153.392 379.085 153.392 377.273C153.392 375.46 153.117 373.736 152.566 372.099C152.015 370.457 151.236 368.955 150.23 367.591C149.23 366.222 148.046 365.037 146.676 364.037C145.313 363.031 143.81 362.253 142.168 361.702C140.532 361.151 138.807 360.875 136.995 360.875C135.182 360.875 133.455 361.151 131.813 361.702C130.176 362.253 128.674 363.031 127.304 364.037C125.941 365.037 124.756 366.222 123.75 367.591C122.75 368.955 121.975 370.457 121.424 372.099C120.873 373.736 120.597 375.46 120.597 377.273C120.597 379.085 120.873 380.812 121.424 382.455C121.975 384.091 122.75 385.591 123.75 386.955C124.756 388.324 125.941 389.509 127.304 390.509C128.674 391.514 130.176 392.293 131.813 392.844ZM141.546 390.96C140.108 391.449 138.591 391.693 136.995 391.693C135.398 391.693 133.878 391.449 132.435 390.96C130.998 390.477 129.676 389.793 128.472 388.906C127.273 388.026 126.23 386.986 125.344 385.787C124.463 384.582 123.782 383.261 123.299 381.824C122.816 380.381 122.574 378.864 122.574 377.273C122.574 375.676 122.816 374.159 123.299 372.722C123.782 371.278 124.463 369.957 125.344 368.759C126.23 367.554 127.273 366.511 128.472 365.631C129.676 364.744 130.998 364.06 132.435 363.577C133.878 363.094 135.398 362.852 136.995 362.852C138.591 362.852 140.108 363.094 141.546 363.577C142.989 364.06 144.31 364.744 145.509 365.631C146.713 366.511 147.756 367.554 148.637 368.759C149.523 369.957 150.208 371.278 150.691 372.722C151.174 374.159 151.415 375.676 151.415 377.273C151.415 378.864 151.174 380.381 150.691 381.824C150.208 383.261 149.523 384.582 148.637 385.787C147.756 386.986 146.713 388.026 145.509 388.906C144.31 389.793 142.989 390.477 141.546 390.96Z" fill="white"/>
</svg>
