<svg width="274" height="394" viewBox="0 0 274 394" fill="none" xmlns="http://www.w3.org/2000/svg">
<path fill-rule="evenodd" clip-rule="evenodd" d="M129.495 26H131.711L133.465 21.0568H140.524L142.279 26H144.495L138.086 8.54545H135.904L129.495 26ZM139.858 19.1818L137.063 11.3068H136.926L134.131 19.1818H139.858ZM131.813 32.8438C133.455 33.3949 135.182 33.6705 136.995 33.6705C138.807 33.6705 140.532 33.3949 142.168 32.8438C143.81 32.2926 145.313 31.5142 146.676 30.5085C147.142 30.1684 147.587 29.8068 148.01 29.424L148.293 29.7071L177.586 59L178.293 59.7071L191.607 73.0208L191.612 73.0262C194.422 75.8387 196 79.6517 196 83.6274V175.586L191.343 170.929C190.953 170.538 190.319 170.538 189.929 170.929C189.538 171.319 189.538 171.953 189.929 172.343L196.293 178.707C196.683 179.098 197.317 179.098 197.707 178.707L204.071 172.343C204.462 171.953 204.462 171.319 204.071 170.929C203.681 170.538 203.047 170.538 202.657 170.929L198 175.586V83.6274C198 81.9347 197.748 80.268 197.263 78.6777L251.607 133.021C254.42 135.834 256 139.649 256 143.627V235.586L251.343 230.929C250.953 230.538 250.319 230.538 249.929 230.929C249.538 231.319 249.538 231.953 249.929 232.343L256.293 238.707C256.683 239.098 257.317 239.098 257.707 238.707L264.071 232.343C264.462 231.953 264.462 231.319 264.071 230.929C263.681 230.538 263.047 230.538 262.657 230.929L258 235.586V143.627C258 139.119 256.209 134.795 253.021 131.607L193.027 71.6124L193.021 71.6066L179.707 58.2929L179 57.5858L149.707 28.2929L149.407 27.9925C149.694 27.6592 149.969 27.3132 150.23 26.9545C151.236 25.5909 152.015 24.0909 152.566 22.4545C153.117 20.8125 153.392 19.0852 153.392 17.2727C153.392 15.4602 153.117 13.7358 152.566 12.0994C152.015 10.4574 151.236 8.95455 150.23 7.59091C149.23 6.22159 148.046 5.03693 146.676 4.03693C145.313 3.03125 143.81 2.25284 142.168 1.7017C140.532 1.15057 138.807 0.875 136.995 0.875C135.182 0.875 133.455 1.15057 131.813 1.7017C130.176 2.25284 128.674 3.03125 127.304 4.03693C125.941 5.03693 124.756 6.22159 123.75 7.59091C122.75 8.95455 121.975 10.4574 121.424 12.0994C120.873 13.7358 120.597 15.4602 120.597 17.2727C120.597 19.0852 120.873 20.8125 121.424 22.4545C121.975 24.0909 122.75 25.5909 123.75 26.9545C124.016 27.3163 124.294 27.6651 124.585 28.001L124.293 28.2929L92 60.5858V54C92 53.4477 91.5523 53 91 53C90.4477 53 90 53.4477 90 54V63C90 63.5523 90.4477 64 91 64H100C100.552 64 101 63.5523 101 63C101 62.4477 100.552 62 100 62H93.4142L125.707 29.7071L125.983 29.4313C126.403 29.8114 126.843 30.1705 127.304 30.5085C128.674 31.5142 130.176 32.2926 131.813 32.8438ZM141.546 30.9602C140.108 31.4489 138.591 31.6932 136.995 31.6932C135.398 31.6932 133.878 31.4489 132.435 30.9602C130.998 30.4773 129.676 29.7926 128.472 28.9062C127.273 28.0256 126.23 26.9858 125.344 25.7869C124.463 24.5824 123.782 23.2614 123.299 21.8239C122.816 20.3807 122.574 18.8636 122.574 17.2727C122.574 15.6761 122.816 14.1591 123.299 12.7216C123.782 11.2784 124.463 9.95739 125.344 8.75852C126.23 7.55398 127.273 6.51136 128.472 5.63068C129.676 4.74432 130.998 4.05966 132.435 3.5767C133.878 3.09375 135.398 2.85227 136.995 2.85227C138.591 2.85227 140.108 3.09375 141.546 3.5767C142.989 4.05966 144.31 4.74432 145.509 5.63068C146.713 6.51136 147.756 7.55398 148.637 8.75852C149.523 9.95739 150.208 11.2784 150.691 12.7216C151.174 14.1591 151.415 15.6761 151.415 17.2727C151.415 18.8636 151.174 20.3807 150.691 21.8239C150.208 23.2614 149.523 24.5824 148.637 25.7869C147.756 26.9858 146.713 28.0256 145.509 28.9062C144.31 29.7926 142.989 30.4773 141.546 30.9602ZM77.6765 68.5455H71.5742V86H77.881C79.256 86 80.3725 85.7955 81.2305 85.3864C82.0884 84.9773 82.7163 84.4233 83.114 83.7244C83.5117 83.0256 83.7106 82.2386 83.7106 81.3636C83.7106 80.4432 83.5288 79.6648 83.1651 79.0284C82.8015 78.392 82.3498 77.9034 81.81 77.5625C81.2702 77.2216 80.7333 77.0341 80.1992 77V76.8295C80.6992 76.6932 81.1623 76.483 81.5884 76.1989C82.0202 75.9148 82.3668 75.5284 82.6282 75.0398C82.8952 74.5511 83.0288 73.9318 83.0288 73.1818C83.0288 72.3295 82.8356 71.554 82.4492 70.8551C82.0629 70.1506 81.4748 69.5909 80.685 69.1761C79.8952 68.7557 78.8924 68.5455 77.6765 68.5455ZM77.881 84.125H73.6879V78.0568H77.9833C78.7447 78.0568 79.4038 78.2102 79.9606 78.517C80.5174 78.8182 80.9464 79.2216 81.2475 79.7273C81.5487 80.2273 81.6992 80.7727 81.6992 81.3636C81.6992 82.1307 81.4066 82.7841 80.8214 83.3239C80.2418 83.858 79.2617 84.125 77.881 84.125ZM77.6083 76.2159H73.6879V70.4205H77.6765C78.8356 70.4205 79.6822 70.6903 80.2163 71.2301C80.7504 71.7642 81.0174 72.4148 81.0174 73.1818C81.0174 73.7955 80.864 74.3295 80.5572 74.7841C80.256 75.2386 79.8469 75.5909 79.3299 75.8409C78.8185 76.0909 78.2447 76.2159 77.6083 76.2159ZM76 93.6423C74.5476 93.5594 73.1519 93.2932 71.8129 92.8438C70.1765 92.2926 68.6737 91.5142 67.3043 90.5085C66.8434 90.1705 66.403 89.8114 65.983 89.4313L65.7071 89.7071L33.4142 122H40C40.5523 122 41 122.448 41 123C41 123.552 40.5523 124 40 124H31C30.4477 124 30 123.552 30 123V114C30 113.448 30.4477 113 31 113C31.5523 113 32 113.448 32 114V120.586L64.2929 88.2929L64.5848 88.001C64.2941 87.6651 64.016 87.3163 63.7504 86.9545C62.7504 85.5909 61.9748 84.0909 61.4236 82.4545C60.8725 80.8125 60.5969 79.0852 60.5969 77.2727C60.5969 75.4602 60.8725 73.7358 61.4236 72.0994C61.9748 70.4574 62.7504 68.9545 63.7504 67.5909C64.756 66.2216 65.9407 65.0369 67.3043 64.0369C68.6737 63.0312 70.1765 62.2528 71.8129 61.7017C73.4549 61.1506 75.1822 60.875 76.9947 60.875C78.8072 60.875 80.5316 61.1506 82.168 61.7017C83.81 62.2528 85.3129 63.0312 86.6765 64.0369C88.0458 65.0369 89.2305 66.2216 90.2305 67.5909C91.2362 68.9545 92.0146 70.4574 92.5657 72.0994C93.1168 73.7358 93.3924 75.4602 93.3924 77.2727C93.3924 79.0852 93.1168 80.8125 92.5657 82.4545C92.0146 84.0909 91.2362 85.5909 90.2305 86.9545C89.9686 87.3132 89.694 87.6592 89.4067 87.9925L89.7071 88.2929L122 120.586V114C122 113.448 122.448 113 123 113C123.552 113 124 113.448 124 114V123C124 123.552 123.552 124 123 124H114C113.448 124 113 123.552 113 123C113 122.448 113.448 122 114 122H120.586L88.2929 89.7071L88.0097 89.424C87.5867 89.8068 87.1423 90.1684 86.6765 90.5085C85.3129 91.5142 83.81 92.2926 82.168 92.8438C80.8369 93.2921 79.4476 93.558 78 93.6417V175.586L82.6569 170.929C83.0474 170.538 83.6805 170.538 84.0711 170.929C84.4616 171.319 84.4616 171.953 84.0711 172.343L77.7071 178.707C77.3166 179.098 76.6834 179.098 76.2929 178.707L69.9289 172.343C69.5384 171.953 69.5384 171.319 69.9289 170.929C70.3195 170.538 70.9526 170.538 71.3431 170.929L76 175.586V93.6423ZM81.5458 90.9602C80.1083 91.4489 78.5913 91.6932 76.9947 91.6932C75.3981 91.6932 73.8782 91.4489 72.435 90.9602C70.9975 90.4773 69.6765 89.7926 68.4719 88.9062C67.2731 88.0256 66.2305 86.9858 65.3441 85.7869C64.4634 84.5824 63.7816 83.2614 63.2986 81.8239C62.8157 80.3807 62.5742 78.8636 62.5742 77.2727C62.5742 75.6761 62.8157 74.1591 63.2986 72.7216C63.7816 71.2784 64.4634 69.9574 65.3441 68.7585C66.2305 67.554 67.2731 66.5114 68.4719 65.6307C69.6765 64.7443 70.9975 64.0597 72.435 63.5767C73.8782 63.0938 75.3981 62.8523 76.9947 62.8523C78.5913 62.8523 80.1083 63.0938 81.5458 63.5767C82.989 64.0597 84.31 64.7443 85.5089 65.6307C86.7134 66.5114 87.756 67.554 88.6367 68.7585C89.5231 69.9574 90.2077 71.2784 90.6907 72.7216C91.1737 74.1591 91.4151 75.6761 91.4151 77.2727C91.4151 78.8636 91.1737 80.3807 90.6907 81.8239C90.2077 83.2614 89.5231 84.5824 88.6367 85.7869C87.756 86.9858 86.7134 88.0256 85.5089 88.9062C84.31 89.7926 82.989 90.4773 81.5458 90.9602ZM24.3583 134H22.2447C22.1197 133.392 21.9009 132.858 21.5884 132.398C21.2816 131.938 20.9066 131.551 20.4634 131.239C20.0259 130.92 19.5401 130.682 19.006 130.523C18.4719 130.364 17.9151 130.284 17.3356 130.284C16.2788 130.284 15.3214 130.551 14.4634 131.085C13.6112 131.619 12.9322 132.406 12.4265 133.446C11.9265 134.486 11.6765 135.761 11.6765 137.273C11.6765 138.784 11.9265 140.06 12.4265 141.099C12.9322 142.139 13.6112 142.926 14.4634 143.46C15.3214 143.994 16.2788 144.261 17.3356 144.261C17.9151 144.261 18.4719 144.182 19.006 144.023C19.5401 143.864 20.0259 143.628 20.4634 143.315C20.9066 142.997 21.2816 142.608 21.5884 142.148C21.9009 141.682 22.1197 141.148 22.2447 140.545H24.3583C24.1992 141.438 23.9094 142.236 23.489 142.94C23.0685 143.645 22.5458 144.244 21.9208 144.739C21.2958 145.227 20.5941 145.599 19.8157 145.855C19.043 146.111 18.2163 146.239 17.3356 146.239C15.8469 146.239 14.5231 145.875 13.364 145.148C12.2049 144.42 11.293 143.386 10.6282 142.045C9.96342 140.705 9.63104 139.114 9.63104 137.273C9.63104 135.432 9.96342 133.841 10.6282 132.5C11.293 131.159 12.2049 130.125 13.364 129.398C14.5231 128.67 15.8469 128.307 17.3356 128.307C18.2163 128.307 19.043 128.435 19.8157 128.69C20.5941 128.946 21.2958 129.321 21.9208 129.815C22.5458 130.304 23.0685 130.901 23.489 131.605C23.9094 132.304 24.1992 133.102 24.3583 134ZM11.8129 152.844C13.1519 153.293 14.5476 153.559 16 153.642V235.586L11.3431 230.929C10.9526 230.538 10.3195 230.538 9.92893 230.929C9.53841 231.319 9.53841 231.953 9.92893 232.343L16.2929 238.707C16.6834 239.098 17.3166 239.098 17.7071 238.707L24.0711 232.343C24.4616 231.953 24.4616 231.319 24.0711 230.929C23.6805 230.538 23.0474 230.538 22.6569 230.929L18 235.586V153.642C19.4476 153.558 20.8369 153.292 22.168 152.844C23.81 152.293 25.3129 151.514 26.6765 150.509C27.1423 150.168 27.5867 149.807 28.0097 149.424L28.2929 149.707L60.5858 182H54C53.4477 182 53 182.448 53 183C53 183.552 53.4477 184 54 184H63C63.5523 184 64 183.552 64 183V174C64 173.448 63.5523 173 63 173C62.4477 173 62 173.448 62 174V180.586L29.7071 148.293L29.4067 147.992C29.694 147.659 29.9685 147.313 30.2305 146.955C31.2362 145.591 32.0146 144.091 32.5657 142.455C33.1168 140.812 33.3924 139.085 33.3924 137.273C33.3924 135.46 33.1168 133.736 32.5657 132.099C32.0146 130.457 31.2362 128.955 30.2305 127.591C29.2305 126.222 28.0458 125.037 26.6765 124.037C25.3129 123.031 23.81 122.253 22.168 121.702C20.5316 121.151 18.8072 120.875 16.9947 120.875C15.1822 120.875 13.4549 121.151 11.8129 121.702C10.1765 122.253 8.67365 123.031 7.30433 124.037C5.9407 125.037 4.75604 126.222 3.75036 127.591C2.75036 128.955 1.97479 130.457 1.42365 132.099C0.872514 133.736 0.596947 135.46 0.596947 137.273C0.596947 139.085 0.872514 140.812 1.42365 142.455C1.97479 144.091 2.75036 145.591 3.75036 146.955C4.75604 148.324 5.9407 149.509 7.30433 150.509C8.67365 151.514 10.1765 152.293 11.8129 152.844ZM16.9947 151.693C18.5913 151.693 20.1083 151.449 21.5458 150.96C22.989 150.477 24.31 149.793 25.5089 148.906C26.7134 148.026 27.756 146.986 28.6367 145.787C29.5231 144.582 30.2077 143.261 30.6907 141.824C31.1737 140.381 31.4151 138.864 31.4151 137.273C31.4151 135.676 31.1737 134.159 30.6907 132.722C30.2077 131.278 29.5231 129.957 28.6367 128.759C27.756 127.554 26.7134 126.511 25.5089 125.631C24.31 124.744 22.989 124.06 21.5458 123.577C20.1083 123.094 18.5913 122.852 16.9947 122.852C15.3981 122.852 13.8782 123.094 12.435 123.577C10.9975 124.06 9.67649 124.744 8.47195 125.631C7.27308 126.511 6.23047 127.554 5.34411 128.759C4.46342 129.957 3.78161 131.278 3.29865 132.722C2.8157 134.159 2.57422 135.676 2.57422 137.273C2.57422 138.864 2.8157 140.381 3.29865 141.824C3.78161 143.261 4.46342 144.582 5.34411 145.787C6.23047 146.986 7.27308 148.026 8.47195 148.906C9.67649 149.793 10.9975 150.477 12.435 150.96C13.8782 151.449 15.3981 151.693 16.9947 151.693ZM131.404 146H136.79C138.563 146 140.069 145.651 141.307 144.952C142.546 144.247 143.489 143.241 144.137 141.935C144.784 140.622 145.108 139.057 145.108 137.239C145.108 135.432 144.787 133.881 144.145 132.585C143.503 131.284 142.58 130.287 141.375 129.594C140.171 128.895 138.722 128.545 137.029 128.545H131.404V146ZM136.654 144.125H133.517V130.42H136.892C138.256 130.42 139.395 130.696 140.31 131.247C141.225 131.793 141.912 132.577 142.373 133.599C142.833 134.616 143.063 135.83 143.063 137.239C143.063 138.659 142.83 139.884 142.364 140.912C141.898 141.94 141.191 142.733 140.242 143.29C139.293 143.847 138.097 144.125 136.654 144.125ZM131.813 152.844C133.455 153.395 135.182 153.67 136.995 153.67C138.807 153.67 140.532 153.395 142.168 152.844C143.81 152.293 145.313 151.514 146.676 150.509C147.142 150.168 147.587 149.807 148.01 149.424L148.293 149.707L180.586 182H174C173.448 182 173 182.448 173 183C173 183.552 173.448 184 174 184H183C183.552 184 184 183.552 184 183V174C184 173.448 183.552 173 183 173C182.448 173 182 173.448 182 174V180.586L149.707 148.293L149.407 147.992C149.694 147.659 149.969 147.313 150.23 146.955C151.236 145.591 152.015 144.091 152.566 142.455C153.117 140.812 153.392 139.085 153.392 137.273C153.392 135.46 153.117 133.736 152.566 132.099C152.015 130.457 151.236 128.955 150.23 127.591C149.23 126.222 148.046 125.037 146.676 124.037C145.313 123.031 143.81 122.253 142.168 121.702C140.532 121.151 138.807 120.875 136.995 120.875C135.182 120.875 133.455 121.151 131.813 121.702C130.176 122.253 128.674 123.031 127.304 124.037C125.941 125.037 124.756 126.222 123.75 127.591C122.75 128.955 121.975 130.457 121.424 132.099C120.873 133.736 120.597 135.46 120.597 137.273C120.597 139.085 120.873 140.812 121.424 142.455C121.975 144.091 122.75 145.591 123.75 146.955C124.756 148.324 125.941 149.509 127.304 150.509C128.674 151.514 130.176 152.293 131.813 152.844ZM141.546 150.96C140.108 151.449 138.591 151.693 136.995 151.693C135.398 151.693 133.878 151.449 132.435 150.96C130.998 150.477 129.676 149.793 128.472 148.906C127.273 148.026 126.23 146.986 125.344 145.787C124.463 144.582 123.782 143.261 123.299 141.824C122.816 140.381 122.574 138.864 122.574 137.273C122.574 135.676 122.816 134.159 123.299 132.722C123.782 131.278 124.463 129.957 125.344 128.759C126.23 127.554 127.273 126.511 128.472 125.631C129.676 124.744 130.998 124.06 132.435 123.577C133.878 123.094 135.398 122.852 136.995 122.852C138.591 122.852 140.108 123.094 141.546 123.577C142.989 124.06 144.31 124.744 145.509 125.631C146.713 126.511 147.756 127.554 148.637 128.759C149.523 129.957 150.208 131.278 150.691 132.722C151.174 134.159 151.415 135.676 151.415 137.273C151.415 138.864 151.174 140.381 150.691 141.824C150.208 143.261 149.523 144.582 148.637 145.787C147.756 146.986 146.713 148.026 145.509 148.906C144.31 149.793 142.989 150.477 141.546 150.96ZM71.6594 206V188.545H82.1935V190.42H73.7731V196.318H81.6481V198.193H73.7731V204.125H82.3299V206H71.6594ZM76.9947 213.67C75.1822 213.67 73.4549 213.395 71.8129 212.844C70.1765 212.293 68.6737 211.514 67.3043 210.509C65.9407 209.509 64.756 208.324 63.7504 206.955C62.7504 205.591 61.9748 204.091 61.4236 202.455C60.8725 200.812 60.5969 199.085 60.5969 197.273C60.5969 195.46 60.8725 193.736 61.4236 192.099C61.9748 190.457 62.7504 188.955 63.7504 187.591C64.756 186.222 65.9407 185.037 67.3043 184.037C68.6737 183.031 70.1765 182.253 71.8129 181.702C73.4549 181.151 75.1822 180.875 76.9947 180.875C78.8072 180.875 80.5316 181.151 82.168 181.702C83.81 182.253 85.3129 183.031 86.6765 184.037C88.0458 185.037 89.2305 186.222 90.2305 187.591C91.2362 188.955 92.0146 190.457 92.5657 192.099C93.1168 193.736 93.3924 195.46 93.3924 197.273C93.3924 199.085 93.1168 200.812 92.5657 202.455C92.0146 204.091 91.2362 205.591 90.2305 206.955C89.9686 207.313 89.694 207.659 89.4067 207.992L89.7071 208.293L122 240.586V234C122 233.448 122.448 233 123 233C123.552 233 124 233.448 124 234V243C124 243.552 123.552 244 123 244H114C113.448 244 113 243.552 113 243C113 242.448 113.448 242 114 242H120.586L88.2929 209.707L88.0097 209.424C87.5867 209.807 87.1423 210.168 86.6765 210.509C85.3129 211.514 83.81 212.293 82.168 212.844C80.5316 213.395 78.8072 213.67 76.9947 213.67ZM76.9947 211.693C78.5913 211.693 80.1083 211.449 81.5458 210.96C82.989 210.477 84.31 209.793 85.5089 208.906C86.7134 208.026 87.756 206.986 88.6367 205.787C89.5231 204.582 90.2077 203.261 90.6907 201.824C91.1737 200.381 91.4151 198.864 91.4151 197.273C91.4151 195.676 91.1737 194.159 90.6907 192.722C90.2077 191.278 89.5231 189.957 88.6367 188.759C87.756 187.554 86.7134 186.511 85.5089 185.631C84.31 184.744 82.989 184.06 81.5458 183.577C80.1083 183.094 78.5913 182.852 76.9947 182.852C75.3981 182.852 73.8782 183.094 72.435 183.577C70.9975 184.06 69.6765 184.744 68.4719 185.631C67.2731 186.511 66.2305 187.554 65.3441 188.759C64.4634 189.957 63.7816 191.278 63.2986 192.722C62.8157 194.159 62.5742 195.676 62.5742 197.273C62.5742 198.864 62.8157 200.381 63.2986 201.824C63.7816 203.261 64.4634 204.582 65.3441 205.787C66.2305 206.986 67.2731 208.026 68.4719 208.906C69.6765 209.793 70.9975 210.477 72.435 210.96C73.8782 211.449 75.3981 211.693 76.9947 211.693ZM191.762 188.545V206H193.875V198.193H201.444V196.318H193.875V190.42H202.228V188.545H191.762ZM191.813 212.844C193.455 213.395 195.182 213.67 196.995 213.67C198.807 213.67 200.532 213.395 202.168 212.844C203.81 212.293 205.313 211.514 206.676 210.509C207.142 210.168 207.587 209.807 208.01 209.424L208.293 209.707L240.586 242H234C233.448 242 233 242.448 233 243C233 243.552 233.448 244 234 244H243C243.552 244 244 243.552 244 243V234C244 233.448 243.552 233 243 233C242.448 233 242 233.448 242 234V240.586L209.707 208.293L209.407 207.992C209.694 207.659 209.969 207.313 210.23 206.955C211.236 205.591 212.015 204.091 212.566 202.455C213.117 200.812 213.392 199.085 213.392 197.273C213.392 195.46 213.117 193.736 212.566 192.099C212.015 190.457 211.236 188.955 210.23 187.591C209.23 186.222 208.046 185.037 206.676 184.037C205.313 183.031 203.81 182.253 202.168 181.702C200.532 181.151 198.807 180.875 196.995 180.875C195.182 180.875 193.455 181.151 191.813 181.702C190.176 182.253 188.674 183.031 187.304 184.037C185.941 185.037 184.756 186.222 183.75 187.591C182.75 188.955 181.975 190.457 181.424 192.099C180.873 193.736 180.597 195.46 180.597 197.273C180.597 199.085 180.873 200.812 181.424 202.455C181.975 204.091 182.75 205.591 183.75 206.955C184.756 208.324 185.941 209.509 187.304 210.509C188.674 211.514 190.176 212.293 191.813 212.844ZM201.546 210.96C200.108 211.449 198.591 211.693 196.995 211.693C195.398 211.693 193.878 211.449 192.435 210.96C190.998 210.477 189.676 209.793 188.472 208.906C187.273 208.026 186.23 206.986 185.344 205.787C184.463 204.582 183.782 203.261 183.299 201.824C182.816 200.381 182.574 198.864 182.574 197.273C182.574 195.676 182.816 194.159 183.299 192.722C183.782 191.278 184.463 189.957 185.344 188.759C186.23 187.554 187.273 186.511 188.472 185.631C189.676 184.744 190.998 184.06 192.435 183.577C193.878 183.094 195.398 182.852 196.995 182.852C198.591 182.852 200.108 183.094 201.546 183.577C202.989 184.06 204.31 184.744 205.509 185.631C206.713 186.511 207.756 187.554 208.637 188.759C209.523 189.957 210.208 191.278 210.691 192.722C211.174 194.159 211.415 195.676 211.415 197.273C211.415 198.864 211.174 200.381 210.691 201.824C210.208 203.261 209.523 204.582 208.637 205.787C207.756 206.986 206.713 208.026 205.509 208.906C204.31 209.793 202.989 210.477 201.546 210.96ZM22.1594 254C21.9719 253.426 21.7248 252.912 21.418 252.457C21.1168 251.997 20.756 251.605 20.3356 251.281C19.9208 250.957 19.4492 250.71 18.9208 250.54C18.3924 250.369 17.8129 250.284 17.1822 250.284C16.1481 250.284 15.2077 250.551 14.3612 251.085C13.5146 251.619 12.8413 252.406 12.3413 253.446C11.8413 254.486 11.5913 255.761 11.5913 257.273C11.5913 258.784 11.8441 260.06 12.3498 261.099C12.8555 262.139 13.5401 262.926 14.4038 263.46C15.2674 263.994 16.239 264.261 17.3185 264.261C18.3185 264.261 19.1992 264.048 19.9606 263.622C20.7276 263.19 21.3242 262.582 21.7504 261.798C22.1637 261.042 22.3792 260.159 22.3969 259.148H17.7958V257.273H24.4435V259.148C24.4435 260.585 24.1367 261.835 23.5231 262.898C22.9151 263.96 22.0742 264.784 21.0004 265.369C19.9322 265.949 18.7049 266.239 17.3185 266.239C15.7731 266.239 14.4151 265.875 13.2447 265.148C12.0799 264.42 11.1708 263.386 10.5174 262.045C9.86967 260.705 9.54581 259.114 9.54581 257.273C9.54581 255.892 9.73047 254.651 10.0998 253.548C10.4748 252.44 11.0032 251.497 11.685 250.719C12.3668 249.94 13.1737 249.344 14.1055 248.929C15.0373 248.514 16.0629 248.307 17.1822 248.307C18.1026 248.307 18.9606 248.446 19.756 248.724C20.5572 248.997 21.2702 249.386 21.8952 249.892C22.5259 250.392 23.0515 250.991 23.4719 251.69C23.8924 252.384 24.1822 253.153 24.3413 254H22.1594ZM16.9947 273.67C15.1822 273.67 13.4549 273.395 11.8129 272.844C10.1765 272.293 8.67365 271.514 7.30433 270.509C5.9407 269.509 4.75604 268.324 3.75036 266.955C2.75036 265.591 1.97479 264.091 1.42365 262.455C0.872514 260.812 0.596947 259.085 0.596947 257.273C0.596947 255.46 0.872514 253.736 1.42365 252.099C1.97479 250.457 2.75036 248.955 3.75036 247.591C4.75604 246.222 5.9407 245.037 7.30433 244.037C8.67365 243.031 10.1765 242.253 11.8129 241.702C13.4549 241.151 15.1822 240.875 16.9947 240.875C18.8072 240.875 20.5316 241.151 22.168 241.702C23.81 242.253 25.3129 243.031 26.6765 244.037C28.0458 245.037 29.2305 246.222 30.2305 247.591C31.2362 248.955 32.0146 250.457 32.5657 252.099C33.1168 253.736 33.3924 255.46 33.3924 257.273C33.3924 259.085 33.1168 260.812 32.5657 262.455C32.0146 264.091 31.2362 265.591 30.2305 266.955C29.9685 267.313 29.694 267.659 29.4067 267.992L29.7071 268.293L122 360.586V354C122 353.448 122.448 353 123 353C123.552 353 124 353.448 124 354V363C124 363.552 123.552 364 123 364H114C113.448 364 113 363.552 113 363C113 362.448 113.448 362 114 362H120.586L28.2929 269.707L28.0097 269.424C27.5867 269.807 27.1423 270.168 26.6765 270.509C25.3129 271.514 23.81 272.293 22.168 272.844C20.5316 273.395 18.8072 273.67 16.9947 273.67ZM16.9947 271.693C18.5913 271.693 20.1083 271.449 21.5458 270.96C22.989 270.477 24.31 269.793 25.5089 268.906C26.7134 268.026 27.756 266.986 28.6367 265.787C29.5231 264.582 30.2077 263.261 30.6907 261.824C31.1737 260.381 31.4151 258.864 31.4151 257.273C31.4151 255.676 31.1737 254.159 30.6907 252.722C30.2077 251.278 29.5231 249.957 28.6367 248.759C27.756 247.554 26.7134 246.511 25.5089 245.631C24.31 244.744 22.989 244.06 21.5458 243.577C20.1083 243.094 18.5913 242.852 16.9947 242.852C15.3981 242.852 13.8782 243.094 12.435 243.577C10.9975 244.06 9.67649 244.744 8.47195 245.631C7.27308 246.511 6.23047 247.554 5.34411 248.759C4.46342 249.957 3.78161 251.278 3.29865 252.722C2.8157 254.159 2.57422 255.676 2.57422 257.273C2.57422 258.864 2.8157 260.381 3.29865 261.824C3.78161 263.261 4.46342 264.582 5.34411 265.787C6.23047 266.986 7.27308 268.026 8.47195 268.906C9.67649 269.793 10.9975 270.477 12.435 270.96C13.8782 271.449 15.3981 271.693 16.9947 271.693ZM132.341 248.545H130.228V266H132.341V258.193H141.648V266H143.762V248.545H141.648V256.318H132.341V248.545ZM131.813 272.844C133.152 273.293 134.548 273.559 136 273.642V355.586L131.343 350.929C130.953 350.538 130.319 350.538 129.929 350.929C129.538 351.319 129.538 351.953 129.929 352.343L136.293 358.707C136.683 359.098 137.317 359.098 137.707 358.707L144.071 352.343C144.462 351.953 144.462 351.319 144.071 350.929C143.681 350.538 143.047 350.538 142.657 350.929L138 355.586V273.642C139.448 273.558 140.837 273.292 142.168 272.844C143.81 272.293 145.313 271.514 146.676 270.509C148.046 269.509 149.23 268.324 150.23 266.955C151.236 265.591 152.015 264.091 152.566 262.455C153.117 260.812 153.392 259.085 153.392 257.273C153.392 255.46 153.117 253.736 152.566 252.099C152.015 250.457 151.236 248.955 150.23 247.591C149.23 246.222 148.046 245.037 146.676 244.037C145.313 243.031 143.81 242.253 142.168 241.702C140.532 241.151 138.807 240.875 136.995 240.875C135.182 240.875 133.455 241.151 131.813 241.702C130.176 242.253 128.674 243.031 127.304 244.037C125.941 245.037 124.756 246.222 123.75 247.591C122.75 248.955 121.975 250.457 121.424 252.099C120.873 253.736 120.597 255.46 120.597 257.273C120.597 259.085 120.873 260.812 121.424 262.455C121.975 264.091 122.75 265.591 123.75 266.955C124.756 268.324 125.941 269.509 127.304 270.509C128.674 271.514 130.176 272.293 131.813 272.844ZM141.546 270.96C140.108 271.449 138.591 271.693 136.995 271.693C135.398 271.693 133.878 271.449 132.435 270.96C130.998 270.477 129.676 269.793 128.472 268.906C127.273 268.026 126.23 266.986 125.344 265.787C124.463 264.582 123.782 263.261 123.299 261.824C122.816 260.381 122.574 258.864 122.574 257.273C122.574 255.676 122.816 254.159 123.299 252.722C123.782 251.278 124.463 249.957 125.344 248.759C126.23 247.554 127.273 246.511 128.472 245.631C129.676 244.744 130.998 244.06 132.435 243.577C133.878 243.094 135.398 242.852 136.995 242.852C138.591 242.852 140.108 243.094 141.546 243.577C142.989 244.06 144.31 244.744 145.509 245.631C146.713 246.511 147.756 247.554 148.637 248.759C149.523 249.957 150.208 251.278 150.691 252.722C151.174 254.159 151.415 255.676 151.415 257.273C151.415 258.864 151.174 260.381 150.691 261.824C150.208 263.261 149.523 264.582 148.637 265.787C147.756 266.986 146.713 268.026 145.509 268.906C144.31 269.793 142.989 270.477 141.546 270.96ZM256.995 273.67C255.182 273.67 253.455 273.395 251.813 272.844C250.176 272.293 248.674 271.514 247.304 270.509C246.843 270.171 246.403 269.811 245.983 269.431L245.707 269.707L153.414 362H160C160.552 362 161 362.448 161 363C161 363.552 160.552 364 160 364H151C150.448 364 150 363.552 150 363V354C150 353.448 150.448 353 151 353C151.552 353 152 353.448 152 354V360.586L244.293 268.293L244.585 268.001C244.294 267.665 244.016 267.316 243.75 266.955C242.75 265.591 241.975 264.091 241.424 262.455C240.873 260.812 240.597 259.085 240.597 257.273C240.597 255.46 240.873 253.736 241.424 252.099C241.975 250.457 242.75 248.955 243.75 247.591C244.756 246.222 245.941 245.037 247.304 244.037C248.674 243.031 250.176 242.253 251.813 241.702C253.455 241.151 255.182 240.875 256.995 240.875C258.807 240.875 260.532 241.151 262.168 241.702C263.81 242.253 265.313 243.031 266.677 244.037C268.046 245.037 269.23 246.222 270.23 247.591C271.236 248.955 272.015 250.457 272.566 252.099C273.117 253.736 273.392 255.46 273.392 257.273C273.392 259.085 273.117 260.812 272.566 262.455C272.015 264.091 271.236 265.591 270.23 266.955C269.23 268.324 268.046 269.509 266.677 270.509C265.313 271.514 263.81 272.293 262.168 272.844C260.532 273.395 258.807 273.67 256.995 273.67ZM256.995 271.693C258.591 271.693 260.108 271.449 261.546 270.96C262.989 270.477 264.31 269.793 265.509 268.906C266.713 268.026 267.756 266.986 268.637 265.787C269.523 264.582 270.208 263.261 270.691 261.824C271.174 260.381 271.415 258.864 271.415 257.273C271.415 255.676 271.174 254.159 270.691 252.722C270.208 251.278 269.523 249.957 268.637 248.759C267.756 247.554 266.713 246.511 265.509 245.631C264.31 244.744 262.989 244.06 261.546 243.577C260.108 243.094 258.591 242.852 256.995 242.852C255.398 242.852 253.878 243.094 252.435 243.577C250.998 244.06 249.676 244.744 248.472 245.631C247.273 246.511 246.23 247.554 245.344 248.759C244.463 249.957 243.782 251.278 243.299 252.722C242.816 254.159 242.574 255.676 242.574 257.273C242.574 258.864 242.816 260.381 243.299 261.824C243.782 263.261 244.463 264.582 245.344 265.787C246.23 266.986 247.273 268.026 248.472 268.906C249.676 269.793 250.998 270.477 252.435 270.96C253.878 271.449 255.398 271.693 256.995 271.693ZM141.273 368.545H139.159V381.023C139.159 381.744 139.046 382.355 138.819 382.855C138.597 383.349 138.273 383.724 137.847 383.98C137.421 384.236 136.904 384.364 136.296 384.364C135.745 384.364 135.253 384.261 134.821 384.057C134.39 383.852 134.049 383.568 133.799 383.205C133.554 382.835 133.432 382.403 133.432 381.909H131.353C131.353 382.801 131.566 383.571 131.992 384.219C132.418 384.866 133.003 385.366 133.748 385.719C134.492 386.065 135.341 386.239 136.296 386.239C137.307 386.239 138.185 386.037 138.929 385.634C139.674 385.23 140.25 384.639 140.659 383.861C141.069 383.082 141.273 382.136 141.273 381.023V368.545ZM131.813 392.844C133.455 393.395 135.182 393.67 136.995 393.67C138.807 393.67 140.532 393.395 142.168 392.844C143.81 392.293 145.313 391.514 146.676 390.509C148.046 389.509 149.23 388.324 150.23 386.955C151.236 385.591 152.015 384.091 152.566 382.455C153.117 380.812 153.392 379.085 153.392 377.273C153.392 375.46 153.117 373.736 152.566 372.099C152.015 370.457 151.236 368.955 150.23 367.591C149.23 366.222 148.046 365.037 146.676 364.037C145.313 363.031 143.81 362.253 142.168 361.702C140.532 361.151 138.807 360.875 136.995 360.875C135.182 360.875 133.455 361.151 131.813 361.702C130.176 362.253 128.674 363.031 127.304 364.037C125.941 365.037 124.756 366.222 123.75 367.591C122.75 368.955 121.975 370.457 121.424 372.099C120.873 373.736 120.597 375.46 120.597 377.273C120.597 379.085 120.873 380.812 121.424 382.455C121.975 384.091 122.75 385.591 123.75 386.955C124.756 388.324 125.941 389.509 127.304 390.509C128.674 391.514 130.176 392.293 131.813 392.844ZM141.546 390.96C140.108 391.449 138.591 391.693 136.995 391.693C135.398 391.693 133.878 391.449 132.435 390.96C130.998 390.477 129.676 389.793 128.472 388.906C127.273 388.026 126.23 386.986 125.344 385.787C124.463 384.582 123.782 383.261 123.299 381.824C122.816 380.381 122.574 378.864 122.574 377.273C122.574 375.676 122.816 374.159 123.299 372.722C123.782 371.278 124.463 369.957 125.344 368.759C126.23 367.554 127.273 366.511 128.472 365.631C129.676 364.744 130.998 364.06 132.435 363.577C133.878 363.094 135.398 362.852 136.995 362.852C138.591 362.852 140.108 363.094 141.546 363.577C142.989 364.06 144.31 364.744 145.509 365.631C146.713 366.511 147.756 367.554 148.637 368.759C149.523 369.957 150.208 371.278 150.691 372.722C151.174 374.159 151.415 375.676 151.415 377.273C151.415 378.864 151.174 380.381 150.691 381.824C150.208 383.261 149.523 384.582 148.637 385.787C147.756 386.986 146.713 388.026 145.509 388.906C144.31 389.793 142.989 390.477 141.546 390.96ZM258.052 248.545V266H255.938V248.545H258.052Z" fill="white"/>
</svg>
