<svg width="792" height="408" viewBox="0 0 792 408" fill="none" xmlns="http://www.w3.org/2000/svg">
<circle cx="282" cy="240" r="45" stroke="white" stroke-width="6"/>
<circle cx="636" cy="240" r="45" stroke="white" stroke-width="6"/>
<path d="M282 195V204" stroke="white" stroke-width="6"/>
<path d="M636 195V204" stroke="white" stroke-width="6"/>
<path d="M313.82 208.181L307.456 214.545" stroke="white" stroke-width="6"/>
<path d="M667.82 208.181L661.456 214.545" stroke="white" stroke-width="6"/>
<path d="M327 240L318 240" stroke="white" stroke-width="6"/>
<path d="M681 240L672 240" stroke="white" stroke-width="6"/>
<path d="M313.82 271.819L307.456 265.455" stroke="white" stroke-width="6"/>
<path d="M667.82 271.819L661.456 265.455" stroke="white" stroke-width="6"/>
<path d="M282 276V285" stroke="white" stroke-width="6"/>
<path d="M636 276V285" stroke="white" stroke-width="6"/>
<path d="M256.544 265.456L250.18 271.82" stroke="white" stroke-width="6"/>
<path d="M610.544 265.456L604.18 271.82" stroke="white" stroke-width="6"/>
<path d="M246 240L237 240" stroke="white" stroke-width="6"/>
<path d="M600 240L591 240" stroke="white" stroke-width="6"/>
<path d="M256.544 214.544L250.18 208.18" stroke="white" stroke-width="6"/>
<path d="M610.544 214.544L604.18 208.18" stroke="white" stroke-width="6"/>
<path opacity="0.5" d="M141 225.001L166.849 213.035C180.762 206.595 191.152 194.378 195.275 179.612C199.081 165.98 187.206 153.11 173.313 155.809L130.481 164.131C127.523 164.705 124.706 165.856 122.192 167.517L89.7772 188.933L95.3751 260.932L141 225.001Z" fill="url(#paint0_linear_7_134)"/>
<path opacity="0.5" d="M483 243.001L493.114 244.67C514.545 248.206 535.201 235.039 541.042 214.118C543.476 205.402 537.946 196.466 529.06 194.756L480.258 185.361C472.4 183.848 464.262 185.471 457.585 189.882L431.777 206.933L437.375 308.932L483 243.001Z" fill="url(#paint1_linear_7_134)"/>
<path d="M219 240C219 238.343 220.343 237 222 237C223.657 237 225 238.343 225 240L219 240ZM224.121 314.121C222.95 315.293 221.05 315.293 219.879 314.121L200.787 295.029C199.615 293.858 199.615 291.958 200.787 290.787C201.958 289.615 203.858 289.615 205.029 290.787L222 307.757L238.971 290.787C240.142 289.615 242.042 289.615 243.213 290.787C244.385 291.958 244.385 293.858 243.213 295.029L224.121 314.121ZM225 240L225 312L219 312L219 240L225 240Z" fill="white"/>
<path d="M573 240C573 241.657 574.343 243 576 243C577.657 243 579 241.657 579 240L573 240ZM578.121 165.879C576.95 164.707 575.05 164.707 573.879 165.879L554.787 184.971C553.615 186.142 553.615 188.042 554.787 189.213C555.958 190.385 557.858 190.385 559.029 189.213L576 172.243L592.971 189.213C594.142 190.385 596.042 190.385 597.213 189.213C598.385 188.042 598.385 186.142 597.213 184.971L578.121 165.879ZM579 240L579 168L573 168L573 240L579 240Z" fill="white"/>
<path d="M282 303C280.343 303 279 301.657 279 300C279 298.343 280.343 297 282 297V303ZM356.121 297.879C357.293 299.05 357.293 300.95 356.121 302.121L337.029 321.213C335.858 322.385 333.958 322.385 332.787 321.213C331.615 320.042 331.615 318.142 332.787 316.971L349.757 300L332.787 283.029C331.615 281.858 331.615 279.958 332.787 278.787C333.958 277.615 335.858 277.615 337.029 278.787L356.121 297.879ZM282 297H354V303H282V297Z" fill="white"/>
<path d="M636 303C634.343 303 633 301.657 633 300C633 298.343 634.343 297 636 297V303ZM710.121 297.879C711.293 299.05 711.293 300.95 710.121 302.121L691.029 321.213C689.858 322.385 687.958 322.385 686.787 321.213C685.615 320.042 685.615 318.142 686.787 316.971L703.757 300L686.787 283.029C685.615 281.858 685.615 279.958 686.787 278.787C687.958 277.615 689.858 277.615 691.029 278.787L710.121 297.879ZM636 297H708V303H636V297Z" fill="white"/>
<rect opacity="0.5" x="60" y="330" width="318" height="18" fill="#D9D9D9"/>
<rect opacity="0.5" x="414" y="330" width="318" height="18" fill="#D9D9D9"/>
<path d="M154.462 69.4131L155.763 64.9043H157.116L156.387 69.4131H154.462ZM161.537 78L157.916 64.9043H159.99L162.583 75.2051H162.618L165.316 64.9043H167.373L170.071 75.2051H170.106L172.69 64.9043H174.782L171.135 78H169.148L166.362 68.0771H166.327L163.541 78H161.537ZM177.85 72.6299V78H175.951V64.9043H177.85V70.2656H177.876C178.087 69.7793 178.424 69.3691 178.887 69.0352C179.35 68.7012 179.944 68.5342 180.671 68.5342C181.315 68.5342 181.898 68.6748 182.42 68.9561C182.941 69.2373 183.357 69.6504 183.668 70.1953C183.984 70.7402 184.143 71.4141 184.143 72.2168V78H182.244V72.4453C182.244 71.707 182.054 71.1475 181.673 70.7666C181.292 70.3857 180.776 70.1953 180.126 70.1953C179.71 70.1953 179.329 70.2803 178.983 70.4502C178.638 70.6201 178.362 70.8838 178.157 71.2412C177.952 71.5986 177.85 72.0615 177.85 72.6299ZM190.198 78.2109C189.278 78.2109 188.487 78.0029 187.825 77.5869C187.163 77.1709 186.653 76.5996 186.296 75.873C185.944 75.1406 185.769 74.3086 185.769 73.377C185.769 72.4277 185.953 71.5898 186.322 70.8633C186.691 70.1309 187.201 69.5566 187.852 69.1406C188.502 68.7188 189.252 68.5078 190.102 68.5078C190.758 68.5078 191.353 68.625 191.886 68.8594C192.419 69.0938 192.876 69.4277 193.257 69.8613C193.644 70.2891 193.937 70.7988 194.136 71.3906C194.341 71.9824 194.443 72.6357 194.443 73.3506V73.8691H186.604V72.4629H193.459L192.624 72.876C192.624 72.3076 192.521 71.8154 192.316 71.3994C192.111 70.9775 191.821 70.6523 191.446 70.4238C191.071 70.1953 190.629 70.0811 190.119 70.0811C189.615 70.0811 189.176 70.1953 188.801 70.4238C188.432 70.6523 188.145 70.9775 187.939 71.3994C187.734 71.8154 187.632 72.3076 187.632 72.876V73.6934C187.632 74.2734 187.731 74.7861 187.931 75.2314C188.136 75.6709 188.432 76.0166 188.818 76.2686C189.205 76.5146 189.674 76.6377 190.225 76.6377C190.629 76.6377 190.983 76.5762 191.288 76.4531C191.599 76.3301 191.854 76.1602 192.053 75.9434C192.258 75.7207 192.404 75.4629 192.492 75.1699H194.312C194.194 75.7734 193.942 76.3037 193.556 76.7607C193.175 77.2119 192.694 77.5664 192.114 77.8242C191.54 78.082 190.901 78.2109 190.198 78.2109ZM200.024 78.2109C199.104 78.2109 198.313 78.0029 197.651 77.5869C196.989 77.1709 196.479 76.5996 196.122 75.873C195.771 75.1406 195.595 74.3086 195.595 73.377C195.595 72.4277 195.779 71.5898 196.148 70.8633C196.518 70.1309 197.027 69.5566 197.678 69.1406C198.328 68.7188 199.078 68.5078 199.928 68.5078C200.584 68.5078 201.179 68.625 201.712 68.8594C202.245 69.0938 202.702 69.4277 203.083 69.8613C203.47 70.2891 203.763 70.7988 203.962 71.3906C204.167 71.9824 204.27 72.6357 204.27 73.3506V73.8691H196.43V72.4629H203.285L202.45 72.876C202.45 72.3076 202.348 71.8154 202.143 71.3994C201.938 70.9775 201.647 70.6523 201.272 70.4238C200.897 70.1953 200.455 70.0811 199.945 70.0811C199.441 70.0811 199.002 70.1953 198.627 70.4238C198.258 70.6523 197.971 70.9775 197.766 71.3994C197.561 71.8154 197.458 72.3076 197.458 72.876V73.6934C197.458 74.2734 197.558 74.7861 197.757 75.2314C197.962 75.6709 198.258 76.0166 198.645 76.2686C199.031 76.5146 199.5 76.6377 200.051 76.6377C200.455 76.6377 200.81 76.5762 201.114 76.4531C201.425 76.3301 201.68 76.1602 201.879 75.9434C202.084 75.7207 202.23 75.4629 202.318 75.1699H204.138C204.021 75.7734 203.769 76.3037 203.382 76.7607C203.001 77.2119 202.521 77.5664 201.94 77.8242C201.366 78.082 200.728 78.2109 200.024 78.2109ZM207.785 64.9043V78H205.887V64.9043H207.785ZM209.517 69.4131L210.237 64.9043H212.171L210.87 69.4131H209.517ZM225.161 71.5576H223.359C223.354 71.1123 223.184 70.7432 222.85 70.4502C222.516 70.1514 222.076 70.002 221.531 70.002C221.01 70.002 220.594 70.125 220.283 70.3711C219.979 70.6113 219.826 70.9072 219.826 71.2588C219.826 71.5693 219.943 71.8213 220.178 72.0146C220.412 72.208 220.734 72.3516 221.145 72.4453L222.744 72.7881C223.652 72.9932 224.317 73.3037 224.739 73.7197C225.167 74.1357 225.381 74.6807 225.381 75.3545C225.381 75.9463 225.217 76.4561 224.889 76.8838C224.566 77.3115 224.121 77.6426 223.553 77.877C222.99 78.1055 222.346 78.2197 221.619 78.2197C220.904 78.2197 220.26 78.1055 219.686 77.877C219.117 77.6484 218.657 77.3086 218.306 76.8574C217.96 76.4004 217.764 75.8379 217.717 75.1699H219.589C219.642 75.668 219.838 76.0518 220.178 76.3213C220.518 76.5908 220.986 76.7256 221.584 76.7256C222.164 76.7256 222.621 76.6084 222.955 76.374C223.295 76.1338 223.465 75.8291 223.465 75.46C223.465 75.1494 223.345 74.9004 223.104 74.7129C222.864 74.5254 222.542 74.3877 222.138 74.2998L220.6 73.9658C219.721 73.7666 219.056 73.4443 218.604 72.999C218.153 72.5537 217.928 71.9883 217.928 71.3027C217.928 70.752 218.074 70.2686 218.367 69.8525C218.666 69.4307 219.085 69.1025 219.624 68.8682C220.163 68.6338 220.79 68.5166 221.505 68.5166C222.208 68.5166 222.832 68.6396 223.377 68.8857C223.922 69.1318 224.35 69.4834 224.66 69.9404C224.977 70.3916 225.144 70.9307 225.161 71.5576ZM230.988 78.2109C230.104 78.2109 229.327 78.0059 228.659 77.5957C227.991 77.1855 227.473 76.6172 227.104 75.8906C226.734 75.1582 226.55 74.3203 226.55 73.377C226.55 72.4219 226.734 71.5781 227.104 70.8457C227.473 70.1133 227.991 69.542 228.659 69.1318C229.327 68.7158 230.104 68.5078 230.988 68.5078C231.732 68.5078 232.397 68.6543 232.983 68.9473C233.569 69.2344 234.044 69.6357 234.407 70.1514C234.771 70.6611 234.99 71.2471 235.066 71.9092H233.186C233.121 71.5635 232.995 71.2588 232.808 70.9951C232.626 70.7256 232.383 70.5146 232.078 70.3623C231.773 70.21 231.413 70.1338 230.997 70.1338C230.47 70.1338 230.016 70.2686 229.635 70.5381C229.26 70.8018 228.97 71.1768 228.765 71.6631C228.565 72.1494 228.466 72.7207 228.466 73.377C228.466 74.0273 228.565 74.5928 228.765 75.0732C228.97 75.5537 229.26 75.9258 229.635 76.1895C230.016 76.4531 230.47 76.585 230.997 76.585C231.63 76.585 232.116 76.4238 232.456 76.1016C232.802 75.7734 233.036 75.3398 233.159 74.8008H235.066C234.996 75.4512 234.779 76.0342 234.416 76.5498C234.053 77.0654 233.575 77.4727 232.983 77.7715C232.397 78.0645 231.732 78.2109 230.988 78.2109ZM236.631 78V68.7188H238.45V70.2217H238.485C238.655 69.7119 238.922 69.3164 239.285 69.0352C239.654 68.748 240.135 68.6045 240.727 68.6045C240.867 68.6045 240.996 68.6104 241.113 68.6221C241.236 68.6279 241.336 68.6367 241.412 68.6484V70.4062C241.336 70.3945 241.204 70.377 241.017 70.3535C240.835 70.3301 240.636 70.3184 240.419 70.3184C240.073 70.3184 239.757 70.4004 239.47 70.5645C239.183 70.7227 238.954 70.9658 238.784 71.2939C238.614 71.6221 238.529 72.0381 238.529 72.542V78H236.631ZM246.492 78.2109C245.607 78.2109 244.828 78.0059 244.154 77.5957C243.486 77.1855 242.965 76.6172 242.59 75.8906C242.221 75.1641 242.036 74.3262 242.036 73.377C242.036 72.416 242.221 71.5723 242.59 70.8457C242.965 70.1133 243.486 69.542 244.154 69.1318C244.828 68.7158 245.607 68.5078 246.492 68.5078C247.383 68.5078 248.162 68.7158 248.83 69.1318C249.498 69.542 250.017 70.1133 250.386 70.8457C250.761 71.5723 250.948 72.416 250.948 73.377C250.948 74.3262 250.761 75.1641 250.386 75.8906C250.017 76.6172 249.498 77.1855 248.83 77.5957C248.162 78.0059 247.383 78.2109 246.492 78.2109ZM246.492 76.5762C247.02 76.5762 247.471 76.4473 247.846 76.1895C248.227 75.9258 248.52 75.5537 248.725 75.0732C248.93 74.5928 249.032 74.0273 249.032 73.377C249.032 72.7148 248.93 72.1436 248.725 71.6631C248.52 71.1768 248.227 70.8018 247.846 70.5381C247.471 70.2744 247.02 70.1426 246.492 70.1426C245.971 70.1426 245.52 70.2744 245.139 70.5381C244.758 70.8018 244.465 71.1768 244.26 71.6631C244.055 72.1436 243.952 72.7148 243.952 73.377C243.952 74.0273 244.055 74.5928 244.26 75.0732C244.465 75.5537 244.758 75.9258 245.139 76.1895C245.52 76.4473 245.971 76.5762 246.492 76.5762ZM254.49 64.9043V78H252.592V64.9043H254.49ZM258.498 64.9043V78H256.6V64.9043H258.498ZM260.783 78V68.7188H262.682V78H260.783ZM261.724 67.1191C261.39 67.1191 261.103 67.0078 260.862 66.7852C260.622 66.5566 260.502 66.2812 260.502 65.959C260.502 65.6426 260.622 65.373 260.862 65.1504C261.103 64.9219 261.39 64.8076 261.724 64.8076C262.063 64.8076 262.351 64.9219 262.585 65.1504C262.825 65.373 262.945 65.6426 262.945 65.959C262.945 66.2812 262.825 66.5566 262.585 66.7852C262.351 67.0078 262.063 67.1191 261.724 67.1191ZM266.672 72.6299V78H264.773V68.7188H266.637V70.2832L266.672 70.2656C266.883 69.7793 267.22 69.3691 267.683 69.0352C268.146 68.7012 268.74 68.5342 269.467 68.5342C270.105 68.5342 270.688 68.6748 271.216 68.9561C271.749 69.2373 272.174 69.6504 272.49 70.1953C272.807 70.7402 272.965 71.4141 272.965 72.2168V78H271.066V72.4453C271.066 71.707 270.873 71.1475 270.486 70.7666C270.105 70.3857 269.59 70.1953 268.939 70.1953C268.523 70.1953 268.143 70.2803 267.797 70.4502C267.457 70.6201 267.185 70.8838 266.979 71.2412C266.774 71.5986 266.672 72.0615 266.672 72.6299ZM278.906 81.7969C278.139 81.7969 277.465 81.6826 276.885 81.4541C276.311 81.2256 275.845 80.8945 275.487 80.4609C275.136 80.0332 274.922 79.5176 274.846 78.9141H276.727C276.809 79.2129 276.949 79.459 277.148 79.6523C277.354 79.8516 277.605 80.001 277.904 80.1006C278.203 80.2061 278.537 80.2588 278.906 80.2588C279.65 80.2588 280.23 80.0596 280.646 79.6611C281.062 79.2627 281.271 78.6914 281.271 77.9473V76.5146H281.235C281.048 76.8369 280.822 77.1152 280.559 77.3496C280.301 77.5781 279.999 77.7539 279.653 77.877C279.313 77.9941 278.918 78.0527 278.467 78.0527C277.658 78.0527 276.964 77.8535 276.384 77.4551C275.81 77.0566 275.367 76.5029 275.057 75.7939C274.746 75.085 274.591 74.2588 274.591 73.3154C274.591 72.3838 274.752 71.5605 275.074 70.8457C275.402 70.125 275.859 69.5596 276.445 69.1494C277.031 68.7393 277.714 68.5342 278.493 68.5342C279.038 68.5342 279.489 68.625 279.847 68.8066C280.21 68.9824 280.5 69.1992 280.717 69.457C280.939 69.709 281.112 69.9434 281.235 70.1602H281.288V68.7188H283.151V77.8682C283.151 78.8057 282.961 79.5615 282.58 80.1357C282.205 80.7158 281.695 81.1377 281.051 81.4014C280.406 81.665 279.691 81.7969 278.906 81.7969ZM278.862 76.4707C279.624 76.4707 280.219 76.1982 280.646 75.6533C281.074 75.1025 281.288 74.332 281.288 73.3418C281.288 72.6738 281.191 72.1055 280.998 71.6367C280.811 71.1621 280.535 70.7988 280.172 70.5469C279.814 70.2949 279.387 70.1689 278.889 70.1689C278.367 70.1689 277.928 70.3037 277.57 70.5732C277.213 70.8428 276.94 71.2178 276.753 71.6982C276.571 72.1729 276.48 72.7207 276.48 73.3418C276.48 73.9688 276.568 74.5166 276.744 74.9854C276.926 75.4541 277.192 75.8203 277.544 76.084C277.901 76.3418 278.341 76.4707 278.862 76.4707Z" fill="white"/>
<path d="M456.158 78V64.9043H458.136V76.2598H464.077V78H456.158ZM469.676 78.2109C468.791 78.2109 468.012 78.0059 467.338 77.5957C466.67 77.1855 466.148 76.6172 465.773 75.8906C465.404 75.1641 465.22 74.3262 465.22 73.377C465.22 72.416 465.404 71.5723 465.773 70.8457C466.148 70.1133 466.67 69.542 467.338 69.1318C468.012 68.7158 468.791 68.5078 469.676 68.5078C470.566 68.5078 471.346 68.7158 472.014 69.1318C472.682 69.542 473.2 70.1133 473.569 70.8457C473.944 71.5723 474.132 72.416 474.132 73.377C474.132 74.3262 473.944 75.1641 473.569 75.8906C473.2 76.6172 472.682 77.1855 472.014 77.5957C471.346 78.0059 470.566 78.2109 469.676 78.2109ZM469.676 76.5762C470.203 76.5762 470.654 76.4473 471.029 76.1895C471.41 75.9258 471.703 75.5537 471.908 75.0732C472.113 74.5928 472.216 74.0273 472.216 73.377C472.216 72.7148 472.113 72.1436 471.908 71.6631C471.703 71.1768 471.41 70.8018 471.029 70.5381C470.654 70.2744 470.203 70.1426 469.676 70.1426C469.154 70.1426 468.703 70.2744 468.322 70.5381C467.941 70.8018 467.648 71.1768 467.443 71.6631C467.238 72.1436 467.136 72.7148 467.136 73.377C467.136 74.0273 467.238 74.5928 467.443 75.0732C467.648 75.5537 467.941 75.9258 468.322 76.1895C468.703 76.4473 469.154 76.5762 469.676 76.5762ZM479.625 81.7969C478.857 81.7969 478.184 81.6826 477.604 81.4541C477.029 81.2256 476.563 80.8945 476.206 80.4609C475.854 80.0332 475.641 79.5176 475.564 78.9141H477.445C477.527 79.2129 477.668 79.459 477.867 79.6523C478.072 79.8516 478.324 80.001 478.623 80.1006C478.922 80.2061 479.256 80.2588 479.625 80.2588C480.369 80.2588 480.949 80.0596 481.365 79.6611C481.781 79.2627 481.989 78.6914 481.989 77.9473V76.5146H481.954C481.767 76.8369 481.541 77.1152 481.277 77.3496C481.02 77.5781 480.718 77.7539 480.372 77.877C480.032 77.9941 479.637 78.0527 479.186 78.0527C478.377 78.0527 477.683 77.8535 477.103 77.4551C476.528 77.0566 476.086 76.5029 475.775 75.7939C475.465 75.085 475.31 74.2588 475.31 73.3154C475.31 72.3838 475.471 71.5605 475.793 70.8457C476.121 70.125 476.578 69.5596 477.164 69.1494C477.75 68.7393 478.433 68.5342 479.212 68.5342C479.757 68.5342 480.208 68.625 480.565 68.8066C480.929 68.9824 481.219 69.1992 481.436 69.457C481.658 69.709 481.831 69.9434 481.954 70.1602H482.007V68.7188H483.87V77.8682C483.87 78.8057 483.68 79.5615 483.299 80.1357C482.924 80.7158 482.414 81.1377 481.77 81.4014C481.125 81.665 480.41 81.7969 479.625 81.7969ZM479.581 76.4707C480.343 76.4707 480.938 76.1982 481.365 75.6533C481.793 75.1025 482.007 74.332 482.007 73.3418C482.007 72.6738 481.91 72.1055 481.717 71.6367C481.529 71.1621 481.254 70.7988 480.891 70.5469C480.533 70.2949 480.105 70.1689 479.607 70.1689C479.086 70.1689 478.646 70.3037 478.289 70.5732C477.932 70.8428 477.659 71.2178 477.472 71.6982C477.29 72.1729 477.199 72.7207 477.199 73.3418C477.199 73.9688 477.287 74.5166 477.463 74.9854C477.645 75.4541 477.911 75.8203 478.263 76.084C478.62 76.3418 479.06 76.4707 479.581 76.4707ZM485.988 78V68.7188H487.887V78H485.988ZM486.929 67.1191C486.595 67.1191 486.308 67.0078 486.067 66.7852C485.827 66.5566 485.707 66.2812 485.707 65.959C485.707 65.6426 485.827 65.373 486.067 65.1504C486.308 64.9219 486.595 64.8076 486.929 64.8076C487.269 64.8076 487.556 64.9219 487.79 65.1504C488.03 65.373 488.15 65.6426 488.15 65.959C488.15 66.2812 488.03 66.5566 487.79 66.7852C487.556 67.0078 487.269 67.1191 486.929 67.1191ZM494.364 68.7188V70.2832H489.205V68.7188H494.364ZM490.576 66.1875H492.475V75.3633C492.475 75.75 492.554 76.0254 492.712 76.1895C492.876 76.3535 493.151 76.4355 493.538 76.4355C493.679 76.4355 493.819 76.4355 493.96 76.4355C494.106 76.4355 494.241 76.4355 494.364 76.4355V78C494.212 78 494.033 78 493.828 78C493.629 78 493.43 78 493.23 78C492.387 78 491.733 77.7979 491.271 77.3936C490.808 76.9834 490.576 76.4092 490.576 75.6709V66.1875ZM499.761 78.2109C498.841 78.2109 498.05 78.0029 497.388 77.5869C496.726 77.1709 496.216 76.5996 495.858 75.873C495.507 75.1406 495.331 74.3086 495.331 73.377C495.331 72.4277 495.516 71.5898 495.885 70.8633C496.254 70.1309 496.764 69.5566 497.414 69.1406C498.064 68.7188 498.814 68.5078 499.664 68.5078C500.32 68.5078 500.915 68.625 501.448 68.8594C501.981 69.0938 502.438 69.4277 502.819 69.8613C503.206 70.2891 503.499 70.7988 503.698 71.3906C503.903 71.9824 504.006 72.6357 504.006 73.3506V73.8691H496.166V72.4629H503.021L502.187 72.876C502.187 72.3076 502.084 71.8154 501.879 71.3994C501.674 70.9775 501.384 70.6523 501.009 70.4238C500.634 70.1953 500.191 70.0811 499.682 70.0811C499.178 70.0811 498.738 70.1953 498.363 70.4238C497.994 70.6523 497.707 70.9775 497.502 71.3994C497.297 71.8154 497.194 72.3076 497.194 72.876V73.6934C497.194 74.2734 497.294 74.7861 497.493 75.2314C497.698 75.6709 497.994 76.0166 498.381 76.2686C498.768 76.5146 499.236 76.6377 499.787 76.6377C500.191 76.6377 500.546 76.5762 500.851 76.4531C501.161 76.3301 501.416 76.1602 501.615 75.9434C501.82 75.7207 501.967 75.4629 502.055 75.1699H503.874C503.757 75.7734 503.505 76.3037 503.118 76.7607C502.737 77.2119 502.257 77.5664 501.677 77.8242C501.103 78.082 500.464 78.2109 499.761 78.2109ZM509.596 78.2109C508.711 78.2109 507.935 78.0059 507.267 77.5957C506.599 77.1855 506.08 76.6172 505.711 75.8906C505.342 75.1582 505.157 74.3203 505.157 73.377C505.157 72.4219 505.342 71.5781 505.711 70.8457C506.08 70.1133 506.599 69.542 507.267 69.1318C507.935 68.7158 508.711 68.5078 509.596 68.5078C510.34 68.5078 511.005 68.6543 511.591 68.9473C512.177 69.2344 512.651 69.6357 513.015 70.1514C513.378 70.6611 513.598 71.2471 513.674 71.9092H511.793C511.729 71.5635 511.603 71.2588 511.415 70.9951C511.233 70.7256 510.99 70.5146 510.686 70.3623C510.381 70.21 510.021 70.1338 509.604 70.1338C509.077 70.1338 508.623 70.2686 508.242 70.5381C507.867 70.8018 507.577 71.1768 507.372 71.6631C507.173 72.1494 507.073 72.7207 507.073 73.377C507.073 74.0273 507.173 74.5928 507.372 75.0732C507.577 75.5537 507.867 75.9258 508.242 76.1895C508.623 76.4531 509.077 76.585 509.604 76.585C510.237 76.585 510.724 76.4238 511.063 76.1016C511.409 75.7734 511.644 75.3398 511.767 74.8008H513.674C513.604 75.4512 513.387 76.0342 513.023 76.5498C512.66 77.0654 512.183 77.4727 511.591 77.7715C511.005 78.0645 510.34 78.2109 509.596 78.2109ZM517.154 72.6299V78H515.256V64.9043H517.154V70.2656H517.181C517.392 69.7793 517.729 69.3691 518.191 69.0352C518.654 68.7012 519.249 68.5342 519.976 68.5342C520.62 68.5342 521.203 68.6748 521.725 68.9561C522.246 69.2373 522.662 69.6504 522.973 70.1953C523.289 70.7402 523.447 71.4141 523.447 72.2168V78H521.549V72.4453C521.549 71.707 521.358 71.1475 520.978 70.7666C520.597 70.3857 520.081 70.1953 519.431 70.1953C519.015 70.1953 518.634 70.2803 518.288 70.4502C517.942 70.6201 517.667 70.8838 517.462 71.2412C517.257 71.5986 517.154 72.0615 517.154 72.6299ZM529.934 64.9043H532.491L536.534 75.0645H536.561L540.568 64.9043H543.179V78H541.219V68.0596H541.192L537.264 77.9824H535.805L531.858 68.0508H531.832V78H529.934V64.9043ZM546.932 64.9043L550.069 70.0283H550.157L553.304 64.9043H555.589L551.502 71.4785L555.598 78H553.277L550.148 72.9463H550.061L546.923 78H544.611L548.795 71.4609L544.62 64.9043H546.932ZM561.293 64.9043H563.851L567.894 75.0645H567.92L571.928 64.9043H574.538V78H572.578V68.0596H572.552L568.623 77.9824H567.164L563.218 68.0508H563.191V78H561.293V64.9043ZM579.565 78.1494C578.95 78.1494 578.399 78.0439 577.913 77.833C577.433 77.6221 577.052 77.3086 576.771 76.8926C576.489 76.4766 576.349 75.9609 576.349 75.3457C576.349 74.8184 576.448 74.3848 576.647 74.0449C576.853 73.7051 577.125 73.4355 577.465 73.2363C577.811 73.0371 578.203 72.8877 578.643 72.7881C579.088 72.6826 579.545 72.6035 580.014 72.5508C580.594 72.4746 581.054 72.416 581.394 72.375C581.733 72.3281 581.974 72.2578 582.114 72.1641C582.261 72.0645 582.334 71.9033 582.334 71.6807V71.6016C582.334 71.3027 582.261 71.0391 582.114 70.8105C581.968 70.582 581.754 70.4033 581.473 70.2744C581.197 70.1455 580.866 70.0811 580.479 70.0811C580.093 70.0811 579.75 70.1455 579.451 70.2744C579.152 70.3975 578.915 70.5703 578.739 70.793C578.563 71.0156 578.464 71.2705 578.44 71.5576H576.577C576.612 70.9834 576.791 70.4707 577.113 70.0195C577.436 69.5625 577.884 69.2021 578.458 68.9385C579.032 68.6689 579.709 68.5342 580.488 68.5342C581.062 68.5342 581.578 68.6104 582.035 68.7627C582.498 68.9092 582.891 69.1201 583.213 69.3955C583.535 69.6709 583.781 69.9961 583.951 70.3711C584.127 70.7461 584.215 71.1592 584.215 71.6104V78H582.343V76.6816H582.308C582.179 76.9336 582 77.1738 581.771 77.4023C581.549 77.625 581.259 77.8066 580.901 77.9473C580.544 78.082 580.099 78.1494 579.565 78.1494ZM579.961 76.6377C580.5 76.6377 580.945 76.541 581.297 76.3477C581.648 76.1543 581.909 75.8994 582.079 75.583C582.255 75.2607 582.343 74.9092 582.343 74.5283V73.4561C582.278 73.5029 582.173 73.5498 582.026 73.5967C581.886 73.6377 581.713 73.6787 581.508 73.7197C581.309 73.7607 581.089 73.8018 580.849 73.8428C580.614 73.8779 580.377 73.9102 580.137 73.9395C579.803 73.9863 579.489 74.0654 579.196 74.1768C578.909 74.2822 578.675 74.4316 578.493 74.625C578.317 74.8125 578.229 75.0645 578.229 75.3809C578.229 75.7734 578.385 76.0811 578.695 76.3037C579.006 76.5264 579.428 76.6377 579.961 76.6377ZM593.294 71.5576H591.492C591.486 71.1123 591.316 70.7432 590.982 70.4502C590.648 70.1514 590.209 70.002 589.664 70.002C589.143 70.002 588.727 70.125 588.416 70.3711C588.111 70.6113 587.959 70.9072 587.959 71.2588C587.959 71.5693 588.076 71.8213 588.311 72.0146C588.545 72.208 588.867 72.3516 589.277 72.4453L590.877 72.7881C591.785 72.9932 592.45 73.3037 592.872 73.7197C593.3 74.1357 593.514 74.6807 593.514 75.3545C593.514 75.9463 593.35 76.4561 593.021 76.8838C592.699 77.3115 592.254 77.6426 591.686 77.877C591.123 78.1055 590.479 78.2197 589.752 78.2197C589.037 78.2197 588.393 78.1055 587.818 77.877C587.25 77.6484 586.79 77.3086 586.438 76.8574C586.093 76.4004 585.896 75.8379 585.85 75.1699H587.722C587.774 75.668 587.971 76.0518 588.311 76.3213C588.65 76.5908 589.119 76.7256 589.717 76.7256C590.297 76.7256 590.754 76.6084 591.088 76.374C591.428 76.1338 591.598 75.8291 591.598 75.46C591.598 75.1494 591.478 74.9004 591.237 74.7129C590.997 74.5254 590.675 74.3877 590.271 74.2998L588.732 73.9658C587.854 73.7666 587.188 73.4443 586.737 72.999C586.286 72.5537 586.061 71.9883 586.061 71.3027C586.061 70.752 586.207 70.2686 586.5 69.8525C586.799 69.4307 587.218 69.1025 587.757 68.8682C588.296 68.6338 588.923 68.5166 589.638 68.5166C590.341 68.5166 590.965 68.6396 591.51 68.8857C592.055 69.1318 592.482 69.4834 592.793 69.9404C593.109 70.3916 593.276 70.9307 593.294 71.5576ZM599.517 68.7188V70.2832H594.357V68.7188H599.517ZM595.729 66.1875H597.627V75.3633C597.627 75.75 597.706 76.0254 597.864 76.1895C598.028 76.3535 598.304 76.4355 598.69 76.4355C598.831 76.4355 598.972 76.4355 599.112 76.4355C599.259 76.4355 599.394 76.4355 599.517 76.4355V78C599.364 78 599.186 78 598.98 78C598.781 78 598.582 78 598.383 78C597.539 78 596.886 77.7979 596.423 77.3936C595.96 76.9834 595.729 76.4092 595.729 75.6709V66.1875ZM604.913 78.2109C603.993 78.2109 603.202 78.0029 602.54 77.5869C601.878 77.1709 601.368 76.5996 601.011 75.873C600.659 75.1406 600.483 74.3086 600.483 73.377C600.483 72.4277 600.668 71.5898 601.037 70.8633C601.406 70.1309 601.916 69.5566 602.566 69.1406C603.217 68.7188 603.967 68.5078 604.816 68.5078C605.473 68.5078 606.067 68.625 606.601 68.8594C607.134 69.0938 607.591 69.4277 607.972 69.8613C608.358 70.2891 608.651 70.7988 608.851 71.3906C609.056 71.9824 609.158 72.6357 609.158 73.3506V73.8691H601.318V72.4629H608.174L607.339 72.876C607.339 72.3076 607.236 71.8154 607.031 71.3994C606.826 70.9775 606.536 70.6523 606.161 70.4238C605.786 70.1953 605.344 70.0811 604.834 70.0811C604.33 70.0811 603.891 70.1953 603.516 70.4238C603.146 70.6523 602.859 70.9775 602.654 71.3994C602.449 71.8154 602.347 72.3076 602.347 72.876V73.6934C602.347 74.2734 602.446 74.7861 602.646 75.2314C602.851 75.6709 603.146 76.0166 603.533 76.2686C603.92 76.5146 604.389 76.6377 604.939 76.6377C605.344 76.6377 605.698 76.5762 606.003 76.4531C606.313 76.3301 606.568 76.1602 606.768 75.9434C606.973 75.7207 607.119 75.4629 607.207 75.1699H609.026C608.909 75.7734 608.657 76.3037 608.271 76.7607C607.89 77.2119 607.409 77.5664 606.829 77.8242C606.255 78.082 605.616 78.2109 604.913 78.2109ZM610.758 78V68.7188H612.577V70.2217H612.612C612.782 69.7119 613.049 69.3164 613.412 69.0352C613.781 68.748 614.262 68.6045 614.854 68.6045C614.994 68.6045 615.123 68.6104 615.24 68.6221C615.363 68.6279 615.463 68.6367 615.539 68.6484V70.4062C615.463 70.3945 615.331 70.377 615.144 70.3535C614.962 70.3301 614.763 70.3184 614.546 70.3184C614.2 70.3184 613.884 70.4004 613.597 70.5645C613.31 70.7227 613.081 70.9658 612.911 71.2939C612.741 71.6221 612.656 72.0381 612.656 72.542V78H610.758ZM625.664 78.2109C624.691 78.2109 623.851 78.0205 623.142 77.6396C622.433 77.2588 621.885 76.7373 621.498 76.0752C621.111 75.4072 620.918 74.6514 620.918 73.8076H622.878C622.878 74.3818 622.986 74.877 623.203 75.293C623.42 75.7031 623.733 76.0166 624.144 76.2334C624.56 76.4502 625.055 76.5586 625.629 76.5586C626.18 76.5586 626.663 76.4648 627.079 76.2773C627.495 76.0898 627.82 75.832 628.055 75.5039C628.289 75.1699 628.406 74.792 628.406 74.3701C628.406 73.9131 628.28 73.5176 628.028 73.1836C627.776 72.8438 627.428 72.5801 626.982 72.3926C626.537 72.2051 626.016 72.1113 625.418 72.1113H624.319V70.4941H625.418C625.945 70.4941 626.405 70.4062 626.798 70.2305C627.196 70.0547 627.504 69.8115 627.721 69.501C627.943 69.1904 628.055 68.8242 628.055 68.4023C628.055 67.9922 627.952 67.6318 627.747 67.3213C627.542 67.0107 627.255 66.7676 626.886 66.5918C626.517 66.416 626.083 66.3281 625.585 66.3281C625.075 66.3281 624.633 66.4277 624.258 66.627C623.889 66.8203 623.602 67.0986 623.396 67.4619C623.197 67.8252 623.098 68.2588 623.098 68.7627H621.19C621.19 67.9658 621.375 67.2627 621.744 66.6533C622.113 66.0381 622.626 65.5576 623.282 65.2119C623.944 64.8662 624.715 64.6934 625.594 64.6934C626.426 64.6934 627.17 64.8486 627.826 65.1592C628.488 65.4697 629.01 65.8945 629.391 66.4336C629.771 66.9668 629.962 67.5703 629.962 68.2441C629.962 68.9648 629.742 69.5918 629.303 70.125C628.869 70.6523 628.286 71.0156 627.554 71.2148V71.2412C628.128 71.3291 628.626 71.5225 629.048 71.8213C629.47 72.1201 629.795 72.4951 630.023 72.9463C630.252 73.3916 630.366 73.8838 630.366 74.4229C630.366 75.1436 630.161 75.791 629.751 76.3652C629.347 76.9336 628.79 77.3848 628.081 77.7188C627.378 78.0469 626.572 78.2109 625.664 78.2109ZM640.025 78.1846C639.223 78.1846 638.52 77.9824 637.916 77.5781C637.312 77.168 636.844 76.6025 636.51 75.8818C636.176 75.1553 636.009 74.3145 636.009 73.3594C636.009 72.4043 636.176 71.5664 636.51 70.8457C636.844 70.1191 637.312 69.5537 637.916 69.1494C638.525 68.7393 639.229 68.5342 640.025 68.5342C640.43 68.5342 640.808 68.5898 641.159 68.7012C641.517 68.8125 641.839 68.9824 642.126 69.2109C642.413 69.4336 642.656 69.7119 642.855 70.0459H642.873V64.9043H644.771V78H642.908V76.6025H642.891C642.686 76.9541 642.437 77.2471 642.144 77.4814C641.851 77.7158 641.525 77.8916 641.168 78.0088C640.816 78.126 640.436 78.1846 640.025 78.1846ZM640.421 76.5586C640.942 76.5586 641.396 76.4268 641.783 76.1631C642.17 75.8936 642.469 75.5186 642.68 75.0381C642.891 74.5576 642.996 73.998 642.996 73.3594C642.996 72.709 642.891 72.1436 642.68 71.6631C642.469 71.1826 642.17 70.8105 641.783 70.5469C641.396 70.2832 640.942 70.1514 640.421 70.1514C639.929 70.1514 639.495 70.2744 639.12 70.5205C638.745 70.7666 638.452 71.127 638.241 71.6016C638.03 72.0762 637.925 72.6621 637.925 73.3594C637.925 74.0449 638.03 74.6279 638.241 75.1084C638.452 75.583 638.745 75.9434 639.12 76.1895C639.495 76.4355 639.929 76.5586 640.421 76.5586ZM650.845 78.2109C649.925 78.2109 649.134 78.0029 648.472 77.5869C647.81 77.1709 647.3 76.5996 646.942 75.873C646.591 75.1406 646.415 74.3086 646.415 73.377C646.415 72.4277 646.6 71.5898 646.969 70.8633C647.338 70.1309 647.848 69.5566 648.498 69.1406C649.148 68.7188 649.898 68.5078 650.748 68.5078C651.404 68.5078 651.999 68.625 652.532 68.8594C653.065 69.0938 653.522 69.4277 653.903 69.8613C654.29 70.2891 654.583 70.7988 654.782 71.3906C654.987 71.9824 655.09 72.6357 655.09 73.3506V73.8691H647.25V72.4629H654.105L653.271 72.876C653.271 72.3076 653.168 71.8154 652.963 71.3994C652.758 70.9775 652.468 70.6523 652.093 70.4238C651.718 70.1953 651.275 70.0811 650.766 70.0811C650.262 70.0811 649.822 70.1953 649.447 70.4238C649.078 70.6523 648.791 70.9775 648.586 71.3994C648.381 71.8154 648.278 72.3076 648.278 72.876V73.6934C648.278 74.2734 648.378 74.7861 648.577 75.2314C648.782 75.6709 649.078 76.0166 649.465 76.2686C649.852 76.5146 650.32 76.6377 650.871 76.6377C651.275 76.6377 651.63 76.5762 651.935 76.4531C652.245 76.3301 652.5 76.1602 652.699 75.9434C652.904 75.7207 653.051 75.4629 653.139 75.1699H654.958C654.841 75.7734 654.589 76.3037 654.202 76.7607C653.821 77.2119 653.341 77.5664 652.761 77.8242C652.187 78.082 651.548 78.2109 650.845 78.2109ZM661.075 68.7188V70.2832H655.916V68.7188H661.075ZM657.287 78V67.2334C657.287 66.7354 657.39 66.3135 657.595 65.9678C657.806 65.6221 658.107 65.3584 658.5 65.1768C658.898 64.9951 659.379 64.9043 659.941 64.9043C660.188 64.9043 660.419 64.9043 660.636 64.9043C660.853 64.9043 660.999 64.9043 661.075 64.9043V66.4688C661.011 66.4688 660.885 66.4688 660.697 66.4688C660.516 66.4688 660.366 66.4688 660.249 66.4688C659.862 66.4688 659.587 66.5508 659.423 66.7148C659.265 66.8789 659.186 67.1543 659.186 67.541V78H657.287ZM665.101 78.1494C664.485 78.1494 663.935 78.0439 663.448 77.833C662.968 77.6221 662.587 77.3086 662.306 76.8926C662.024 76.4766 661.884 75.9609 661.884 75.3457C661.884 74.8184 661.983 74.3848 662.183 74.0449C662.388 73.7051 662.66 73.4355 663 73.2363C663.346 73.0371 663.738 72.8877 664.178 72.7881C664.623 72.6826 665.08 72.6035 665.549 72.5508C666.129 72.4746 666.589 72.416 666.929 72.375C667.269 72.3281 667.509 72.2578 667.649 72.1641C667.796 72.0645 667.869 71.9033 667.869 71.6807V71.6016C667.869 71.3027 667.796 71.0391 667.649 70.8105C667.503 70.582 667.289 70.4033 667.008 70.2744C666.732 70.1455 666.401 70.0811 666.015 70.0811C665.628 70.0811 665.285 70.1455 664.986 70.2744C664.688 70.3975 664.45 70.5703 664.274 70.793C664.099 71.0156 663.999 71.2705 663.976 71.5576H662.112C662.147 70.9834 662.326 70.4707 662.648 70.0195C662.971 69.5625 663.419 69.2021 663.993 68.9385C664.567 68.6689 665.244 68.5342 666.023 68.5342C666.598 68.5342 667.113 68.6104 667.57 68.7627C668.033 68.9092 668.426 69.1201 668.748 69.3955C669.07 69.6709 669.316 69.9961 669.486 70.3711C669.662 70.7461 669.75 71.1592 669.75 71.6104V78H667.878V76.6816H667.843C667.714 76.9336 667.535 77.1738 667.307 77.4023C667.084 77.625 666.794 77.8066 666.437 77.9473C666.079 78.082 665.634 78.1494 665.101 78.1494ZM665.496 76.6377C666.035 76.6377 666.48 76.541 666.832 76.3477C667.184 76.1543 667.444 75.8994 667.614 75.583C667.79 75.2607 667.878 74.9092 667.878 74.5283V73.4561C667.813 73.5029 667.708 73.5498 667.562 73.5967C667.421 73.6377 667.248 73.6787 667.043 73.7197C666.844 73.7607 666.624 73.8018 666.384 73.8428C666.149 73.8779 665.912 73.9102 665.672 73.9395C665.338 73.9863 665.024 74.0654 664.731 74.1768C664.444 74.2822 664.21 74.4316 664.028 74.625C663.853 74.8125 663.765 75.0645 663.765 75.3809C663.765 75.7734 663.92 76.0811 664.23 76.3037C664.541 76.5264 664.963 76.6377 665.496 76.6377ZM678.135 74.0889V68.7188H680.033V78H678.17V76.4531H678.135C677.93 76.9336 677.593 77.3438 677.124 77.6836C676.661 78.0176 676.066 78.1846 675.34 78.1846C674.707 78.1846 674.124 78.0439 673.591 77.7627C673.058 77.4814 672.633 77.0684 672.316 76.5234C672 75.9727 671.842 75.2988 671.842 74.502V68.7188H673.74V74.2734C673.74 75.0117 673.934 75.5713 674.32 75.9521C674.707 76.333 675.223 76.5234 675.867 76.5234C676.283 76.5234 676.661 76.4385 677.001 76.2686C677.347 76.0986 677.622 75.835 677.827 75.4775C678.032 75.1143 678.135 74.6514 678.135 74.0889ZM684.041 64.9043V78H682.143V64.9043H684.041ZM690.536 68.7188V70.2832H685.377V68.7188H690.536ZM686.748 66.1875H688.646V75.3633C688.646 75.75 688.726 76.0254 688.884 76.1895C689.048 76.3535 689.323 76.4355 689.71 76.4355C689.851 76.4355 689.991 76.4355 690.132 76.4355C690.278 76.4355 690.413 76.4355 690.536 76.4355V78C690.384 78 690.205 78 690 78C689.801 78 689.602 78 689.402 78C688.559 78 687.905 77.7979 687.442 77.3936C686.979 76.9834 686.748 76.4092 686.748 75.6709V66.1875Z" fill="white"/>
<defs>
<linearGradient id="paint0_linear_7_134" x1="165" y1="186" x2="96" y2="192" gradientUnits="userSpaceOnUse">
<stop stop-color="white"/>
<stop offset="1" stop-color="white" stop-opacity="0"/>
</linearGradient>
<linearGradient id="paint1_linear_7_134" x1="507" y1="234" x2="438" y2="240" gradientUnits="userSpaceOnUse">
<stop stop-color="white"/>
<stop offset="1" stop-color="white" stop-opacity="0"/>
</linearGradient>
</defs>
</svg>
