<svg width="792" height="408" viewBox="0 0 792 408" fill="none" xmlns="http://www.w3.org/2000/svg">
<circle cx="282" cy="240" r="45" stroke="white" stroke-width="6"/>
<circle cx="636" cy="240" r="45" stroke="white" stroke-width="6"/>
<path d="M282 195V204" stroke="white" stroke-width="6"/>
<path d="M636 195V204" stroke="white" stroke-width="6"/>
<path d="M313.82 208.181L307.456 214.545" stroke="white" stroke-width="6"/>
<path d="M667.82 208.181L661.456 214.545" stroke="white" stroke-width="6"/>
<path d="M327 240L318 240" stroke="white" stroke-width="6"/>
<path d="M681 240L672 240" stroke="white" stroke-width="6"/>
<path d="M313.82 271.819L307.456 265.455" stroke="white" stroke-width="6"/>
<path d="M667.82 271.819L661.456 265.455" stroke="white" stroke-width="6"/>
<path d="M282 276V285" stroke="white" stroke-width="6"/>
<path d="M636 276V285" stroke="white" stroke-width="6"/>
<path d="M256.544 265.456L250.18 271.82" stroke="white" stroke-width="6"/>
<path d="M610.544 265.456L604.18 271.82" stroke="white" stroke-width="6"/>
<path d="M246 240L237 240" stroke="white" stroke-width="6"/>
<path d="M600 240L591 240" stroke="white" stroke-width="6"/>
<path d="M256.544 214.544L250.18 208.18" stroke="white" stroke-width="6"/>
<path d="M610.544 214.544L604.18 208.18" stroke="white" stroke-width="6"/>
<path opacity="0.5" d="M141 225.001L166.849 213.035C180.762 206.595 191.152 194.378 195.275 179.612C199.081 165.98 187.206 153.11 173.313 155.809L130.481 164.131C127.523 164.705 124.706 165.856 122.192 167.517L89.7772 188.933L95.3751 260.932L141 225.001Z" fill="url(#paint0_linear_7_134)"/>
<path opacity="0.5" d="M483 243.001L493.114 244.67C514.545 248.206 535.201 235.039 541.042 214.118C543.476 205.402 537.946 196.466 529.06 194.756L480.258 185.361C472.4 183.848 464.262 185.471 457.585 189.882L431.777 206.933L437.375 308.932L483 243.001Z" fill="url(#paint1_linear_7_134)"/>
<path d="M219 240C219 238.343 220.343 237 222 237C223.657 237 225 238.343 225 240L219 240ZM224.121 314.121C222.95 315.293 221.05 315.293 219.879 314.121L200.787 295.029C199.615 293.858 199.615 291.958 200.787 290.787C201.958 289.615 203.858 289.615 205.029 290.787L222 307.757L238.971 290.787C240.142 289.615 242.042 289.615 243.213 290.787C244.385 291.958 244.385 293.858 243.213 295.029L224.121 314.121ZM225 240L225 312L219 312L219 240L225 240Z" fill="white"/>
<path d="M573 240C573 241.657 574.343 243 576 243C577.657 243 579 241.657 579 240L573 240ZM578.121 165.879C576.95 164.707 575.05 164.707 573.879 165.879L554.787 184.971C553.615 186.142 553.615 188.042 554.787 189.213C555.958 190.385 557.858 190.385 559.029 189.213L576 172.243L592.971 189.213C594.142 190.385 596.042 190.385 597.213 189.213C598.385 188.042 598.385 186.142 597.213 184.971L578.121 165.879ZM579 240L579 168L573 168L573 240L579 240Z" fill="white"/>
<path d="M282 303C280.343 303 279 301.657 279 300C279 298.343 280.343 297 282 297V303ZM356.121 297.879C357.293 299.05 357.293 300.95 356.121 302.121L337.029 321.213C335.858 322.385 333.958 322.385 332.787 321.213C331.615 320.042 331.615 318.142 332.787 316.971L349.757 300L332.787 283.029C331.615 281.858 331.615 279.958 332.787 278.787C333.958 277.615 335.858 277.615 337.029 278.787L356.121 297.879ZM282 297H354V303H282V297Z" fill="white"/>
<path d="M636 303C634.343 303 633 301.657 633 300C633 298.343 634.343 297 636 297V303ZM710.121 297.879C711.293 299.05 711.293 300.95 710.121 302.121L691.029 321.213C689.858 322.385 687.958 322.385 686.787 321.213C685.615 320.042 685.615 318.142 686.787 316.971L703.757 300L686.787 283.029C685.615 281.858 685.615 279.958 686.787 278.787C687.958 277.615 689.858 277.615 691.029 278.787L710.121 297.879ZM636 297H708V303H636V297Z" fill="white"/>
<rect opacity="0.5" x="60" y="330" width="318" height="18" fill="#D9D9D9"/>
<rect opacity="0.5" x="414" y="330" width="318" height="18" fill="#D9D9D9"/>
<path d="M154.462 69.4131L155.763 64.9043H157.116L156.387 69.4131H154.462ZM161.537 78L157.916 64.9043H159.99L162.583 75.2051H162.618L165.316 64.9043H167.373L170.071 75.2051H170.106L172.69 64.9043H174.782L171.135 78H169.148L166.362 68.0771H166.327L163.541 78H161.537ZM177.85 72.6299V78H175.951V64.9043H177.85V70.2656H177.876C178.087 69.7793 178.424 69.3691 178.887 69.0352C179.35 68.7012 179.944 68.5342 180.671 68.5342C181.315 68.5342 181.898 68.6748 182.42 68.9561C182.941 69.2373 183.357 69.6504 183.668 70.1953C183.984 70.7402 184.143 71.4141 184.143 72.2168V78H182.244V72.4453C182.244 71.707 182.054 71.1475 181.673 70.7666C181.292 70.3857 180.776 70.1953 180.126 70.1953C179.71 70.1953 179.329 70.2803 178.983 70.4502C178.638 70.6201 178.362 70.8838 178.157 71.2412C177.952 71.5986 177.85 72.0615 177.85 72.6299ZM190.198 78.2109C189.278 78.2109 188.487 78.0029 187.825 77.5869C187.163 77.1709 186.653 76.5996 186.296 75.873C185.944 75.1406 185.769 74.3086 185.769 73.377C185.769 72.4277 185.953 71.5898 186.322 70.8633C186.691 70.1309 187.201 69.5566 187.852 69.1406C188.502 68.7188 189.252 68.5078 190.102 68.5078C190.758 68.5078 191.353 68.625 191.886 68.8594C192.419 69.0938 192.876 69.4277 193.257 69.8613C193.644 70.2891 193.937 70.7988 194.136 71.3906C194.341 71.9824 194.443 72.6357 194.443 73.3506V73.8691H186.604V72.4629H193.459L192.624 72.876C192.624 72.3076 192.521 71.8154 192.316 71.3994C192.111 70.9775 191.821 70.6523 191.446 70.4238C191.071 70.1953 190.629 70.0811 190.119 70.0811C189.615 70.0811 189.176 70.1953 188.801 70.4238C188.432 70.6523 188.145 70.9775 187.939 71.3994C187.734 71.8154 187.632 72.3076 187.632 72.876V73.6934C187.632 74.2734 187.731 74.7861 187.931 75.2314C188.136 75.6709 188.432 76.0166 188.818 76.2686C189.205 76.5146 189.674 76.6377 190.225 76.6377C190.629 76.6377 190.983 76.5762 191.288 76.4531C191.599 76.3301 191.854 76.1602 192.053 75.9434C192.258 75.7207 192.404 75.4629 192.492 75.1699H194.312C194.194 75.7734 193.942 76.3037 193.556 76.7607C193.175 77.2119 192.694 77.5664 192.114 77.8242C191.54 78.082 190.901 78.2109 190.198 78.2109ZM200.024 78.2109C199.104 78.2109 198.313 78.0029 197.651 77.5869C196.989 77.1709 196.479 76.5996 196.122 75.873C195.771 75.1406 195.595 74.3086 195.595 73.377C195.595 72.4277 195.779 71.5898 196.148 70.8633C196.518 70.1309 197.027 69.5566 197.678 69.1406C198.328 68.7188 199.078 68.5078 199.928 68.5078C200.584 68.5078 201.179 68.625 201.712 68.8594C202.245 69.0938 202.702 69.4277 203.083 69.8613C203.47 70.2891 203.763 70.7988 203.962 71.3906C204.167 71.9824 204.27 72.6357 204.27 73.3506V73.8691H196.43V72.4629H203.285L202.45 72.876C202.45 72.3076 202.348 71.8154 202.143 71.3994C201.938 70.9775 201.647 70.6523 201.272 70.4238C200.897 70.1953 200.455 70.0811 199.945 70.0811C199.441 70.0811 199.002 70.1953 198.627 70.4238C198.258 70.6523 197.971 70.9775 197.766 71.3994C197.561 71.8154 197.458 72.3076 197.458 72.876V73.6934C197.458 74.2734 197.558 74.7861 197.757 75.2314C197.962 75.6709 198.258 76.0166 198.645 76.2686C199.031 76.5146 199.5 76.6377 200.051 76.6377C200.455 76.6377 200.81 76.5762 201.114 76.4531C201.425 76.3301 201.68 76.1602 201.879 75.9434C202.084 75.7207 202.23 75.4629 202.318 75.1699H204.138C204.021 75.7734 203.769 76.3037 203.382 76.7607C203.001 77.2119 202.521 77.5664 201.94 77.8242C201.366 78.082 200.728 78.2109 200.024 78.2109ZM207.785 64.9043V78H205.887V64.9043H207.785ZM209.517 69.4131L210.237 64.9043H212.171L210.87 69.4131H209.517ZM225.161 71.5576H223.359C223.354 71.1123 223.184 70.7432 222.85 70.4502C222.516 70.1514 222.076 70.002 221.531 70.002C221.01 70.002 220.594 70.125 220.283 70.3711C219.979 70.6113 219.826 70.9072 219.826 71.2588C219.826 71.5693 219.943 71.8213 220.178 72.0146C220.412 72.208 220.734 72.3516 221.145 72.4453L222.744 72.7881C223.652 72.9932 224.317 73.3037 224.739 73.7197C225.167 74.1357 225.381 74.6807 225.381 75.3545C225.381 75.9463 225.217 76.4561 224.889 76.8838C224.566 77.3115 224.121 77.6426 223.553 77.877C222.99 78.1055 222.346 78.2197 221.619 78.2197C220.904 78.2197 220.26 78.1055 219.686 77.877C219.117 77.6484 218.657 77.3086 218.306 76.8574C217.96 76.4004 217.764 75.8379 217.717 75.1699H219.589C219.642 75.668 219.838 76.0518 220.178 76.3213C220.518 76.5908 220.986 76.7256 221.584 76.7256C222.164 76.7256 222.621 76.6084 222.955 76.374C223.295 76.1338 223.465 75.8291 223.465 75.46C223.465 75.1494 223.345 74.9004 223.104 74.7129C222.864 74.5254 222.542 74.3877 222.138 74.2998L220.6 73.9658C219.721 73.7666 219.056 73.4443 218.604 72.999C218.153 72.5537 217.928 71.9883 217.928 71.3027C217.928 70.752 218.074 70.2686 218.367 69.8525C218.666 69.4307 219.085 69.1025 219.624 68.8682C220.163 68.6338 220.79 68.5166 221.505 68.5166C222.208 68.5166 222.832 68.6396 223.377 68.8857C223.922 69.1318 224.35 69.4834 224.66 69.9404C224.977 70.3916 225.144 70.9307 225.161 71.5576ZM230.988 78.2109C230.104 78.2109 229.327 78.0059 228.659 77.5957C227.991 77.1855 227.473 76.6172 227.104 75.8906C226.734 75.1582 226.55 74.3203 226.55 73.377C226.55 72.4219 226.734 71.5781 227.104 70.8457C227.473 70.1133 227.991 69.542 228.659 69.1318C229.327 68.7158 230.104 68.5078 230.988 68.5078C231.732 68.5078 232.397 68.6543 232.983 68.9473C233.569 69.2344 234.044 69.6357 234.407 70.1514C234.771 70.6611 234.99 71.2471 235.066 71.9092H233.186C233.121 71.5635 232.995 71.2588 232.808 70.9951C232.626 70.7256 232.383 70.5146 232.078 70.3623C231.773 70.21 231.413 70.1338 230.997 70.1338C230.47 70.1338 230.016 70.2686 229.635 70.5381C229.26 70.8018 228.97 71.1768 228.765 71.6631C228.565 72.1494 228.466 72.7207 228.466 73.377C228.466 74.0273 228.565 74.5928 228.765 75.0732C228.97 75.5537 229.26 75.9258 229.635 76.1895C230.016 76.4531 230.47 76.585 230.997 76.585C231.63 76.585 232.116 76.4238 232.456 76.1016C232.802 75.7734 233.036 75.3398 233.159 74.8008H235.066C234.996 75.4512 234.779 76.0342 234.416 76.5498C234.053 77.0654 233.575 77.4727 232.983 77.7715C232.397 78.0645 231.732 78.2109 230.988 78.2109ZM236.631 78V68.7188H238.45V70.2217H238.485C238.655 69.7119 238.922 69.3164 239.285 69.0352C239.654 68.748 240.135 68.6045 240.727 68.6045C240.867 68.6045 240.996 68.6104 241.113 68.6221C241.236 68.6279 241.336 68.6367 241.412 68.6484V70.4062C241.336 70.3945 241.204 70.377 241.017 70.3535C240.835 70.3301 240.636 70.3184 240.419 70.3184C240.073 70.3184 239.757 70.4004 239.47 70.5645C239.183 70.7227 238.954 70.9658 238.784 71.2939C238.614 71.6221 238.529 72.0381 238.529 72.542V78H236.631ZM246.492 78.2109C245.607 78.2109 244.828 78.0059 244.154 77.5957C243.486 77.1855 242.965 76.6172 242.59 75.8906C242.221 75.1641 242.036 74.3262 242.036 73.377C242.036 72.416 242.221 71.5723 242.59 70.8457C242.965 70.1133 243.486 69.542 244.154 69.1318C244.828 68.7158 245.607 68.5078 246.492 68.5078C247.383 68.5078 248.162 68.7158 248.83 69.1318C249.498 69.542 250.017 70.1133 250.386 70.8457C250.761 71.5723 250.948 72.416 250.948 73.377C250.948 74.3262 250.761 75.1641 250.386 75.8906C250.017 76.6172 249.498 77.1855 248.83 77.5957C248.162 78.0059 247.383 78.2109 246.492 78.2109ZM246.492 76.5762C247.02 76.5762 247.471 76.4473 247.846 76.1895C248.227 75.9258 248.52 75.5537 248.725 75.0732C248.93 74.5928 249.032 74.0273 249.032 73.377C249.032 72.7148 248.93 72.1436 248.725 71.6631C248.52 71.1768 248.227 70.8018 247.846 70.5381C247.471 70.2744 247.02 70.1426 246.492 70.1426C245.971 70.1426 245.52 70.2744 245.139 70.5381C244.758 70.8018 244.465 71.1768 244.26 71.6631C244.055 72.1436 243.952 72.7148 243.952 73.377C243.952 74.0273 244.055 74.5928 244.26 75.0732C244.465 75.5537 244.758 75.9258 245.139 76.1895C245.52 76.4473 245.971 76.5762 246.492 76.5762ZM254.49 64.9043V78H252.592V64.9043H254.49ZM258.498 64.9043V78H256.6V64.9043H258.498ZM260.783 78V68.7188H262.682V78H260.783ZM261.724 67.1191C261.39 67.1191 261.103 67.0078 260.862 66.7852C260.622 66.5566 260.502 66.2812 260.502 65.959C260.502 65.6426 260.622 65.373 260.862 65.1504C261.103 64.9219 261.39 64.8076 261.724 64.8076C262.063 64.8076 262.351 64.9219 262.585 65.1504C262.825 65.373 262.945 65.6426 262.945 65.959C262.945 66.2812 262.825 66.5566 262.585 66.7852C262.351 67.0078 262.063 67.1191 261.724 67.1191ZM266.672 72.6299V78H264.773V68.7188H266.637V70.2832L266.672 70.2656C266.883 69.7793 267.22 69.3691 267.683 69.0352C268.146 68.7012 268.74 68.5342 269.467 68.5342C270.105 68.5342 270.688 68.6748 271.216 68.9561C271.749 69.2373 272.174 69.6504 272.49 70.1953C272.807 70.7402 272.965 71.4141 272.965 72.2168V78H271.066V72.4453C271.066 71.707 270.873 71.1475 270.486 70.7666C270.105 70.3857 269.59 70.1953 268.939 70.1953C268.523 70.1953 268.143 70.2803 267.797 70.4502C267.457 70.6201 267.185 70.8838 266.979 71.2412C266.774 71.5986 266.672 72.0615 266.672 72.6299ZM278.906 81.7969C278.139 81.7969 277.465 81.6826 276.885 81.4541C276.311 81.2256 275.845 80.8945 275.487 80.4609C275.136 80.0332 274.922 79.5176 274.846 78.9141H276.727C276.809 79.2129 276.949 79.459 277.148 79.6523C277.354 79.8516 277.605 80.001 277.904 80.1006C278.203 80.2061 278.537 80.2588 278.906 80.2588C279.65 80.2588 280.23 80.0596 280.646 79.6611C281.062 79.2627 281.271 78.6914 281.271 77.9473V76.5146H281.235C281.048 76.8369 280.822 77.1152 280.559 77.3496C280.301 77.5781 279.999 77.7539 279.653 77.877C279.313 77.9941 278.918 78.0527 278.467 78.0527C277.658 78.0527 276.964 77.8535 276.384 77.4551C275.81 77.0566 275.367 76.5029 275.057 75.7939C274.746 75.085 274.591 74.2588 274.591 73.3154C274.591 72.3838 274.752 71.5605 275.074 70.8457C275.402 70.125 275.859 69.5596 276.445 69.1494C277.031 68.7393 277.714 68.5342 278.493 68.5342C279.038 68.5342 279.489 68.625 279.847 68.8066C280.21 68.9824 280.5 69.1992 280.717 69.457C280.939 69.709 281.112 69.9434 281.235 70.1602H281.288V68.7188H283.151V77.8682C283.151 78.8057 282.961 79.5615 282.58 80.1357C282.205 80.7158 281.695 81.1377 281.051 81.4014C280.406 81.665 279.691 81.7969 278.906 81.7969ZM278.862 76.4707C279.624 76.4707 280.219 76.1982 280.646 75.6533C281.074 75.1025 281.288 74.332 281.288 73.3418C281.288 72.6738 281.191 72.1055 280.998 71.6367C280.811 71.1621 280.535 70.7988 280.172 70.5469C279.814 70.2949 279.387 70.1689 278.889 70.1689C278.367 70.1689 277.928 70.3037 277.57 70.5732C277.213 70.8428 276.94 71.2178 276.753 71.6982C276.571 72.1729 276.48 72.7207 276.48 73.3418C276.48 73.9688 276.568 74.5166 276.744 74.9854C276.926 75.4541 277.192 75.8203 277.544 76.084C277.901 76.3418 278.341 76.4707 278.862 76.4707Z" fill="white"/>
<path d="M495.226 64.9043H497.783L501.826 75.0645H501.853L505.86 64.9043H508.471V78H506.511V68.0596H506.484L502.556 77.9824H501.097L497.15 68.0508H497.124V78H495.226V64.9043ZM512.136 81.6738C511.937 81.6738 511.737 81.6738 511.538 81.6738C511.339 81.6738 511.14 81.6738 510.94 81.6738V80.0127H511.872C512.2 80.0127 512.455 79.9102 512.637 79.7051C512.824 79.5 512.974 79.251 513.085 78.958L513.454 78L509.921 68.7188H511.942L514.465 75.7852H514.5L516.987 68.7188H518.974L514.834 79.6172C514.67 80.0566 514.456 80.4287 514.192 80.7334C513.929 81.0439 513.621 81.2783 513.27 81.4365C512.924 81.5947 512.546 81.6738 512.136 81.6738ZM524.563 81.6738V68.7188H526.427V70.0459H526.444C526.644 69.7119 526.89 69.4336 527.183 69.2109C527.476 68.9824 527.804 68.8125 528.167 68.7012C528.53 68.5898 528.911 68.5342 529.31 68.5342C530.112 68.5342 530.815 68.7393 531.419 69.1494C532.022 69.5537 532.491 70.1191 532.825 70.8457C533.159 71.5664 533.326 72.4043 533.326 73.3594C533.326 74.3145 533.159 75.1553 532.825 75.8818C532.491 76.6025 532.022 77.168 531.419 77.5781C530.821 77.9824 530.118 78.1846 529.31 78.1846C528.905 78.1846 528.527 78.126 528.176 78.0088C527.824 77.8916 527.505 77.7158 527.218 77.4814C526.931 77.2471 526.685 76.9541 526.479 76.6025H526.462V81.6738H524.563ZM528.914 76.5586C529.412 76.5586 529.846 76.4355 530.215 76.1895C530.59 75.9434 530.883 75.583 531.094 75.1084C531.305 74.6279 531.41 74.0449 531.41 73.3594C531.41 72.6621 531.305 72.0762 531.094 71.6016C530.883 71.127 530.59 70.7666 530.215 70.5205C529.846 70.2744 529.412 70.1514 528.914 70.1514C528.393 70.1514 527.938 70.2832 527.552 70.5469C527.165 70.8105 526.866 71.1826 526.655 71.6631C526.444 72.1436 526.339 72.709 526.339 73.3594C526.339 73.998 526.444 74.5576 526.655 75.0381C526.866 75.5186 527.165 75.8936 527.552 76.1631C527.938 76.4268 528.393 76.5586 528.914 76.5586ZM534.952 78V68.7188H536.771V70.2217H536.807C536.977 69.7119 537.243 69.3164 537.606 69.0352C537.976 68.748 538.456 68.6045 539.048 68.6045C539.188 68.6045 539.317 68.6104 539.435 68.6221C539.558 68.6279 539.657 68.6367 539.733 68.6484V70.4062C539.657 70.3945 539.525 70.377 539.338 70.3535C539.156 70.3301 538.957 70.3184 538.74 70.3184C538.395 70.3184 538.078 70.4004 537.791 70.5645C537.504 70.7227 537.275 70.9658 537.105 71.2939C536.936 71.6221 536.851 72.0381 536.851 72.542V78H534.952ZM544.787 78.2109C543.867 78.2109 543.076 78.0029 542.414 77.5869C541.752 77.1709 541.242 76.5996 540.885 75.873C540.533 75.1406 540.357 74.3086 540.357 73.377C540.357 72.4277 540.542 71.5898 540.911 70.8633C541.28 70.1309 541.79 69.5566 542.44 69.1406C543.091 68.7188 543.841 68.5078 544.69 68.5078C545.347 68.5078 545.941 68.625 546.475 68.8594C547.008 69.0938 547.465 69.4277 547.846 69.8613C548.232 70.2891 548.525 70.7988 548.725 71.3906C548.93 71.9824 549.032 72.6357 549.032 73.3506V73.8691H541.192V72.4629H548.048L547.213 72.876C547.213 72.3076 547.11 71.8154 546.905 71.3994C546.7 70.9775 546.41 70.6523 546.035 70.4238C545.66 70.1953 545.218 70.0811 544.708 70.0811C544.204 70.0811 543.765 70.1953 543.39 70.4238C543.021 70.6523 542.733 70.9775 542.528 71.3994C542.323 71.8154 542.221 72.3076 542.221 72.876V73.6934C542.221 74.2734 542.32 74.7861 542.52 75.2314C542.725 75.6709 543.021 76.0166 543.407 76.2686C543.794 76.5146 544.263 76.6377 544.813 76.6377C545.218 76.6377 545.572 76.5762 545.877 76.4531C546.188 76.3301 546.442 76.1602 546.642 75.9434C546.847 75.7207 546.993 75.4629 547.081 75.1699H548.9C548.783 75.7734 548.531 76.3037 548.145 76.7607C547.764 77.2119 547.283 77.5664 546.703 77.8242C546.129 78.082 545.49 78.2109 544.787 78.2109ZM558.577 68.7188L555.062 78H553.04L549.524 68.7188H551.546L554.068 75.7676H554.095L556.582 68.7188H558.577ZM559.896 78V68.7188H561.794V78H559.896ZM560.836 67.1191C560.502 67.1191 560.215 67.0078 559.975 66.7852C559.734 66.5566 559.614 66.2812 559.614 65.959C559.614 65.6426 559.734 65.373 559.975 65.1504C560.215 64.9219 560.502 64.8076 560.836 64.8076C561.176 64.8076 561.463 64.9219 561.697 65.1504C561.938 65.373 562.058 65.6426 562.058 65.959C562.058 66.2812 561.938 66.5566 561.697 66.7852C561.463 67.0078 561.176 67.1191 560.836 67.1191ZM567.894 78.2109C567.009 78.2109 566.229 78.0059 565.556 77.5957C564.888 77.1855 564.366 76.6172 563.991 75.8906C563.622 75.1641 563.438 74.3262 563.438 73.377C563.438 72.416 563.622 71.5723 563.991 70.8457C564.366 70.1133 564.888 69.542 565.556 69.1318C566.229 68.7158 567.009 68.5078 567.894 68.5078C568.784 68.5078 569.563 68.7158 570.231 69.1318C570.899 69.542 571.418 70.1133 571.787 70.8457C572.162 71.5723 572.35 72.416 572.35 73.377C572.35 74.3262 572.162 75.1641 571.787 75.8906C571.418 76.6172 570.899 77.1855 570.231 77.5957C569.563 78.0059 568.784 78.2109 567.894 78.2109ZM567.894 76.5762C568.421 76.5762 568.872 76.4473 569.247 76.1895C569.628 75.9258 569.921 75.5537 570.126 75.0732C570.331 74.5928 570.434 74.0273 570.434 73.377C570.434 72.7148 570.331 72.1436 570.126 71.6631C569.921 71.1768 569.628 70.8018 569.247 70.5381C568.872 70.2744 568.421 70.1426 567.894 70.1426C567.372 70.1426 566.921 70.2744 566.54 70.5381C566.159 70.8018 565.866 71.1768 565.661 71.6631C565.456 72.1436 565.354 72.7148 565.354 73.377C565.354 74.0273 565.456 74.5928 565.661 75.0732C565.866 75.5537 566.159 75.9258 566.54 76.1895C566.921 76.4473 567.372 76.5762 567.894 76.5762ZM580.286 74.0889V68.7188H582.185V78H580.321V76.4531H580.286C580.081 76.9336 579.744 77.3438 579.275 77.6836C578.812 78.0176 578.218 78.1846 577.491 78.1846C576.858 78.1846 576.275 78.0439 575.742 77.7627C575.209 77.4814 574.784 77.0684 574.468 76.5234C574.151 75.9727 573.993 75.2988 573.993 74.502V68.7188H575.892V74.2734C575.892 75.0117 576.085 75.5713 576.472 75.9521C576.858 76.333 577.374 76.5234 578.019 76.5234C578.435 76.5234 578.812 76.4385 579.152 76.2686C579.498 76.0986 579.773 75.835 579.979 75.4775C580.184 75.1143 580.286 74.6514 580.286 74.0889ZM591.281 71.5576H589.479C589.474 71.1123 589.304 70.7432 588.97 70.4502C588.636 70.1514 588.196 70.002 587.651 70.002C587.13 70.002 586.714 70.125 586.403 70.3711C586.099 70.6113 585.946 70.9072 585.946 71.2588C585.946 71.5693 586.063 71.8213 586.298 72.0146C586.532 72.208 586.854 72.3516 587.265 72.4453L588.864 72.7881C589.772 72.9932 590.438 73.3037 590.859 73.7197C591.287 74.1357 591.501 74.6807 591.501 75.3545C591.501 75.9463 591.337 76.4561 591.009 76.8838C590.687 77.3115 590.241 77.6426 589.673 77.877C589.11 78.1055 588.466 78.2197 587.739 78.2197C587.024 78.2197 586.38 78.1055 585.806 77.877C585.237 77.6484 584.777 77.3086 584.426 76.8574C584.08 76.4004 583.884 75.8379 583.837 75.1699H585.709C585.762 75.668 585.958 76.0518 586.298 76.3213C586.638 76.5908 587.106 76.7256 587.704 76.7256C588.284 76.7256 588.741 76.6084 589.075 76.374C589.415 76.1338 589.585 75.8291 589.585 75.46C589.585 75.1494 589.465 74.9004 589.225 74.7129C588.984 74.5254 588.662 74.3877 588.258 74.2998L586.72 73.9658C585.841 73.7666 585.176 73.4443 584.725 72.999C584.273 72.5537 584.048 71.9883 584.048 71.3027C584.048 70.752 584.194 70.2686 584.487 69.8525C584.786 69.4307 585.205 69.1025 585.744 68.8682C586.283 68.6338 586.91 68.5166 587.625 68.5166C588.328 68.5166 588.952 68.6396 589.497 68.8857C590.042 69.1318 590.47 69.4834 590.78 69.9404C591.097 70.3916 591.264 70.9307 591.281 71.5576ZM600.958 78.1846C600.155 78.1846 599.452 77.9824 598.849 77.5781C598.245 77.168 597.776 76.6025 597.442 75.8818C597.108 75.1553 596.941 74.3145 596.941 73.3594C596.941 72.4043 597.108 71.5664 597.442 70.8457C597.776 70.1191 598.245 69.5537 598.849 69.1494C599.458 68.7393 600.161 68.5342 600.958 68.5342C601.362 68.5342 601.74 68.5898 602.092 68.7012C602.449 68.8125 602.771 68.9824 603.059 69.2109C603.346 69.4336 603.589 69.7119 603.788 70.0459H603.806V64.9043H605.704V78H603.841V76.6025H603.823C603.618 76.9541 603.369 77.2471 603.076 77.4814C602.783 77.7158 602.458 77.8916 602.101 78.0088C601.749 78.126 601.368 78.1846 600.958 78.1846ZM601.354 76.5586C601.875 76.5586 602.329 76.4268 602.716 76.1631C603.103 75.8936 603.401 75.5186 603.612 75.0381C603.823 74.5576 603.929 73.998 603.929 73.3594C603.929 72.709 603.823 72.1436 603.612 71.6631C603.401 71.1826 603.103 70.8105 602.716 70.5469C602.329 70.2832 601.875 70.1514 601.354 70.1514C600.861 70.1514 600.428 70.2744 600.053 70.5205C599.678 70.7666 599.385 71.127 599.174 71.6016C598.963 72.0762 598.857 72.6621 598.857 73.3594C598.857 74.0449 598.963 74.6279 599.174 75.1084C599.385 75.583 599.678 75.9434 600.053 76.1895C600.428 76.4355 600.861 76.5586 601.354 76.5586ZM611.777 78.2109C610.857 78.2109 610.066 78.0029 609.404 77.5869C608.742 77.1709 608.232 76.5996 607.875 75.873C607.523 75.1406 607.348 74.3086 607.348 73.377C607.348 72.4277 607.532 71.5898 607.901 70.8633C608.271 70.1309 608.78 69.5566 609.431 69.1406C610.081 68.7188 610.831 68.5078 611.681 68.5078C612.337 68.5078 612.932 68.625 613.465 68.8594C613.998 69.0938 614.455 69.4277 614.836 69.8613C615.223 70.2891 615.516 70.7988 615.715 71.3906C615.92 71.9824 616.022 72.6357 616.022 73.3506V73.8691H608.183V72.4629H615.038L614.203 72.876C614.203 72.3076 614.101 71.8154 613.896 71.3994C613.69 70.9775 613.4 70.6523 613.025 70.4238C612.65 70.1953 612.208 70.0811 611.698 70.0811C611.194 70.0811 610.755 70.1953 610.38 70.4238C610.011 70.6523 609.724 70.9775 609.519 71.3994C609.313 71.8154 609.211 72.3076 609.211 72.876V73.6934C609.211 74.2734 609.311 74.7861 609.51 75.2314C609.715 75.6709 610.011 76.0166 610.397 76.2686C610.784 76.5146 611.253 76.6377 611.804 76.6377C612.208 76.6377 612.562 76.5762 612.867 76.4531C613.178 76.3301 613.433 76.1602 613.632 75.9434C613.837 75.7207 613.983 75.4629 614.071 75.1699H615.891C615.773 75.7734 615.521 76.3037 615.135 76.7607C614.754 77.2119 614.273 77.5664 613.693 77.8242C613.119 78.082 612.48 78.2109 611.777 78.2109ZM622.008 68.7188V70.2832H616.849V68.7188H622.008ZM618.22 78V67.2334C618.22 66.7354 618.322 66.3135 618.527 65.9678C618.738 65.6221 619.04 65.3584 619.433 65.1768C619.831 64.9951 620.312 64.9043 620.874 64.9043C621.12 64.9043 621.352 64.9043 621.568 64.9043C621.785 64.9043 621.932 64.9043 622.008 64.9043V66.4688C621.943 66.4688 621.817 66.4688 621.63 66.4688C621.448 66.4688 621.299 66.4688 621.182 66.4688C620.795 66.4688 620.52 66.5508 620.355 66.7148C620.197 66.8789 620.118 67.1543 620.118 67.541V78H618.22ZM626.033 78.1494C625.418 78.1494 624.867 78.0439 624.381 77.833C623.9 77.6221 623.52 77.3086 623.238 76.8926C622.957 76.4766 622.816 75.9609 622.816 75.3457C622.816 74.8184 622.916 74.3848 623.115 74.0449C623.32 73.7051 623.593 73.4355 623.933 73.2363C624.278 73.0371 624.671 72.8877 625.11 72.7881C625.556 72.6826 626.013 72.6035 626.481 72.5508C627.062 72.4746 627.521 72.416 627.861 72.375C628.201 72.3281 628.441 72.2578 628.582 72.1641C628.729 72.0645 628.802 71.9033 628.802 71.6807V71.6016C628.802 71.3027 628.729 71.0391 628.582 70.8105C628.436 70.582 628.222 70.4033 627.94 70.2744C627.665 70.1455 627.334 70.0811 626.947 70.0811C626.561 70.0811 626.218 70.1455 625.919 70.2744C625.62 70.3975 625.383 70.5703 625.207 70.793C625.031 71.0156 624.932 71.2705 624.908 71.5576H623.045C623.08 70.9834 623.259 70.4707 623.581 70.0195C623.903 69.5625 624.352 69.2021 624.926 68.9385C625.5 68.6689 626.177 68.5342 626.956 68.5342C627.53 68.5342 628.046 68.6104 628.503 68.7627C628.966 68.9092 629.358 69.1201 629.681 69.3955C630.003 69.6709 630.249 69.9961 630.419 70.3711C630.595 70.7461 630.683 71.1592 630.683 71.6104V78H628.811V76.6816H628.775C628.646 76.9336 628.468 77.1738 628.239 77.4023C628.017 77.625 627.727 77.8066 627.369 77.9473C627.012 78.082 626.566 78.1494 626.033 78.1494ZM626.429 76.6377C626.968 76.6377 627.413 76.541 627.765 76.3477C628.116 76.1543 628.377 75.8994 628.547 75.583C628.723 75.2607 628.811 74.9092 628.811 74.5283V73.4561C628.746 73.5029 628.641 73.5498 628.494 73.5967C628.354 73.6377 628.181 73.6787 627.976 73.7197C627.776 73.7607 627.557 73.8018 627.316 73.8428C627.082 73.8779 626.845 73.9102 626.604 73.9395C626.271 73.9863 625.957 74.0654 625.664 74.1768C625.377 74.2822 625.143 74.4316 624.961 74.625C624.785 74.8125 624.697 75.0645 624.697 75.3809C624.697 75.7734 624.853 76.0811 625.163 76.3037C625.474 76.5264 625.896 76.6377 626.429 76.6377ZM639.067 74.0889V68.7188H640.966V78H639.103V76.4531H639.067C638.862 76.9336 638.525 77.3438 638.057 77.6836C637.594 78.0176 636.999 78.1846 636.272 78.1846C635.64 78.1846 635.057 78.0439 634.523 77.7627C633.99 77.4814 633.565 77.0684 633.249 76.5234C632.933 75.9727 632.774 75.2988 632.774 74.502V68.7188H634.673V74.2734C634.673 75.0117 634.866 75.5713 635.253 75.9521C635.64 76.333 636.155 76.5234 636.8 76.5234C637.216 76.5234 637.594 76.4385 637.934 76.2686C638.279 76.0986 638.555 75.835 638.76 75.4775C638.965 75.1143 639.067 74.6514 639.067 74.0889ZM644.974 64.9043V78H643.075V64.9043H644.974ZM651.469 68.7188V70.2832H646.31V68.7188H651.469ZM647.681 66.1875H649.579V75.3633C649.579 75.75 649.658 76.0254 649.816 76.1895C649.98 76.3535 650.256 76.4355 650.643 76.4355C650.783 76.4355 650.924 76.4355 651.064 76.4355C651.211 76.4355 651.346 76.4355 651.469 76.4355V78C651.316 78 651.138 78 650.933 78C650.733 78 650.534 78 650.335 78C649.491 78 648.838 77.7979 648.375 77.3936C647.912 76.9834 647.681 76.4092 647.681 75.6709V66.1875Z" fill="white"/>
<defs>
<linearGradient id="paint0_linear_7_134" x1="165" y1="186" x2="96" y2="192" gradientUnits="userSpaceOnUse">
<stop stop-color="white"/>
<stop offset="1" stop-color="white" stop-opacity="0"/>
</linearGradient>
<linearGradient id="paint1_linear_7_134" x1="507" y1="234" x2="438" y2="240" gradientUnits="userSpaceOnUse">
<stop stop-color="white"/>
<stop offset="1" stop-color="white" stop-opacity="0"/>
</linearGradient>
</defs>
</svg>
