<svg width="792" height="408" viewBox="0 0 792 408" fill="none" xmlns="http://www.w3.org/2000/svg">
<circle cx="222" cy="240" r="45" stroke="white" stroke-width="6"/>
<path d="M222 195V204" stroke="white" stroke-width="6"/>
<path d="M253.82 208.181L247.456 214.545" stroke="white" stroke-width="6"/>
<path d="M267 240L258 240" stroke="white" stroke-width="6"/>
<path d="M253.82 271.819L247.456 265.455" stroke="white" stroke-width="6"/>
<path d="M222 276V285" stroke="white" stroke-width="6"/>
<path d="M196.544 265.456L190.18 271.82" stroke="white" stroke-width="6"/>
<path d="M186 240L177 240" stroke="white" stroke-width="6"/>
<path d="M196.544 214.544L190.18 208.18" stroke="white" stroke-width="6"/>
<path opacity="0.5" d="M294 159L242.126 167.3C228.971 169.405 216.343 161.258 212.838 148.405C211.251 142.587 214.528 136.551 220.272 134.713L278.856 115.966C282.911 114.669 287.185 114.199 291.424 114.584L318 117V165L294 159Z" fill="url(#paint0_linear_7_131)"/>
<path opacity="0.5" d="M637.217 222.791L606.405 265.34C598.591 276.131 583.902 279.3 572.335 272.69C567.099 269.698 565.148 263.112 567.91 257.751L596.079 203.07C598.028 199.285 600.718 195.931 603.989 193.206L624.489 176.122L658.43 210.063L637.217 222.791Z" fill="url(#paint1_linear_7_131)"/>
<path d="M222 183C223.657 183 225 181.657 225 180C225 178.343 223.657 177 222 177V183ZM147.879 177.879C146.707 179.05 146.707 180.95 147.879 182.121L166.971 201.213C168.142 202.385 170.042 202.385 171.213 201.213C172.385 200.042 172.385 198.142 171.213 196.971L154.243 180L171.213 163.029C172.385 161.858 172.385 159.958 171.213 158.787C170.042 157.615 168.142 157.615 166.971 158.787L147.879 177.879ZM222 177H150V183H222V177Z" fill="white"/>
<path d="M222 303C220.343 303 219 301.657 219 300C219 298.343 220.343 297 222 297V303ZM296.121 297.879C297.293 299.05 297.293 300.95 296.121 302.121L277.029 321.213C275.858 322.385 273.958 322.385 272.787 321.213C271.615 320.042 271.615 318.142 272.787 316.971L289.757 300L272.787 283.029C271.615 281.858 271.615 279.958 272.787 278.787C273.958 277.615 275.858 277.615 277.029 278.787L296.121 297.879ZM222 297H294V303H222V297Z" fill="white"/>
<path d="M576 303C577.657 303 579 301.657 579 300C579 298.343 577.657 297 576 297V303ZM501.879 297.879C500.707 299.05 500.707 300.95 501.879 302.121L520.971 321.213C522.142 322.385 524.042 322.385 525.213 321.213C526.385 320.042 526.385 318.142 525.213 316.971L508.243 300L525.213 283.029C526.385 281.858 526.385 279.958 525.213 278.787C524.042 277.615 522.142 277.615 520.971 278.787L501.879 297.879ZM576 297H504V303H576V297Z" fill="white"/>
<rect opacity="0.5" x="60" y="330" width="318" height="18" fill="#D9D9D9"/>
<rect opacity="0.5" x="414" y="330" width="318" height="18" fill="#D9D9D9"/>
<path d="M154.462 69.4131L155.763 64.9043H157.116L156.387 69.4131H154.462ZM161.537 78L157.916 64.9043H159.99L162.583 75.2051H162.618L165.316 64.9043H167.373L170.071 75.2051H170.106L172.69 64.9043H174.782L171.135 78H169.148L166.362 68.0771H166.327L163.541 78H161.537ZM177.85 72.6299V78H175.951V64.9043H177.85V70.2656H177.876C178.087 69.7793 178.424 69.3691 178.887 69.0352C179.35 68.7012 179.944 68.5342 180.671 68.5342C181.315 68.5342 181.898 68.6748 182.42 68.9561C182.941 69.2373 183.357 69.6504 183.668 70.1953C183.984 70.7402 184.143 71.4141 184.143 72.2168V78H182.244V72.4453C182.244 71.707 182.054 71.1475 181.673 70.7666C181.292 70.3857 180.776 70.1953 180.126 70.1953C179.71 70.1953 179.329 70.2803 178.983 70.4502C178.638 70.6201 178.362 70.8838 178.157 71.2412C177.952 71.5986 177.85 72.0615 177.85 72.6299ZM190.198 78.2109C189.278 78.2109 188.487 78.0029 187.825 77.5869C187.163 77.1709 186.653 76.5996 186.296 75.873C185.944 75.1406 185.769 74.3086 185.769 73.377C185.769 72.4277 185.953 71.5898 186.322 70.8633C186.691 70.1309 187.201 69.5566 187.852 69.1406C188.502 68.7188 189.252 68.5078 190.102 68.5078C190.758 68.5078 191.353 68.625 191.886 68.8594C192.419 69.0938 192.876 69.4277 193.257 69.8613C193.644 70.2891 193.937 70.7988 194.136 71.3906C194.341 71.9824 194.443 72.6357 194.443 73.3506V73.8691H186.604V72.4629H193.459L192.624 72.876C192.624 72.3076 192.521 71.8154 192.316 71.3994C192.111 70.9775 191.821 70.6523 191.446 70.4238C191.071 70.1953 190.629 70.0811 190.119 70.0811C189.615 70.0811 189.176 70.1953 188.801 70.4238C188.432 70.6523 188.145 70.9775 187.939 71.3994C187.734 71.8154 187.632 72.3076 187.632 72.876V73.6934C187.632 74.2734 187.731 74.7861 187.931 75.2314C188.136 75.6709 188.432 76.0166 188.818 76.2686C189.205 76.5146 189.674 76.6377 190.225 76.6377C190.629 76.6377 190.983 76.5762 191.288 76.4531C191.599 76.3301 191.854 76.1602 192.053 75.9434C192.258 75.7207 192.404 75.4629 192.492 75.1699H194.312C194.194 75.7734 193.942 76.3037 193.556 76.7607C193.175 77.2119 192.694 77.5664 192.114 77.8242C191.54 78.082 190.901 78.2109 190.198 78.2109ZM200.024 78.2109C199.104 78.2109 198.313 78.0029 197.651 77.5869C196.989 77.1709 196.479 76.5996 196.122 75.873C195.771 75.1406 195.595 74.3086 195.595 73.377C195.595 72.4277 195.779 71.5898 196.148 70.8633C196.518 70.1309 197.027 69.5566 197.678 69.1406C198.328 68.7188 199.078 68.5078 199.928 68.5078C200.584 68.5078 201.179 68.625 201.712 68.8594C202.245 69.0938 202.702 69.4277 203.083 69.8613C203.47 70.2891 203.763 70.7988 203.962 71.3906C204.167 71.9824 204.27 72.6357 204.27 73.3506V73.8691H196.43V72.4629H203.285L202.45 72.876C202.45 72.3076 202.348 71.8154 202.143 71.3994C201.938 70.9775 201.647 70.6523 201.272 70.4238C200.897 70.1953 200.455 70.0811 199.945 70.0811C199.441 70.0811 199.002 70.1953 198.627 70.4238C198.258 70.6523 197.971 70.9775 197.766 71.3994C197.561 71.8154 197.458 72.3076 197.458 72.876V73.6934C197.458 74.2734 197.558 74.7861 197.757 75.2314C197.962 75.6709 198.258 76.0166 198.645 76.2686C199.031 76.5146 199.5 76.6377 200.051 76.6377C200.455 76.6377 200.81 76.5762 201.114 76.4531C201.425 76.3301 201.68 76.1602 201.879 75.9434C202.084 75.7207 202.23 75.4629 202.318 75.1699H204.138C204.021 75.7734 203.769 76.3037 203.382 76.7607C203.001 77.2119 202.521 77.5664 201.94 77.8242C201.366 78.082 200.728 78.2109 200.024 78.2109ZM207.785 64.9043V78H205.887V64.9043H207.785ZM209.517 69.4131L210.237 64.9043H212.171L210.87 69.4131H209.517ZM225.161 71.5576H223.359C223.354 71.1123 223.184 70.7432 222.85 70.4502C222.516 70.1514 222.076 70.002 221.531 70.002C221.01 70.002 220.594 70.125 220.283 70.3711C219.979 70.6113 219.826 70.9072 219.826 71.2588C219.826 71.5693 219.943 71.8213 220.178 72.0146C220.412 72.208 220.734 72.3516 221.145 72.4453L222.744 72.7881C223.652 72.9932 224.317 73.3037 224.739 73.7197C225.167 74.1357 225.381 74.6807 225.381 75.3545C225.381 75.9463 225.217 76.4561 224.889 76.8838C224.566 77.3115 224.121 77.6426 223.553 77.877C222.99 78.1055 222.346 78.2197 221.619 78.2197C220.904 78.2197 220.26 78.1055 219.686 77.877C219.117 77.6484 218.657 77.3086 218.306 76.8574C217.96 76.4004 217.764 75.8379 217.717 75.1699H219.589C219.642 75.668 219.838 76.0518 220.178 76.3213C220.518 76.5908 220.986 76.7256 221.584 76.7256C222.164 76.7256 222.621 76.6084 222.955 76.374C223.295 76.1338 223.465 75.8291 223.465 75.46C223.465 75.1494 223.345 74.9004 223.104 74.7129C222.864 74.5254 222.542 74.3877 222.138 74.2998L220.6 73.9658C219.721 73.7666 219.056 73.4443 218.604 72.999C218.153 72.5537 217.928 71.9883 217.928 71.3027C217.928 70.752 218.074 70.2686 218.367 69.8525C218.666 69.4307 219.085 69.1025 219.624 68.8682C220.163 68.6338 220.79 68.5166 221.505 68.5166C222.208 68.5166 222.832 68.6396 223.377 68.8857C223.922 69.1318 224.35 69.4834 224.66 69.9404C224.977 70.3916 225.144 70.9307 225.161 71.5576ZM230.988 78.2109C230.104 78.2109 229.327 78.0059 228.659 77.5957C227.991 77.1855 227.473 76.6172 227.104 75.8906C226.734 75.1582 226.55 74.3203 226.55 73.377C226.55 72.4219 226.734 71.5781 227.104 70.8457C227.473 70.1133 227.991 69.542 228.659 69.1318C229.327 68.7158 230.104 68.5078 230.988 68.5078C231.732 68.5078 232.397 68.6543 232.983 68.9473C233.569 69.2344 234.044 69.6357 234.407 70.1514C234.771 70.6611 234.99 71.2471 235.066 71.9092H233.186C233.121 71.5635 232.995 71.2588 232.808 70.9951C232.626 70.7256 232.383 70.5146 232.078 70.3623C231.773 70.21 231.413 70.1338 230.997 70.1338C230.47 70.1338 230.016 70.2686 229.635 70.5381C229.26 70.8018 228.97 71.1768 228.765 71.6631C228.565 72.1494 228.466 72.7207 228.466 73.377C228.466 74.0273 228.565 74.5928 228.765 75.0732C228.97 75.5537 229.26 75.9258 229.635 76.1895C230.016 76.4531 230.47 76.585 230.997 76.585C231.63 76.585 232.116 76.4238 232.456 76.1016C232.802 75.7734 233.036 75.3398 233.159 74.8008H235.066C234.996 75.4512 234.779 76.0342 234.416 76.5498C234.053 77.0654 233.575 77.4727 232.983 77.7715C232.397 78.0645 231.732 78.2109 230.988 78.2109ZM236.631 78V68.7188H238.45V70.2217H238.485C238.655 69.7119 238.922 69.3164 239.285 69.0352C239.654 68.748 240.135 68.6045 240.727 68.6045C240.867 68.6045 240.996 68.6104 241.113 68.6221C241.236 68.6279 241.336 68.6367 241.412 68.6484V70.4062C241.336 70.3945 241.204 70.377 241.017 70.3535C240.835 70.3301 240.636 70.3184 240.419 70.3184C240.073 70.3184 239.757 70.4004 239.47 70.5645C239.183 70.7227 238.954 70.9658 238.784 71.2939C238.614 71.6221 238.529 72.0381 238.529 72.542V78H236.631ZM246.492 78.2109C245.607 78.2109 244.828 78.0059 244.154 77.5957C243.486 77.1855 242.965 76.6172 242.59 75.8906C242.221 75.1641 242.036 74.3262 242.036 73.377C242.036 72.416 242.221 71.5723 242.59 70.8457C242.965 70.1133 243.486 69.542 244.154 69.1318C244.828 68.7158 245.607 68.5078 246.492 68.5078C247.383 68.5078 248.162 68.7158 248.83 69.1318C249.498 69.542 250.017 70.1133 250.386 70.8457C250.761 71.5723 250.948 72.416 250.948 73.377C250.948 74.3262 250.761 75.1641 250.386 75.8906C250.017 76.6172 249.498 77.1855 248.83 77.5957C248.162 78.0059 247.383 78.2109 246.492 78.2109ZM246.492 76.5762C247.02 76.5762 247.471 76.4473 247.846 76.1895C248.227 75.9258 248.52 75.5537 248.725 75.0732C248.93 74.5928 249.032 74.0273 249.032 73.377C249.032 72.7148 248.93 72.1436 248.725 71.6631C248.52 71.1768 248.227 70.8018 247.846 70.5381C247.471 70.2744 247.02 70.1426 246.492 70.1426C245.971 70.1426 245.52 70.2744 245.139 70.5381C244.758 70.8018 244.465 71.1768 244.26 71.6631C244.055 72.1436 243.952 72.7148 243.952 73.377C243.952 74.0273 244.055 74.5928 244.26 75.0732C244.465 75.5537 244.758 75.9258 245.139 76.1895C245.52 76.4473 245.971 76.5762 246.492 76.5762ZM254.49 64.9043V78H252.592V64.9043H254.49ZM258.498 64.9043V78H256.6V64.9043H258.498ZM260.783 78V68.7188H262.682V78H260.783ZM261.724 67.1191C261.39 67.1191 261.103 67.0078 260.862 66.7852C260.622 66.5566 260.502 66.2812 260.502 65.959C260.502 65.6426 260.622 65.373 260.862 65.1504C261.103 64.9219 261.39 64.8076 261.724 64.8076C262.063 64.8076 262.351 64.9219 262.585 65.1504C262.825 65.373 262.945 65.6426 262.945 65.959C262.945 66.2812 262.825 66.5566 262.585 66.7852C262.351 67.0078 262.063 67.1191 261.724 67.1191ZM266.672 72.6299V78H264.773V68.7188H266.637V70.2832L266.672 70.2656C266.883 69.7793 267.22 69.3691 267.683 69.0352C268.146 68.7012 268.74 68.5342 269.467 68.5342C270.105 68.5342 270.688 68.6748 271.216 68.9561C271.749 69.2373 272.174 69.6504 272.49 70.1953C272.807 70.7402 272.965 71.4141 272.965 72.2168V78H271.066V72.4453C271.066 71.707 270.873 71.1475 270.486 70.7666C270.105 70.3857 269.59 70.1953 268.939 70.1953C268.523 70.1953 268.143 70.2803 267.797 70.4502C267.457 70.6201 267.185 70.8838 266.979 71.2412C266.774 71.5986 266.672 72.0615 266.672 72.6299ZM278.906 81.7969C278.139 81.7969 277.465 81.6826 276.885 81.4541C276.311 81.2256 275.845 80.8945 275.487 80.4609C275.136 80.0332 274.922 79.5176 274.846 78.9141H276.727C276.809 79.2129 276.949 79.459 277.148 79.6523C277.354 79.8516 277.605 80.001 277.904 80.1006C278.203 80.2061 278.537 80.2588 278.906 80.2588C279.65 80.2588 280.23 80.0596 280.646 79.6611C281.062 79.2627 281.271 78.6914 281.271 77.9473V76.5146H281.235C281.048 76.8369 280.822 77.1152 280.559 77.3496C280.301 77.5781 279.999 77.7539 279.653 77.877C279.313 77.9941 278.918 78.0527 278.467 78.0527C277.658 78.0527 276.964 77.8535 276.384 77.4551C275.81 77.0566 275.367 76.5029 275.057 75.7939C274.746 75.085 274.591 74.2588 274.591 73.3154C274.591 72.3838 274.752 71.5605 275.074 70.8457C275.402 70.125 275.859 69.5596 276.445 69.1494C277.031 68.7393 277.714 68.5342 278.493 68.5342C279.038 68.5342 279.489 68.625 279.847 68.8066C280.21 68.9824 280.5 69.1992 280.717 69.457C280.939 69.709 281.112 69.9434 281.235 70.1602H281.288V68.7188H283.151V77.8682C283.151 78.8057 282.961 79.5615 282.58 80.1357C282.205 80.7158 281.695 81.1377 281.051 81.4014C280.406 81.665 279.691 81.7969 278.906 81.7969ZM278.862 76.4707C279.624 76.4707 280.219 76.1982 280.646 75.6533C281.074 75.1025 281.288 74.332 281.288 73.3418C281.288 72.6738 281.191 72.1055 280.998 71.6367C280.811 71.1621 280.535 70.7988 280.172 70.5469C279.814 70.2949 279.387 70.1689 278.889 70.1689C278.367 70.1689 277.928 70.3037 277.57 70.5732C277.213 70.8428 276.94 71.2178 276.753 71.6982C276.571 72.1729 276.48 72.7207 276.48 73.3418C276.48 73.9688 276.568 74.5166 276.744 74.9854C276.926 75.4541 277.192 75.8203 277.544 76.084C277.901 76.3418 278.341 76.4707 278.862 76.4707Z" fill="white"/>
<path d="M509.877 69.4131L511.178 64.9043H512.531L511.802 69.4131H509.877ZM518.648 78H515.414V76.2686H518.525C519.539 76.2686 520.374 76.0781 521.03 75.6973C521.687 75.3105 522.176 74.7568 522.498 74.0361C522.826 73.3096 522.99 72.4424 522.99 71.4346C522.99 70.4268 522.829 69.5654 522.507 68.8506C522.185 68.1357 521.701 67.5879 521.057 67.207C520.418 66.8262 519.615 66.6357 518.648 66.6357H515.344V64.9043H518.78C520.063 64.9043 521.168 65.168 522.094 65.6953C523.025 66.2168 523.74 66.9668 524.238 67.9453C524.742 68.9238 524.994 70.0869 524.994 71.4346C524.994 72.7881 524.742 73.957 524.238 74.9414C523.734 75.9199 523.011 76.6758 522.067 77.209C521.124 77.7363 519.984 78 518.648 78ZM516.39 64.9043V78H514.386V64.9043H516.39ZM526.761 78V68.7188H528.659V78H526.761ZM527.701 67.1191C527.367 67.1191 527.08 67.0078 526.84 66.7852C526.6 66.5566 526.479 66.2812 526.479 65.959C526.479 65.6426 526.6 65.373 526.84 65.1504C527.08 64.9219 527.367 64.8076 527.701 64.8076C528.041 64.8076 528.328 64.9219 528.562 65.1504C528.803 65.373 528.923 65.6426 528.923 65.959C528.923 66.2812 528.803 66.5566 528.562 66.7852C528.328 67.0078 528.041 67.1191 527.701 67.1191ZM530.751 78V68.7188H532.57V70.2217H532.605C532.775 69.7119 533.042 69.3164 533.405 69.0352C533.774 68.748 534.255 68.6045 534.847 68.6045C534.987 68.6045 535.116 68.6104 535.233 68.6221C535.356 68.6279 535.456 68.6367 535.532 68.6484V70.4062C535.456 70.3945 535.324 70.377 535.137 70.3535C534.955 70.3301 534.756 70.3184 534.539 70.3184C534.193 70.3184 533.877 70.4004 533.59 70.5645C533.303 70.7227 533.074 70.9658 532.904 71.2939C532.734 71.6221 532.649 72.0381 532.649 72.542V78H530.751ZM540.586 78.2109C539.666 78.2109 538.875 78.0029 538.213 77.5869C537.551 77.1709 537.041 76.5996 536.684 75.873C536.332 75.1406 536.156 74.3086 536.156 73.377C536.156 72.4277 536.341 71.5898 536.71 70.8633C537.079 70.1309 537.589 69.5566 538.239 69.1406C538.89 68.7188 539.64 68.5078 540.489 68.5078C541.146 68.5078 541.74 68.625 542.273 68.8594C542.807 69.0938 543.264 69.4277 543.645 69.8613C544.031 70.2891 544.324 70.7988 544.523 71.3906C544.729 71.9824 544.831 72.6357 544.831 73.3506V73.8691H536.991V72.4629H543.847L543.012 72.876C543.012 72.3076 542.909 71.8154 542.704 71.3994C542.499 70.9775 542.209 70.6523 541.834 70.4238C541.459 70.1953 541.017 70.0811 540.507 70.0811C540.003 70.0811 539.563 70.1953 539.188 70.4238C538.819 70.6523 538.532 70.9775 538.327 71.3994C538.122 71.8154 538.02 72.3076 538.02 72.876V73.6934C538.02 74.2734 538.119 74.7861 538.318 75.2314C538.523 75.6709 538.819 76.0166 539.206 76.2686C539.593 76.5146 540.062 76.6377 540.612 76.6377C541.017 76.6377 541.371 76.5762 541.676 76.4531C541.986 76.3301 542.241 76.1602 542.44 75.9434C542.646 75.7207 542.792 75.4629 542.88 75.1699H544.699C544.582 75.7734 544.33 76.3037 543.943 76.7607C543.562 77.2119 543.082 77.5664 542.502 77.8242C541.928 78.082 541.289 78.2109 540.586 78.2109ZM550.421 78.2109C549.536 78.2109 548.76 78.0059 548.092 77.5957C547.424 77.1855 546.905 76.6172 546.536 75.8906C546.167 75.1582 545.982 74.3203 545.982 73.377C545.982 72.4219 546.167 71.5781 546.536 70.8457C546.905 70.1133 547.424 69.542 548.092 69.1318C548.76 68.7158 549.536 68.5078 550.421 68.5078C551.165 68.5078 551.83 68.6543 552.416 68.9473C553.002 69.2344 553.477 69.6357 553.84 70.1514C554.203 70.6611 554.423 71.2471 554.499 71.9092H552.618C552.554 71.5635 552.428 71.2588 552.24 70.9951C552.059 70.7256 551.815 70.5146 551.511 70.3623C551.206 70.21 550.846 70.1338 550.43 70.1338C549.902 70.1338 549.448 70.2686 549.067 70.5381C548.692 70.8018 548.402 71.1768 548.197 71.6631C547.998 72.1494 547.898 72.7207 547.898 73.377C547.898 74.0273 547.998 74.5928 548.197 75.0732C548.402 75.5537 548.692 75.9258 549.067 76.1895C549.448 76.4531 549.902 76.585 550.43 76.585C551.062 76.585 551.549 76.4238 551.889 76.1016C552.234 75.7734 552.469 75.3398 552.592 74.8008H554.499C554.429 75.4512 554.212 76.0342 553.849 76.5498C553.485 77.0654 553.008 77.4727 552.416 77.7715C551.83 78.0645 551.165 78.2109 550.421 78.2109ZM560.449 68.7188V70.2832H555.29V68.7188H560.449ZM556.661 66.1875H558.56V75.3633C558.56 75.75 558.639 76.0254 558.797 76.1895C558.961 76.3535 559.236 76.4355 559.623 76.4355C559.764 76.4355 559.904 76.4355 560.045 76.4355C560.191 76.4355 560.326 76.4355 560.449 76.4355V78C560.297 78 560.118 78 559.913 78C559.714 78 559.515 78 559.315 78C558.472 78 557.818 77.7979 557.355 77.3936C556.893 76.9834 556.661 76.4092 556.661 75.6709V66.1875ZM562.102 69.4131L562.822 64.9043H564.756L563.455 69.4131H562.102ZM577.746 71.5576H575.944C575.938 71.1123 575.769 70.7432 575.435 70.4502C575.101 70.1514 574.661 70.002 574.116 70.002C573.595 70.002 573.179 70.125 572.868 70.3711C572.563 70.6113 572.411 70.9072 572.411 71.2588C572.411 71.5693 572.528 71.8213 572.763 72.0146C572.997 72.208 573.319 72.3516 573.729 72.4453L575.329 72.7881C576.237 72.9932 576.902 73.3037 577.324 73.7197C577.752 74.1357 577.966 74.6807 577.966 75.3545C577.966 75.9463 577.802 76.4561 577.474 76.8838C577.151 77.3115 576.706 77.6426 576.138 77.877C575.575 78.1055 574.931 78.2197 574.204 78.2197C573.489 78.2197 572.845 78.1055 572.271 77.877C571.702 77.6484 571.242 77.3086 570.891 76.8574C570.545 76.4004 570.349 75.8379 570.302 75.1699H572.174C572.227 75.668 572.423 76.0518 572.763 76.3213C573.103 76.5908 573.571 76.7256 574.169 76.7256C574.749 76.7256 575.206 76.6084 575.54 76.374C575.88 76.1338 576.05 75.8291 576.05 75.46C576.05 75.1494 575.93 74.9004 575.689 74.7129C575.449 74.5254 575.127 74.3877 574.723 74.2998L573.185 73.9658C572.306 73.7666 571.641 73.4443 571.189 72.999C570.738 72.5537 570.513 71.9883 570.513 71.3027C570.513 70.752 570.659 70.2686 570.952 69.8525C571.251 69.4307 571.67 69.1025 572.209 68.8682C572.748 68.6338 573.375 68.5166 574.09 68.5166C574.793 68.5166 575.417 68.6396 575.962 68.8857C576.507 69.1318 576.935 69.4834 577.245 69.9404C577.562 70.3916 577.729 70.9307 577.746 71.5576ZM583.573 78.2109C582.688 78.2109 581.912 78.0059 581.244 77.5957C580.576 77.1855 580.058 76.6172 579.688 75.8906C579.319 75.1582 579.135 74.3203 579.135 73.377C579.135 72.4219 579.319 71.5781 579.688 70.8457C580.058 70.1133 580.576 69.542 581.244 69.1318C581.912 68.7158 582.688 68.5078 583.573 68.5078C584.317 68.5078 584.982 68.6543 585.568 68.9473C586.154 69.2344 586.629 69.6357 586.992 70.1514C587.355 70.6611 587.575 71.2471 587.651 71.9092H585.771C585.706 71.5635 585.58 71.2588 585.393 70.9951C585.211 70.7256 584.968 70.5146 584.663 70.3623C584.358 70.21 583.998 70.1338 583.582 70.1338C583.055 70.1338 582.601 70.2686 582.22 70.5381C581.845 70.8018 581.555 71.1768 581.35 71.6631C581.15 72.1494 581.051 72.7207 581.051 73.377C581.051 74.0273 581.15 74.5928 581.35 75.0732C581.555 75.5537 581.845 75.9258 582.22 76.1895C582.601 76.4531 583.055 76.585 583.582 76.585C584.215 76.585 584.701 76.4238 585.041 76.1016C585.387 75.7734 585.621 75.3398 585.744 74.8008H587.651C587.581 75.4512 587.364 76.0342 587.001 76.5498C586.638 77.0654 586.16 77.4727 585.568 77.7715C584.982 78.0645 584.317 78.2109 583.573 78.2109ZM589.216 78V68.7188H591.035V70.2217H591.07C591.24 69.7119 591.507 69.3164 591.87 69.0352C592.239 68.748 592.72 68.6045 593.312 68.6045C593.452 68.6045 593.581 68.6104 593.698 68.6221C593.821 68.6279 593.921 68.6367 593.997 68.6484V70.4062C593.921 70.3945 593.789 70.377 593.602 70.3535C593.42 70.3301 593.221 70.3184 593.004 70.3184C592.658 70.3184 592.342 70.4004 592.055 70.5645C591.768 70.7227 591.539 70.9658 591.369 71.2939C591.199 71.6221 591.114 72.0381 591.114 72.542V78H589.216ZM599.077 78.2109C598.192 78.2109 597.413 78.0059 596.739 77.5957C596.071 77.1855 595.55 76.6172 595.175 75.8906C594.806 75.1641 594.621 74.3262 594.621 73.377C594.621 72.416 594.806 71.5723 595.175 70.8457C595.55 70.1133 596.071 69.542 596.739 69.1318C597.413 68.7158 598.192 68.5078 599.077 68.5078C599.968 68.5078 600.747 68.7158 601.415 69.1318C602.083 69.542 602.602 70.1133 602.971 70.8457C603.346 71.5723 603.533 72.416 603.533 73.377C603.533 74.3262 603.346 75.1641 602.971 75.8906C602.602 76.6172 602.083 77.1855 601.415 77.5957C600.747 78.0059 599.968 78.2109 599.077 78.2109ZM599.077 76.5762C599.604 76.5762 600.056 76.4473 600.431 76.1895C600.812 75.9258 601.104 75.5537 601.31 75.0732C601.515 74.5928 601.617 74.0273 601.617 73.377C601.617 72.7148 601.515 72.1436 601.31 71.6631C601.104 71.1768 600.812 70.8018 600.431 70.5381C600.056 70.2744 599.604 70.1426 599.077 70.1426C598.556 70.1426 598.104 70.2744 597.724 70.5381C597.343 70.8018 597.05 71.1768 596.845 71.6631C596.64 72.1436 596.537 72.7148 596.537 73.377C596.537 74.0273 596.64 74.5928 596.845 75.0732C597.05 75.5537 597.343 75.9258 597.724 76.1895C598.104 76.4473 598.556 76.5762 599.077 76.5762ZM607.075 64.9043V78H605.177V64.9043H607.075ZM611.083 64.9043V78H609.185V64.9043H611.083ZM613.368 78V68.7188H615.267V78H613.368ZM614.309 67.1191C613.975 67.1191 613.688 67.0078 613.447 66.7852C613.207 66.5566 613.087 66.2812 613.087 65.959C613.087 65.6426 613.207 65.373 613.447 65.1504C613.688 64.9219 613.975 64.8076 614.309 64.8076C614.648 64.8076 614.936 64.9219 615.17 65.1504C615.41 65.373 615.53 65.6426 615.53 65.959C615.53 66.2812 615.41 66.5566 615.17 66.7852C614.936 67.0078 614.648 67.1191 614.309 67.1191ZM619.257 72.6299V78H617.358V68.7188H619.222V70.2832L619.257 70.2656C619.468 69.7793 619.805 69.3691 620.268 69.0352C620.73 68.7012 621.325 68.5342 622.052 68.5342C622.69 68.5342 623.273 68.6748 623.801 68.9561C624.334 69.2373 624.759 69.6504 625.075 70.1953C625.392 70.7402 625.55 71.4141 625.55 72.2168V78H623.651V72.4453C623.651 71.707 623.458 71.1475 623.071 70.7666C622.69 70.3857 622.175 70.1953 621.524 70.1953C621.108 70.1953 620.728 70.2803 620.382 70.4502C620.042 70.6201 619.77 70.8838 619.564 71.2412C619.359 71.5986 619.257 72.0615 619.257 72.6299ZM631.491 81.7969C630.724 81.7969 630.05 81.6826 629.47 81.4541C628.896 81.2256 628.43 80.8945 628.072 80.4609C627.721 80.0332 627.507 79.5176 627.431 78.9141H629.312C629.394 79.2129 629.534 79.459 629.733 79.6523C629.938 79.8516 630.19 80.001 630.489 80.1006C630.788 80.2061 631.122 80.2588 631.491 80.2588C632.235 80.2588 632.815 80.0596 633.231 79.6611C633.647 79.2627 633.855 78.6914 633.855 77.9473V76.5146H633.82C633.633 76.8369 633.407 77.1152 633.144 77.3496C632.886 77.5781 632.584 77.7539 632.238 77.877C631.898 77.9941 631.503 78.0527 631.052 78.0527C630.243 78.0527 629.549 77.8535 628.969 77.4551C628.395 77.0566 627.952 76.5029 627.642 75.7939C627.331 75.085 627.176 74.2588 627.176 73.3154C627.176 72.3838 627.337 71.5605 627.659 70.8457C627.987 70.125 628.444 69.5596 629.03 69.1494C629.616 68.7393 630.299 68.5342 631.078 68.5342C631.623 68.5342 632.074 68.625 632.432 68.8066C632.795 68.9824 633.085 69.1992 633.302 69.457C633.524 69.709 633.697 69.9434 633.82 70.1602H633.873V68.7188H635.736V77.8682C635.736 78.8057 635.546 79.5615 635.165 80.1357C634.79 80.7158 634.28 81.1377 633.636 81.4014C632.991 81.665 632.276 81.7969 631.491 81.7969ZM631.447 76.4707C632.209 76.4707 632.804 76.1982 633.231 75.6533C633.659 75.1025 633.873 74.332 633.873 73.3418C633.873 72.6738 633.776 72.1055 633.583 71.6367C633.396 71.1621 633.12 70.7988 632.757 70.5469C632.399 70.2949 631.972 70.1689 631.474 70.1689C630.952 70.1689 630.513 70.3037 630.155 70.5732C629.798 70.8428 629.525 71.2178 629.338 71.6982C629.156 72.1729 629.065 72.7207 629.065 73.3418C629.065 73.9688 629.153 74.5166 629.329 74.9854C629.511 75.4541 629.777 75.8203 630.129 76.084C630.486 76.3418 630.926 76.4707 631.447 76.4707Z" fill="white"/>
<defs>
<linearGradient id="paint0_linear_7_131" x1="246" y1="141" x2="318" y2="141" gradientUnits="userSpaceOnUse">
<stop stop-color="white"/>
<stop offset="1" stop-color="white" stop-opacity="0"/>
</linearGradient>
<linearGradient id="paint1_linear_7_131" x1="590.548" y1="244.004" x2="641.459" y2="193.093" gradientUnits="userSpaceOnUse">
<stop stop-color="white"/>
<stop offset="1" stop-color="white" stop-opacity="0"/>
</linearGradient>
</defs>
</svg>
