<svg width="265" height="688" viewBox="0 0 265 688" fill="none" xmlns="http://www.w3.org/2000/svg">
<path d="M200 0L232 16V56L200 72L168 56V16L200 0Z" fill="white"/>
<g style="mix-blend-mode:multiply">
<path d="M200 32L232 16V56L200 72V32Z" fill="url(#paint0_linear_102_2635)"/>
</g>
<g style="mix-blend-mode:multiply">
<path d="M200 32L168 16V56L200 72V32Z" fill="url(#paint1_linear_102_2635)"/>
</g>
<g style="mix-blend-mode:multiply">
<path d="M200 0L168 16L200 32L232 16L200 0Z" fill="#F2F2F2"/>
</g>
<path d="M200 184L232 200V240L200 256L168 240V200L200 184Z" fill="white"/>
<g style="mix-blend-mode:multiply">
<path d="M200 216L232 200V240L200 256V216Z" fill="url(#paint2_linear_102_2635)"/>
</g>
<g style="mix-blend-mode:multiply">
<path d="M200 216L168 200V240L200 256V216Z" fill="url(#paint3_linear_102_2635)"/>
</g>
<g style="mix-blend-mode:multiply">
<path d="M200 184L168 200L200 216L232 200L200 184Z" fill="#F2F2F2"/>
</g>
<path d="M200 368L232 384V424L200 440L168 424V384L200 368Z" fill="#00FFD1"/>
<g style="mix-blend-mode:multiply">
<path d="M200 400L232 384V424L200 440V400Z" fill="url(#paint4_linear_102_2635)"/>
</g>
<g style="mix-blend-mode:multiply">
<path d="M200 400L168 384V424L200 440V400Z" fill="url(#paint5_linear_102_2635)"/>
</g>
<g style="mix-blend-mode:multiply">
<path d="M200 368L168 384L200 400L232 384L200 368Z" fill="#F2F2F2"/>
</g>
<path d="M200 552L232 568V608L200 624L168 608V568L200 552Z" fill="#00FFD1"/>
<g style="mix-blend-mode:multiply">
<path d="M200 584L232 568V608L200 624V584Z" fill="url(#paint6_linear_102_2635)"/>
</g>
<g style="mix-blend-mode:multiply">
<path d="M200 584L168 568V608L200 624V584Z" fill="url(#paint7_linear_102_2635)"/>
</g>
<g style="mix-blend-mode:multiply">
<path d="M200 552L168 568L200 584L232 568L200 552Z" fill="#F2F2F2"/>
</g>
<path d="M168 16L200 32V72L168 88L136 72V32L168 16Z" fill="#E2E2E2"/>
<g style="mix-blend-mode:multiply">
<path d="M168 48L200 32V72L168 88V48Z" fill="url(#paint8_linear_102_2635)"/>
</g>
<g style="mix-blend-mode:multiply">
<path d="M168 48L136 32V72L168 88V48Z" fill="url(#paint9_linear_102_2635)"/>
</g>
<g style="mix-blend-mode:multiply">
<path d="M168 16L136 32L168 48L200 32L168 16Z" fill="#F2F2F2"/>
</g>
<path d="M168 200L200 216V256L168 272L136 256V216L168 200Z" fill="#E2E2E2"/>
<g style="mix-blend-mode:multiply">
<path d="M168 232L200 216V256L168 272V232Z" fill="url(#paint10_linear_102_2635)"/>
</g>
<g style="mix-blend-mode:multiply">
<path d="M168 232L136 216V256L168 272V232Z" fill="url(#paint11_linear_102_2635)"/>
</g>
<g style="mix-blend-mode:multiply">
<path d="M168 200L136 216L168 232L200 216L168 200Z" fill="#F2F2F2"/>
</g>
<path d="M168 384L200 400V440L168 456L136 440V400L168 384Z" fill="#00FFD1"/>
<g style="mix-blend-mode:multiply">
<path d="M168 416L200 400V440L168 456V416Z" fill="url(#paint12_linear_102_2635)"/>
</g>
<g style="mix-blend-mode:multiply">
<path d="M168 416L136 400V440L168 456V416Z" fill="url(#paint13_linear_102_2635)"/>
</g>
<g style="mix-blend-mode:multiply">
<path d="M168 384L136 400L168 416L200 400L168 384Z" fill="#F2F2F2"/>
</g>
<path d="M168 568L200 584V624L168 640L136 624V584L168 568Z" fill="#00FFD1"/>
<g style="mix-blend-mode:multiply">
<path d="M168 600L200 584V624L168 640V600Z" fill="url(#paint14_linear_102_2635)"/>
</g>
<g style="mix-blend-mode:multiply">
<path d="M168 600L136 584V624L168 640V600Z" fill="url(#paint15_linear_102_2635)"/>
</g>
<g style="mix-blend-mode:multiply">
<path d="M168 568L136 584L168 600L200 584L168 568Z" fill="#F2F2F2"/>
</g>
<path d="M136 32L168 48V88L136 104L104 88V48L136 32Z" fill="white"/>
<g style="mix-blend-mode:multiply">
<path d="M136 64L168 48V88L136 104V64Z" fill="url(#paint16_linear_102_2635)"/>
</g>
<g style="mix-blend-mode:multiply">
<path d="M136 64L104 48V88L136 104V64Z" fill="url(#paint17_linear_102_2635)"/>
</g>
<g style="mix-blend-mode:multiply">
<path d="M136 32L104 48L136 64L168 48L136 32Z" fill="#F2F2F2"/>
</g>
<path d="M136 216L168 232V272L136 288L104 272V232L136 216Z" fill="#00FFD1"/>
<g style="mix-blend-mode:multiply">
<path d="M136 248L168 232V272L136 288V248Z" fill="url(#paint18_linear_102_2635)"/>
</g>
<g style="mix-blend-mode:multiply">
<path d="M136 248L104 232V272L136 288V248Z" fill="url(#paint19_linear_102_2635)"/>
</g>
<g style="mix-blend-mode:multiply">
<path d="M136 216L104 232L136 248L168 232L136 216Z" fill="#F2F2F2"/>
</g>
<path d="M136 400L168 416V456L136 472L104 456V416L136 400Z" fill="#00FFD1"/>
<g style="mix-blend-mode:multiply">
<path d="M136 432L168 416V456L136 472V432Z" fill="url(#paint20_linear_102_2635)"/>
</g>
<g style="mix-blend-mode:multiply">
<path d="M136 432L104 416V456L136 472V432Z" fill="url(#paint21_linear_102_2635)"/>
</g>
<g style="mix-blend-mode:multiply">
<path d="M136 400L104 416L136 432L168 416L136 400Z" fill="#F2F2F2"/>
</g>
<path d="M136 584L168 600V640L136 656L104 640V600L136 584Z" fill="#00FFD1"/>
<g style="mix-blend-mode:multiply">
<path d="M136 616L168 600V640L136 656V616Z" fill="url(#paint22_linear_102_2635)"/>
</g>
<g style="mix-blend-mode:multiply">
<path d="M136 616L104 600V640L136 656V616Z" fill="url(#paint23_linear_102_2635)"/>
</g>
<g style="mix-blend-mode:multiply">
<path d="M136 584L104 600L136 616L168 600L136 584Z" fill="#F2F2F2"/>
</g>
<path d="M104 48L136 64V104L104 120L72 104V64L104 48Z" fill="#E2E2E2"/>
<g style="mix-blend-mode:multiply">
<path d="M104 80L136 64V104L104 120V80Z" fill="url(#paint24_linear_102_2635)"/>
</g>
<g style="mix-blend-mode:multiply">
<path d="M104 80L72 64V104L104 120V80Z" fill="url(#paint25_linear_102_2635)"/>
</g>
<g style="mix-blend-mode:multiply">
<path d="M104 48L72 64L104 80L136 64L104 48Z" fill="#F2F2F2"/>
</g>
<path d="M104 232L136 248V288L104 304L72 288V248L104 232Z" fill="#00FFD1"/>
<g style="mix-blend-mode:multiply">
<path d="M104 264L136 248V288L104 304V264Z" fill="url(#paint26_linear_102_2635)"/>
</g>
<g style="mix-blend-mode:multiply">
<path d="M104 264L72 248V288L104 304V264Z" fill="url(#paint27_linear_102_2635)"/>
</g>
<g style="mix-blend-mode:multiply">
<path d="M104 232L72 248L104 264L136 248L104 232Z" fill="#F2F2F2"/>
</g>
<path d="M104 416L136 432V472L104 488L72 472V432L104 416Z" fill="#00FFD1"/>
<g style="mix-blend-mode:multiply">
<path d="M104 448L136 432V472L104 488V448Z" fill="url(#paint28_linear_102_2635)"/>
</g>
<g style="mix-blend-mode:multiply">
<path d="M104 448L72 432V472L104 488V448Z" fill="url(#paint29_linear_102_2635)"/>
</g>
<g style="mix-blend-mode:multiply">
<path d="M104 416L72 432L104 448L136 432L104 416Z" fill="#F2F2F2"/>
</g>
<path d="M104 600L136 616V656L104 672L72 656V616L104 600Z" fill="#00FFD1"/>
<g style="mix-blend-mode:multiply">
<path d="M104 632L136 616V656L104 672V632Z" fill="url(#paint30_linear_102_2635)"/>
</g>
<g style="mix-blend-mode:multiply">
<path d="M104 632L72 616V656L104 672V632Z" fill="url(#paint31_linear_102_2635)"/>
</g>
<g style="mix-blend-mode:multiply">
<path d="M104 600L72 616L104 632L136 616L104 600Z" fill="#F2F2F2"/>
</g>
<path d="M72 64L104 80V120L72 136L40 120V80L72 64Z" fill="#00FFD1"/>
<g style="mix-blend-mode:multiply">
<path d="M72 96L104 80V120L72 136V96Z" fill="url(#paint32_linear_102_2635)"/>
</g>
<g style="mix-blend-mode:multiply">
<path d="M72 96L40 80V120L72 136V96Z" fill="url(#paint33_linear_102_2635)"/>
</g>
<g style="mix-blend-mode:multiply">
<path d="M72 64L40 80L72 96L104 80L72 64Z" fill="#F2F2F2"/>
</g>
<path d="M72 248L104 264V304L72 320L40 304V264L72 248Z" fill="#00FFD1"/>
<g style="mix-blend-mode:multiply">
<path d="M72 280L104 264V304L72 320V280Z" fill="url(#paint34_linear_102_2635)"/>
</g>
<g style="mix-blend-mode:multiply">
<path d="M72 280L40 264V304L72 320V280Z" fill="url(#paint35_linear_102_2635)"/>
</g>
<g style="mix-blend-mode:multiply">
<path d="M72 248L40 264L72 280L104 264L72 248Z" fill="#F2F2F2"/>
</g>
<path d="M72 432L104 448V488L72 504L40 488V448L72 432Z" fill="#00FFD1"/>
<g style="mix-blend-mode:multiply">
<path d="M72 464L104 448V488L72 504V464Z" fill="url(#paint36_linear_102_2635)"/>
</g>
<g style="mix-blend-mode:multiply">
<path d="M72 464L40 448V488L72 504V464Z" fill="url(#paint37_linear_102_2635)"/>
</g>
<g style="mix-blend-mode:multiply">
<path d="M72 432L40 448L72 464L104 448L72 432Z" fill="#F2F2F2"/>
</g>
<path d="M72 616L104 632V672L72 688L40 672V632L72 616Z" fill="#00FFD1"/>
<g style="mix-blend-mode:multiply">
<path d="M72 648L104 632V672L72 688V648Z" fill="url(#paint38_linear_102_2635)"/>
</g>
<g style="mix-blend-mode:multiply">
<path d="M72 648L40 632V672L72 688V648Z" fill="url(#paint39_linear_102_2635)"/>
</g>
<g style="mix-blend-mode:multiply">
<path d="M72 616L40 632L72 648L104 632L72 616Z" fill="#F2F2F2"/>
</g>
<path d="M48 48L64 40V48L72 44L56 64L40 60L48 56V48Z" fill="white"/>
<path opacity="0.25" d="M48 232L64 224V232L72 228L56 248L40 244L48 240V232Z" fill="white"/>
<path opacity="0.5" d="M80 216L96 208V216L104 212L88 232L72 228L80 224V216Z" fill="white"/>
<path d="M112 200L128 192V200L136 196L120 216L104 212L112 208V200Z" fill="white"/>
<path d="M176 352L192 344V352L200 348L184 368L168 364L176 360V352Z" fill="white"/>
<path d="M4.92188 31.1875C4.13542 31.1875 3.44531 31.0052 2.85156 30.6406C2.25781 30.276 1.79688 29.7708 1.46875 29.125C1.14062 28.474 0.976562 27.7292 0.976562 26.8906C0.976562 26.0417 1.14062 25.2917 1.46875 24.6406C1.79688 23.9896 2.25781 23.4818 2.85156 23.1172C3.44531 22.7474 4.13542 22.5625 4.92188 22.5625C5.58333 22.5625 6.17448 22.6927 6.69531 22.9531C7.21615 23.2083 7.63802 23.5651 7.96094 24.0234C8.28385 24.4766 8.47917 24.9974 8.54688 25.5859H6.875C6.81771 25.2786 6.70573 25.0078 6.53906 24.7734C6.3776 24.5339 6.16146 24.3464 5.89062 24.2109C5.61979 24.0755 5.29948 24.0078 4.92969 24.0078C4.46094 24.0078 4.05729 24.1276 3.71875 24.3672C3.38542 24.6016 3.1276 24.9349 2.94531 25.3672C2.76823 25.7995 2.67969 26.3073 2.67969 26.8906C2.67969 27.4688 2.76823 27.9714 2.94531 28.3984C3.1276 28.8255 3.38542 29.1562 3.71875 29.3906C4.05729 29.625 4.46094 29.7422 4.92969 29.7422C5.49219 29.7422 5.92448 29.599 6.22656 29.3125C6.53385 29.0208 6.74219 28.6354 6.85156 28.1562H8.54688C8.48438 28.7344 8.29167 29.2526 7.96875 29.7109C7.64583 30.1693 7.22135 30.5312 6.69531 30.7969C6.17448 31.0573 5.58333 31.1875 4.92188 31.1875ZM15.5469 27.5234V22.75H17.2344V31H15.5781V29.625H15.5469C15.3646 30.0521 15.0651 30.4167 14.6484 30.7188C14.237 31.0156 13.7083 31.1641 13.0625 31.1641C12.5 31.1641 11.9818 31.0391 11.5078 30.7891C11.0339 30.5391 10.6562 30.1719 10.375 29.6875C10.0938 29.1979 9.95312 28.599 9.95312 27.8906V22.75H11.6406V27.6875C11.6406 28.3438 11.8125 28.8411 12.1562 29.1797C12.5 29.5182 12.9583 29.6875 13.5312 29.6875C13.901 29.6875 14.237 29.612 14.5391 29.4609C14.8464 29.3099 15.0911 29.0755 15.2734 28.7578C15.4557 28.4349 15.5469 28.0234 15.5469 27.5234ZM19.0938 31V22.75H20.7109V24.0859H20.7422C20.8932 23.6328 21.1302 23.2812 21.4531 23.0312C21.7812 22.776 22.2083 22.6484 22.7344 22.6484C22.8594 22.6484 22.974 22.6536 23.0781 22.6641C23.1875 22.6693 23.276 22.6771 23.3438 22.6875V24.25C23.276 24.2396 23.1589 24.224 22.9922 24.2031C22.8307 24.1823 22.6536 24.1719 22.4609 24.1719C22.1536 24.1719 21.8724 24.2448 21.6172 24.3906C21.362 24.5312 21.1589 24.7474 21.0078 25.0391C20.8568 25.3307 20.7812 25.7005 20.7812 26.1484V31H19.0938ZM24.6094 31V22.75H26.2266V24.0859H26.2578C26.4089 23.6328 26.6458 23.2812 26.9688 23.0312C27.2969 22.776 27.724 22.6484 28.25 22.6484C28.375 22.6484 28.4896 22.6536 28.5938 22.6641C28.7031 22.6693 28.7917 22.6771 28.8594 22.6875V24.25C28.7917 24.2396 28.6745 24.224 28.5078 24.2031C28.3464 24.1823 28.1693 24.1719 27.9766 24.1719C27.6693 24.1719 27.388 24.2448 27.1328 24.3906C26.8776 24.5312 26.6745 24.7474 26.5234 25.0391C26.3724 25.3307 26.2969 25.7005 26.2969 26.1484V31H24.6094ZM33.3516 31.1875C32.5339 31.1875 31.8307 31.0026 31.2422 30.6328C30.6536 30.263 30.2005 29.7552 29.8828 29.1094C29.5703 28.4583 29.4141 27.7188 29.4141 26.8906C29.4141 26.0469 29.5781 25.3021 29.9062 24.6562C30.2344 24.0052 30.6875 23.4948 31.2656 23.125C31.8438 22.75 32.5104 22.5625 33.2656 22.5625C33.849 22.5625 34.3776 22.6667 34.8516 22.875C35.3255 23.0833 35.7318 23.3802 36.0703 23.7656C36.4141 24.1458 36.6745 24.599 36.8516 25.125C37.0339 25.651 37.125 26.2318 37.125 26.8672V27.3281H30.1562V26.0781H36.25L35.5078 26.4453C35.5078 25.9401 35.4167 25.5026 35.2344 25.1328C35.0521 24.7578 34.7943 24.4688 34.4609 24.2656C34.1276 24.0625 33.7344 23.9609 33.2812 23.9609C32.8333 23.9609 32.4427 24.0625 32.1094 24.2656C31.7812 24.4688 31.526 24.7578 31.3438 25.1328C31.1615 25.5026 31.0703 25.9401 31.0703 26.4453V27.1719C31.0703 27.6875 31.1589 28.1432 31.3359 28.5391C31.5182 28.9297 31.7812 29.237 32.125 29.4609C32.4688 29.6797 32.8854 29.7891 33.375 29.7891C33.7344 29.7891 34.0495 29.7344 34.3203 29.625C34.5964 29.5156 34.8229 29.3646 35 29.1719C35.1823 28.974 35.3125 28.7448 35.3906 28.4844H37.0078C36.9036 29.0208 36.6797 29.4922 36.3359 29.8984C35.9974 30.2995 35.5703 30.6146 35.0547 30.8438C34.5443 31.0729 33.9766 31.1875 33.3516 31.1875ZM40.2344 26.2266V31H38.5469V22.75H40.2031V24.1406L40.2344 24.125C40.4219 23.6927 40.7214 23.3281 41.1328 23.0312C41.5443 22.7344 42.0729 22.5859 42.7188 22.5859C43.2865 22.5859 43.8047 22.7109 44.2734 22.9609C44.7474 23.2109 45.125 23.5781 45.4062 24.0625C45.6875 24.5469 45.8281 25.1458 45.8281 25.8594V31H44.1406V26.0625C44.1406 25.4062 43.9688 24.9089 43.625 24.5703C43.2865 24.2318 42.8281 24.0625 42.25 24.0625C41.8802 24.0625 41.5417 24.138 41.2344 24.2891C40.9323 24.4401 40.6901 24.6745 40.5078 24.9922C40.3255 25.3099 40.2344 25.7214 40.2344 26.2266ZM51.5703 22.75V24.1406H46.9844V22.75H51.5703ZM48.2031 20.5H49.8906V28.6562C49.8906 29 49.9609 29.2448 50.1016 29.3906C50.2474 29.5365 50.4922 29.6094 50.8359 29.6094C50.9609 29.6094 51.0859 29.6094 51.2109 29.6094C51.3411 29.6094 51.4609 29.6094 51.5703 29.6094V31C51.4349 31 51.276 31 51.0938 31C50.9167 31 50.7396 31 50.5625 31C49.8125 31 49.2318 30.8203 48.8203 30.4609C48.4089 30.0964 48.2031 29.5859 48.2031 28.9297V20.5Z" fill="white"/>
<path d="M68.9219 183.188C68.1354 183.188 67.4453 183.005 66.8516 182.641C66.2578 182.276 65.7969 181.771 65.4688 181.125C65.1406 180.474 64.9766 179.729 64.9766 178.891C64.9766 178.042 65.1406 177.292 65.4688 176.641C65.7969 175.99 66.2578 175.482 66.8516 175.117C67.4453 174.747 68.1354 174.562 68.9219 174.562C69.5833 174.562 70.1745 174.693 70.6953 174.953C71.2161 175.208 71.638 175.565 71.9609 176.023C72.2839 176.477 72.4792 176.997 72.5469 177.586H70.875C70.8177 177.279 70.7057 177.008 70.5391 176.773C70.3776 176.534 70.1615 176.346 69.8906 176.211C69.6198 176.076 69.2995 176.008 68.9297 176.008C68.4609 176.008 68.0573 176.128 67.7188 176.367C67.3854 176.602 67.1276 176.935 66.9453 177.367C66.7682 177.799 66.6797 178.307 66.6797 178.891C66.6797 179.469 66.7682 179.971 66.9453 180.398C67.1276 180.826 67.3854 181.156 67.7188 181.391C68.0573 181.625 68.4609 181.742 68.9297 181.742C69.4922 181.742 69.9245 181.599 70.2266 181.312C70.5339 181.021 70.7422 180.635 70.8516 180.156H72.5469C72.4844 180.734 72.2917 181.253 71.9688 181.711C71.6458 182.169 71.2214 182.531 70.6953 182.797C70.1745 183.057 69.5833 183.188 68.9219 183.188ZM79.5469 179.523V174.75H81.2344V183H79.5781V181.625H79.5469C79.3646 182.052 79.0651 182.417 78.6484 182.719C78.237 183.016 77.7083 183.164 77.0625 183.164C76.5 183.164 75.9818 183.039 75.5078 182.789C75.0339 182.539 74.6562 182.172 74.375 181.688C74.0938 181.198 73.9531 180.599 73.9531 179.891V174.75H75.6406V179.688C75.6406 180.344 75.8125 180.841 76.1562 181.18C76.5 181.518 76.9583 181.688 77.5312 181.688C77.901 181.688 78.237 181.612 78.5391 181.461C78.8464 181.31 79.0911 181.076 79.2734 180.758C79.4557 180.435 79.5469 180.023 79.5469 179.523ZM83.0938 183V174.75H84.7109V176.086H84.7422C84.8932 175.633 85.1302 175.281 85.4531 175.031C85.7812 174.776 86.2083 174.648 86.7344 174.648C86.8594 174.648 86.974 174.654 87.0781 174.664C87.1875 174.669 87.276 174.677 87.3438 174.688V176.25C87.276 176.24 87.1589 176.224 86.9922 176.203C86.8307 176.182 86.6536 176.172 86.4609 176.172C86.1536 176.172 85.8724 176.245 85.6172 176.391C85.362 176.531 85.1589 176.747 85.0078 177.039C84.8568 177.331 84.7812 177.701 84.7812 178.148V183H83.0938ZM88.6094 183V174.75H90.2266V176.086H90.2578C90.4089 175.633 90.6458 175.281 90.9688 175.031C91.2969 174.776 91.724 174.648 92.25 174.648C92.375 174.648 92.4896 174.654 92.5938 174.664C92.7031 174.669 92.7917 174.677 92.8594 174.688V176.25C92.7917 176.24 92.6745 176.224 92.5078 176.203C92.3464 176.182 92.1693 176.172 91.9766 176.172C91.6693 176.172 91.388 176.245 91.1328 176.391C90.8776 176.531 90.6745 176.747 90.5234 177.039C90.3724 177.331 90.2969 177.701 90.2969 178.148V183H88.6094ZM97.3516 183.188C96.5339 183.188 95.8307 183.003 95.2422 182.633C94.6536 182.263 94.2005 181.755 93.8828 181.109C93.5703 180.458 93.4141 179.719 93.4141 178.891C93.4141 178.047 93.5781 177.302 93.9062 176.656C94.2344 176.005 94.6875 175.495 95.2656 175.125C95.8438 174.75 96.5104 174.562 97.2656 174.562C97.849 174.562 98.3776 174.667 98.8516 174.875C99.3255 175.083 99.7318 175.38 100.07 175.766C100.414 176.146 100.674 176.599 100.852 177.125C101.034 177.651 101.125 178.232 101.125 178.867V179.328H94.1562V178.078H100.25L99.5078 178.445C99.5078 177.94 99.4167 177.503 99.2344 177.133C99.0521 176.758 98.7943 176.469 98.4609 176.266C98.1276 176.062 97.7344 175.961 97.2812 175.961C96.8333 175.961 96.4427 176.062 96.1094 176.266C95.7812 176.469 95.526 176.758 95.3438 177.133C95.1615 177.503 95.0703 177.94 95.0703 178.445V179.172C95.0703 179.688 95.1589 180.143 95.3359 180.539C95.5182 180.93 95.7812 181.237 96.125 181.461C96.4688 181.68 96.8854 181.789 97.375 181.789C97.7344 181.789 98.0495 181.734 98.3203 181.625C98.5964 181.516 98.8229 181.365 99 181.172C99.1823 180.974 99.3125 180.745 99.3906 180.484H101.008C100.904 181.021 100.68 181.492 100.336 181.898C99.9974 182.299 99.5703 182.615 99.0547 182.844C98.5443 183.073 97.9766 183.188 97.3516 183.188ZM104.234 178.227V183H102.547V174.75H104.203V176.141L104.234 176.125C104.422 175.693 104.721 175.328 105.133 175.031C105.544 174.734 106.073 174.586 106.719 174.586C107.286 174.586 107.805 174.711 108.273 174.961C108.747 175.211 109.125 175.578 109.406 176.062C109.688 176.547 109.828 177.146 109.828 177.859V183H108.141V178.062C108.141 177.406 107.969 176.909 107.625 176.57C107.286 176.232 106.828 176.062 106.25 176.062C105.88 176.062 105.542 176.138 105.234 176.289C104.932 176.44 104.69 176.674 104.508 176.992C104.326 177.31 104.234 177.721 104.234 178.227ZM115.57 174.75V176.141H110.984V174.75H115.57ZM112.203 172.5H113.891V180.656C113.891 181 113.961 181.245 114.102 181.391C114.247 181.536 114.492 181.609 114.836 181.609C114.961 181.609 115.086 181.609 115.211 181.609C115.341 181.609 115.461 181.609 115.57 181.609V183C115.435 183 115.276 183 115.094 183C114.917 183 114.74 183 114.562 183C113.812 183 113.232 182.82 112.82 182.461C112.409 182.096 112.203 181.586 112.203 180.93V172.5Z" fill="white"/>
<path d="M132.922 335.188C132.135 335.188 131.445 335.005 130.852 334.641C130.258 334.276 129.797 333.771 129.469 333.125C129.141 332.474 128.977 331.729 128.977 330.891C128.977 330.042 129.141 329.292 129.469 328.641C129.797 327.99 130.258 327.482 130.852 327.117C131.445 326.747 132.135 326.562 132.922 326.562C133.583 326.562 134.174 326.693 134.695 326.953C135.216 327.208 135.638 327.565 135.961 328.023C136.284 328.477 136.479 328.997 136.547 329.586H134.875C134.818 329.279 134.706 329.008 134.539 328.773C134.378 328.534 134.161 328.346 133.891 328.211C133.62 328.076 133.299 328.008 132.93 328.008C132.461 328.008 132.057 328.128 131.719 328.367C131.385 328.602 131.128 328.935 130.945 329.367C130.768 329.799 130.68 330.307 130.68 330.891C130.68 331.469 130.768 331.971 130.945 332.398C131.128 332.826 131.385 333.156 131.719 333.391C132.057 333.625 132.461 333.742 132.93 333.742C133.492 333.742 133.924 333.599 134.227 333.312C134.534 333.021 134.742 332.635 134.852 332.156H136.547C136.484 332.734 136.292 333.253 135.969 333.711C135.646 334.169 135.221 334.531 134.695 334.797C134.174 335.057 133.583 335.188 132.922 335.188ZM143.547 331.523V326.75H145.234V335H143.578V333.625H143.547C143.365 334.052 143.065 334.417 142.648 334.719C142.237 335.016 141.708 335.164 141.062 335.164C140.5 335.164 139.982 335.039 139.508 334.789C139.034 334.539 138.656 334.172 138.375 333.688C138.094 333.198 137.953 332.599 137.953 331.891V326.75H139.641V331.688C139.641 332.344 139.812 332.841 140.156 333.18C140.5 333.518 140.958 333.688 141.531 333.688C141.901 333.688 142.237 333.612 142.539 333.461C142.846 333.31 143.091 333.076 143.273 332.758C143.456 332.435 143.547 332.023 143.547 331.523ZM147.094 335V326.75H148.711V328.086H148.742C148.893 327.633 149.13 327.281 149.453 327.031C149.781 326.776 150.208 326.648 150.734 326.648C150.859 326.648 150.974 326.654 151.078 326.664C151.188 326.669 151.276 326.677 151.344 326.688V328.25C151.276 328.24 151.159 328.224 150.992 328.203C150.831 328.182 150.654 328.172 150.461 328.172C150.154 328.172 149.872 328.245 149.617 328.391C149.362 328.531 149.159 328.747 149.008 329.039C148.857 329.331 148.781 329.701 148.781 330.148V335H147.094ZM152.609 335V326.75H154.227V328.086H154.258C154.409 327.633 154.646 327.281 154.969 327.031C155.297 326.776 155.724 326.648 156.25 326.648C156.375 326.648 156.49 326.654 156.594 326.664C156.703 326.669 156.792 326.677 156.859 326.688V328.25C156.792 328.24 156.674 328.224 156.508 328.203C156.346 328.182 156.169 328.172 155.977 328.172C155.669 328.172 155.388 328.245 155.133 328.391C154.878 328.531 154.674 328.747 154.523 329.039C154.372 329.331 154.297 329.701 154.297 330.148V335H152.609ZM161.352 335.188C160.534 335.188 159.831 335.003 159.242 334.633C158.654 334.263 158.201 333.755 157.883 333.109C157.57 332.458 157.414 331.719 157.414 330.891C157.414 330.047 157.578 329.302 157.906 328.656C158.234 328.005 158.688 327.495 159.266 327.125C159.844 326.75 160.51 326.562 161.266 326.562C161.849 326.562 162.378 326.667 162.852 326.875C163.326 327.083 163.732 327.38 164.07 327.766C164.414 328.146 164.674 328.599 164.852 329.125C165.034 329.651 165.125 330.232 165.125 330.867V331.328H158.156V330.078H164.25L163.508 330.445C163.508 329.94 163.417 329.503 163.234 329.133C163.052 328.758 162.794 328.469 162.461 328.266C162.128 328.062 161.734 327.961 161.281 327.961C160.833 327.961 160.443 328.062 160.109 328.266C159.781 328.469 159.526 328.758 159.344 329.133C159.161 329.503 159.07 329.94 159.07 330.445V331.172C159.07 331.688 159.159 332.143 159.336 332.539C159.518 332.93 159.781 333.237 160.125 333.461C160.469 333.68 160.885 333.789 161.375 333.789C161.734 333.789 162.049 333.734 162.32 333.625C162.596 333.516 162.823 333.365 163 333.172C163.182 332.974 163.312 332.745 163.391 332.484H165.008C164.904 333.021 164.68 333.492 164.336 333.898C163.997 334.299 163.57 334.615 163.055 334.844C162.544 335.073 161.977 335.188 161.352 335.188ZM168.234 330.227V335H166.547V326.75H168.203V328.141L168.234 328.125C168.422 327.693 168.721 327.328 169.133 327.031C169.544 326.734 170.073 326.586 170.719 326.586C171.286 326.586 171.805 326.711 172.273 326.961C172.747 327.211 173.125 327.578 173.406 328.062C173.688 328.547 173.828 329.146 173.828 329.859V335H172.141V330.062C172.141 329.406 171.969 328.909 171.625 328.57C171.286 328.232 170.828 328.062 170.25 328.062C169.88 328.062 169.542 328.138 169.234 328.289C168.932 328.44 168.69 328.674 168.508 328.992C168.326 329.31 168.234 329.721 168.234 330.227ZM179.57 326.75V328.141H174.984V326.75H179.57ZM176.203 324.5H177.891V332.656C177.891 333 177.961 333.245 178.102 333.391C178.247 333.536 178.492 333.609 178.836 333.609C178.961 333.609 179.086 333.609 179.211 333.609C179.341 333.609 179.461 333.609 179.57 333.609V335C179.435 335 179.276 335 179.094 335C178.917 335 178.74 335 178.562 335C177.812 335 177.232 334.82 176.82 334.461C176.409 334.096 176.203 333.586 176.203 332.93V324.5Z" fill="white"/>
<path d="M232 352L200 368L232 384V424L264 408V368L232 352Z" fill="#FF0000" fill-opacity="0.25" stroke="#FF0000" stroke-width="1.6"/>
<path d="M168 200L136 216L168 232V272L200 256V216L168 200Z" fill="#FF00FF" fill-opacity="0.25" stroke="#FF00FF" stroke-width="1.6"/>
<path d="M216 328L224 336M232 344L224 336M224 336L232 328M224 336L216 344" stroke="#FF0000" stroke-width="3.2"/>
<path d="M156 176L164 184L180 168" stroke="#FF00FF" stroke-width="3.2"/>
<defs>
<linearGradient id="paint0_linear_102_2635" x1="200" y1="32" x2="216" y2="64" gradientUnits="userSpaceOnUse">
<stop stop-color="#C5C5C5"/>
<stop offset="1" stop-color="#868686"/>
</linearGradient>
<linearGradient id="paint1_linear_102_2635" x1="200" y1="32" x2="184" y2="64" gradientUnits="userSpaceOnUse">
<stop stop-color="#DADADA"/>
<stop offset="1" stop-color="#9F9F9F"/>
</linearGradient>
<linearGradient id="paint2_linear_102_2635" x1="200" y1="216" x2="216" y2="248" gradientUnits="userSpaceOnUse">
<stop stop-color="#C5C5C5"/>
<stop offset="1" stop-color="#868686"/>
</linearGradient>
<linearGradient id="paint3_linear_102_2635" x1="200" y1="216" x2="184" y2="248" gradientUnits="userSpaceOnUse">
<stop stop-color="#DADADA"/>
<stop offset="1" stop-color="#9F9F9F"/>
</linearGradient>
<linearGradient id="paint4_linear_102_2635" x1="200" y1="400" x2="216" y2="432" gradientUnits="userSpaceOnUse">
<stop stop-color="#C5C5C5"/>
<stop offset="1" stop-color="#868686"/>
</linearGradient>
<linearGradient id="paint5_linear_102_2635" x1="200" y1="400" x2="184" y2="432" gradientUnits="userSpaceOnUse">
<stop stop-color="#DADADA"/>
<stop offset="1" stop-color="#9F9F9F"/>
</linearGradient>
<linearGradient id="paint6_linear_102_2635" x1="200" y1="584" x2="216" y2="616" gradientUnits="userSpaceOnUse">
<stop stop-color="#C5C5C5"/>
<stop offset="1" stop-color="#868686"/>
</linearGradient>
<linearGradient id="paint7_linear_102_2635" x1="200" y1="584" x2="184" y2="616" gradientUnits="userSpaceOnUse">
<stop stop-color="#DADADA"/>
<stop offset="1" stop-color="#9F9F9F"/>
</linearGradient>
<linearGradient id="paint8_linear_102_2635" x1="168" y1="48" x2="184" y2="80" gradientUnits="userSpaceOnUse">
<stop stop-color="#C5C5C5"/>
<stop offset="1" stop-color="#868686"/>
</linearGradient>
<linearGradient id="paint9_linear_102_2635" x1="168" y1="48" x2="152" y2="80" gradientUnits="userSpaceOnUse">
<stop stop-color="#DADADA"/>
<stop offset="1" stop-color="#9F9F9F"/>
</linearGradient>
<linearGradient id="paint10_linear_102_2635" x1="168" y1="232" x2="184" y2="264" gradientUnits="userSpaceOnUse">
<stop stop-color="#C5C5C5"/>
<stop offset="1" stop-color="#868686"/>
</linearGradient>
<linearGradient id="paint11_linear_102_2635" x1="168" y1="232" x2="152" y2="264" gradientUnits="userSpaceOnUse">
<stop stop-color="#DADADA"/>
<stop offset="1" stop-color="#9F9F9F"/>
</linearGradient>
<linearGradient id="paint12_linear_102_2635" x1="168" y1="416" x2="184" y2="448" gradientUnits="userSpaceOnUse">
<stop stop-color="#C5C5C5"/>
<stop offset="1" stop-color="#868686"/>
</linearGradient>
<linearGradient id="paint13_linear_102_2635" x1="168" y1="416" x2="152" y2="448" gradientUnits="userSpaceOnUse">
<stop stop-color="#DADADA"/>
<stop offset="1" stop-color="#9F9F9F"/>
</linearGradient>
<linearGradient id="paint14_linear_102_2635" x1="168" y1="600" x2="184" y2="632" gradientUnits="userSpaceOnUse">
<stop stop-color="#C5C5C5"/>
<stop offset="1" stop-color="#868686"/>
</linearGradient>
<linearGradient id="paint15_linear_102_2635" x1="168" y1="600" x2="152" y2="632" gradientUnits="userSpaceOnUse">
<stop stop-color="#DADADA"/>
<stop offset="1" stop-color="#9F9F9F"/>
</linearGradient>
<linearGradient id="paint16_linear_102_2635" x1="136" y1="64" x2="152" y2="96" gradientUnits="userSpaceOnUse">
<stop stop-color="#C5C5C5"/>
<stop offset="1" stop-color="#868686"/>
</linearGradient>
<linearGradient id="paint17_linear_102_2635" x1="136" y1="64" x2="120" y2="96" gradientUnits="userSpaceOnUse">
<stop stop-color="#DADADA"/>
<stop offset="1" stop-color="#9F9F9F"/>
</linearGradient>
<linearGradient id="paint18_linear_102_2635" x1="136" y1="248" x2="152" y2="280" gradientUnits="userSpaceOnUse">
<stop stop-color="#C5C5C5"/>
<stop offset="1" stop-color="#868686"/>
</linearGradient>
<linearGradient id="paint19_linear_102_2635" x1="136" y1="248" x2="120" y2="280" gradientUnits="userSpaceOnUse">
<stop stop-color="#DADADA"/>
<stop offset="1" stop-color="#9F9F9F"/>
</linearGradient>
<linearGradient id="paint20_linear_102_2635" x1="136" y1="432" x2="152" y2="464" gradientUnits="userSpaceOnUse">
<stop stop-color="#C5C5C5"/>
<stop offset="1" stop-color="#868686"/>
</linearGradient>
<linearGradient id="paint21_linear_102_2635" x1="136" y1="432" x2="120" y2="464" gradientUnits="userSpaceOnUse">
<stop stop-color="#DADADA"/>
<stop offset="1" stop-color="#9F9F9F"/>
</linearGradient>
<linearGradient id="paint22_linear_102_2635" x1="136" y1="616" x2="152" y2="648" gradientUnits="userSpaceOnUse">
<stop stop-color="#C5C5C5"/>
<stop offset="1" stop-color="#868686"/>
</linearGradient>
<linearGradient id="paint23_linear_102_2635" x1="136" y1="616" x2="120" y2="648" gradientUnits="userSpaceOnUse">
<stop stop-color="#DADADA"/>
<stop offset="1" stop-color="#9F9F9F"/>
</linearGradient>
<linearGradient id="paint24_linear_102_2635" x1="104" y1="80" x2="120" y2="112" gradientUnits="userSpaceOnUse">
<stop stop-color="#C5C5C5"/>
<stop offset="1" stop-color="#868686"/>
</linearGradient>
<linearGradient id="paint25_linear_102_2635" x1="104" y1="80" x2="88" y2="112" gradientUnits="userSpaceOnUse">
<stop stop-color="#DADADA"/>
<stop offset="1" stop-color="#9F9F9F"/>
</linearGradient>
<linearGradient id="paint26_linear_102_2635" x1="104" y1="264" x2="120" y2="296" gradientUnits="userSpaceOnUse">
<stop stop-color="#C5C5C5"/>
<stop offset="1" stop-color="#868686"/>
</linearGradient>
<linearGradient id="paint27_linear_102_2635" x1="104" y1="264" x2="88" y2="296" gradientUnits="userSpaceOnUse">
<stop stop-color="#DADADA"/>
<stop offset="1" stop-color="#9F9F9F"/>
</linearGradient>
<linearGradient id="paint28_linear_102_2635" x1="104" y1="448" x2="120" y2="480" gradientUnits="userSpaceOnUse">
<stop stop-color="#C5C5C5"/>
<stop offset="1" stop-color="#868686"/>
</linearGradient>
<linearGradient id="paint29_linear_102_2635" x1="104" y1="448" x2="88" y2="480" gradientUnits="userSpaceOnUse">
<stop stop-color="#DADADA"/>
<stop offset="1" stop-color="#9F9F9F"/>
</linearGradient>
<linearGradient id="paint30_linear_102_2635" x1="104" y1="632" x2="120" y2="664" gradientUnits="userSpaceOnUse">
<stop stop-color="#C5C5C5"/>
<stop offset="1" stop-color="#868686"/>
</linearGradient>
<linearGradient id="paint31_linear_102_2635" x1="104" y1="632" x2="88" y2="664" gradientUnits="userSpaceOnUse">
<stop stop-color="#DADADA"/>
<stop offset="1" stop-color="#9F9F9F"/>
</linearGradient>
<linearGradient id="paint32_linear_102_2635" x1="72" y1="96" x2="88" y2="128" gradientUnits="userSpaceOnUse">
<stop stop-color="#C5C5C5"/>
<stop offset="1" stop-color="#868686"/>
</linearGradient>
<linearGradient id="paint33_linear_102_2635" x1="72" y1="96" x2="56" y2="128" gradientUnits="userSpaceOnUse">
<stop stop-color="#DADADA"/>
<stop offset="1" stop-color="#9F9F9F"/>
</linearGradient>
<linearGradient id="paint34_linear_102_2635" x1="72" y1="280" x2="88" y2="312" gradientUnits="userSpaceOnUse">
<stop stop-color="#C5C5C5"/>
<stop offset="1" stop-color="#868686"/>
</linearGradient>
<linearGradient id="paint35_linear_102_2635" x1="72" y1="280" x2="56" y2="312" gradientUnits="userSpaceOnUse">
<stop stop-color="#DADADA"/>
<stop offset="1" stop-color="#9F9F9F"/>
</linearGradient>
<linearGradient id="paint36_linear_102_2635" x1="72" y1="464" x2="88" y2="496" gradientUnits="userSpaceOnUse">
<stop stop-color="#C5C5C5"/>
<stop offset="1" stop-color="#868686"/>
</linearGradient>
<linearGradient id="paint37_linear_102_2635" x1="72" y1="464" x2="56" y2="496" gradientUnits="userSpaceOnUse">
<stop stop-color="#DADADA"/>
<stop offset="1" stop-color="#9F9F9F"/>
</linearGradient>
<linearGradient id="paint38_linear_102_2635" x1="72" y1="648" x2="88" y2="680" gradientUnits="userSpaceOnUse">
<stop stop-color="#C5C5C5"/>
<stop offset="1" stop-color="#868686"/>
</linearGradient>
<linearGradient id="paint39_linear_102_2635" x1="72" y1="648" x2="56" y2="680" gradientUnits="userSpaceOnUse">
<stop stop-color="#DADADA"/>
<stop offset="1" stop-color="#9F9F9F"/>
</linearGradient>
</defs>
</svg>
