<svg width="810" height="580" viewBox="0 0 810 580" fill="none" xmlns="http://www.w3.org/2000/svg">
<circle cx="205" cy="535" r="20" fill="#FFC20A"/>
<circle cx="285" cy="455" r="20" fill="#FFC20A"/>
<circle cx="365" cy="375" r="20" fill="#FFC20A"/>
<circle cx="285" cy="295" r="20" fill="#FFC20A"/>
<circle cx="205" cy="215" r="20" fill="#FFC20A"/>
<circle cx="365" cy="215" r="20" fill="#EEEEEE"/>
<circle cx="205" cy="375" r="20" fill="#FFC20A"/>
<circle cx="125" cy="295" r="20" fill="#FFC20A"/>
<circle cx="45" cy="215" r="20" fill="#EEEEEE"/>
<circle cx="205" cy="55" r="20" fill="#EEEEEE"/>
<path d="M228.5 510C228.5 510.828 229.172 511.5 230 511.5L243.5 511.5C244.328 511.5 245 510.828 245 510C245 509.172 244.328 508.5 243.5 508.5L231.5 508.5L231.5 496.5C231.5 495.672 230.828 495 230 495C229.172 495 228.5 495.672 228.5 496.5L228.5 510ZM231.061 511.061L261.061 481.061L258.939 478.939L228.939 508.939L231.061 511.061Z" fill="#EEEEEE"/>
<path d="M308.5 430C308.5 430.828 309.172 431.5 310 431.5L323.5 431.5C324.328 431.5 325 430.828 325 430C325 429.172 324.328 428.5 323.5 428.5L311.5 428.5L311.5 416.5C311.5 415.672 310.828 415 310 415C309.172 415 308.5 415.672 308.5 416.5L308.5 430ZM311.061 431.061L341.061 401.061L338.939 398.939L308.939 428.939L311.061 431.061Z" fill="#EEEEEE"/>
<path d="M261.5 430C261.5 430.828 260.828 431.5 260 431.5L246.5 431.5C245.672 431.5 245 430.828 245 430C245 429.172 245.672 428.5 246.5 428.5L258.5 428.5L258.5 416.5C258.5 415.672 259.172 415 260 415C260.828 415 261.5 415.672 261.5 416.5L261.5 430ZM258.939 431.061L228.939 401.061L231.061 398.939L261.061 428.939L258.939 431.061Z" fill="#EEEEEE"/>
<path d="M181.5 350C181.5 350.828 180.828 351.5 180 351.5L166.5 351.5C165.672 351.5 165 350.828 165 350C165 349.172 165.672 348.5 166.5 348.5L178.5 348.5L178.5 336.5C178.5 335.672 179.172 335 180 335C180.828 335 181.5 335.672 181.5 336.5L181.5 350ZM178.939 351.061L148.939 321.061L151.061 318.939L181.061 348.939L178.939 351.061Z" fill="#EEEEEE"/>
<path d="M341.5 350C341.5 350.828 340.828 351.5 340 351.5L326.5 351.5C325.672 351.5 325 350.828 325 350C325 349.172 325.672 348.5 326.5 348.5L338.5 348.5L338.5 336.5C338.5 335.672 339.172 335 340 335C340.828 335 341.5 335.672 341.5 336.5L341.5 350ZM338.939 351.061L308.939 321.061L311.061 318.939L341.061 348.939L338.939 351.061Z" fill="#EEEEEE"/>
<path d="M101.5 270C101.5 270.828 100.828 271.5 100 271.5L86.5 271.5C85.6716 271.5 85 270.828 85 270C85 269.172 85.6716 268.5 86.5 268.5L98.5 268.5L98.5 256.5C98.5 255.672 99.1716 255 100 255C100.828 255 101.5 255.672 101.5 256.5L101.5 270ZM98.9393 271.061L68.9393 241.061L71.0607 238.939L101.061 268.939L98.9393 271.061Z" fill="#EEEEEE"/>
<path d="M261.5 270C261.5 270.828 260.828 271.5 260 271.5L246.5 271.5C245.672 271.5 245 270.828 245 270C245 269.172 245.672 268.5 246.5 268.5L258.5 268.5L258.5 256.5C258.5 255.672 259.172 255 260 255C260.828 255 261.5 255.672 261.5 256.5L261.5 270ZM258.939 271.061L228.939 241.061L231.061 238.939L261.061 268.939L258.939 271.061Z" fill="#EEEEEE"/>
<path d="M148.5 270C148.5 270.828 149.172 271.5 150 271.5L163.5 271.5C164.328 271.5 165 270.828 165 270C165 269.172 164.328 268.5 163.5 268.5L151.5 268.5L151.5 256.5C151.5 255.672 150.828 255 150 255C149.172 255 148.5 255.672 148.5 256.5L148.5 270ZM151.061 271.061L181.061 241.061L178.939 238.939L148.939 268.939L151.061 271.061Z" fill="#EEEEEE"/>
<path d="M341.5 190C341.5 190.828 340.828 191.5 340 191.5L326.5 191.5C325.672 191.5 325 190.828 325 190C325 189.172 325.672 188.5 326.5 188.5L338.5 188.5L338.5 176.5C338.5 175.672 339.172 175 340 175C340.828 175 341.5 175.672 341.5 176.5L341.5 190ZM338.939 191.061L228.939 81.0607L231.061 78.9393L341.061 188.939L338.939 191.061Z" fill="#EEEEEE"/>
<path d="M45 375L43.9394 376.061L43.5 375.621L43.5 375L45 375ZM181.5 510C181.5 510.828 180.828 511.5 180 511.5L166.5 511.5C165.672 511.5 165 510.828 165 510C165 509.172 165.672 508.5 166.5 508.5L178.5 508.5L178.5 496.5C178.5 495.672 179.172 495 180 495C180.828 495 181.5 495.672 181.5 496.5L181.5 510ZM43.5 375L43.5 240L46.5 240L46.5 375L43.5 375ZM178.939 511.061L123.939 456.061L126.061 453.939L181.061 508.939L178.939 511.061ZM123.939 456.061L43.9394 376.061L46.0607 373.939L126.061 453.939L123.939 456.061ZM123.5 455L123.5 320L126.5 320L126.5 455L123.5 455Z" fill="#EEEEEE"/>
<path d="M68.5 190C68.5 190.828 69.1716 191.5 70 191.5L83.5 191.5C84.3284 191.5 85 190.828 85 190C85 189.172 84.3284 188.5 83.5 188.5L71.5 188.5L71.5 176.5C71.5 175.672 70.8284 175 70 175C69.1716 175 68.5 175.672 68.5 176.5L68.5 190ZM71.0607 191.061L181.061 81.0607L178.939 78.9393L68.9393 188.939L71.0607 191.061Z" fill="#EEEEEE"/>
<path d="M283.939 431.061C284.525 431.646 285.475 431.646 286.061 431.061L295.607 421.515C296.192 420.929 296.192 419.979 295.607 419.393C295.021 418.808 294.071 418.808 293.485 419.393L285 427.879L276.515 419.393C275.929 418.808 274.979 418.808 274.393 419.393C273.808 419.979 273.808 420.929 274.393 421.515L283.939 431.061ZM286.5 430L286.5 320L283.5 320L283.5 430L286.5 430Z" fill="#EEEEEE"/>
<path d="M363.939 351.061C364.525 351.646 365.475 351.646 366.061 351.061L375.607 341.515C376.192 340.929 376.192 339.979 375.607 339.393C375.021 338.808 374.071 338.808 373.485 339.393L365 347.879L356.515 339.393C355.929 338.808 354.979 338.808 354.393 339.393C353.808 339.979 353.808 340.929 354.393 341.515L363.939 351.061ZM366.5 350L366.5 240L363.5 240L363.5 350L366.5 350Z" fill="#EEEEEE"/>
<path d="M203.939 191.061C204.525 191.646 205.475 191.646 206.061 191.061L215.607 181.515C216.192 180.929 216.192 179.979 215.607 179.393C215.021 178.808 214.071 178.808 213.485 179.393L205 187.879L196.515 179.393C195.929 178.808 194.979 178.808 194.393 179.393C193.808 179.979 193.808 180.929 194.393 181.515L203.939 191.061ZM206.5 190L206.5 80L203.5 80L203.5 190L206.5 190Z" fill="#EEEEEE"/>
<circle cx="525" cy="45" r="20" fill="#FFC20A"/>
<path d="M567.55 56V53.54H573.4V41.96H568.15V39.5H576.1V53.54H581.65V56H567.55ZM574.45 36.53C573.79 36.53 573.27 36.36 572.89 36.02C572.51 35.68 572.32 35.22 572.32 34.64C572.32 34.04 572.51 33.57 572.89 33.23C573.27 32.87 573.79 32.69 574.45 32.69C575.11 32.69 575.63 32.87 576.01 33.23C576.39 33.57 576.58 34.04 576.58 34.64C576.58 35.22 576.39 35.68 576.01 36.02C575.63 36.36 575.11 36.53 574.45 36.53ZM585.748 56V39.5H588.448V42.65H589.018L588.448 43.28C588.448 41.98 588.838 40.98 589.618 40.28C590.398 39.56 591.478 39.2 592.858 39.2C594.518 39.2 595.838 39.71 596.818 40.73C597.798 41.75 598.288 43.14 598.288 44.9V56H595.588V45.38C595.588 44.12 595.268 43.16 594.628 42.5C594.008 41.82 593.158 41.48 592.078 41.48C590.958 41.48 590.068 41.83 589.408 42.53C588.768 43.23 588.448 44.22 588.448 45.5V56H585.748ZM608.207 56L602.597 39.5H605.507L609.107 50.6C609.327 51.26 609.517 51.9 609.677 52.52C609.837 53.12 609.957 53.59 610.037 53.93C610.137 53.59 610.257 53.12 610.397 52.52C610.537 51.9 610.707 51.26 610.907 50.6L614.507 39.5H617.357L611.747 56H608.207ZM626.525 56.3C624.825 56.3 623.475 55.83 622.475 54.89C621.475 53.93 620.975 52.68 620.975 51.14C620.975 50.12 621.205 49.23 621.665 48.47C622.125 47.71 622.765 47.12 623.585 46.7C624.405 46.26 625.345 46.04 626.405 46.04H631.505V44.75C631.505 43.67 631.215 42.87 630.635 42.35C630.055 41.81 629.175 41.54 627.995 41.54C626.955 41.54 626.115 41.73 625.475 42.11C624.835 42.49 624.495 43.02 624.455 43.7H621.755C621.855 42.4 622.455 41.33 623.555 40.49C624.675 39.63 626.155 39.2 627.995 39.2C629.995 39.2 631.525 39.68 632.585 40.64C633.665 41.6 634.205 42.94 634.205 44.66V56H631.535V53H631.085L631.505 52.4C631.505 53.2 631.305 53.89 630.905 54.47C630.505 55.05 629.935 55.5 629.195 55.82C628.455 56.14 627.565 56.3 626.525 56.3ZM627.185 54.02C628.505 54.02 629.555 53.7 630.335 53.06C631.115 52.42 631.505 51.55 631.505 50.45V48.14H626.705C625.825 48.14 625.105 48.41 624.545 48.95C624.005 49.47 623.735 50.17 623.735 51.05C623.735 51.97 624.035 52.7 624.635 53.24C625.255 53.76 626.105 54.02 627.185 54.02ZM648.353 56C647.393 56 646.553 55.81 645.833 55.43C645.113 55.05 644.553 54.51 644.153 53.81C643.753 53.11 643.553 52.29 643.553 51.35V36.56H637.853V34.1H646.253V51.35C646.253 52.03 646.443 52.57 646.823 52.97C647.203 53.35 647.713 53.54 648.353 53.54H653.453V56H648.353ZM657.491 56V53.54H663.341V41.96H658.091V39.5H666.041V53.54H671.591V56H657.491ZM664.391 36.53C663.731 36.53 663.211 36.36 662.831 36.02C662.451 35.68 662.261 35.22 662.261 34.64C662.261 34.04 662.451 33.57 662.831 33.23C663.211 32.87 663.731 32.69 664.391 32.69C665.051 32.69 665.571 32.87 665.951 33.23C666.331 33.57 666.521 34.04 666.521 34.64C666.521 35.22 666.331 35.68 665.951 36.02C665.571 36.36 665.051 36.53 664.391 36.53ZM680.97 56.3C679.33 56.3 678.01 55.75 677.01 54.65C676.03 53.55 675.54 52.06 675.54 50.18V45.35C675.54 43.45 676.03 41.95 677.01 40.85C677.99 39.75 679.31 39.2 680.97 39.2C682.33 39.2 683.43 39.57 684.27 40.31C685.11 41.05 685.53 42.04 685.53 43.28L684.93 42.65H685.53L685.47 38.9V34.1H688.17V56H685.47V52.85H684.93L685.47 52.22C685.47 53.48 685.06 54.48 684.24 55.22C683.42 55.94 682.33 56.3 680.97 56.3ZM681.87 53.96C682.99 53.96 683.87 53.61 684.51 52.91C685.15 52.21 685.47 51.24 685.47 50V45.5C685.47 44.26 685.15 43.29 684.51 42.59C683.87 41.89 682.99 41.54 681.87 41.54C680.73 41.54 679.84 41.84 679.2 42.44C678.56 43.02 678.24 43.99 678.24 45.35V50.15C678.24 51.49 678.56 52.46 679.2 53.06C679.84 53.66 680.73 53.96 681.87 53.96Z" fill="white"/>
<circle cx="525" cy="95" r="20" fill="#EEEEEE"/>
<path d="M572.23 106L566.62 89.5H569.53L573.13 100.6C573.35 101.26 573.54 101.9 573.7 102.52C573.86 103.12 573.98 103.59 574.06 103.93C574.16 103.59 574.28 103.12 574.42 102.52C574.56 101.9 574.73 101.26 574.93 100.6L578.53 89.5H581.38L575.77 106H572.23ZM590.548 106.3C588.848 106.3 587.498 105.83 586.498 104.89C585.498 103.93 584.998 102.68 584.998 101.14C584.998 100.12 585.228 99.23 585.688 98.47C586.148 97.71 586.788 97.12 587.608 96.7C588.428 96.26 589.368 96.04 590.428 96.04H595.528V94.75C595.528 93.67 595.238 92.87 594.658 92.35C594.078 91.81 593.198 91.54 592.018 91.54C590.978 91.54 590.138 91.73 589.498 92.11C588.858 92.49 588.518 93.02 588.478 93.7H585.778C585.878 92.4 586.478 91.33 587.578 90.49C588.698 89.63 590.178 89.2 592.018 89.2C594.018 89.2 595.548 89.68 596.608 90.64C597.688 91.6 598.228 92.94 598.228 94.66V106H595.558V103H595.108L595.528 102.4C595.528 103.2 595.328 103.89 594.928 104.47C594.528 105.05 593.958 105.5 593.218 105.82C592.478 106.14 591.588 106.3 590.548 106.3ZM591.208 104.02C592.528 104.02 593.578 103.7 594.358 103.06C595.138 102.42 595.528 101.55 595.528 100.45V98.14H590.728C589.848 98.14 589.128 98.41 588.568 98.95C588.028 99.47 587.758 100.17 587.758 101.05C587.758 101.97 588.058 102.7 588.658 103.24C589.278 103.76 590.128 104.02 591.208 104.02ZM612.377 106C611.417 106 610.577 105.81 609.857 105.43C609.137 105.05 608.577 104.51 608.177 103.81C607.777 103.11 607.577 102.29 607.577 101.35V86.56H601.877V84.1H610.277V101.35C610.277 102.03 610.467 102.57 610.847 102.97C611.227 103.35 611.737 103.54 612.377 103.54H617.477V106H612.377ZM621.515 106V103.54H627.365V91.96H622.115V89.5H630.065V103.54H635.615V106H621.515ZM628.415 86.53C627.755 86.53 627.235 86.36 626.855 86.02C626.475 85.68 626.285 85.22 626.285 84.64C626.285 84.04 626.475 83.57 626.855 83.23C627.235 82.87 627.755 82.69 628.415 82.69C629.075 82.69 629.595 82.87 629.975 83.23C630.355 83.57 630.545 84.04 630.545 84.64C630.545 85.22 630.355 85.68 629.975 86.02C629.595 86.36 629.075 86.53 628.415 86.53ZM644.993 106.3C643.353 106.3 642.033 105.75 641.033 104.65C640.053 103.55 639.563 102.06 639.563 100.18V95.35C639.563 93.45 640.053 91.95 641.033 90.85C642.013 89.75 643.333 89.2 644.993 89.2C646.353 89.2 647.453 89.57 648.293 90.31C649.133 91.05 649.553 92.04 649.553 93.28L648.953 92.65H649.553L649.493 88.9V84.1H652.193V106H649.493V102.85H648.953L649.493 102.22C649.493 103.48 649.083 104.48 648.263 105.22C647.443 105.94 646.353 106.3 644.993 106.3ZM645.893 103.96C647.013 103.96 647.893 103.61 648.533 102.91C649.173 102.21 649.493 101.24 649.493 100V95.5C649.493 94.26 649.173 93.29 648.533 92.59C647.893 91.89 647.013 91.54 645.893 91.54C644.753 91.54 643.863 91.84 643.223 92.44C642.583 93.02 642.263 93.99 642.263 95.35V100.15C642.263 101.49 642.583 102.46 643.223 103.06C643.863 103.66 644.753 103.96 645.893 103.96Z" fill="white"/>
<path d="M245 176.25H397C404.594 176.25 410.75 182.406 410.75 190V200C410.75 207.594 404.594 213.75 397 213.75H231.25V190C231.25 182.406 237.406 176.25 245 176.25Z" fill="#FFC20A"/>
<path d="M245 176.25H397C404.594 176.25 410.75 182.406 410.75 190V200C410.75 207.594 404.594 213.75 397 213.75H231.25V190C231.25 182.406 237.406 176.25 245 176.25Z" fill="black" fill-opacity="0.8"/>
<path d="M245 176.25H397C404.594 176.25 410.75 182.406 410.75 190V200C410.75 207.594 404.594 213.75 397 213.75H231.25V190C231.25 182.406 237.406 176.25 245 176.25Z" stroke="#FFC20A" stroke-width="2.5"/>
<path d="M241.913 203V201.155H246.3V192.47H242.363V190.625H248.325V201.155H252.488V203H241.913ZM247.088 188.397C246.593 188.397 246.203 188.27 245.918 188.015C245.633 187.76 245.49 187.415 245.49 186.98C245.49 186.53 245.633 186.177 245.918 185.922C246.203 185.652 246.593 185.517 247.088 185.517C247.583 185.517 247.973 185.652 248.258 185.922C248.543 186.177 248.685 186.53 248.685 186.98C248.685 187.415 248.543 187.76 248.258 188.015C247.973 188.27 247.583 188.397 247.088 188.397ZM255.561 203V190.625H257.586V192.987H258.014L257.586 193.46C257.586 192.485 257.879 191.735 258.464 191.21C259.049 190.67 259.859 190.4 260.894 190.4C262.139 190.4 263.129 190.782 263.864 191.547C264.599 192.312 264.966 193.355 264.966 194.675V203H262.941V195.035C262.941 194.09 262.701 193.37 262.221 192.875C261.756 192.365 261.119 192.11 260.309 192.11C259.469 192.11 258.801 192.372 258.306 192.897C257.826 193.422 257.586 194.165 257.586 195.125V203H255.561ZM272.405 203L268.197 190.625H270.38L273.08 198.95C273.245 199.445 273.387 199.925 273.507 200.39C273.627 200.84 273.717 201.192 273.777 201.447C273.852 201.192 273.942 200.84 274.047 200.39C274.152 199.925 274.28 199.445 274.43 198.95L277.13 190.625H279.267L275.06 203H272.405ZM286.144 203.225C284.869 203.225 283.856 202.873 283.106 202.167C282.356 201.447 281.981 200.51 281.981 199.355C281.981 198.59 282.154 197.922 282.499 197.352C282.844 196.782 283.324 196.34 283.939 196.025C284.554 195.695 285.259 195.53 286.054 195.53H289.879V194.562C289.879 193.752 289.661 193.152 289.226 192.762C288.791 192.357 288.131 192.155 287.246 192.155C286.466 192.155 285.836 192.297 285.356 192.582C284.876 192.867 284.621 193.265 284.591 193.775H282.566C282.641 192.8 283.091 191.997 283.916 191.367C284.756 190.722 285.866 190.4 287.246 190.4C288.746 190.4 289.894 190.76 290.689 191.48C291.499 192.2 291.904 193.205 291.904 194.495V203H289.901V200.75H289.564L289.879 200.3C289.879 200.9 289.729 201.417 289.429 201.852C289.129 202.287 288.701 202.625 288.146 202.865C287.591 203.105 286.924 203.225 286.144 203.225ZM286.639 201.515C287.629 201.515 288.416 201.275 289.001 200.795C289.586 200.315 289.879 199.662 289.879 198.837V197.105H286.279C285.619 197.105 285.079 197.307 284.659 197.712C284.254 198.102 284.051 198.627 284.051 199.287C284.051 199.977 284.276 200.525 284.726 200.93C285.191 201.32 285.829 201.515 286.639 201.515ZM302.515 203C301.795 203 301.165 202.857 300.625 202.572C300.085 202.287 299.665 201.882 299.365 201.357C299.065 200.832 298.915 200.217 298.915 199.512V188.42H294.64V186.575H300.94V199.512C300.94 200.022 301.082 200.427 301.367 200.727C301.652 201.012 302.035 201.155 302.515 201.155H306.34V203H302.515ZM309.369 203V201.155H313.756V192.47H309.819V190.625H315.781V201.155H319.944V203H309.369ZM314.544 188.397C314.049 188.397 313.659 188.27 313.374 188.015C313.089 187.76 312.946 187.415 312.946 186.98C312.946 186.53 313.089 186.177 313.374 185.922C313.659 185.652 314.049 185.517 314.544 185.517C315.039 185.517 315.429 185.652 315.714 185.922C315.999 186.177 316.141 186.53 316.141 186.98C316.141 187.415 315.999 187.76 315.714 188.015C315.429 188.27 315.039 188.397 314.544 188.397ZM326.977 203.225C325.747 203.225 324.757 202.812 324.007 201.987C323.272 201.162 322.905 200.045 322.905 198.635V195.012C322.905 193.587 323.272 192.462 324.007 191.638C324.742 190.812 325.732 190.4 326.977 190.4C327.997 190.4 328.822 190.677 329.452 191.232C330.082 191.787 330.397 192.53 330.397 193.46L329.947 192.987H330.397L330.352 190.175V186.575H332.377V203H330.352V200.637H329.947L330.352 200.165C330.352 201.11 330.045 201.86 329.43 202.415C328.815 202.955 327.997 203.225 326.977 203.225ZM327.652 201.47C328.492 201.47 329.152 201.207 329.632 200.682C330.112 200.157 330.352 199.43 330.352 198.5V195.125C330.352 194.195 330.112 193.467 329.632 192.942C329.152 192.417 328.492 192.155 327.652 192.155C326.797 192.155 326.13 192.38 325.65 192.83C325.17 193.265 324.93 193.992 324.93 195.012V198.612C324.93 199.617 325.17 200.345 325.65 200.795C326.13 201.245 326.797 201.47 327.652 201.47ZM340.108 203.225C338.833 203.225 337.821 202.873 337.071 202.167C336.321 201.447 335.946 200.51 335.946 199.355C335.946 198.59 336.118 197.922 336.463 197.352C336.808 196.782 337.288 196.34 337.903 196.025C338.518 195.695 339.223 195.53 340.018 195.53H343.843V194.562C343.843 193.752 343.626 193.152 343.191 192.762C342.756 192.357 342.096 192.155 341.211 192.155C340.431 192.155 339.801 192.297 339.321 192.582C338.841 192.867 338.586 193.265 338.556 193.775H336.531C336.606 192.8 337.056 191.997 337.881 191.367C338.721 190.722 339.831 190.4 341.211 190.4C342.711 190.4 343.858 190.76 344.653 191.48C345.463 192.2 345.868 193.205 345.868 194.495V203H343.866V200.75H343.528L343.843 200.3C343.843 200.9 343.693 201.417 343.393 201.852C343.093 202.287 342.666 202.625 342.111 202.865C341.556 203.105 340.888 203.225 340.108 203.225ZM340.603 201.515C341.593 201.515 342.381 201.275 342.966 200.795C343.551 200.315 343.843 199.662 343.843 198.837V197.105H340.243C339.583 197.105 339.043 197.307 338.623 197.712C338.218 198.102 338.016 198.627 338.016 199.287C338.016 199.977 338.241 200.525 338.691 200.93C339.156 201.32 339.793 201.515 340.603 201.515ZM355.917 203C354.897 203 354.08 202.707 353.465 202.122C352.85 201.522 352.542 200.727 352.542 199.737V192.47H348.987V190.625H352.542V187.137H354.567V190.625H359.63V192.47H354.567V199.737C354.567 200.157 354.687 200.502 354.927 200.772C355.182 201.027 355.512 201.155 355.917 201.155H359.517V203H355.917ZM368.171 203.225C367.196 203.225 366.341 203.03 365.606 202.64C364.886 202.235 364.323 201.665 363.918 200.93C363.513 200.18 363.311 199.295 363.311 198.275V195.35C363.311 194.315 363.513 193.43 363.918 192.695C364.323 191.96 364.886 191.397 365.606 191.007C366.341 190.602 367.196 190.4 368.171 190.4C369.146 190.4 369.993 190.595 370.713 190.985C371.448 191.375 372.018 191.922 372.423 192.627C372.828 193.332 373.031 194.165 373.031 195.125V197.33H365.291V198.5C365.291 199.415 365.553 200.142 366.078 200.682C366.603 201.207 367.301 201.47 368.171 201.47C368.921 201.47 369.536 201.327 370.016 201.042C370.511 200.742 370.811 200.345 370.916 199.85H372.941C372.806 200.885 372.303 201.71 371.433 202.325C370.563 202.925 369.476 203.225 368.171 203.225ZM371.051 195.957V195.125C371.051 194.15 370.796 193.4 370.286 192.875C369.791 192.335 369.086 192.065 368.171 192.065C367.256 192.065 366.543 192.335 366.033 192.875C365.538 193.4 365.291 194.15 365.291 195.125V195.755H371.208L371.051 195.957ZM385.825 205.7C383.68 205.22 382.015 204.215 380.83 202.685C379.66 201.155 379.075 199.235 379.075 196.925V192.875C379.075 190.565 379.66 188.645 380.83 187.115C382.015 185.585 383.68 184.58 385.825 184.1V186.057C384.865 186.282 384.025 186.71 383.305 187.34C382.6 187.97 382.052 188.757 381.662 189.702C381.287 190.632 381.1 191.69 381.1 192.875V196.925C381.1 198.095 381.287 199.152 381.662 200.097C382.052 201.042 382.6 201.83 383.305 202.46C384.025 203.09 384.865 203.518 385.825 203.742V205.7ZM390.991 205.7V203.742C391.966 203.518 392.806 203.09 393.511 202.46C394.216 201.83 394.756 201.042 395.131 200.097C395.521 199.152 395.716 198.095 395.716 196.925V192.875C395.716 191.69 395.521 190.632 395.131 189.702C394.756 188.757 394.216 187.97 393.511 187.34C392.806 186.71 391.966 186.282 390.991 186.057V184.1C393.136 184.58 394.793 185.585 395.963 187.115C397.148 188.645 397.741 190.565 397.741 192.875V196.925C397.741 199.235 397.148 201.155 395.963 202.685C394.793 204.215 393.136 205.22 390.991 205.7Z" fill="white"/>
</svg>
