<svg width="810" height="580" viewBox="0 0 810 580" fill="none" xmlns="http://www.w3.org/2000/svg">
<circle cx="205" cy="535" r="20" fill="#0C7BDC"/>
<g opacity="0.2">
<circle cx="285" cy="455" r="20" fill="#FFC20A"/>
</g>
<g opacity="0.2">
<circle cx="365" cy="375" r="20" fill="#FFC20A"/>
</g>
<g opacity="0.2">
<circle cx="285" cy="295" r="20" fill="#FFC20A"/>
</g>
<circle cx="205" cy="215" r="20" fill="#EEEEEE"/>
<circle cx="205" cy="215" r="5" fill="black"/>
<g opacity="0.2">
<circle cx="365" cy="215" r="20" fill="#EEEEEE"/>
</g>
<g opacity="0.2">
<circle cx="205" cy="375" r="20" fill="#FFC20A"/>
</g>
<circle cx="125" cy="295" r="20" fill="#FFC20A"/>
<g opacity="0.2">
<circle cx="45" cy="215" r="20" fill="#EEEEEE"/>
</g>
<g opacity="0.2">
<circle cx="205" cy="55" r="20" fill="#EEEEEE"/>
</g>
<path opacity="0.2" d="M228.5 510C228.5 510.828 229.172 511.5 230 511.5L243.5 511.5C244.328 511.5 245 510.828 245 510C245 509.172 244.328 508.5 243.5 508.5L231.5 508.5L231.5 496.5C231.5 495.672 230.828 495 230 495C229.172 495 228.5 495.672 228.5 496.5L228.5 510ZM231.061 511.061L261.061 481.061L258.939 478.939L228.939 508.939L231.061 511.061Z" fill="#EEEEEE"/>
<path opacity="0.2" d="M308.5 430C308.5 430.828 309.172 431.5 310 431.5L323.5 431.5C324.328 431.5 325 430.828 325 430C325 429.172 324.328 428.5 323.5 428.5L311.5 428.5L311.5 416.5C311.5 415.672 310.828 415 310 415C309.172 415 308.5 415.672 308.5 416.5L308.5 430ZM311.061 431.061L341.061 401.061L338.939 398.939L308.939 428.939L311.061 431.061Z" fill="#EEEEEE"/>
<path opacity="0.2" d="M261.5 430C261.5 430.828 260.828 431.5 260 431.5L246.5 431.5C245.672 431.5 245 430.828 245 430C245 429.172 245.672 428.5 246.5 428.5L258.5 428.5L258.5 416.5C258.5 415.672 259.172 415 260 415C260.828 415 261.5 415.672 261.5 416.5L261.5 430ZM258.939 431.061L228.939 401.061L231.061 398.939L261.061 428.939L258.939 431.061Z" fill="#EEEEEE"/>
<path opacity="0.2" d="M181.5 350C181.5 350.828 180.828 351.5 180 351.5L166.5 351.5C165.672 351.5 165 350.828 165 350C165 349.172 165.672 348.5 166.5 348.5L178.5 348.5L178.5 336.5C178.5 335.672 179.172 335 180 335C180.828 335 181.5 335.672 181.5 336.5L181.5 350ZM178.939 351.061L148.939 321.061L151.061 318.939L181.061 348.939L178.939 351.061Z" fill="#EEEEEE"/>
<path opacity="0.2" d="M341.5 350C341.5 350.828 340.828 351.5 340 351.5L326.5 351.5C325.672 351.5 325 350.828 325 350C325 349.172 325.672 348.5 326.5 348.5L338.5 348.5L338.5 336.5C338.5 335.672 339.172 335 340 335C340.828 335 341.5 335.672 341.5 336.5L341.5 350ZM338.939 351.061L308.939 321.061L311.061 318.939L341.061 348.939L338.939 351.061Z" fill="#EEEEEE"/>
<path opacity="0.2" d="M101.5 270C101.5 270.828 100.828 271.5 100 271.5L86.5 271.5C85.6716 271.5 85 270.828 85 270C85 269.172 85.6716 268.5 86.5 268.5L98.5 268.5L98.5 256.5C98.5 255.672 99.1716 255 100 255C100.828 255 101.5 255.672 101.5 256.5L101.5 270ZM98.9393 271.061L68.9393 241.061L71.0607 238.939L101.061 268.939L98.9393 271.061Z" fill="#EEEEEE"/>
<path opacity="0.2" d="M261.5 270C261.5 270.828 260.828 271.5 260 271.5L246.5 271.5C245.672 271.5 245 270.828 245 270C245 269.172 245.672 268.5 246.5 268.5L258.5 268.5L258.5 256.5C258.5 255.672 259.172 255 260 255C260.828 255 261.5 255.672 261.5 256.5L261.5 270ZM258.939 271.061L228.939 241.061L231.061 238.939L261.061 268.939L258.939 271.061Z" fill="#EEEEEE"/>
<path opacity="0.2" d="M341.5 190C341.5 190.828 340.828 191.5 340 191.5L326.5 191.5C325.672 191.5 325 190.828 325 190C325 189.172 325.672 188.5 326.5 188.5L338.5 188.5L338.5 176.5C338.5 175.672 339.172 175 340 175C340.828 175 341.5 175.672 341.5 176.5L341.5 190ZM338.939 191.061L228.939 81.0607L231.061 78.9393L341.061 188.939L338.939 191.061Z" fill="#EEEEEE"/>
<path d="M181.5 510C181.5 510.828 180.828 511.5 180 511.5L166.5 511.5C165.672 511.5 165 510.828 165 510C165 509.172 165.672 508.5 166.5 508.5L178.5 508.5L178.5 496.5C178.5 495.672 179.172 495 180 495C180.828 495 181.5 495.672 181.5 496.5L181.5 510ZM125 455L123.939 456.061L123.5 455.621L123.5 455L125 455ZM178.939 511.061L123.939 456.061L126.061 453.939L181.061 508.939L178.939 511.061ZM123.5 455L123.5 320L126.5 320L126.5 455L123.5 455Z" fill="#EEEEEE"/>
<path opacity="0.2" d="M68.5 190C68.5 190.828 69.1716 191.5 70 191.5L83.5 191.5C84.3284 191.5 85 190.828 85 190C85 189.172 84.3284 188.5 83.5 188.5L71.5 188.5L71.5 176.5C71.5 175.672 70.8284 175 70 175C69.1716 175 68.5 175.672 68.5 176.5L68.5 190ZM71.0607 191.061L181.061 81.0607L178.939 78.9393L68.9393 188.939L71.0607 191.061Z" fill="#EEEEEE"/>
<path opacity="0.2" d="M283.939 431.061C284.525 431.646 285.475 431.646 286.061 431.061L295.607 421.515C296.192 420.929 296.192 419.979 295.607 419.393C295.021 418.808 294.071 418.808 293.485 419.393L285 427.879L276.515 419.393C275.929 418.808 274.979 418.808 274.393 419.393C273.808 419.979 273.808 420.929 274.393 421.515L283.939 431.061ZM286.5 430L286.5 320L283.5 320L283.5 430L286.5 430Z" fill="#EEEEEE"/>
<path opacity="0.2" d="M363.939 351.061C364.525 351.646 365.475 351.646 366.061 351.061L375.607 341.515C376.192 340.929 376.192 339.979 375.607 339.393C375.021 338.808 374.071 338.808 373.485 339.393L365 347.879L356.515 339.393C355.929 338.808 354.979 338.808 354.393 339.393C353.808 339.979 353.808 340.929 354.393 341.515L363.939 351.061ZM366.5 350L366.5 240L363.5 240L363.5 350L366.5 350Z" fill="#EEEEEE"/>
<path opacity="0.2" d="M203.939 191.061C204.525 191.646 205.475 191.646 206.061 191.061L215.607 181.515C216.192 180.929 216.192 179.979 215.607 179.393C215.021 178.808 214.071 178.808 213.485 179.393L205 187.879L196.515 179.393C195.929 178.808 194.979 178.808 194.393 179.393C193.808 179.979 193.808 180.929 194.393 181.515L203.939 191.061ZM206.5 190L206.5 80L203.5 80L203.5 190L206.5 190Z" fill="#EEEEEE"/>
<circle cx="525" cy="235" r="20" fill="#EEEEEE"/>
<circle cx="525" cy="235" r="2.5" fill="black"/>
<path d="M573.34 246.24C572.12 246.24 571.07 246.06 570.19 245.7C569.33 245.32 568.67 244.78 568.21 244.08C567.77 243.36 567.55 242.49 567.55 241.47H570.25C570.25 242.23 570.52 242.83 571.06 243.27C571.6 243.69 572.36 243.9 573.34 243.9H574.66C575.66 243.9 576.43 243.68 576.97 243.24C577.53 242.8 577.81 242.18 577.81 241.38C577.81 240.66 577.65 240.1 577.33 239.7C577.01 239.3 576.52 239.06 575.86 238.98L571.3 238.32C570.18 238.16 569.31 237.7 568.69 236.94C568.07 236.16 567.76 235.14 567.76 233.88C567.76 232.44 568.25 231.31 569.23 230.49C570.23 229.67 571.6 229.26 573.34 229.26H574.66C576.26 229.26 577.56 229.66 578.56 230.46C579.58 231.24 580.13 232.27 580.21 233.55H577.48C577.44 232.97 577.16 232.49 576.64 232.11C576.14 231.73 575.48 231.54 574.66 231.54H573.34C572.42 231.54 571.7 231.75 571.18 232.17C570.66 232.59 570.4 233.16 570.4 233.88C570.4 234.44 570.53 234.89 570.79 235.23C571.07 235.57 571.47 235.78 571.99 235.86L576.25 236.46C577.65 236.66 578.7 237.17 579.4 237.99C580.1 238.81 580.45 239.94 580.45 241.38C580.45 242.92 579.94 244.12 578.92 244.98C577.92 245.82 576.5 246.24 574.66 246.24H573.34ZM584.788 246V229.5H587.128V231.69H587.728L587.158 232.2C587.158 231.32 587.408 230.6 587.908 230.04C588.428 229.48 589.108 229.2 589.948 229.2C590.908 229.2 591.668 229.56 592.228 230.28C592.788 231 593.068 231.94 593.068 233.1L592.258 231.54H593.518L592.828 232.2C592.848 231.28 593.118 230.55 593.638 230.01C594.158 229.47 594.848 229.2 595.708 229.2C596.768 229.2 597.608 229.6 598.228 230.4C598.868 231.18 599.188 232.2 599.188 233.46V246H596.668V233.43C596.668 232.77 596.508 232.25 596.188 231.87C595.868 231.47 595.428 231.27 594.868 231.27C594.328 231.27 593.898 231.46 593.578 231.84C593.258 232.22 593.098 232.74 593.098 233.4V246H590.878V233.43C590.878 232.77 590.718 232.25 590.398 231.87C590.078 231.47 589.648 231.27 589.108 231.27C588.548 231.27 588.108 231.46 587.788 231.84C587.468 232.22 587.308 232.74 587.308 233.4V246H584.788ZM608.537 246.3C606.837 246.3 605.487 245.83 604.487 244.89C603.487 243.93 602.987 242.68 602.987 241.14C602.987 240.12 603.217 239.23 603.677 238.47C604.137 237.71 604.777 237.12 605.597 236.7C606.417 236.26 607.357 236.04 608.417 236.04H613.517V234.75C613.517 233.67 613.227 232.87 612.647 232.35C612.067 231.81 611.187 231.54 610.007 231.54C608.967 231.54 608.127 231.73 607.487 232.11C606.847 232.49 606.507 233.02 606.467 233.7H603.767C603.867 232.4 604.467 231.33 605.567 230.49C606.687 229.63 608.167 229.2 610.007 229.2C612.007 229.2 613.537 229.68 614.597 230.64C615.677 231.6 616.217 232.94 616.217 234.66V246H613.547V243H613.097L613.517 242.4C613.517 243.2 613.317 243.89 612.917 244.47C612.517 245.05 611.947 245.5 611.207 245.82C610.467 246.14 609.577 246.3 608.537 246.3ZM609.197 244.02C610.517 244.02 611.567 243.7 612.347 243.06C613.127 242.42 613.517 241.55 613.517 240.45V238.14H608.717C607.837 238.14 607.117 238.41 606.557 238.95C606.017 239.47 605.747 240.17 605.747 241.05C605.747 241.97 606.047 242.7 606.647 243.24C607.267 243.76 608.117 244.02 609.197 244.02ZM630.365 246C629.405 246 628.565 245.81 627.845 245.43C627.125 245.05 626.565 244.51 626.165 243.81C625.765 243.11 625.565 242.29 625.565 241.35V226.56H619.865V224.1H628.265V241.35C628.265 242.03 628.455 242.57 628.835 242.97C629.215 243.35 629.725 243.54 630.365 243.54H635.465V246H630.365ZM648.353 246C647.393 246 646.553 245.81 645.833 245.43C645.113 245.05 644.553 244.51 644.153 243.81C643.753 243.11 643.553 242.29 643.553 241.35V226.56H637.853V224.1H646.253V241.35C646.253 242.03 646.443 242.57 646.823 242.97C647.203 243.35 647.713 243.54 648.353 243.54H653.453V246H648.353ZM663.941 246.3C662.641 246.3 661.501 246.04 660.521 245.52C659.561 244.98 658.811 244.22 658.271 243.24C657.731 242.24 657.461 241.06 657.461 239.7V235.8C657.461 234.42 657.731 233.24 658.271 232.26C658.811 231.28 659.561 230.53 660.521 230.01C661.501 229.47 662.641 229.2 663.941 229.2C665.241 229.2 666.371 229.46 667.331 229.98C668.311 230.5 669.071 231.23 669.611 232.17C670.151 233.11 670.421 234.22 670.421 235.5V238.44H660.101V240C660.101 241.22 660.451 242.19 661.151 242.91C661.851 243.61 662.781 243.96 663.941 243.96C664.941 243.96 665.761 243.77 666.401 243.39C667.061 242.99 667.461 242.46 667.601 241.8H670.301C670.121 243.18 669.451 244.28 668.291 245.1C667.131 245.9 665.681 246.3 663.941 246.3ZM667.781 236.61V235.5C667.781 234.2 667.441 233.2 666.761 232.5C666.101 231.78 665.161 231.42 663.941 231.42C662.721 231.42 661.771 231.78 661.091 232.5C660.431 233.2 660.101 234.2 660.101 235.5V236.34H667.991L667.781 236.61ZM676.29 246V229.5H678.99V232.65H679.56L678.99 233.37C678.99 232.09 679.38 231.08 680.16 230.34C680.96 229.58 682.06 229.2 683.46 229.2C685.18 229.2 686.5 229.72 687.42 230.76C688.36 231.78 688.83 233.24 688.83 235.14V236.55H686.13V235.14C686.13 233.92 685.83 233.02 685.23 232.44C684.63 231.84 683.76 231.54 682.62 231.54C681.44 231.54 680.54 231.88 679.92 232.56C679.3 233.24 678.99 234.22 678.99 235.5V246H676.29ZM719.556 246C718.196 246 717.106 245.61 716.286 244.83C715.466 244.03 715.056 242.97 715.056 241.65V231.96H710.316V229.5H715.056V224.85H717.756V229.5H724.506V231.96H717.756V241.65C717.756 242.21 717.916 242.67 718.236 243.03C718.576 243.37 719.016 243.54 719.556 243.54H724.356V246H719.556ZM729.445 246V243.54H735.295V231.96H730.045V229.5H737.995V243.54H743.545V246H729.445ZM736.345 226.53C735.685 226.53 735.165 226.36 734.785 226.02C734.405 225.68 734.215 225.22 734.215 224.64C734.215 224.04 734.405 223.57 734.785 223.23C735.165 222.87 735.685 222.69 736.345 222.69C737.005 222.69 737.525 222.87 737.905 223.23C738.285 223.57 738.475 224.04 738.475 224.64C738.475 225.22 738.285 225.68 737.905 226.02C737.525 226.36 737.005 226.53 736.345 226.53ZM746.683 246V229.5H749.023V231.69H749.623L749.053 232.2C749.053 231.32 749.303 230.6 749.803 230.04C750.323 229.48 751.003 229.2 751.843 229.2C752.803 229.2 753.563 229.56 754.123 230.28C754.683 231 754.963 231.94 754.963 233.1L754.153 231.54H755.413L754.723 232.2C754.743 231.28 755.013 230.55 755.533 230.01C756.053 229.47 756.743 229.2 757.603 229.2C758.663 229.2 759.503 229.6 760.123 230.4C760.763 231.18 761.083 232.2 761.083 233.46V246H758.563V233.43C758.563 232.77 758.403 232.25 758.083 231.87C757.763 231.47 757.323 231.27 756.763 231.27C756.223 231.27 755.793 231.46 755.473 231.84C755.153 232.22 754.993 232.74 754.993 233.4V246H752.773V233.43C752.773 232.77 752.613 232.25 752.293 231.87C751.973 231.47 751.543 231.27 751.003 231.27C750.443 231.27 750.003 231.46 749.683 231.84C749.363 232.22 749.203 232.74 749.203 233.4V246H746.683ZM771.871 246.3C770.571 246.3 769.431 246.04 768.451 245.52C767.491 244.98 766.741 244.22 766.201 243.24C765.661 242.24 765.391 241.06 765.391 239.7V235.8C765.391 234.42 765.661 233.24 766.201 232.26C766.741 231.28 767.491 230.53 768.451 230.01C769.431 229.47 770.571 229.2 771.871 229.2C773.171 229.2 774.301 229.46 775.261 229.98C776.241 230.5 777.001 231.23 777.541 232.17C778.081 233.11 778.351 234.22 778.351 235.5V238.44H768.031V240C768.031 241.22 768.381 242.19 769.081 242.91C769.781 243.61 770.711 243.96 771.871 243.96C772.871 243.96 773.691 243.77 774.331 243.39C774.991 242.99 775.391 242.46 775.531 241.8H778.231C778.051 243.18 777.381 244.28 776.221 245.1C775.061 245.9 773.611 246.3 771.871 246.3ZM775.711 236.61V235.5C775.711 234.2 775.371 233.2 774.691 232.5C774.031 231.78 773.091 231.42 771.871 231.42C770.651 231.42 769.701 231.78 769.021 232.5C768.361 233.2 768.031 234.2 768.031 235.5V236.34H775.921L775.711 236.61Z" fill="white"/>
<path d="M576.4 346C575.44 346 574.6 345.81 573.88 345.43C573.16 345.05 572.6 344.51 572.2 343.81C571.8 343.11 571.6 342.29 571.6 341.35V326.56H565.9V324.1H574.3V341.35C574.3 342.03 574.49 342.57 574.87 342.97C575.25 343.35 575.76 343.54 576.4 343.54H581.5V346H576.4ZM590.548 346.3C588.848 346.3 587.498 345.83 586.498 344.89C585.498 343.93 584.998 342.68 584.998 341.14C584.998 340.12 585.228 339.23 585.688 338.47C586.148 337.71 586.788 337.12 587.608 336.7C588.428 336.26 589.368 336.04 590.428 336.04H595.528V334.75C595.528 333.67 595.238 332.87 594.658 332.35C594.078 331.81 593.198 331.54 592.018 331.54C590.978 331.54 590.138 331.73 589.498 332.11C588.858 332.49 588.518 333.02 588.478 333.7H585.778C585.878 332.4 586.478 331.33 587.578 330.49C588.698 329.63 590.178 329.2 592.018 329.2C594.018 329.2 595.548 329.68 596.608 330.64C597.688 331.6 598.228 332.94 598.228 334.66V346H595.558V343H595.108L595.528 342.4C595.528 343.2 595.328 343.89 594.928 344.47C594.528 345.05 593.958 345.5 593.218 345.82C592.478 346.14 591.588 346.3 590.548 346.3ZM591.208 344.02C592.528 344.02 593.578 343.7 594.358 343.06C595.138 342.42 595.528 341.55 595.528 340.45V338.14H590.728C589.848 338.14 589.128 338.41 588.568 338.95C588.028 339.47 587.758 340.17 587.758 341.05C587.758 341.97 588.058 342.7 588.658 343.24C589.278 343.76 590.128 344.02 591.208 344.02ZM604.337 346V329.5H607.037V332.65H607.607L607.037 333.37C607.037 332.09 607.427 331.08 608.207 330.34C609.007 329.58 610.107 329.2 611.507 329.2C613.227 329.2 614.547 329.72 615.467 330.76C616.407 331.78 616.877 333.24 616.877 335.14V336.55H614.177V335.14C614.177 333.92 613.877 333.02 613.277 332.44C612.677 331.84 611.807 331.54 610.667 331.54C609.487 331.54 608.587 331.88 607.967 332.56C607.347 333.24 607.037 334.22 607.037 335.5V346H604.337ZM623.795 351.4V348.94H628.445C629.385 348.94 630.125 348.67 630.665 348.13C631.205 347.61 631.475 346.9 631.475 346V344.5L631.535 341.8H630.995L631.505 341.05C631.505 342.25 631.105 343.19 630.305 343.87C629.505 344.53 628.435 344.86 627.095 344.86C625.395 344.86 624.055 344.32 623.075 343.24C622.095 342.16 621.605 340.68 621.605 338.8V335.32C621.605 333.44 622.095 331.95 623.075 330.85C624.055 329.75 625.395 329.2 627.095 329.2C628.435 329.2 629.505 329.55 630.305 330.25C631.105 330.95 631.505 331.9 631.505 333.1L630.995 332.35H631.505V329.5H634.175V346C634.175 347.66 633.655 348.97 632.615 349.93C631.595 350.91 630.195 351.4 628.415 351.4H623.795ZM627.905 342.61C629.025 342.61 629.905 342.26 630.545 341.56C631.185 340.86 631.505 339.89 631.505 338.65V335.5C631.505 334.26 631.185 333.29 630.545 332.59C629.905 331.89 629.025 331.54 627.905 331.54C626.765 331.54 625.875 331.87 625.235 332.53C624.615 333.19 624.305 334.08 624.305 335.2V338.95C624.305 340.07 624.615 340.96 625.235 341.62C625.875 342.28 626.765 342.61 627.905 342.61ZM645.953 346.3C644.653 346.3 643.513 346.04 642.533 345.52C641.573 344.98 640.823 344.22 640.283 343.24C639.743 342.24 639.473 341.06 639.473 339.7V335.8C639.473 334.42 639.743 333.24 640.283 332.26C640.823 331.28 641.573 330.53 642.533 330.01C643.513 329.47 644.653 329.2 645.953 329.2C647.253 329.2 648.383 329.46 649.343 329.98C650.323 330.5 651.083 331.23 651.623 332.17C652.163 333.11 652.433 334.22 652.433 335.5V338.44H642.113V340C642.113 341.22 642.463 342.19 643.163 342.91C643.863 343.61 644.793 343.96 645.953 343.96C646.953 343.96 647.773 343.77 648.413 343.39C649.073 342.99 649.473 342.46 649.613 341.8H652.313C652.133 343.18 651.463 344.28 650.303 345.1C649.143 345.9 647.693 346.3 645.953 346.3ZM649.793 336.61V335.5C649.793 334.2 649.453 333.2 648.773 332.5C648.113 331.78 647.173 331.42 645.953 331.42C644.733 331.42 643.783 331.78 643.103 332.5C642.443 333.2 642.113 334.2 642.113 335.5V336.34H650.003L649.793 336.61ZM658.301 346V329.5H661.001V332.65H661.571L661.001 333.37C661.001 332.09 661.391 331.08 662.171 330.34C662.971 329.58 664.071 329.2 665.471 329.2C667.191 329.2 668.511 329.72 669.431 330.76C670.371 331.78 670.841 333.24 670.841 335.14V336.55H668.141V335.14C668.141 333.92 667.841 333.02 667.241 332.44C666.641 331.84 665.771 331.54 664.631 331.54C663.451 331.54 662.551 331.88 661.931 332.56C661.311 333.24 661.001 334.22 661.001 335.5V346H658.301ZM701.568 346C700.208 346 699.118 345.61 698.298 344.83C697.478 344.03 697.068 342.97 697.068 341.65V331.96H692.328V329.5H697.068V324.85H699.768V329.5H706.518V331.96H699.768V341.65C699.768 342.21 699.928 342.67 700.248 343.03C700.588 343.37 701.028 343.54 701.568 343.54H706.368V346H701.568ZM711.456 346V343.54H717.306V331.96H712.056V329.5H720.006V343.54H725.556V346H711.456ZM718.356 326.53C717.696 326.53 717.176 326.36 716.796 326.02C716.416 325.68 716.226 325.22 716.226 324.64C716.226 324.04 716.416 323.57 716.796 323.23C717.176 322.87 717.696 322.69 718.356 322.69C719.016 322.69 719.536 322.87 719.916 323.23C720.296 323.57 720.486 324.04 720.486 324.64C720.486 325.22 720.296 325.68 719.916 326.02C719.536 326.36 719.016 326.53 718.356 326.53ZM728.695 346V329.5H731.035V331.69H731.635L731.065 332.2C731.065 331.32 731.315 330.6 731.815 330.04C732.335 329.48 733.015 329.2 733.855 329.2C734.815 329.2 735.575 329.56 736.135 330.28C736.695 331 736.975 331.94 736.975 333.1L736.165 331.54H737.425L736.735 332.2C736.755 331.28 737.025 330.55 737.545 330.01C738.065 329.47 738.755 329.2 739.615 329.2C740.675 329.2 741.515 329.6 742.135 330.4C742.775 331.18 743.095 332.2 743.095 333.46V346H740.575V333.43C740.575 332.77 740.415 332.25 740.095 331.87C739.775 331.47 739.335 331.27 738.775 331.27C738.235 331.27 737.805 331.46 737.485 331.84C737.165 332.22 737.005 332.74 737.005 333.4V346H734.785V333.43C734.785 332.77 734.625 332.25 734.305 331.87C733.985 331.47 733.555 331.27 733.015 331.27C732.455 331.27 732.015 331.46 731.695 331.84C731.375 332.22 731.215 332.74 731.215 333.4V346H728.695ZM753.883 346.3C752.583 346.3 751.443 346.04 750.463 345.52C749.503 344.98 748.753 344.22 748.213 343.24C747.673 342.24 747.403 341.06 747.403 339.7V335.8C747.403 334.42 747.673 333.24 748.213 332.26C748.753 331.28 749.503 330.53 750.463 330.01C751.443 329.47 752.583 329.2 753.883 329.2C755.183 329.2 756.313 329.46 757.273 329.98C758.253 330.5 759.013 331.23 759.553 332.17C760.093 333.11 760.363 334.22 760.363 335.5V338.44H750.043V340C750.043 341.22 750.393 342.19 751.093 342.91C751.793 343.61 752.723 343.96 753.883 343.96C754.883 343.96 755.703 343.77 756.343 343.39C757.003 342.99 757.403 342.46 757.543 341.8H760.243C760.063 343.18 759.393 344.28 758.233 345.1C757.073 345.9 755.623 346.3 753.883 346.3ZM757.723 336.61V335.5C757.723 334.2 757.383 333.2 756.703 332.5C756.043 331.78 755.103 331.42 753.883 331.42C752.663 331.42 751.713 331.78 751.033 332.5C750.373 333.2 750.043 334.2 750.043 335.5V336.34H757.933L757.723 336.61Z" fill="white"/>
<path d="M525 255V315" stroke="#EEEEEE" stroke-width="3" stroke-dasharray="10 5"/>
<circle cx="525" cy="335" r="20" fill="#EEEEEE"/>
<circle cx="525" cy="335" r="15" fill="black"/>
<circle cx="525" cy="45" r="20" fill="#FFC20A"/>
<path d="M567.55 56V53.54H573.4V41.96H568.15V39.5H576.1V53.54H581.65V56H567.55ZM574.45 36.53C573.79 36.53 573.27 36.36 572.89 36.02C572.51 35.68 572.32 35.22 572.32 34.64C572.32 34.04 572.51 33.57 572.89 33.23C573.27 32.87 573.79 32.69 574.45 32.69C575.11 32.69 575.63 32.87 576.01 33.23C576.39 33.57 576.58 34.04 576.58 34.64C576.58 35.22 576.39 35.68 576.01 36.02C575.63 36.36 575.11 36.53 574.45 36.53ZM585.748 56V39.5H588.448V42.65H589.018L588.448 43.28C588.448 41.98 588.838 40.98 589.618 40.28C590.398 39.56 591.478 39.2 592.858 39.2C594.518 39.2 595.838 39.71 596.818 40.73C597.798 41.75 598.288 43.14 598.288 44.9V56H595.588V45.38C595.588 44.12 595.268 43.16 594.628 42.5C594.008 41.82 593.158 41.48 592.078 41.48C590.958 41.48 590.068 41.83 589.408 42.53C588.768 43.23 588.448 44.22 588.448 45.5V56H585.748ZM608.207 56L602.597 39.5H605.507L609.107 50.6C609.327 51.26 609.517 51.9 609.677 52.52C609.837 53.12 609.957 53.59 610.037 53.93C610.137 53.59 610.257 53.12 610.397 52.52C610.537 51.9 610.707 51.26 610.907 50.6L614.507 39.5H617.357L611.747 56H608.207ZM626.525 56.3C624.825 56.3 623.475 55.83 622.475 54.89C621.475 53.93 620.975 52.68 620.975 51.14C620.975 50.12 621.205 49.23 621.665 48.47C622.125 47.71 622.765 47.12 623.585 46.7C624.405 46.26 625.345 46.04 626.405 46.04H631.505V44.75C631.505 43.67 631.215 42.87 630.635 42.35C630.055 41.81 629.175 41.54 627.995 41.54C626.955 41.54 626.115 41.73 625.475 42.11C624.835 42.49 624.495 43.02 624.455 43.7H621.755C621.855 42.4 622.455 41.33 623.555 40.49C624.675 39.63 626.155 39.2 627.995 39.2C629.995 39.2 631.525 39.68 632.585 40.64C633.665 41.6 634.205 42.94 634.205 44.66V56H631.535V53H631.085L631.505 52.4C631.505 53.2 631.305 53.89 630.905 54.47C630.505 55.05 629.935 55.5 629.195 55.82C628.455 56.14 627.565 56.3 626.525 56.3ZM627.185 54.02C628.505 54.02 629.555 53.7 630.335 53.06C631.115 52.42 631.505 51.55 631.505 50.45V48.14H626.705C625.825 48.14 625.105 48.41 624.545 48.95C624.005 49.47 623.735 50.17 623.735 51.05C623.735 51.97 624.035 52.7 624.635 53.24C625.255 53.76 626.105 54.02 627.185 54.02ZM648.353 56C647.393 56 646.553 55.81 645.833 55.43C645.113 55.05 644.553 54.51 644.153 53.81C643.753 53.11 643.553 52.29 643.553 51.35V36.56H637.853V34.1H646.253V51.35C646.253 52.03 646.443 52.57 646.823 52.97C647.203 53.35 647.713 53.54 648.353 53.54H653.453V56H648.353ZM657.491 56V53.54H663.341V41.96H658.091V39.5H666.041V53.54H671.591V56H657.491ZM664.391 36.53C663.731 36.53 663.211 36.36 662.831 36.02C662.451 35.68 662.261 35.22 662.261 34.64C662.261 34.04 662.451 33.57 662.831 33.23C663.211 32.87 663.731 32.69 664.391 32.69C665.051 32.69 665.571 32.87 665.951 33.23C666.331 33.57 666.521 34.04 666.521 34.64C666.521 35.22 666.331 35.68 665.951 36.02C665.571 36.36 665.051 36.53 664.391 36.53ZM680.97 56.3C679.33 56.3 678.01 55.75 677.01 54.65C676.03 53.55 675.54 52.06 675.54 50.18V45.35C675.54 43.45 676.03 41.95 677.01 40.85C677.99 39.75 679.31 39.2 680.97 39.2C682.33 39.2 683.43 39.57 684.27 40.31C685.11 41.05 685.53 42.04 685.53 43.28L684.93 42.65H685.53L685.47 38.9V34.1H688.17V56H685.47V52.85H684.93L685.47 52.22C685.47 53.48 685.06 54.48 684.24 55.22C683.42 55.94 682.33 56.3 680.97 56.3ZM681.87 53.96C682.99 53.96 683.87 53.61 684.51 52.91C685.15 52.21 685.47 51.24 685.47 50V45.5C685.47 44.26 685.15 43.29 684.51 42.59C683.87 41.89 682.99 41.54 681.87 41.54C680.73 41.54 679.84 41.84 679.2 42.44C678.56 43.02 678.24 43.99 678.24 45.35V50.15C678.24 51.49 678.56 52.46 679.2 53.06C679.84 53.66 680.73 53.96 681.87 53.96Z" fill="white"/>
<circle cx="525" cy="95" r="20" fill="#0C7BDC"/>
<path d="M574.96 106.3C573.6 106.3 572.51 105.94 571.69 105.22C570.87 104.48 570.46 103.48 570.46 102.22L571 102.85H570.46V106H567.76V84.1H570.46V88.9L570.4 92.65H571L570.4 93.28C570.4 92.04 570.82 91.05 571.66 90.31C572.52 89.57 573.62 89.2 574.96 89.2C576.62 89.2 577.94 89.75 578.92 90.85C579.9 91.95 580.39 93.45 580.39 95.35V100.18C580.39 102.06 579.9 103.55 578.92 104.65C577.94 105.75 576.62 106.3 574.96 106.3ZM574.06 103.96C575.2 103.96 576.09 103.66 576.73 103.06C577.37 102.46 577.69 101.49 577.69 100.15V95.35C577.69 93.99 577.37 93.02 576.73 92.44C576.09 91.84 575.2 91.54 574.06 91.54C572.96 91.54 572.08 91.89 571.42 92.59C570.78 93.29 570.46 94.26 570.46 95.5V100C570.46 101.24 570.78 102.21 571.42 102.91C572.08 103.61 572.96 103.96 574.06 103.96ZM591.958 106.3C590.058 106.3 588.538 105.74 587.398 104.62C586.258 103.48 585.688 101.94 585.688 100V89.5H588.388V100C588.388 101.2 588.708 102.16 589.348 102.88C589.988 103.58 590.858 103.93 591.958 103.93C593.078 103.93 593.958 103.58 594.598 102.88C595.258 102.16 595.588 101.2 595.588 100V89.5H598.288V100C598.288 101.94 597.708 103.48 596.548 104.62C595.388 105.74 593.858 106.3 591.958 106.3ZM609.317 106.24C608.097 106.24 607.047 106.06 606.167 105.7C605.307 105.32 604.647 104.78 604.187 104.08C603.747 103.36 603.527 102.49 603.527 101.47H606.227C606.227 102.23 606.497 102.83 607.037 103.27C607.577 103.69 608.337 103.9 609.317 103.9H610.637C611.637 103.9 612.407 103.68 612.947 103.24C613.507 102.8 613.787 102.18 613.787 101.38C613.787 100.66 613.627 100.1 613.307 99.7C612.987 99.3 612.497 99.06 611.837 98.98L607.277 98.32C606.157 98.16 605.287 97.7 604.667 96.94C604.047 96.16 603.737 95.14 603.737 93.88C603.737 92.44 604.227 91.31 605.207 90.49C606.207 89.67 607.577 89.26 609.317 89.26H610.637C612.237 89.26 613.537 89.66 614.537 90.46C615.557 91.24 616.107 92.27 616.187 93.55H613.457C613.417 92.97 613.137 92.49 612.617 92.11C612.117 91.73 611.457 91.54 610.637 91.54H609.317C608.397 91.54 607.677 91.75 607.157 92.17C606.637 92.59 606.377 93.16 606.377 93.88C606.377 94.44 606.507 94.89 606.767 95.23C607.047 95.57 607.447 95.78 607.967 95.86L612.227 96.46C613.627 96.66 614.677 97.17 615.377 97.99C616.077 98.81 616.427 99.94 616.427 101.38C616.427 102.92 615.917 104.12 614.897 104.98C613.897 105.82 612.477 106.24 610.637 106.24H609.317ZM624.305 111.4L626.735 104.98L620.585 89.5H623.495L627.395 99.7C627.555 100.1 627.705 100.52 627.845 100.96C627.985 101.4 628.085 101.78 628.145 102.1C628.205 101.78 628.305 101.4 628.445 100.96C628.585 100.52 628.725 100.1 628.865 99.7L632.495 89.5H635.345L627.125 111.4H624.305Z" fill="white"/>
<circle cx="525" cy="145" r="20" fill="#EEEEEE"/>
<path d="M572.23 156L566.62 139.5H569.53L573.13 150.6C573.35 151.26 573.54 151.9 573.7 152.52C573.86 153.12 573.98 153.59 574.06 153.93C574.16 153.59 574.28 153.12 574.42 152.52C574.56 151.9 574.73 151.26 574.93 150.6L578.53 139.5H581.38L575.77 156H572.23ZM590.548 156.3C588.848 156.3 587.498 155.83 586.498 154.89C585.498 153.93 584.998 152.68 584.998 151.14C584.998 150.12 585.228 149.23 585.688 148.47C586.148 147.71 586.788 147.12 587.608 146.7C588.428 146.26 589.368 146.04 590.428 146.04H595.528V144.75C595.528 143.67 595.238 142.87 594.658 142.35C594.078 141.81 593.198 141.54 592.018 141.54C590.978 141.54 590.138 141.73 589.498 142.11C588.858 142.49 588.518 143.02 588.478 143.7H585.778C585.878 142.4 586.478 141.33 587.578 140.49C588.698 139.63 590.178 139.2 592.018 139.2C594.018 139.2 595.548 139.68 596.608 140.64C597.688 141.6 598.228 142.94 598.228 144.66V156H595.558V153H595.108L595.528 152.4C595.528 153.2 595.328 153.89 594.928 154.47C594.528 155.05 593.958 155.5 593.218 155.82C592.478 156.14 591.588 156.3 590.548 156.3ZM591.208 154.02C592.528 154.02 593.578 153.7 594.358 153.06C595.138 152.42 595.528 151.55 595.528 150.45V148.14H590.728C589.848 148.14 589.128 148.41 588.568 148.95C588.028 149.47 587.758 150.17 587.758 151.05C587.758 151.97 588.058 152.7 588.658 153.24C589.278 153.76 590.128 154.02 591.208 154.02ZM612.377 156C611.417 156 610.577 155.81 609.857 155.43C609.137 155.05 608.577 154.51 608.177 153.81C607.777 153.11 607.577 152.29 607.577 151.35V136.56H601.877V134.1H610.277V151.35C610.277 152.03 610.467 152.57 610.847 152.97C611.227 153.35 611.737 153.54 612.377 153.54H617.477V156H612.377ZM621.515 156V153.54H627.365V141.96H622.115V139.5H630.065V153.54H635.615V156H621.515ZM628.415 136.53C627.755 136.53 627.235 136.36 626.855 136.02C626.475 135.68 626.285 135.22 626.285 134.64C626.285 134.04 626.475 133.57 626.855 133.23C627.235 132.87 627.755 132.69 628.415 132.69C629.075 132.69 629.595 132.87 629.975 133.23C630.355 133.57 630.545 134.04 630.545 134.64C630.545 135.22 630.355 135.68 629.975 136.02C629.595 136.36 629.075 136.53 628.415 136.53ZM644.993 156.3C643.353 156.3 642.033 155.75 641.033 154.65C640.053 153.55 639.563 152.06 639.563 150.18V145.35C639.563 143.45 640.053 141.95 641.033 140.85C642.013 139.75 643.333 139.2 644.993 139.2C646.353 139.2 647.453 139.57 648.293 140.31C649.133 141.05 649.553 142.04 649.553 143.28L648.953 142.65H649.553L649.493 138.9V134.1H652.193V156H649.493V152.85H648.953L649.493 152.22C649.493 153.48 649.083 154.48 648.263 155.22C647.443 155.94 646.353 156.3 644.993 156.3ZM645.893 153.96C647.013 153.96 647.893 153.61 648.533 152.91C649.173 152.21 649.493 151.24 649.493 150V145.5C649.493 144.26 649.173 143.29 648.533 142.59C647.893 141.89 647.013 141.54 645.893 141.54C644.753 141.54 643.863 141.84 643.223 142.44C642.583 143.02 642.263 143.99 642.263 145.35V150.15C642.263 151.49 642.583 152.46 643.223 153.06C643.863 153.66 644.753 153.96 645.893 153.96Z" fill="white"/>
<path d="M148.5 270C148.5 270.828 149.172 271.5 150 271.5L163.5 271.5C164.328 271.5 165 270.828 165 270C165 269.172 164.328 268.5 163.5 268.5L151.5 268.5L151.5 256.5C151.5 255.672 150.828 255 150 255C149.172 255 148.5 255.672 148.5 256.5L148.5 270ZM151.061 271.061L181.061 241.061L178.939 238.939L148.939 268.939L151.061 271.061Z" fill="#EEEEEE"/>
<path d="M231.25 536.25H316C323.594 536.25 329.75 542.406 329.75 550V560C329.75 567.594 323.594 573.75 316 573.75H245C237.406 573.75 231.25 567.594 231.25 560V536.25Z" fill="#0C7BDC"/>
<path d="M231.25 536.25H316C323.594 536.25 329.75 542.406 329.75 550V560C329.75 567.594 323.594 573.75 316 573.75H245C237.406 573.75 231.25 567.594 231.25 560V536.25Z" fill="black" fill-opacity="0.8"/>
<path d="M231.25 536.25H316C323.594 536.25 329.75 542.406 329.75 550V560C329.75 567.594 323.594 573.75 316 573.75H245C237.406 573.75 231.25 567.594 231.25 560V536.25Z" stroke="#0C7BDC" stroke-width="2.5"/>
<path d="M242.07 567.05V550.625H244.095V552.987H244.5L244.095 553.46C244.095 552.515 244.403 551.772 245.018 551.232C245.633 550.677 246.45 550.4 247.47 550.4C248.295 550.4 249.008 550.587 249.608 550.962C250.223 551.322 250.695 551.847 251.025 552.537C251.37 553.227 251.543 554.045 251.543 554.99V558.612C251.543 559.557 251.378 560.375 251.048 561.065C250.718 561.755 250.245 562.287 249.63 562.662C249.03 563.038 248.31 563.225 247.47 563.225C246.465 563.225 245.648 562.948 245.018 562.392C244.403 561.837 244.095 561.095 244.095 560.165L244.5 560.637H244.05L244.095 563.45V567.05H242.07ZM246.795 561.47C247.65 561.47 248.318 561.245 248.798 560.795C249.278 560.345 249.518 559.617 249.518 558.612V555.012C249.518 553.992 249.278 553.265 248.798 552.83C248.318 552.38 247.65 552.155 246.795 552.155C245.97 552.155 245.31 552.417 244.815 552.942C244.335 553.467 244.095 554.195 244.095 555.125V558.5C244.095 559.43 244.335 560.157 244.815 560.682C245.31 561.207 245.97 561.47 246.795 561.47ZM260.241 563.225C259.266 563.225 258.411 563.03 257.676 562.64C256.956 562.235 256.394 561.665 255.989 560.93C255.584 560.18 255.381 559.295 255.381 558.275V555.35C255.381 554.315 255.584 553.43 255.989 552.695C256.394 551.96 256.956 551.397 257.676 551.007C258.411 550.602 259.266 550.4 260.241 550.4C261.216 550.4 262.064 550.595 262.784 550.985C263.519 551.375 264.089 551.922 264.494 552.627C264.899 553.332 265.101 554.165 265.101 555.125V557.33H257.361V558.5C257.361 559.415 257.624 560.142 258.149 560.682C258.674 561.207 259.371 561.47 260.241 561.47C260.991 561.47 261.606 561.327 262.086 561.042C262.581 560.742 262.881 560.345 262.986 559.85H265.011C264.876 560.885 264.374 561.71 263.504 562.325C262.634 562.925 261.546 563.225 260.241 563.225ZM263.121 555.957V555.125C263.121 554.15 262.866 553.4 262.356 552.875C261.861 552.335 261.156 552.065 260.241 552.065C259.326 552.065 258.614 552.335 258.104 552.875C257.609 553.4 257.361 554.15 257.361 555.125V555.755H263.279L263.121 555.957ZM273.732 563.225C272.757 563.225 271.902 563.03 271.167 562.64C270.447 562.235 269.885 561.665 269.48 560.93C269.075 560.18 268.872 559.295 268.872 558.275V555.35C268.872 554.315 269.075 553.43 269.48 552.695C269.885 551.96 270.447 551.397 271.167 551.007C271.902 550.602 272.757 550.4 273.732 550.4C274.707 550.4 275.555 550.595 276.275 550.985C277.01 551.375 277.58 551.922 277.985 552.627C278.39 553.332 278.592 554.165 278.592 555.125V557.33H270.852V558.5C270.852 559.415 271.115 560.142 271.64 560.682C272.165 561.207 272.862 561.47 273.732 561.47C274.482 561.47 275.097 561.327 275.577 561.042C276.072 560.742 276.372 560.345 276.477 559.85H278.502C278.367 560.885 277.865 561.71 276.995 562.325C276.125 562.925 275.037 563.225 273.732 563.225ZM276.612 555.957V555.125C276.612 554.15 276.357 553.4 275.847 552.875C275.352 552.335 274.647 552.065 273.732 552.065C272.817 552.065 272.105 552.335 271.595 552.875C271.1 553.4 270.852 554.15 270.852 555.125V555.755H276.77L276.612 555.957ZM282.656 563V546.575H284.681V555.732H287.044L290.509 550.625H292.826L288.844 556.52L293.051 563H290.689L287.089 557.487H284.681V563H282.656ZM304.877 565.7C302.732 565.22 301.067 564.215 299.882 562.685C298.712 561.155 298.127 559.235 298.127 556.925V552.875C298.127 550.565 298.712 548.645 299.882 547.115C301.067 545.585 302.732 544.58 304.877 544.1V546.057C303.917 546.282 303.077 546.71 302.357 547.34C301.652 547.97 301.105 548.757 300.715 549.702C300.34 550.632 300.152 551.69 300.152 552.875V556.925C300.152 558.095 300.34 559.152 300.715 560.097C301.105 561.042 301.652 561.83 302.357 562.46C303.077 563.09 303.917 563.518 304.877 563.742V565.7ZM310.044 565.7V563.742C311.019 563.518 311.859 563.09 312.564 562.46C313.269 561.83 313.809 561.042 314.184 560.097C314.574 559.152 314.769 558.095 314.769 556.925V552.875C314.769 551.69 314.574 550.632 314.184 549.702C313.809 548.757 313.269 547.97 312.564 547.34C311.859 546.71 311.019 546.282 310.044 546.057V544.1C312.189 544.58 313.846 545.585 315.016 547.115C316.201 548.645 316.794 550.565 316.794 552.875V556.925C316.794 559.235 316.201 561.155 315.016 562.685C313.846 564.215 312.189 565.22 310.044 565.7Z" fill="white"/>
<path opacity="0.2" d="M45 240L45 375L125 455" stroke="#EEEEEE" stroke-width="3"/>
<path d="M245 176.25H384C391.594 176.25 397.75 182.406 397.75 190V200C397.75 207.594 391.594 213.75 384 213.75H231.25V190C231.25 182.406 237.406 176.25 245 176.25Z" fill="#EEEEEE"/>
<path d="M245 176.25H384C391.594 176.25 397.75 182.406 397.75 190V200C397.75 207.594 391.594 213.75 384 213.75H231.25V190C231.25 182.406 237.406 176.25 245 176.25Z" fill="black" fill-opacity="0.8"/>
<path d="M245 176.25H384C391.594 176.25 397.75 182.406 397.75 190V200C397.75 207.594 391.594 213.75 384 213.75H231.25V190C231.25 182.406 237.406 176.25 245 176.25Z" stroke="#EEEEEE" stroke-width="2.5"/>
<path d="M241.913 203V201.155H246.3V192.47H242.363V190.625H248.325V201.155H252.488V203H241.913ZM247.088 188.397C246.593 188.397 246.203 188.27 245.918 188.015C245.633 187.76 245.49 187.415 245.49 186.98C245.49 186.53 245.633 186.177 245.918 185.922C246.203 185.652 246.593 185.517 247.088 185.517C247.583 185.517 247.973 185.652 248.258 185.922C248.543 186.177 248.685 186.53 248.685 186.98C248.685 187.415 248.543 187.76 248.258 188.015C247.973 188.27 247.583 188.397 247.088 188.397ZM258.441 193.437L259.701 190.67C259.836 190.37 259.941 190.062 260.016 189.747C260.091 189.432 260.129 189.162 260.129 188.938C260.129 188.502 260.024 188.075 259.814 187.655C259.604 187.22 259.311 186.86 258.936 186.575H261.209C261.539 186.875 261.794 187.235 261.974 187.655C262.169 188.075 262.266 188.502 262.266 188.938C262.266 189.237 262.214 189.597 262.109 190.017C262.004 190.437 261.869 190.835 261.704 191.21L260.691 193.437H258.441ZM268.332 203V190.625H270.087V192.267H270.537L270.11 192.65C270.11 191.99 270.297 191.45 270.672 191.03C271.062 190.61 271.572 190.4 272.202 190.4C272.922 190.4 273.492 190.67 273.912 191.21C274.332 191.75 274.542 192.455 274.542 193.325L273.935 192.155H274.88L274.362 192.65C274.377 191.96 274.58 191.412 274.97 191.007C275.36 190.602 275.877 190.4 276.522 190.4C277.317 190.4 277.947 190.7 278.412 191.3C278.892 191.885 279.132 192.65 279.132 193.595V203H277.242V193.572C277.242 193.077 277.122 192.687 276.882 192.402C276.642 192.102 276.312 191.952 275.892 191.952C275.487 191.952 275.165 192.095 274.925 192.38C274.685 192.665 274.565 193.055 274.565 193.55V203H272.9V193.572C272.9 193.077 272.78 192.687 272.54 192.402C272.3 192.102 271.977 191.952 271.572 191.952C271.152 191.952 270.822 192.095 270.582 192.38C270.342 192.665 270.222 193.055 270.222 193.55V203H268.332ZM296.035 203V190.625H298.06V192.987H298.487L298.06 193.46C298.06 192.485 298.352 191.735 298.937 191.21C299.522 190.67 300.332 190.4 301.367 190.4C302.612 190.4 303.602 190.782 304.337 191.547C305.072 192.312 305.44 193.355 305.44 194.675V203H303.415V195.035C303.415 194.09 303.175 193.37 302.695 192.875C302.23 192.365 301.592 192.11 300.782 192.11C299.942 192.11 299.275 192.372 298.78 192.897C298.3 193.422 298.06 194.165 298.06 195.125V203H296.035ZM314.206 203.225C313.231 203.225 312.376 203.03 311.641 202.64C310.921 202.235 310.359 201.665 309.954 200.93C309.549 200.18 309.346 199.295 309.346 198.275V195.35C309.346 194.315 309.549 193.43 309.954 192.695C310.359 191.96 310.921 191.397 311.641 191.007C312.376 190.602 313.231 190.4 314.206 190.4C315.181 190.4 316.029 190.595 316.749 190.985C317.484 191.375 318.054 191.922 318.459 192.627C318.864 193.332 319.066 194.165 319.066 195.125V197.33H311.326V198.5C311.326 199.415 311.589 200.142 312.114 200.682C312.639 201.207 313.336 201.47 314.206 201.47C314.956 201.47 315.571 201.327 316.051 201.042C316.546 200.742 316.846 200.345 316.951 199.85H318.976C318.841 200.885 318.339 201.71 317.469 202.325C316.599 202.925 315.511 203.225 314.206 203.225ZM317.086 195.957V195.125C317.086 194.15 316.831 193.4 316.321 192.875C315.826 192.335 315.121 192.065 314.206 192.065C313.291 192.065 312.579 192.335 312.069 192.875C311.574 193.4 311.326 194.15 311.326 195.125V195.755H317.244L317.086 195.957ZM323.67 203L321.645 190.625H323.4L324.66 199.355C324.705 199.685 324.75 200.052 324.795 200.457C324.84 200.847 324.87 201.17 324.885 201.425C324.915 201.17 324.945 200.847 324.975 200.457C325.02 200.052 325.072 199.685 325.132 199.355L326.685 190.625H328.71L330.262 199.355C330.322 199.685 330.375 200.052 330.42 200.457C330.48 200.847 330.517 201.17 330.532 201.425C330.562 201.17 330.6 200.847 330.645 200.457C330.69 200.052 330.735 199.685 330.78 199.355L332.085 190.625H333.75L331.635 203H329.407L327.99 194.45C327.93 194.03 327.87 193.587 327.81 193.122C327.765 192.642 327.727 192.275 327.697 192.02C327.682 192.185 327.66 192.41 327.63 192.695C327.6 192.965 327.562 193.257 327.517 193.572C327.472 193.872 327.427 194.165 327.382 194.45L325.897 203H323.67ZM341.188 203.225C340.213 203.225 339.358 203.03 338.623 202.64C337.903 202.235 337.341 201.665 336.936 200.93C336.531 200.18 336.328 199.295 336.328 198.275V195.35C336.328 194.315 336.531 193.43 336.936 192.695C337.341 191.96 337.903 191.397 338.623 191.007C339.358 190.602 340.213 190.4 341.188 190.4C342.163 190.4 343.011 190.595 343.731 190.985C344.466 191.375 345.036 191.922 345.441 192.627C345.846 193.332 346.048 194.165 346.048 195.125V197.33H338.308V198.5C338.308 199.415 338.571 200.142 339.096 200.682C339.621 201.207 340.318 201.47 341.188 201.47C341.938 201.47 342.553 201.327 343.033 201.042C343.528 200.742 343.828 200.345 343.933 199.85H345.958C345.823 200.885 345.321 201.71 344.451 202.325C343.581 202.925 342.493 203.225 341.188 203.225ZM344.068 195.957V195.125C344.068 194.15 343.813 193.4 343.303 192.875C342.808 192.335 342.103 192.065 341.188 192.065C340.273 192.065 339.561 192.335 339.051 192.875C338.556 193.4 338.308 194.15 338.308 195.125V195.755H344.226L344.068 195.957ZM350.45 203V190.625H352.475V192.987H352.902L352.475 193.527C352.475 192.567 352.767 191.81 353.352 191.255C353.952 190.685 354.777 190.4 355.827 190.4C357.117 190.4 358.107 190.79 358.797 191.57C359.502 192.335 359.855 193.43 359.855 194.855V195.912H357.83V194.855C357.83 193.94 357.605 193.265 357.155 192.83C356.705 192.38 356.052 192.155 355.197 192.155C354.312 192.155 353.637 192.41 353.172 192.92C352.707 193.43 352.475 194.165 352.475 195.125V203H350.45ZM368.59 198.162L368.32 186.575H370.705L370.435 198.162H368.59ZM369.175 203.113C368.785 203.113 368.462 202.985 368.207 202.73C367.952 202.475 367.825 202.152 367.825 201.762C367.825 201.372 367.952 201.05 368.207 200.795C368.462 200.54 368.785 200.412 369.175 200.412H369.85C370.285 200.412 370.622 200.54 370.862 200.795C371.087 201.035 371.2 201.35 371.2 201.74C371.2 202.13 371.072 202.46 370.817 202.73C370.562 202.985 370.24 203.113 369.85 203.113H369.175ZM379.39 198.162L379.12 186.575H381.505L381.235 198.162H379.39ZM379.975 203.113C379.585 203.113 379.262 202.985 379.007 202.73C378.752 202.475 378.625 202.152 378.625 201.762C378.625 201.372 378.752 201.05 379.007 200.795C379.262 200.54 379.585 200.412 379.975 200.412H380.65C381.085 200.412 381.415 200.54 381.64 200.795C381.88 201.035 382 201.35 382 201.74C382 202.13 381.872 202.46 381.617 202.73C381.362 202.985 381.04 203.113 380.65 203.113H379.975Z" fill="white"/>
</svg>
