<svg width="810" height="580" viewBox="0 0 810 580" fill="none" xmlns="http://www.w3.org/2000/svg">
<circle cx="205" cy="535" r="20" fill="#EEEEEE"/>
<circle cx="285" cy="455" r="20" fill="#FFC20A"/>
<circle cx="365" cy="375" r="20" fill="#FFC20A"/>
<circle cx="285" cy="295" r="20" fill="#FFC20A"/>
<circle cx="205" cy="215" r="20" fill="#EEEEEE"/>
<circle cx="365" cy="215" r="20" fill="#EEEEEE"/>
<circle cx="205" cy="375" r="20" fill="#EEEEEE"/>
<circle cx="125" cy="295" r="20" fill="#EEEEEE"/>
<circle cx="45" cy="215" r="20" fill="#EEEEEE"/>
<circle cx="205" cy="55" r="20" fill="#EEEEEE"/>
<path d="M308.5 430C308.5 430.828 309.172 431.5 310 431.5L323.5 431.5C324.328 431.5 325 430.828 325 430C325 429.172 324.328 428.5 323.5 428.5L311.5 428.5L311.5 416.5C311.5 415.672 310.828 415 310 415C309.172 415 308.5 415.672 308.5 416.5L308.5 430ZM311.061 431.061L341.061 401.061L338.939 398.939L308.939 428.939L311.061 431.061Z" fill="#EEEEEE"/>
<path d="M261.5 430C261.5 430.828 260.828 431.5 260 431.5L246.5 431.5C245.672 431.5 245 430.828 245 430C245 429.172 245.672 428.5 246.5 428.5L258.5 428.5L258.5 416.5C258.5 415.672 259.172 415 260 415C260.828 415 261.5 415.672 261.5 416.5L261.5 430ZM258.939 431.061L228.939 401.061L231.061 398.939L261.061 428.939L258.939 431.061Z" fill="#EEEEEE"/>
<path d="M181.5 350C181.5 350.828 180.828 351.5 180 351.5L166.5 351.5C165.672 351.5 165 350.828 165 350C165 349.172 165.672 348.5 166.5 348.5L178.5 348.5L178.5 336.5C178.5 335.672 179.172 335 180 335C180.828 335 181.5 335.672 181.5 336.5L181.5 350ZM178.939 351.061L148.939 321.061L151.061 318.939L181.061 348.939L178.939 351.061Z" fill="#EEEEEE"/>
<path d="M341.5 350C341.5 350.828 340.828 351.5 340 351.5L326.5 351.5C325.672 351.5 325 350.828 325 350C325 349.172 325.672 348.5 326.5 348.5L338.5 348.5L338.5 336.5C338.5 335.672 339.172 335 340 335C340.828 335 341.5 335.672 341.5 336.5L341.5 350ZM338.939 351.061L308.939 321.061L311.061 318.939L341.061 348.939L338.939 351.061Z" fill="#EEEEEE"/>
<path d="M101.5 270C101.5 270.828 100.828 271.5 100 271.5L86.5 271.5C85.6716 271.5 85 270.828 85 270C85 269.172 85.6716 268.5 86.5 268.5L98.5 268.5L98.5 256.5C98.5 255.672 99.1716 255 100 255C100.828 255 101.5 255.672 101.5 256.5L101.5 270ZM98.9393 271.061L68.9393 241.061L71.0607 238.939L101.061 268.939L98.9393 271.061Z" fill="#EEEEEE"/>
<path d="M261.5 270C261.5 270.828 260.828 271.5 260 271.5L246.5 271.5C245.672 271.5 245 270.828 245 270C245 269.172 245.672 268.5 246.5 268.5L258.5 268.5L258.5 256.5C258.5 255.672 259.172 255 260 255C260.828 255 261.5 255.672 261.5 256.5L261.5 270ZM258.939 271.061L228.939 241.061L231.061 238.939L261.061 268.939L258.939 271.061Z" fill="#EEEEEE"/>
<path d="M148.5 270C148.5 270.828 149.172 271.5 150 271.5L163.5 271.5C164.328 271.5 165 270.828 165 270C165 269.172 164.328 268.5 163.5 268.5L151.5 268.5L151.5 256.5C151.5 255.672 150.828 255 150 255C149.172 255 148.5 255.672 148.5 256.5L148.5 270ZM151.061 271.061L181.061 241.061L178.939 238.939L148.939 268.939L151.061 271.061Z" fill="#EEEEEE"/>
<path d="M341.5 190C341.5 190.828 340.828 191.5 340 191.5L326.5 191.5C325.672 191.5 325 190.828 325 190C325 189.172 325.672 188.5 326.5 188.5L338.5 188.5L338.5 176.5C338.5 175.672 339.172 175 340 175C340.828 175 341.5 175.672 341.5 176.5L341.5 190ZM338.939 191.061L228.939 81.0607L231.061 78.9393L341.061 188.939L338.939 191.061Z" fill="#EEEEEE"/>
<path d="M68.5 190C68.5 190.828 69.1716 191.5 70 191.5L83.5 191.5C84.3284 191.5 85 190.828 85 190C85 189.172 84.3284 188.5 83.5 188.5L71.5 188.5L71.5 176.5C71.5 175.672 70.8284 175 70 175C69.1716 175 68.5 175.672 68.5 176.5L68.5 190ZM71.0607 191.061L181.061 81.0607L178.939 78.9393L68.9393 188.939L71.0607 191.061Z" fill="#EEEEEE"/>
<path d="M283.939 431.061C284.525 431.646 285.475 431.646 286.061 431.061L295.607 421.515C296.192 420.929 296.192 419.979 295.607 419.393C295.021 418.808 294.071 418.808 293.485 419.393L285 427.879L276.515 419.393C275.929 418.808 274.979 418.808 274.393 419.393C273.808 419.979 273.808 420.929 274.393 421.515L283.939 431.061ZM286.5 430L286.5 320L283.5 320L283.5 430L286.5 430Z" fill="#EEEEEE"/>
<path d="M203.939 511.061C204.525 511.646 205.475 511.646 206.061 511.061L215.607 501.515C216.192 500.929 216.192 499.979 215.607 499.393C215.021 498.808 214.071 498.808 213.485 499.393L205 507.879L196.515 499.393C195.929 498.808 194.979 498.808 194.393 499.393C193.808 499.979 193.808 500.929 194.393 501.515L203.939 511.061ZM206.5 510L206.5 400L203.5 400L203.5 510L206.5 510Z" fill="#EEEEEE"/>
<path d="M363.939 351.061C364.525 351.646 365.475 351.646 366.061 351.061L375.607 341.515C376.192 340.929 376.192 339.979 375.607 339.393C375.021 338.808 374.071 338.808 373.485 339.393L365 347.879L356.515 339.393C355.929 338.808 354.979 338.808 354.393 339.393C353.808 339.979 353.808 340.929 354.393 341.515L363.939 351.061ZM366.5 350L366.5 240L363.5 240L363.5 350L366.5 350Z" fill="#EEEEEE"/>
<path d="M203.939 191.061C204.525 191.646 205.475 191.646 206.061 191.061L215.607 181.515C216.192 180.929 216.192 179.979 215.607 179.393C215.021 178.808 214.071 178.808 213.485 179.393L205 187.879L196.515 179.393C195.929 178.808 194.979 178.808 194.393 179.393C193.808 179.979 193.808 180.929 194.393 181.515L203.939 191.061ZM206.5 190L206.5 80L203.5 80L203.5 190L206.5 190Z" fill="#EEEEEE"/>
<circle cx="525" cy="45" r="20" fill="#FFC20A"/>
<path d="M567.55 56V53.54H573.4V41.96H568.15V39.5H576.1V53.54H581.65V56H567.55ZM574.45 36.53C573.79 36.53 573.27 36.36 572.89 36.02C572.51 35.68 572.32 35.22 572.32 34.64C572.32 34.04 572.51 33.57 572.89 33.23C573.27 32.87 573.79 32.69 574.45 32.69C575.11 32.69 575.63 32.87 576.01 33.23C576.39 33.57 576.58 34.04 576.58 34.64C576.58 35.22 576.39 35.68 576.01 36.02C575.63 36.36 575.11 36.53 574.45 36.53ZM585.748 56V39.5H588.448V42.65H589.018L588.448 43.28C588.448 41.98 588.838 40.98 589.618 40.28C590.398 39.56 591.478 39.2 592.858 39.2C594.518 39.2 595.838 39.71 596.818 40.73C597.798 41.75 598.288 43.14 598.288 44.9V56H595.588V45.38C595.588 44.12 595.268 43.16 594.628 42.5C594.008 41.82 593.158 41.48 592.078 41.48C590.958 41.48 590.068 41.83 589.408 42.53C588.768 43.23 588.448 44.22 588.448 45.5V56H585.748ZM608.207 56L602.597 39.5H605.507L609.107 50.6C609.327 51.26 609.517 51.9 609.677 52.52C609.837 53.12 609.957 53.59 610.037 53.93C610.137 53.59 610.257 53.12 610.397 52.52C610.537 51.9 610.707 51.26 610.907 50.6L614.507 39.5H617.357L611.747 56H608.207ZM626.525 56.3C624.825 56.3 623.475 55.83 622.475 54.89C621.475 53.93 620.975 52.68 620.975 51.14C620.975 50.12 621.205 49.23 621.665 48.47C622.125 47.71 622.765 47.12 623.585 46.7C624.405 46.26 625.345 46.04 626.405 46.04H631.505V44.75C631.505 43.67 631.215 42.87 630.635 42.35C630.055 41.81 629.175 41.54 627.995 41.54C626.955 41.54 626.115 41.73 625.475 42.11C624.835 42.49 624.495 43.02 624.455 43.7H621.755C621.855 42.4 622.455 41.33 623.555 40.49C624.675 39.63 626.155 39.2 627.995 39.2C629.995 39.2 631.525 39.68 632.585 40.64C633.665 41.6 634.205 42.94 634.205 44.66V56H631.535V53H631.085L631.505 52.4C631.505 53.2 631.305 53.89 630.905 54.47C630.505 55.05 629.935 55.5 629.195 55.82C628.455 56.14 627.565 56.3 626.525 56.3ZM627.185 54.02C628.505 54.02 629.555 53.7 630.335 53.06C631.115 52.42 631.505 51.55 631.505 50.45V48.14H626.705C625.825 48.14 625.105 48.41 624.545 48.95C624.005 49.47 623.735 50.17 623.735 51.05C623.735 51.97 624.035 52.7 624.635 53.24C625.255 53.76 626.105 54.02 627.185 54.02ZM648.353 56C647.393 56 646.553 55.81 645.833 55.43C645.113 55.05 644.553 54.51 644.153 53.81C643.753 53.11 643.553 52.29 643.553 51.35V36.56H637.853V34.1H646.253V51.35C646.253 52.03 646.443 52.57 646.823 52.97C647.203 53.35 647.713 53.54 648.353 53.54H653.453V56H648.353ZM657.491 56V53.54H663.341V41.96H658.091V39.5H666.041V53.54H671.591V56H657.491ZM664.391 36.53C663.731 36.53 663.211 36.36 662.831 36.02C662.451 35.68 662.261 35.22 662.261 34.64C662.261 34.04 662.451 33.57 662.831 33.23C663.211 32.87 663.731 32.69 664.391 32.69C665.051 32.69 665.571 32.87 665.951 33.23C666.331 33.57 666.521 34.04 666.521 34.64C666.521 35.22 666.331 35.68 665.951 36.02C665.571 36.36 665.051 36.53 664.391 36.53ZM680.97 56.3C679.33 56.3 678.01 55.75 677.01 54.65C676.03 53.55 675.54 52.06 675.54 50.18V45.35C675.54 43.45 676.03 41.95 677.01 40.85C677.99 39.75 679.31 39.2 680.97 39.2C682.33 39.2 683.43 39.57 684.27 40.31C685.11 41.05 685.53 42.04 685.53 43.28L684.93 42.65H685.53L685.47 38.9V34.1H688.17V56H685.47V52.85H684.93L685.47 52.22C685.47 53.48 685.06 54.48 684.24 55.22C683.42 55.94 682.33 56.3 680.97 56.3ZM681.87 53.96C682.99 53.96 683.87 53.61 684.51 52.91C685.15 52.21 685.47 51.24 685.47 50V45.5C685.47 44.26 685.15 43.29 684.51 42.59C683.87 41.89 682.99 41.54 681.87 41.54C680.73 41.54 679.84 41.84 679.2 42.44C678.56 43.02 678.24 43.99 678.24 45.35V50.15C678.24 51.49 678.56 52.46 679.2 53.06C679.84 53.66 680.73 53.96 681.87 53.96Z" fill="white"/>
<circle cx="525" cy="95" r="20" fill="#EEEEEE"/>
<path d="M572.23 106L566.62 89.5H569.53L573.13 100.6C573.35 101.26 573.54 101.9 573.7 102.52C573.86 103.12 573.98 103.59 574.06 103.93C574.16 103.59 574.28 103.12 574.42 102.52C574.56 101.9 574.73 101.26 574.93 100.6L578.53 89.5H581.38L575.77 106H572.23ZM590.548 106.3C588.848 106.3 587.498 105.83 586.498 104.89C585.498 103.93 584.998 102.68 584.998 101.14C584.998 100.12 585.228 99.23 585.688 98.47C586.148 97.71 586.788 97.12 587.608 96.7C588.428 96.26 589.368 96.04 590.428 96.04H595.528V94.75C595.528 93.67 595.238 92.87 594.658 92.35C594.078 91.81 593.198 91.54 592.018 91.54C590.978 91.54 590.138 91.73 589.498 92.11C588.858 92.49 588.518 93.02 588.478 93.7H585.778C585.878 92.4 586.478 91.33 587.578 90.49C588.698 89.63 590.178 89.2 592.018 89.2C594.018 89.2 595.548 89.68 596.608 90.64C597.688 91.6 598.228 92.94 598.228 94.66V106H595.558V103H595.108L595.528 102.4C595.528 103.2 595.328 103.89 594.928 104.47C594.528 105.05 593.958 105.5 593.218 105.82C592.478 106.14 591.588 106.3 590.548 106.3ZM591.208 104.02C592.528 104.02 593.578 103.7 594.358 103.06C595.138 102.42 595.528 101.55 595.528 100.45V98.14H590.728C589.848 98.14 589.128 98.41 588.568 98.95C588.028 99.47 587.758 100.17 587.758 101.05C587.758 101.97 588.058 102.7 588.658 103.24C589.278 103.76 590.128 104.02 591.208 104.02ZM612.377 106C611.417 106 610.577 105.81 609.857 105.43C609.137 105.05 608.577 104.51 608.177 103.81C607.777 103.11 607.577 102.29 607.577 101.35V86.56H601.877V84.1H610.277V101.35C610.277 102.03 610.467 102.57 610.847 102.97C611.227 103.35 611.737 103.54 612.377 103.54H617.477V106H612.377ZM621.515 106V103.54H627.365V91.96H622.115V89.5H630.065V103.54H635.615V106H621.515ZM628.415 86.53C627.755 86.53 627.235 86.36 626.855 86.02C626.475 85.68 626.285 85.22 626.285 84.64C626.285 84.04 626.475 83.57 626.855 83.23C627.235 82.87 627.755 82.69 628.415 82.69C629.075 82.69 629.595 82.87 629.975 83.23C630.355 83.57 630.545 84.04 630.545 84.64C630.545 85.22 630.355 85.68 629.975 86.02C629.595 86.36 629.075 86.53 628.415 86.53ZM644.993 106.3C643.353 106.3 642.033 105.75 641.033 104.65C640.053 103.55 639.563 102.06 639.563 100.18V95.35C639.563 93.45 640.053 91.95 641.033 90.85C642.013 89.75 643.333 89.2 644.993 89.2C646.353 89.2 647.453 89.57 648.293 90.31C649.133 91.05 649.553 92.04 649.553 93.28L648.953 92.65H649.553L649.493 88.9V84.1H652.193V106H649.493V102.85H648.953L649.493 102.22C649.493 103.48 649.083 104.48 648.263 105.22C647.443 105.94 646.353 106.3 644.993 106.3ZM645.893 103.96C647.013 103.96 647.893 103.61 648.533 102.91C649.173 102.21 649.493 101.24 649.493 100V95.5C649.493 94.26 649.173 93.29 648.533 92.59C647.893 91.89 647.013 91.54 645.893 91.54C644.753 91.54 643.863 91.84 643.223 92.44C642.583 93.02 642.263 93.99 642.263 95.35V100.15C642.263 101.49 642.583 102.46 643.223 103.06C643.863 103.66 644.753 103.96 645.893 103.96Z" fill="white"/>
<path d="M231.25 536.25H316C323.594 536.25 329.75 542.406 329.75 550V560C329.75 567.594 323.594 573.75 316 573.75H245C237.406 573.75 231.25 567.594 231.25 560V536.25Z" fill="#EEEEEE"/>
<path d="M231.25 536.25H316C323.594 536.25 329.75 542.406 329.75 550V560C329.75 567.594 323.594 573.75 316 573.75H245C237.406 573.75 231.25 567.594 231.25 560V536.25Z" fill="black" fill-opacity="0.8"/>
<path d="M231.25 536.25H316C323.594 536.25 329.75 542.406 329.75 550V560C329.75 567.594 323.594 573.75 316 573.75H245C237.406 573.75 231.25 567.594 231.25 560V536.25Z" stroke="#EEEEEE" stroke-width="2.5"/>
<path d="M242.52 563V550.625H244.545V552.987H244.973L244.545 553.527C244.545 552.567 244.838 551.81 245.423 551.255C246.023 550.685 246.848 550.4 247.898 550.4C249.188 550.4 250.178 550.79 250.868 551.57C251.573 552.335 251.925 553.43 251.925 554.855V555.912H249.9V554.855C249.9 553.94 249.675 553.265 249.225 552.83C248.775 552.38 248.123 552.155 247.268 552.155C246.383 552.155 245.708 552.41 245.243 552.92C244.778 553.43 244.545 554.165 244.545 555.125V563H242.52ZM260.241 563.225C259.266 563.225 258.411 563.03 257.676 562.64C256.956 562.235 256.394 561.665 255.989 560.93C255.584 560.18 255.381 559.295 255.381 558.275V555.35C255.381 554.315 255.584 553.43 255.989 552.695C256.394 551.96 256.956 551.397 257.676 551.007C258.411 550.602 259.266 550.4 260.241 550.4C261.216 550.4 262.064 550.595 262.784 550.985C263.519 551.375 264.089 551.922 264.494 552.627C264.899 553.332 265.101 554.165 265.101 555.125V557.33H257.361V558.5C257.361 559.415 257.624 560.142 258.149 560.682C258.674 561.207 259.371 561.47 260.241 561.47C260.991 561.47 261.606 561.327 262.086 561.042C262.581 560.742 262.881 560.345 262.986 559.85H265.011C264.876 560.885 264.374 561.71 263.504 562.325C262.634 562.925 261.546 563.225 260.241 563.225ZM263.121 555.957V555.125C263.121 554.15 262.866 553.4 262.356 552.875C261.861 552.335 261.156 552.065 260.241 552.065C259.326 552.065 258.614 552.335 258.104 552.875C257.609 553.4 257.361 554.15 257.361 555.125V555.755H263.279L263.121 555.957ZM274.97 563C273.95 563 273.132 562.707 272.517 562.122C271.902 561.522 271.595 560.727 271.595 559.737V552.47H268.04V550.625H271.595V547.137H273.62V550.625H278.682V552.47H273.62V559.737C273.62 560.157 273.74 560.502 273.98 560.772C274.235 561.027 274.565 561.155 274.97 561.155H278.57V563H274.97ZM287.201 563.225C285.776 563.225 284.636 562.805 283.781 561.965C282.926 561.11 282.499 559.955 282.499 558.5V550.625H284.524V558.5C284.524 559.4 284.764 560.12 285.244 560.66C285.724 561.185 286.376 561.447 287.201 561.447C288.041 561.447 288.701 561.185 289.181 560.66C289.676 560.12 289.924 559.4 289.924 558.5V550.625H291.949V558.5C291.949 559.955 291.514 561.11 290.644 561.965C289.774 562.805 288.626 563.225 287.201 563.225ZM296.485 563V550.625H298.51V552.987H298.937L298.51 553.527C298.51 552.567 298.802 551.81 299.387 551.255C299.987 550.685 300.812 550.4 301.862 550.4C303.152 550.4 304.142 550.79 304.832 551.57C305.537 552.335 305.89 553.43 305.89 554.855V555.912H303.865V554.855C303.865 553.94 303.64 553.265 303.19 552.83C302.74 552.38 302.087 552.155 301.232 552.155C300.347 552.155 299.672 552.41 299.207 552.92C298.742 553.43 298.51 554.165 298.51 555.125V563H296.485ZM309.526 563V550.625H311.551V552.987H311.979L311.551 553.46C311.551 552.485 311.844 551.735 312.429 551.21C313.014 550.67 313.824 550.4 314.859 550.4C316.104 550.4 317.094 550.782 317.829 551.547C318.564 552.312 318.931 553.355 318.931 554.675V563H316.906V555.035C316.906 554.09 316.666 553.37 316.186 552.875C315.721 552.365 315.084 552.11 314.274 552.11C313.434 552.11 312.766 552.372 312.271 552.897C311.791 553.422 311.551 554.165 311.551 555.125V563H309.526Z" fill="white"/>
</svg>
