<svg width="810" height="580" viewBox="0 0 810 580" fill="none" xmlns="http://www.w3.org/2000/svg">
<circle cx="205" cy="535" r="20" fill="#0C7BDC"/>
<circle cx="285" cy="455" r="20" fill="#FFC20A"/>
<circle cx="365" cy="375" r="20" fill="#FFC20A"/>
<circle cx="285" cy="295" r="20" fill="#FFC20A"/>
<circle cx="205" cy="215" r="20" fill="#FFC20A"/>
<circle cx="365" cy="215" r="20" fill="#EEEEEE"/>
<circle cx="205" cy="375" r="20" fill="#0C7BDC"/>
<circle cx="125" cy="295" r="20" fill="#FFC20A"/>
<circle cx="45" cy="215" r="20" fill="#EEEEEE"/>
<circle cx="205" cy="55" r="20" fill="#EEEEEE"/>
<path d="M308.5 430C308.5 430.828 309.172 431.5 310 431.5L323.5 431.5C324.328 431.5 325 430.828 325 430C325 429.172 324.328 428.5 323.5 428.5L311.5 428.5L311.5 416.5C311.5 415.672 310.828 415 310 415C309.172 415 308.5 415.672 308.5 416.5L308.5 430ZM311.061 431.061L341.061 401.061L338.939 398.939L308.939 428.939L311.061 431.061Z" fill="#EEEEEE"/>
<path d="M261.5 430C261.5 430.828 260.828 431.5 260 431.5L246.5 431.5C245.672 431.5 245 430.828 245 430C245 429.172 245.672 428.5 246.5 428.5L258.5 428.5L258.5 416.5C258.5 415.672 259.172 415 260 415C260.828 415 261.5 415.672 261.5 416.5L261.5 430ZM258.939 431.061L228.939 401.061L231.061 398.939L261.061 428.939L258.939 431.061Z" fill="#EEEEEE"/>
<path d="M181.5 350C181.5 350.828 180.828 351.5 180 351.5L166.5 351.5C165.672 351.5 165 350.828 165 350C165 349.172 165.672 348.5 166.5 348.5L178.5 348.5L178.5 336.5C178.5 335.672 179.172 335 180 335C180.828 335 181.5 335.672 181.5 336.5L181.5 350ZM178.939 351.061L148.939 321.061L151.061 318.939L181.061 348.939L178.939 351.061Z" fill="#EEEEEE"/>
<path d="M341.5 350C341.5 350.828 340.828 351.5 340 351.5L326.5 351.5C325.672 351.5 325 350.828 325 350C325 349.172 325.672 348.5 326.5 348.5L338.5 348.5L338.5 336.5C338.5 335.672 339.172 335 340 335C340.828 335 341.5 335.672 341.5 336.5L341.5 350ZM338.939 351.061L308.939 321.061L311.061 318.939L341.061 348.939L338.939 351.061Z" fill="#EEEEEE"/>
<path d="M101.5 270C101.5 270.828 100.828 271.5 100 271.5L86.5 271.5C85.6716 271.5 85 270.828 85 270C85 269.172 85.6716 268.5 86.5 268.5L98.5 268.5L98.5 256.5C98.5 255.672 99.1716 255 100 255C100.828 255 101.5 255.672 101.5 256.5L101.5 270ZM98.9393 271.061L68.9393 241.061L71.0607 238.939L101.061 268.939L98.9393 271.061Z" fill="#EEEEEE"/>
<path d="M261.5 270C261.5 270.828 260.828 271.5 260 271.5L246.5 271.5C245.672 271.5 245 270.828 245 270C245 269.172 245.672 268.5 246.5 268.5L258.5 268.5L258.5 256.5C258.5 255.672 259.172 255 260 255C260.828 255 261.5 255.672 261.5 256.5L261.5 270ZM258.939 271.061L228.939 241.061L231.061 238.939L261.061 268.939L258.939 271.061Z" fill="#EEEEEE"/>
<path d="M148.5 270C148.5 270.828 149.172 271.5 150 271.5L163.5 271.5C164.328 271.5 165 270.828 165 270C165 269.172 164.328 268.5 163.5 268.5L151.5 268.5L151.5 256.5C151.5 255.672 150.828 255 150 255C149.172 255 148.5 255.672 148.5 256.5L148.5 270ZM151.061 271.061L181.061 241.061L178.939 238.939L148.939 268.939L151.061 271.061Z" fill="#EEEEEE"/>
<path d="M341.5 190C341.5 190.828 340.828 191.5 340 191.5L326.5 191.5C325.672 191.5 325 190.828 325 190C325 189.172 325.672 188.5 326.5 188.5L338.5 188.5L338.5 176.5C338.5 175.672 339.172 175 340 175C340.828 175 341.5 175.672 341.5 176.5L341.5 190ZM338.939 191.061L228.939 81.0607L231.061 78.9393L341.061 188.939L338.939 191.061Z" fill="#EEEEEE"/>
<path d="M68.5 190C68.5 190.828 69.1716 191.5 70 191.5L83.5 191.5C84.3284 191.5 85 190.828 85 190C85 189.172 84.3284 188.5 83.5 188.5L71.5 188.5L71.5 176.5C71.5 175.672 70.8284 175 70 175C69.1716 175 68.5 175.672 68.5 176.5L68.5 190ZM71.0607 191.061L181.061 81.0607L178.939 78.9393L68.9393 188.939L71.0607 191.061Z" fill="#EEEEEE"/>
<path d="M283.939 431.061C284.525 431.646 285.475 431.646 286.061 431.061L295.607 421.515C296.192 420.929 296.192 419.979 295.607 419.393C295.021 418.808 294.071 418.808 293.485 419.393L285 427.879L276.515 419.393C275.929 418.808 274.979 418.808 274.393 419.393C273.808 419.979 273.808 420.929 274.393 421.515L283.939 431.061ZM286.5 430L286.5 320L283.5 320L283.5 430L286.5 430Z" fill="#EEEEEE"/>
<path d="M363.939 351.061C364.525 351.646 365.475 351.646 366.061 351.061L375.607 341.515C376.192 340.929 376.192 339.979 375.607 339.393C375.021 338.808 374.071 338.808 373.485 339.393L365 347.879L356.515 339.393C355.929 338.808 354.979 338.808 354.393 339.393C353.808 339.979 353.808 340.929 354.393 341.515L363.939 351.061ZM366.5 350L366.5 240L363.5 240L363.5 350L366.5 350Z" fill="#EEEEEE"/>
<path d="M203.939 191.061C204.525 191.646 205.475 191.646 206.061 191.061L215.607 181.515C216.192 180.929 216.192 179.979 215.607 179.393C215.021 178.808 214.071 178.808 213.485 179.393L205 187.879L196.515 179.393C195.929 178.808 194.979 178.808 194.393 179.393C193.808 179.979 193.808 180.929 194.393 181.515L203.939 191.061ZM206.5 190L206.5 80L203.5 80L203.5 190L206.5 190Z" fill="#EEEEEE"/>
<circle cx="525" cy="45" r="20" fill="#FFC20A"/>
<path d="M567.55 56V53.54H573.4V41.96H568.15V39.5H576.1V53.54H581.65V56H567.55ZM574.45 36.53C573.79 36.53 573.27 36.36 572.89 36.02C572.51 35.68 572.32 35.22 572.32 34.64C572.32 34.04 572.51 33.57 572.89 33.23C573.27 32.87 573.79 32.69 574.45 32.69C575.11 32.69 575.63 32.87 576.01 33.23C576.39 33.57 576.58 34.04 576.58 34.64C576.58 35.22 576.39 35.68 576.01 36.02C575.63 36.36 575.11 36.53 574.45 36.53ZM585.748 56V39.5H588.448V42.65H589.018L588.448 43.28C588.448 41.98 588.838 40.98 589.618 40.28C590.398 39.56 591.478 39.2 592.858 39.2C594.518 39.2 595.838 39.71 596.818 40.73C597.798 41.75 598.288 43.14 598.288 44.9V56H595.588V45.38C595.588 44.12 595.268 43.16 594.628 42.5C594.008 41.82 593.158 41.48 592.078 41.48C590.958 41.48 590.068 41.83 589.408 42.53C588.768 43.23 588.448 44.22 588.448 45.5V56H585.748ZM608.207 56L602.597 39.5H605.507L609.107 50.6C609.327 51.26 609.517 51.9 609.677 52.52C609.837 53.12 609.957 53.59 610.037 53.93C610.137 53.59 610.257 53.12 610.397 52.52C610.537 51.9 610.707 51.26 610.907 50.6L614.507 39.5H617.357L611.747 56H608.207ZM626.525 56.3C624.825 56.3 623.475 55.83 622.475 54.89C621.475 53.93 620.975 52.68 620.975 51.14C620.975 50.12 621.205 49.23 621.665 48.47C622.125 47.71 622.765 47.12 623.585 46.7C624.405 46.26 625.345 46.04 626.405 46.04H631.505V44.75C631.505 43.67 631.215 42.87 630.635 42.35C630.055 41.81 629.175 41.54 627.995 41.54C626.955 41.54 626.115 41.73 625.475 42.11C624.835 42.49 624.495 43.02 624.455 43.7H621.755C621.855 42.4 622.455 41.33 623.555 40.49C624.675 39.63 626.155 39.2 627.995 39.2C629.995 39.2 631.525 39.68 632.585 40.64C633.665 41.6 634.205 42.94 634.205 44.66V56H631.535V53H631.085L631.505 52.4C631.505 53.2 631.305 53.89 630.905 54.47C630.505 55.05 629.935 55.5 629.195 55.82C628.455 56.14 627.565 56.3 626.525 56.3ZM627.185 54.02C628.505 54.02 629.555 53.7 630.335 53.06C631.115 52.42 631.505 51.55 631.505 50.45V48.14H626.705C625.825 48.14 625.105 48.41 624.545 48.95C624.005 49.47 623.735 50.17 623.735 51.05C623.735 51.97 624.035 52.7 624.635 53.24C625.255 53.76 626.105 54.02 627.185 54.02ZM648.353 56C647.393 56 646.553 55.81 645.833 55.43C645.113 55.05 644.553 54.51 644.153 53.81C643.753 53.11 643.553 52.29 643.553 51.35V36.56H637.853V34.1H646.253V51.35C646.253 52.03 646.443 52.57 646.823 52.97C647.203 53.35 647.713 53.54 648.353 53.54H653.453V56H648.353ZM657.491 56V53.54H663.341V41.96H658.091V39.5H666.041V53.54H671.591V56H657.491ZM664.391 36.53C663.731 36.53 663.211 36.36 662.831 36.02C662.451 35.68 662.261 35.22 662.261 34.64C662.261 34.04 662.451 33.57 662.831 33.23C663.211 32.87 663.731 32.69 664.391 32.69C665.051 32.69 665.571 32.87 665.951 33.23C666.331 33.57 666.521 34.04 666.521 34.64C666.521 35.22 666.331 35.68 665.951 36.02C665.571 36.36 665.051 36.53 664.391 36.53ZM680.97 56.3C679.33 56.3 678.01 55.75 677.01 54.65C676.03 53.55 675.54 52.06 675.54 50.18V45.35C675.54 43.45 676.03 41.95 677.01 40.85C677.99 39.75 679.31 39.2 680.97 39.2C682.33 39.2 683.43 39.57 684.27 40.31C685.11 41.05 685.53 42.04 685.53 43.28L684.93 42.65H685.53L685.47 38.9V34.1H688.17V56H685.47V52.85H684.93L685.47 52.22C685.47 53.48 685.06 54.48 684.24 55.22C683.42 55.94 682.33 56.3 680.97 56.3ZM681.87 53.96C682.99 53.96 683.87 53.61 684.51 52.91C685.15 52.21 685.47 51.24 685.47 50V45.5C685.47 44.26 685.15 43.29 684.51 42.59C683.87 41.89 682.99 41.54 681.87 41.54C680.73 41.54 679.84 41.84 679.2 42.44C678.56 43.02 678.24 43.99 678.24 45.35V50.15C678.24 51.49 678.56 52.46 679.2 53.06C679.84 53.66 680.73 53.96 681.87 53.96Z" fill="white"/>
<circle cx="525" cy="95" r="20" fill="#0C7BDC"/>
<path d="M574.96 106.3C573.6 106.3 572.51 105.94 571.69 105.22C570.87 104.48 570.46 103.48 570.46 102.22L571 102.85H570.46V106H567.76V84.1H570.46V88.9L570.4 92.65H571L570.4 93.28C570.4 92.04 570.82 91.05 571.66 90.31C572.52 89.57 573.62 89.2 574.96 89.2C576.62 89.2 577.94 89.75 578.92 90.85C579.9 91.95 580.39 93.45 580.39 95.35V100.18C580.39 102.06 579.9 103.55 578.92 104.65C577.94 105.75 576.62 106.3 574.96 106.3ZM574.06 103.96C575.2 103.96 576.09 103.66 576.73 103.06C577.37 102.46 577.69 101.49 577.69 100.15V95.35C577.69 93.99 577.37 93.02 576.73 92.44C576.09 91.84 575.2 91.54 574.06 91.54C572.96 91.54 572.08 91.89 571.42 92.59C570.78 93.29 570.46 94.26 570.46 95.5V100C570.46 101.24 570.78 102.21 571.42 102.91C572.08 103.61 572.96 103.96 574.06 103.96ZM591.958 106.3C590.058 106.3 588.538 105.74 587.398 104.62C586.258 103.48 585.688 101.94 585.688 100V89.5H588.388V100C588.388 101.2 588.708 102.16 589.348 102.88C589.988 103.58 590.858 103.93 591.958 103.93C593.078 103.93 593.958 103.58 594.598 102.88C595.258 102.16 595.588 101.2 595.588 100V89.5H598.288V100C598.288 101.94 597.708 103.48 596.548 104.62C595.388 105.74 593.858 106.3 591.958 106.3ZM609.317 106.24C608.097 106.24 607.047 106.06 606.167 105.7C605.307 105.32 604.647 104.78 604.187 104.08C603.747 103.36 603.527 102.49 603.527 101.47H606.227C606.227 102.23 606.497 102.83 607.037 103.27C607.577 103.69 608.337 103.9 609.317 103.9H610.637C611.637 103.9 612.407 103.68 612.947 103.24C613.507 102.8 613.787 102.18 613.787 101.38C613.787 100.66 613.627 100.1 613.307 99.7C612.987 99.3 612.497 99.06 611.837 98.98L607.277 98.32C606.157 98.16 605.287 97.7 604.667 96.94C604.047 96.16 603.737 95.14 603.737 93.88C603.737 92.44 604.227 91.31 605.207 90.49C606.207 89.67 607.577 89.26 609.317 89.26H610.637C612.237 89.26 613.537 89.66 614.537 90.46C615.557 91.24 616.107 92.27 616.187 93.55H613.457C613.417 92.97 613.137 92.49 612.617 92.11C612.117 91.73 611.457 91.54 610.637 91.54H609.317C608.397 91.54 607.677 91.75 607.157 92.17C606.637 92.59 606.377 93.16 606.377 93.88C606.377 94.44 606.507 94.89 606.767 95.23C607.047 95.57 607.447 95.78 607.967 95.86L612.227 96.46C613.627 96.66 614.677 97.17 615.377 97.99C616.077 98.81 616.427 99.94 616.427 101.38C616.427 102.92 615.917 104.12 614.897 104.98C613.897 105.82 612.477 106.24 610.637 106.24H609.317ZM624.305 111.4L626.735 104.98L620.585 89.5H623.495L627.395 99.7C627.555 100.1 627.705 100.52 627.845 100.96C627.985 101.4 628.085 101.78 628.145 102.1C628.205 101.78 628.305 101.4 628.445 100.96C628.585 100.52 628.725 100.1 628.865 99.7L632.495 89.5H635.345L627.125 111.4H624.305Z" fill="white"/>
<circle cx="525" cy="145" r="20" fill="#EEEEEE"/>
<path d="M572.23 156L566.62 139.5H569.53L573.13 150.6C573.35 151.26 573.54 151.9 573.7 152.52C573.86 153.12 573.98 153.59 574.06 153.93C574.16 153.59 574.28 153.12 574.42 152.52C574.56 151.9 574.73 151.26 574.93 150.6L578.53 139.5H581.38L575.77 156H572.23ZM590.548 156.3C588.848 156.3 587.498 155.83 586.498 154.89C585.498 153.93 584.998 152.68 584.998 151.14C584.998 150.12 585.228 149.23 585.688 148.47C586.148 147.71 586.788 147.12 587.608 146.7C588.428 146.26 589.368 146.04 590.428 146.04H595.528V144.75C595.528 143.67 595.238 142.87 594.658 142.35C594.078 141.81 593.198 141.54 592.018 141.54C590.978 141.54 590.138 141.73 589.498 142.11C588.858 142.49 588.518 143.02 588.478 143.7H585.778C585.878 142.4 586.478 141.33 587.578 140.49C588.698 139.63 590.178 139.2 592.018 139.2C594.018 139.2 595.548 139.68 596.608 140.64C597.688 141.6 598.228 142.94 598.228 144.66V156H595.558V153H595.108L595.528 152.4C595.528 153.2 595.328 153.89 594.928 154.47C594.528 155.05 593.958 155.5 593.218 155.82C592.478 156.14 591.588 156.3 590.548 156.3ZM591.208 154.02C592.528 154.02 593.578 153.7 594.358 153.06C595.138 152.42 595.528 151.55 595.528 150.45V148.14H590.728C589.848 148.14 589.128 148.41 588.568 148.95C588.028 149.47 587.758 150.17 587.758 151.05C587.758 151.97 588.058 152.7 588.658 153.24C589.278 153.76 590.128 154.02 591.208 154.02ZM612.377 156C611.417 156 610.577 155.81 609.857 155.43C609.137 155.05 608.577 154.51 608.177 153.81C607.777 153.11 607.577 152.29 607.577 151.35V136.56H601.877V134.1H610.277V151.35C610.277 152.03 610.467 152.57 610.847 152.97C611.227 153.35 611.737 153.54 612.377 153.54H617.477V156H612.377ZM621.515 156V153.54H627.365V141.96H622.115V139.5H630.065V153.54H635.615V156H621.515ZM628.415 136.53C627.755 136.53 627.235 136.36 626.855 136.02C626.475 135.68 626.285 135.22 626.285 134.64C626.285 134.04 626.475 133.57 626.855 133.23C627.235 132.87 627.755 132.69 628.415 132.69C629.075 132.69 629.595 132.87 629.975 133.23C630.355 133.57 630.545 134.04 630.545 134.64C630.545 135.22 630.355 135.68 629.975 136.02C629.595 136.36 629.075 136.53 628.415 136.53ZM644.993 156.3C643.353 156.3 642.033 155.75 641.033 154.65C640.053 153.55 639.563 152.06 639.563 150.18V145.35C639.563 143.45 640.053 141.95 641.033 140.85C642.013 139.75 643.333 139.2 644.993 139.2C646.353 139.2 647.453 139.57 648.293 140.31C649.133 141.05 649.553 142.04 649.553 143.28L648.953 142.65H649.553L649.493 138.9V134.1H652.193V156H649.493V152.85H648.953L649.493 152.22C649.493 153.48 649.083 154.48 648.263 155.22C647.443 155.94 646.353 156.3 644.993 156.3ZM645.893 153.96C647.013 153.96 647.893 153.61 648.533 152.91C649.173 152.21 649.493 151.24 649.493 150V145.5C649.493 144.26 649.173 143.29 648.533 142.59C647.893 141.89 647.013 141.54 645.893 141.54C644.753 141.54 643.863 141.84 643.223 142.44C642.583 143.02 642.263 143.99 642.263 145.35V150.15C642.263 151.49 642.583 152.46 643.223 153.06C643.863 153.66 644.753 153.96 645.893 153.96Z" fill="white"/>
<path d="M203.939 511.061C204.525 511.646 205.475 511.646 206.061 511.061L215.607 501.515C216.192 500.929 216.192 499.979 215.607 499.393C215.021 498.808 214.071 498.808 213.485 499.393L205 507.879L196.515 499.393C195.929 498.808 194.979 498.808 194.393 499.393C193.808 499.979 193.808 500.929 194.393 501.515L203.939 511.061ZM206.5 510L206.5 400L203.5 400L203.5 510L206.5 510Z" fill="#EEEEEE"/>
<path d="M231.25 536.25H316C323.594 536.25 329.75 542.406 329.75 550V560C329.75 567.594 323.594 573.75 316 573.75H245C237.406 573.75 231.25 567.594 231.25 560V536.25Z" fill="#0C7BDC"/>
<path d="M231.25 536.25H316C323.594 536.25 329.75 542.406 329.75 550V560C329.75 567.594 323.594 573.75 316 573.75H245C237.406 573.75 231.25 567.594 231.25 560V536.25Z" fill="black" fill-opacity="0.8"/>
<path d="M231.25 536.25H316C323.594 536.25 329.75 542.406 329.75 550V560C329.75 567.594 323.594 573.75 316 573.75H245C237.406 573.75 231.25 567.594 231.25 560V536.25Z" stroke="#0C7BDC" stroke-width="2.5"/>
<path d="M242.07 567.05V550.625H244.095V552.987H244.5L244.095 553.46C244.095 552.515 244.403 551.772 245.018 551.232C245.633 550.677 246.45 550.4 247.47 550.4C248.295 550.4 249.008 550.587 249.608 550.962C250.223 551.322 250.695 551.847 251.025 552.537C251.37 553.227 251.543 554.045 251.543 554.99V558.612C251.543 559.557 251.378 560.375 251.048 561.065C250.718 561.755 250.245 562.287 249.63 562.662C249.03 563.038 248.31 563.225 247.47 563.225C246.465 563.225 245.648 562.948 245.018 562.392C244.403 561.837 244.095 561.095 244.095 560.165L244.5 560.637H244.05L244.095 563.45V567.05H242.07ZM246.795 561.47C247.65 561.47 248.318 561.245 248.798 560.795C249.278 560.345 249.518 559.617 249.518 558.612V555.012C249.518 553.992 249.278 553.265 248.798 552.83C248.318 552.38 247.65 552.155 246.795 552.155C245.97 552.155 245.31 552.417 244.815 552.942C244.335 553.467 244.095 554.195 244.095 555.125V558.5C244.095 559.43 244.335 560.157 244.815 560.682C245.31 561.207 245.97 561.47 246.795 561.47ZM260.241 563.225C259.266 563.225 258.411 563.03 257.676 562.64C256.956 562.235 256.394 561.665 255.989 560.93C255.584 560.18 255.381 559.295 255.381 558.275V555.35C255.381 554.315 255.584 553.43 255.989 552.695C256.394 551.96 256.956 551.397 257.676 551.007C258.411 550.602 259.266 550.4 260.241 550.4C261.216 550.4 262.064 550.595 262.784 550.985C263.519 551.375 264.089 551.922 264.494 552.627C264.899 553.332 265.101 554.165 265.101 555.125V557.33H257.361V558.5C257.361 559.415 257.624 560.142 258.149 560.682C258.674 561.207 259.371 561.47 260.241 561.47C260.991 561.47 261.606 561.327 262.086 561.042C262.581 560.742 262.881 560.345 262.986 559.85H265.011C264.876 560.885 264.374 561.71 263.504 562.325C262.634 562.925 261.546 563.225 260.241 563.225ZM263.121 555.957V555.125C263.121 554.15 262.866 553.4 262.356 552.875C261.861 552.335 261.156 552.065 260.241 552.065C259.326 552.065 258.614 552.335 258.104 552.875C257.609 553.4 257.361 554.15 257.361 555.125V555.755H263.279L263.121 555.957ZM273.732 563.225C272.757 563.225 271.902 563.03 271.167 562.64C270.447 562.235 269.885 561.665 269.48 560.93C269.075 560.18 268.872 559.295 268.872 558.275V555.35C268.872 554.315 269.075 553.43 269.48 552.695C269.885 551.96 270.447 551.397 271.167 551.007C271.902 550.602 272.757 550.4 273.732 550.4C274.707 550.4 275.555 550.595 276.275 550.985C277.01 551.375 277.58 551.922 277.985 552.627C278.39 553.332 278.592 554.165 278.592 555.125V557.33H270.852V558.5C270.852 559.415 271.115 560.142 271.64 560.682C272.165 561.207 272.862 561.47 273.732 561.47C274.482 561.47 275.097 561.327 275.577 561.042C276.072 560.742 276.372 560.345 276.477 559.85H278.502C278.367 560.885 277.865 561.71 276.995 562.325C276.125 562.925 275.037 563.225 273.732 563.225ZM276.612 555.957V555.125C276.612 554.15 276.357 553.4 275.847 552.875C275.352 552.335 274.647 552.065 273.732 552.065C272.817 552.065 272.105 552.335 271.595 552.875C271.1 553.4 270.852 554.15 270.852 555.125V555.755H276.77L276.612 555.957ZM282.656 563V546.575H284.681V555.732H287.044L290.509 550.625H292.826L288.844 556.52L293.051 563H290.689L287.089 557.487H284.681V563H282.656ZM304.877 565.7C302.732 565.22 301.067 564.215 299.882 562.685C298.712 561.155 298.127 559.235 298.127 556.925V552.875C298.127 550.565 298.712 548.645 299.882 547.115C301.067 545.585 302.732 544.58 304.877 544.1V546.057C303.917 546.282 303.077 546.71 302.357 547.34C301.652 547.97 301.105 548.757 300.715 549.702C300.34 550.632 300.152 551.69 300.152 552.875V556.925C300.152 558.095 300.34 559.152 300.715 560.097C301.105 561.042 301.652 561.83 302.357 562.46C303.077 563.09 303.917 563.518 304.877 563.742V565.7ZM310.044 565.7V563.742C311.019 563.518 311.859 563.09 312.564 562.46C313.269 561.83 313.809 561.042 314.184 560.097C314.574 559.152 314.769 558.095 314.769 556.925V552.875C314.769 551.69 314.574 550.632 314.184 549.702C313.809 548.757 313.269 547.97 312.564 547.34C311.859 546.71 311.019 546.282 310.044 546.057V544.1C312.189 544.58 313.846 545.585 315.016 547.115C316.201 548.645 316.794 550.565 316.794 552.875V556.925C316.794 559.235 316.201 561.155 315.016 562.685C313.846 564.215 312.189 565.22 310.044 565.7Z" fill="white"/>
<path d="M231.25 376.25H316C323.594 376.25 329.75 382.406 329.75 390V400C329.75 407.594 323.594 413.75 316 413.75H245C237.406 413.75 231.25 407.594 231.25 400V376.25Z" fill="#0C7BDC"/>
<path d="M231.25 376.25H316C323.594 376.25 329.75 382.406 329.75 390V400C329.75 407.594 323.594 413.75 316 413.75H245C237.406 413.75 231.25 407.594 231.25 400V376.25Z" fill="black" fill-opacity="0.8"/>
<path d="M231.25 376.25H316C323.594 376.25 329.75 382.406 329.75 390V400C329.75 407.594 323.594 413.75 316 413.75H245C237.406 413.75 231.25 407.594 231.25 400V376.25Z" stroke="#0C7BDC" stroke-width="2.5"/>
<path d="M242.07 407.05V390.625H244.095V392.987H244.5L244.095 393.46C244.095 392.515 244.403 391.772 245.018 391.232C245.633 390.677 246.45 390.4 247.47 390.4C248.295 390.4 249.008 390.587 249.608 390.962C250.223 391.322 250.695 391.847 251.025 392.537C251.37 393.227 251.543 394.045 251.543 394.99V398.612C251.543 399.557 251.378 400.375 251.048 401.065C250.718 401.755 250.245 402.287 249.63 402.662C249.03 403.038 248.31 403.225 247.47 403.225C246.465 403.225 245.648 402.948 245.018 402.392C244.403 401.837 244.095 401.095 244.095 400.165L244.5 400.637H244.05L244.095 403.45V407.05H242.07ZM246.795 401.47C247.65 401.47 248.318 401.245 248.798 400.795C249.278 400.345 249.518 399.617 249.518 398.612V395.012C249.518 393.992 249.278 393.265 248.798 392.83C248.318 392.38 247.65 392.155 246.795 392.155C245.97 392.155 245.31 392.417 244.815 392.942C244.335 393.467 244.095 394.195 244.095 395.125V398.5C244.095 399.43 244.335 400.157 244.815 400.682C245.31 401.207 245.97 401.47 246.795 401.47ZM260.241 403.225C259.266 403.225 258.411 403.03 257.676 402.64C256.956 402.235 256.394 401.665 255.989 400.93C255.584 400.18 255.381 399.295 255.381 398.275V395.35C255.381 394.315 255.584 393.43 255.989 392.695C256.394 391.96 256.956 391.397 257.676 391.007C258.411 390.602 259.266 390.4 260.241 390.4C261.216 390.4 262.064 390.595 262.784 390.985C263.519 391.375 264.089 391.922 264.494 392.627C264.899 393.332 265.101 394.165 265.101 395.125V397.33H257.361V398.5C257.361 399.415 257.624 400.142 258.149 400.682C258.674 401.207 259.371 401.47 260.241 401.47C260.991 401.47 261.606 401.327 262.086 401.042C262.581 400.742 262.881 400.345 262.986 399.85H265.011C264.876 400.885 264.374 401.71 263.504 402.325C262.634 402.925 261.546 403.225 260.241 403.225ZM263.121 395.957V395.125C263.121 394.15 262.866 393.4 262.356 392.875C261.861 392.335 261.156 392.065 260.241 392.065C259.326 392.065 258.614 392.335 258.104 392.875C257.609 393.4 257.361 394.15 257.361 395.125V395.755H263.279L263.121 395.957ZM273.732 403.225C272.757 403.225 271.902 403.03 271.167 402.64C270.447 402.235 269.885 401.665 269.48 400.93C269.075 400.18 268.872 399.295 268.872 398.275V395.35C268.872 394.315 269.075 393.43 269.48 392.695C269.885 391.96 270.447 391.397 271.167 391.007C271.902 390.602 272.757 390.4 273.732 390.4C274.707 390.4 275.555 390.595 276.275 390.985C277.01 391.375 277.58 391.922 277.985 392.627C278.39 393.332 278.592 394.165 278.592 395.125V397.33H270.852V398.5C270.852 399.415 271.115 400.142 271.64 400.682C272.165 401.207 272.862 401.47 273.732 401.47C274.482 401.47 275.097 401.327 275.577 401.042C276.072 400.742 276.372 400.345 276.477 399.85H278.502C278.367 400.885 277.865 401.71 276.995 402.325C276.125 402.925 275.037 403.225 273.732 403.225ZM276.612 395.957V395.125C276.612 394.15 276.357 393.4 275.847 392.875C275.352 392.335 274.647 392.065 273.732 392.065C272.817 392.065 272.105 392.335 271.595 392.875C271.1 393.4 270.852 394.15 270.852 395.125V395.755H276.77L276.612 395.957ZM282.656 403V386.575H284.681V395.732H287.044L290.509 390.625H292.826L288.844 396.52L293.051 403H290.689L287.089 397.487H284.681V403H282.656ZM304.877 405.7C302.732 405.22 301.067 404.215 299.882 402.685C298.712 401.155 298.127 399.235 298.127 396.925V392.875C298.127 390.565 298.712 388.645 299.882 387.115C301.067 385.585 302.732 384.58 304.877 384.1V386.057C303.917 386.282 303.077 386.71 302.357 387.34C301.652 387.97 301.105 388.757 300.715 389.702C300.34 390.632 300.152 391.69 300.152 392.875V396.925C300.152 398.095 300.34 399.152 300.715 400.097C301.105 401.042 301.652 401.83 302.357 402.46C303.077 403.09 303.917 403.518 304.877 403.742V405.7ZM310.044 405.7V403.742C311.019 403.518 311.859 403.09 312.564 402.46C313.269 401.83 313.809 401.042 314.184 400.097C314.574 399.152 314.769 398.095 314.769 396.925V392.875C314.769 391.69 314.574 390.632 314.184 389.702C313.809 388.757 313.269 387.97 312.564 387.34C311.859 386.71 311.019 386.282 310.044 386.057V384.1C312.189 384.58 313.846 385.585 315.016 387.115C316.201 388.645 316.794 390.565 316.794 392.875V396.925C316.794 399.235 316.201 401.155 315.016 402.685C313.846 404.215 312.189 405.22 310.044 405.7Z" fill="white"/>
</svg>
